<?xml version="1.0" encoding="utf-8"?>
<!-- Generator: Adobe Illustrator 24.2.1, SVG Export Plug-In . SVG Version: 6.00 Build 0)  -->
<svg version="1.1" xmlns="http://www.w3.org/2000/svg" xmlns:xlink="http://www.w3.org/1999/xlink" x="0px" y="0px"
	 viewBox="0 0 800 400" style="enable-background:new 0 0 800 400;" xml:space="preserve">
<style type="text/css">
	.st0{fill-rule:evenodd;clip-rule:evenodd;fill:#4C2687;}
	.st1{fill:#CC3363;}
</style>
<g id="Background">
</g>
<g id="Signs">
	<g>
		<path class="st0" d="M554.09,217.17c0.34-0.34,0.59-0.61,0.68-0.82c4.97-6.19,7.94-14.03,7.94-22.56
			c0-19.92-16.2-36.12-36.12-36.12c-5.42,0-10.62,1.17-15.46,3.47c-0.7,0.34-1.63,0.55-2.41,0.55c-1.73,0-3.4-0.83-4.46-2.24
			c-1.57-2.11-1.44-5.06,0.31-7.01c5.89-6.62,9.13-15.14,9.13-24c0-19.92-16.2-36.12-36.12-36.12c-19.92,0-36.12,16.2-36.12,36.12
			c0,8.86,3.24,17.38,9.12,23.99c1.76,1.96,1.89,4.93,0.3,7.05c-1.04,1.38-2.7,2.21-4.43,2.21c-0.77,0-1.69-0.21-2.39-0.54
			c-4.86-2.31-10.07-3.48-15.49-3.48c-19.92,0-36.12,16.2-36.12,36.12c0,11.42,5.34,21.62,13.64,28.24c0,0,8.73,7.3,8.73,14.55
			c0,10.82-3.4,19.6,0.18,19.6c3.58,0,0.18-8.77,0.18-19.6c0-22.38,14.4-14.04,14.4,9.88c0,19.35-3.4,35.04,0.18,35.04
			c3.58,0,0.18-15.69,0.18-35.04c0-33.01,21.49-34.74,21.62-19.71c0.11,13.03-3.4,23.59,0.18,23.59c3.58,0,0.18-10.56,0.18-23.59
			c0-2.28,0.14-4.42,1.22-5.86c4.41-5.86,9.92-10.92,11.91-18.05c0.57-2.5,2.85-4.31,5.42-4.31c1.73,0,3.38,0.81,4.39,2.17
			c0.93,1.21,1.33,2.75,1.1,4.19c-3.13,26.91-5.92,48.38-10.77,58.73c5.72,7.59,12.7,12.68,12.11,21.05c-0.72,10.15-2.98,19,0.27,19
			c3.25,0,0.27-8.02,0.27-19.04c0-23.69,5.82-23.24,5.82-10.94c0,4.27-3.69,13.53,0.38,13.3c2.12-0.12,0.85-6.44,0.76-13.78
			c-0.07-5.51,4.58-8.87,5.13-9.58c-4.86-10.35-7.64-31.79-10.76-58.63c-0.25-1.53,0.14-3.05,1.09-4.29
			c1.04-1.36,2.69-2.17,4.4-2.17c2.65,0,4.88,1.78,5.4,4.27c2.52,9,9.7,15.17,16.57,21.41c1.12,1.02,2.07,1.99,2.07,4.1
			c0,7.34-1.28,14.11,0.85,14.11c2.13,0,0.5-6.23,0.5-13.61c0-27.63,20.19-10.66,19.79,9.41c-0.24,12.37-2.71,36.52,0.88,36.52
			c3.58,0,0.12-23.6,0.34-35.97c0.36-21.08,19.25-37.82,19.25-14.65c0,7.34-2.02,13.29,0.11,13.29c2.13,0,0.11-5.95,0.11-13.29
			c0-2.15,0.74-3.83,1.74-4.98C552.87,218.47,553.51,217.85,554.09,217.17z"/>
		<path class="st0" d="M182.74,214.09c7.83-7.67,12.09-17.82,12.01-28.57c-0.15-18.12-12.42-27.79-29.42-41.21
			c-3.36-2.65-6.83-5.38-10.41-8.35c-15.22-12.64-29.66-27.93-42.93-45.45c-13.27,17.52-27.71,32.8-42.93,45.45
			c-3.61,3-7.11,5.76-10.49,8.43c-16.94,13.36-29.17,23.02-29.33,41.13c-0.06,7.82,3.08,14.81,6.45,21.77
			c0.99,2.05,2.02,5.1,2.02,8.79c0,8.73-1.52,13.25,0.21,13.25c1.67,0,0.24-4.52,0.24-13.25c0-23.8,18.47,3.46,18.47,22.07
			c0,15.39-2.67,23.35,0.38,23.35c2.94,0,0.42-7.96,0.42-23.35c0-32.58,19.36-15.54,19.52,5.88c0.14,18.49-3.21,28.05,0.45,28.05
			c3.53,0,0.5-9.56,0.5-28.05c0-8.24,0.97-15.95,4.46-19.33c5.3-5.13,13.55-5.84,18.97-11.52l2.06-2.16
			c0.83-0.88,2.01-1.38,3.22-1.38c0.73,0,1.46,0.18,2.1,0.53c1.76,0.94,2.67,2.96,2.23,4.9l-0.66,2.91
			c-0.44,1.92-0.85,3.96-1.27,6.05c-1,4.91-2.03,9.98-3.42,13.76c-3.21,8.73-7.76,16.48-13.51,23.05c1.52,0.67,8.54,9.23,8.54,14.67
			c0,11.07-2.39,16.8,0.34,16.8c2.63,0,0.37-5.73,0.37-16.8c0-19.96,10.48-6.78,10.48,12.17c0,17-1.42,25.8,0.2,25.8
			c1.56,0,0.22-8.8,0.22-25.8c0-16.45,8.6-25.86,12.84-23.66c1.86,0.96,2.87,3.47,2.87,6.5c0,9.29-0.78,14.1,0.11,14.1
			c0.85,0,0.12-4.81,0.12-14.1c0-3.47,2.81-9.38,3.7-9.76c-5.71-6.55-10.23-14.27-13.43-22.96c-1.4-3.79-2.45-8.95-3.46-13.95
			l-0.09-0.46c-0.38-1.84-0.75-3.67-1.14-5.41l-0.66-2.91c-0.44-1.94,0.48-3.96,2.23-4.9c0.64-0.35,1.36-0.53,2.1-0.53
			c1.21,0,2.38,0.5,3.22,1.38l2.06,2.16c2.23,2.34,5.06,3.86,7.18,6.08c2.01,2.11,3.42,5.65,3.42,9.44
			c0,10.83-3.21,16.42,0.45,16.42c3.53,0,0.5-5.6,0.5-16.42c0-26.71,15.36-6.43,15.52,15.16c0.16,21.28-2.39,32.29,0.34,32.29
			c2.63,0,0.37-11.01,0.37-32.29c0-34.88,23.43-29.54,23.78-15.18c0.27,11.07-2.39,16.8,0.34,16.8c2.63,0,0.37-5.73,0.37-16.8
			c0-4.36,1.07-8.27,2.89-10.54C179.17,216.5,181.21,215.59,182.74,214.09z"/>
		<path class="st1" d="M758.96,165.96c3.35-21.79-3.29-50.52-33.83-54.95c-2.23-0.32-4.43-0.35-6.51-0.35
			c-28.64,0-40.64,35.63-40.64,35.63s-9.51-35.63-40.64-35.63c-2.08,0-4.24,0.02-6.36,0.33c-30.65,4.42-37.26,33.17-33.97,54.97
			c1.42,9.39,8.25,21.56,8.25,27.45c0,8.92-4.04,19.14,0.41,19.78c3.16,0.45-0.16-10.88,0.4-19.78c1.81-28.56,20.9-2.16,21.37,34.74
			c0.22,17.43-3.5,33.78,0.41,31.55c1.74-0.99,0.45-14.12,0.4-31.55c-0.09-37.56,19.59-12.42,19.21,15.81
			c-0.4,29.53-4.09,53.46,0.41,53.46c5.13,0,1.34-23.95,0.4-53.46c-1.04-32.78,27.59,4.17,29.07,37.69
			c1.07,24.1-6.29,43.67,0.63,43.67c7.9,0,0.62-19.55,0.62-43.67c0-27.54,15.51-46.85,18.69-32.53c3.24,14.56-0.77,28,2.75,28
			c3.92,0,0.73-12.92,0.45-27.83c-0.7-37.2,22.39-38.14,22.67-26.68c0.22,8.91-4.09,34.32,0.41,34.32c5.13,0,0.41-25.4,0.41-34.32
			c0-37.77,25.26-27.78,25.26-4.29c0,29.53-4.08,53.46,0.41,53.46c5.13,0,0.41-23.93,0.41-53.46
			C750.06,204.14,758.1,171.58,758.96,165.96z"/>
		<path class="st1" d="M355.3,185.88c0.06-0.04-33.76-32.2-61.53-96.5c-26.16,62.36-61.58,96.46-61.52,96.5
			c-0.01,0.01,8.39,9.76,8.39,25.55c0,13.21-3.62,23.93,0.23,23.93c3.88,0,0.23-10.72,0.23-23.93c0-23.31,18.65-4.72,18.65,37.31
			c0,22.36-3.62,40.5,0.24,40.5c3.88,0,0.23-18.13,0.23-40.5c0-38.89,17.63-15.5,17.63,10.95c0,11.24-1.82,20.34,0.12,20.34
			c1.95,0,0.12-9.11,0.12-20.34c0-37.91,15.28-26.24,15.28,18.56c0,23.4-6.42,42.37,0.41,42.37c6.88,0,0.87-18.97,0.41-42.37
			c-0.42-21.52,14.53-40.14,14.53-22.25c0,22.36-1.37,38.99,2.48,38.99c3.88,0,0.23-18.13,0.23-40.49
			c0-23.49,16.33-23.38,16.33-17.59c0,12.88-2.09,23.33,0.13,23.33c2.23,0,0.13-10.45,0.13-23.33c0-18.96,17.3-27.12,17.3-13.2
			c0,17.47-3.62,31.63,0.24,31.63c3.89,0,0.23-14.16,0.23-31.63C345.81,193.38,355.32,185.89,355.3,185.88z"/>
	</g>
</g>
</svg>
