<svg id="Layer_1" data-name="Layer 1" xmlns="http://www.w3.org/2000/svg" viewBox="0 0 160 160"><defs><style>.cls-1,.cls-3{fill:#fff;}.cls-1,.cls-2,.cls-4,.cls-5,.cls-6,.cls-7,.cls-8{fill-rule:evenodd;}.cls-2{fill:#01031c;}.cls-4{fill:#a2b9be;}.cls-5{fill:#ffbf01;}.cls-6{fill:#f87700;}.cls-7{fill:#a00003;}.cls-8{fill:red;}</style></defs><path class="cls-1" d="M25,142.48c5.47-1.37,12.7-3.12,20.16-4.48a2.19,2.19,0,0,1,.36,0,2,2,0,0,1,1.36.54,73,73,0,0,0,32.58,18.06l.55.14.53-.14a73,73,0,0,0,32.62-18.06,2,2,0,0,1,1.72-.51c5.91,1.08,12.12,2.46,20.16,4.47l2.78.71v-41a2,2,0,0,1,.33-1.09L146.69,88h-11a2,2,0,0,1-2-1.82,10.35,10.35,0,0,0-1.61-4.7l0,0a2,2,0,0,1-.36-1.08l0-1.23a28.8,28.8,0,0,1,.81-9.17l1.62-5.37a2,2,0,0,1-.47-1.8,89.41,89.41,0,0,1,6.68-18.56L141.37,42l-1-2.23c-1.12-2.58-.93-6.08.55-10.41l7.38-21.56-16.17,16c-1.55,1.51-3,3.08-4.33,4.55a2,2,0,0,1-1.68.64,2,2,0,0,1-1.52-1,12.08,12.08,0,0,0-9.43-5.94,19.83,19.83,0,0,0-10.3,1.64,2,2,0,0,1-2.37-.57L101,21.36a79.78,79.78,0,0,0-9.15-9.73A69.69,69.69,0,0,0,81.13,3.94L80,3.29,78.88,4a69.31,69.31,0,0,0-10.73,7.69A77,77,0,0,0,59,21.35l-1.53,1.89a2,2,0,0,1-2.37.57,19.87,19.87,0,0,0-10.29-1.64,12.23,12.23,0,0,0-9.49,5.95,2,2,0,0,1-1.53,1,2,2,0,0,1-1.67-.67c-1.38-1.55-2.83-3.08-4.31-4.52l-16.16-16,7.4,21.54c1.47,4.3,1.65,7.8.52,10.4L18.65,42l1.05,2.19a88.55,88.55,0,0,1,6.64,18.56,2,2,0,0,1-.46,1.79l1.65,5.37a28.86,28.86,0,0,1,.78,9.2l0,1.21a1.94,1.94,0,0,1-.33,1,.8.8,0,0,1-.09.14,11.11,11.11,0,0,0-1.57,4.69,2,2,0,0,1-2,1.78h-11l8.55,13.07a2,2,0,0,1,.32,1.09v41Z"/><path class="cls-2" d="M46.88,135.38c-7.25,1.26-14.26,2.89-22.45,4.91v-39.4l-7-10.62H34.36L80,66.84l45.65,23.43h16.86l-7,10.62v39.4c-8.15-2-15.15-3.65-22.41-4.91-9.49,9.29-20.28,15.8-33.13,19-12.88-3.21-23.67-9.72-33.13-19Z"/><path class="cls-3" d="M50.42,129c-1.56-1.63-3.11-3.29-4.62-5s-3.07-3.4-4.59-5.13c-1.19,1.59-2.38,3.18-3.57,4.8v4.92c1.08.69,2.13,1.37,3.21,2-3.61.76-7.22,1.56-10.79,2.46V98.73c-1.08-.94-2.13-1.88-3.21-2.86H37.64V110.8c1.73-2.17,3.43-4.3,5.16-6.36s3.47-4,5.2-6c-.76-.83-1.52-1.7-2.28-2.57H59.66c-2.46,2.68-4.91,5.35-7.33,8.13s-4.91,5.71-7.33,8.68c1.88,2.24,3.76,4.48,5.63,6.69s3.79,4.26,5.67,6.39c1.55.65,3.07,1.27,4.62,2q-5.25.54-10.5,1.3Zm82.72-33.15h-21c-1.3.87-2.6,1.7-3.9,2.53v27.87c1.3,1,2.6,2.06,3.9,3.11,5.92,1.05,11.83,2.31,17.75,3.68V113c-3.71.79-7.43,1.55-11.15,2.31,1.16.51,2.31,1.09,3.5,1.63v9.18q-3.19-.6-6.39-1.08V100.82l6.39.22v9.07c2.53-.54,5.09-1.12,7.65-1.66V98.73c1.05-.94,2.13-1.88,3.22-2.86Zm-31.51,29.64c1.15.94,2.31,1.88,3.46,2.86-3.71-.44-7.4-.8-11.11-1.12V114.49q-2.06-2.71-4.15-5.43c-1.37-1.77-2.75-3.57-4.15-5.31v10.37c0,3.44,0,6.91,0,10.38,1.05.79,2.13,1.63,3.18,2.49-3.57-.14-7.18-.21-10.79-.18V98.26c-1-.8-2.13-1.59-3.18-2.39H87.66c1,1.48,2.13,2.93,3.18,4.37s2.09,3,3.14,4.45v-6.4c-1.09-.79-2.13-1.62-3.18-2.42h10.83v29.64Zm-29.92-.94,3.21,2.28c-3.61.14-7.22.32-10.79.58V98.29c-1.08-.79-2.13-1.59-3.21-2.42H71.71v28.7Z"/><path class="cls-4" d="M30.89,114.81V132c2.6-.62,5.2-1.2,7.8-1.77-.51-.29-1-.62-1.48-.94l-.4-.26v-5.64l.18-.21c1.16-1.59,2.35-3.22,3.54-4.81l.61-.8.69.76c1.51,1.74,3,3.44,4.58,5.14s2.85,3.1,4.3,4.62c2.31-.32,4.65-.61,7-.86-.54-.26-1.12-.51-1.7-.73l-.14-.07-.14-.14c-1.88-2.14-3.79-4.27-5.67-6.4s-3.79-4.45-5.67-6.69l-.25-.29q-6.83.81-13.21,1.88ZM80,110.87c1.66,0,3.29,0,4.88,0v3.21c0,3.44,0,6.91,0,10.38v.4l.33.25c.39.32.79.61,1.19.94q-3.74-.11-7.47-.11V110.91a9.39,9.39,0,0,1,1,0Zm12.49.25q4.23.16,8.34.44v14.35l.29.25c.43.36.86.69,1.3,1-2.53-.25-5.06-.51-7.58-.72V114.23l-.18-.25-2.17-2.86Zm16.64,1.09c2,.18,4,.4,6,.61v13l.69.11c2.13.32,4.26.68,6.35,1.08l1,.18V116.44l-.47-.22c-.39-.18-.79-.36-1.22-.54l5.66-1.19,2,.32V132c-5.48-1.27-11-2.42-16.56-3.4-1.12-.94-2.28-1.84-3.43-2.75V112.21Zm-44.14-1,5.92-.21v14l.36.26,1.19.87c-2.49.1-5,.25-7.47.39V111.23Z"/><path class="cls-5" d="M80,145l-4.08,2.68,1.3-4.7-3.79-3,4.84-.21L80,135.16l1.7,4.56,4.87.21-3.83,3,1.3,4.7Zm22.85-11.45-.58,1.51-1.63.08,1.27,1-.44,1.59,1.38-.91,1.37.91-.47-1.59,1.3-1-1.63-.08Zm-9,2-1,2.67-2.85.15,2.24,1.81-.76,2.74,2.38-1.59,2.38,1.59-.76-2.74,2.24-1.81-2.85-.15Zm-36.7-2,.57,1.51,1.63.08-1.3,1,.43,1.59-1.33-.91-1.38.91.44-1.59-1.27-1,1.63-.08Zm9,2,1,2.67,2.88.15-2.23,1.81.75,2.74-2.41-1.59-2.39,1.59.76-2.74-2.24-1.81,2.89-.15Z"/><path class="cls-2" d="M80,86c-10.14.11-20.53.5-30.64,1.63A89.43,89.43,0,0,0,38.58,89.4c-5,1.23-6.17,2.24-8.48,5.68-1.27-3.48-2.78-8.57-.33-12.37a10.2,10.2,0,0,1,.69-.9l.11-2.6a30.61,30.61,0,0,0-.91-9.91l-.9-3,.51-.15-.07-.47c-.08-.43-.11-.86-.18-1.3a89.71,89.71,0,0,0-7.3-21.18L21.11,42l.54-1.27c1.63-3.79.83-8.28-.47-12.07l-4.26-12.4,9.32,9.22a85.9,85.9,0,0,1,8.91,10.19l.54-2.39c1.16-4.84,4.3-8.31,9.38-8.85a17.19,17.19,0,0,1,12,3.14,23.74,23.74,0,0,1,4.62,4.34,26.78,26.78,0,0,0-1.44-6.11l-.61-1.66,1.11-1.37A65.66,65.66,0,0,1,80,5.9,66.17,66.17,0,0,1,99.25,22.75l1.08,1.37-.61,1.66a28.45,28.45,0,0,0-1.45,6.11,24.24,24.24,0,0,1,4.66-4.34,17.15,17.15,0,0,1,12-3.14c5.08.54,8.22,4,9.38,8.85l.54,2.39a88.46,88.46,0,0,1,8.88-10.19l9.35-9.22-4.26,12.4c-1.3,3.79-2.13,8.28-.51,12.07l.54,1.27-.57,1.26A87.92,87.92,0,0,0,131,64.42a11.93,11.93,0,0,0-.18,1.3l-.08.47.47.15-.9,3a31.46,31.46,0,0,0-.9,9.91l.11,2.6a10.51,10.51,0,0,1,.72.9c2.42,3.8.9,8.89-.36,12.37-2.31-3.44-3.5-4.45-8.48-5.68a89.75,89.75,0,0,0-10.79-1.73C100.55,86.54,90.15,86.15,80,86Zm42.3-46.63c-1.59-3-3.86-5.35-7.47-3.58a6.69,6.69,0,0,0-2.46,2.24l4.84-1.66c-3.07,4.19-6.21,10.3-2.38,15.47,1.22,1.7,3.68,3.54,5.88,3.07a2.87,2.87,0,0,0,1.66-1,17.54,17.54,0,0,0-.87-10.7l-.61-1.45.79-1.33c.22-.36.4-.69.62-1.05Zm-84.63,0c1.58-3,3.86-5.35,7.47-3.58a6.37,6.37,0,0,1,2.45,2.24l-4.83-1.66c3.1,4.19,6.2,10.3,2.41,15.47-1.26,1.7-3.68,3.54-5.88,3.07a3.11,3.11,0,0,1-1.7-1,17.55,17.55,0,0,1,.91-10.7l.61-1.45-.79-1.33c-.22-.36-.44-.69-.65-1.05Z"/><path class="cls-5" d="M33.63,79.35a34.37,34.37,0,0,0-1-10.95c16.57-5,32-7.56,47.39-7.56s30.79,2.53,47.39,7.56a34.23,34.23,0,0,0-1.05,10.95c-9.67-3.94-28-6-46.34-6s-36.7,2.1-46.38,6Zm65-31.74-1.77,1-1.8,1v4.15l1.8,1.05,1.77,1,1.81-1,1.77-1.05V49.68l-1.77-1Zm-37.28,0,1.81,1,1.8,1v4.15l-1.8,1.05-1.81,1-1.77-1-1.8-1.05V49.68l1.8-1ZM80,55.17l-2.6-1.52-2.6-1.48v-6l2.6-1.48L80,43.13l2.6,1.52,2.6,1.48v6l-2.6,1.48Zm23.86-14.42c1.3.36,2,2.09,2.13,5.17.75-7.27,3.53-12,8.3-14.17a15.11,15.11,0,0,0-10.43,9Zm-13-12c-.07-4.56-2.53-9.22-7.44-14.06a43,43,0,0,1,10.36,10A55.5,55.5,0,0,0,92,43a71.54,71.54,0,0,1-1.19-14.24Zm37.35,12.14c2,1,2.45,4.74,1.3,11.1a50.21,50.21,0,0,1,3.86-9.69,14.08,14.08,0,0,1-.54-8,55.91,55.91,0,0,0-4.62,6.58Zm-4.87,31.2a41,41,0,0,0,2.13,6,28.36,28.36,0,0,1,.68-9.22,164.36,164.36,0,0,0-19.23-4.59c7.54,1.81,13,4.45,16.42,7.85Zm-1.23,12.58c2,0,2.56-.8,1.66-2.39,2.82,1.19,4.08,3.07,3.83,5.64-2.46-1.66-7.47-2.93-15-3.76a60.36,60.36,0,0,1,9.53.51ZM80,9.44c5.77,3.4,11.4,8.46,16.85,15.26-1.69,4.48-2.34,10.84-2,19.19,2.75-6.43,6-11,9.82-13.84a15.91,15.91,0,0,1,10-2.61c3.57.58,5.81,2.75,6.71,6.55-1.87-1.92-4.47-2.21-7.83-.91-3.46,2.06-5.56,5.82-6.31,11.25.65-1,2-1.88,4.11-2.61-5.38,11.24,8.45,21.51,13.93,13.56a20.89,20.89,0,0,0-.9-13.27,73.58,73.58,0,0,1,11.58-14.35q-2.86,8.46-.39,14.24A107.79,107.79,0,0,0,128,63.81c-.11.54-.18,1-.25,1.44-18.62-5.31-33.21-8-47.75-8s-29.12,2.64-47.78,8c-.08-.43-.15-.9-.22-1.44A109.65,109.65,0,0,0,24.5,41.9q2.49-5.79-.43-14.24A71.14,71.14,0,0,1,35.66,42a21.1,21.1,0,0,0-.91,13.27c5.49,7.95,19.31-2.32,14-13.56,2.09.73,3.46,1.59,4.11,2.61-.75-5.43-2.85-9.19-6.31-11.25-3.36-1.3-6-1-7.83.91.86-3.8,3.1-6,6.71-6.55a15.79,15.79,0,0,1,9.92,2.61c3.83,2.82,7.08,7.41,9.86,13.84.32-8.35-.36-14.71-2-19.19C68.61,17.9,74.2,12.84,80,9.44Zm0,67.34c14,.15,28.29,1.34,38.58,3.4,5.74,1.16,11,2.89,9.6,8.79-3.72-3.8-25.91-5.79-48.18-6-22.3.21-44.46,2.2-48.22,6-1.37-5.9,3.87-7.63,9.6-8.79C51.68,78.12,66,76.93,80,76.78Zm-23.89-36c-1.26.36-2,2.09-2.09,5.17-.76-7.27-3.54-12-8.34-14.17a15,15,0,0,1,10.43,9Zm13.06-12c0-4.56,2.53-9.22,7.4-14.06a43,43,0,0,0-10.32,10A54.5,54.5,0,0,1,68,43a74,74,0,0,0,1.22-14.24ZM31.79,40.89c-2,1-2.41,4.74-1.29,11.1a47.81,47.81,0,0,0-3.87-9.69,13.42,13.42,0,0,0,.54-8,50.52,50.52,0,0,1,4.62,6.58Zm4.88,31.2a40.24,40.24,0,0,1-2.1,6,28.16,28.16,0,0,0-.72-9.22,164.92,164.92,0,0,1,19.27-4.59c-7.58,1.81-13.06,4.45-16.45,7.85Zm1.22,12.58q-3,0-1.62-2.39c-2.82,1.19-4.08,3.07-3.83,5.64,2.46-1.66,7.47-2.93,15-3.76a60.84,60.84,0,0,0-9.57.51Z"/><path class="cls-1" d="M72.61,61.06c2.46-.14,5-.22,7.4-.22s4.91.08,7.4.22c-4.12,2.75-3.21,9.15-.36,10.63,7.61,1.08,16.42,2,26.52,4.26A196.83,196.83,0,0,0,80,73.31,197.06,197.06,0,0,0,46.41,76c10.11-2.24,19-3.18,26.53-4.26,2.88-1.48,3.75-7.88-.33-10.63Zm28.26-4.77a137.93,137.93,0,0,1,17.68,3.94c-7.75-2.35-12.16-5.31-13.17-8.93a3.56,3.56,0,0,0-1.73-1.81v5.17l-2.49,1.45ZM80,14.07c3.43,5.71,2.82,11.89,3.21,18.15.44,5.71,3.43,8.38,4.66,12.65l-1.52,5.35V45.48l-3.17-1.84L80,41.79l-3.18,1.85-3.21,1.84v4.74l-1.48-5.35c1.23-4.27,4.23-6.94,4.66-12.65C77.2,26,76.55,19.78,80,14.07ZM80,83c3.57,0,7.15.1,10.65.25h0c-13.61-1.63-3.86-6.29,7-5.68C92,77.11,86,76.86,80,76.78c-6,.08-12,.33-17.72.76,10.9-.61,20.64,4,7,5.68h0C72.83,83.07,76.4,83,80,83ZM135.52,41.9l-2.17.4a14.08,14.08,0,0,1-.54-8c1.34-3,2.35-5.24,3.1-6.65q-2.86,8.46-.39,14.24ZM96.86,24.7h-3.1a47.31,47.31,0,0,0-10.9-13.41,65.88,65.88,0,0,1,14,13.41ZM121.33,34c-1.62-2-3.93-2.68-7-2.24a15.11,15.11,0,0,0-10.43,9l-9,3.14c2.75-6.43,6-11,9.82-13.84a15.91,15.91,0,0,1,10-2.61c3.57.58,5.81,2.75,6.71,6.55ZM59.15,56.29a138.74,138.74,0,0,0-17.72,3.94c7.8-2.35,12.2-5.31,13.21-8.93a3.64,3.64,0,0,1,1.7-1.81v5.17l2.52,1.45ZM24.5,41.9l2.13.4a13.42,13.42,0,0,0,.54-8c-1.29-3-2.34-5.24-3.1-6.65Q27,36.12,24.5,41.9ZM63.16,24.7h3.1A47.31,47.31,0,0,1,77.12,11.29a66.71,66.71,0,0,0-14,13.41ZM38.69,34c1.59-2,3.93-2.68,7-2.24a15,15,0,0,1,10.43,9s3,1,9.06,3.14c-2.78-6.43-6-11-9.86-13.84a15.79,15.79,0,0,0-9.92-2.61c-3.61.58-5.85,2.75-6.71,6.55Z"/><path class="cls-6" d="M33.63,79.35a34.37,34.37,0,0,0-1-10.95,168.43,168.43,0,0,1,35.59-7.05q-13.69,3.69-20.75,8A11.44,11.44,0,0,0,46.41,76a66,66,0,0,0-12.78,3.4Zm92.72,0A34.23,34.23,0,0,1,127.4,68.4a169.29,169.29,0,0,0-35.59-7.05q13.69,3.69,20.75,8a11.43,11.43,0,0,1,1,6.58,65,65,0,0,1,12.78,3.4ZM92,43C86.69,32.9,90,24.34,83.4,14.69c4.91,4.84,7.37,9.5,7.44,14.06A71.54,71.54,0,0,0,92,43Zm33.2,12.29s1.45-1.09,4.26-3.29c1.15-6.36.72-10.09-1.3-11.1L124.33,42a20.89,20.89,0,0,1,.9,13.27Zm-18-11c.75,8.09,4.54,12.61,11.4,13.62h0c-5.56-1.15-11-8.46-7.29-16.23-2.09.73-3.46,1.59-4.11,2.61Zm-7.08,33.39c8,1.2,13,2.17,14.94,3,.18,1.34-.83,2-3,2.06-6.71-.22-11.55.07-14.47.79,15.26.84,27.89,2.64,30.6,5.43,1.41-5.9-3.86-7.63-9.6-8.79a172.33,172.33,0,0,0-18.48-2.46Zm23.21-5.63a41,41,0,0,0,2.13,6,28.36,28.36,0,0,1,.68-9.22,164.36,164.36,0,0,0-19.23-4.59c7.54,1.81,13,4.45,16.42,7.85Zm-1.23,12.58c2,0,2.56-.8,1.66-2.39,2.82,1.19,4.08,3.07,3.83,5.64-2.46-1.66-7.47-2.93-15-3.76a60.36,60.36,0,0,1,9.53.51ZM68,43c5.34-10.09,2.09-18.65,8.62-28.3-4.87,4.84-7.36,9.5-7.4,14.06A74,74,0,0,1,68,43ZM34.75,55.28,30.5,52c-1.12-6.36-.69-10.09,1.29-11.1,0,0,1.3.36,3.87,1.12a21.1,21.1,0,0,0-.91,13.27Zm18.08-11c-.75,8.09-4.54,12.61-11.4,13.62h0c5.52-1.15,11-8.46,7.29-16.23,2.09.73,3.46,1.59,4.11,2.61Zm7.08,33.39c-8,1.2-13,2.17-15,3-.18,1.34.83,2,3,2.06,6.68-.22,11.52.07,14.47.79-15.3.84-27.89,2.64-30.64,5.43-1.37-5.9,3.87-7.63,9.6-8.79a173.17,173.17,0,0,1,18.52-2.46ZM36.67,72.09a40.24,40.24,0,0,1-2.1,6,28.16,28.16,0,0,0-.72-9.22,164.92,164.92,0,0,1,19.27-4.59c-7.58,1.81-13.06,4.45-16.45,7.85Zm1.22,12.58q-3,0-1.62-2.39c-2.82,1.19-4.08,3.07-3.83,5.64,2.46-1.66,7.47-2.93,15-3.76a60.84,60.84,0,0,0-9.57.51Z"/><polygon class="cls-7" points="80.01 52.67 78.46 51.81 76.94 50.9 76.94 49.13 76.94 47.36 78.46 46.49 80.01 45.59 81.53 46.49 83.08 47.36 83.08 49.13 83.08 50.9 81.53 51.81 80.01 52.67"/><polygon class="cls-7" points="61.35 49.39 62.4 49.96 63.45 50.58 63.45 51.77 63.45 52.96 62.4 53.54 61.35 54.16 60.34 53.54 59.29 52.96 59.29 51.77 59.29 50.58 60.34 49.96 61.35 49.39"/><polygon class="cls-7" points="98.63 49.39 99.68 49.96 100.69 50.58 100.69 51.77 100.69 52.96 99.68 53.54 98.63 54.16 97.62 53.54 96.58 52.96 96.58 51.77 96.58 50.58 97.62 49.96 98.63 49.39"/><path class="cls-1" d="M61.35,47.61l-3.57,2.07,1.51.9,2.06-1.19Zm33.71,2.07,3.57-2.07v1.78l-2,1.19ZM74.81,46.13l5.2-3v2.46l-3.07,1.77Z"/><path class="cls-8" d="M98.63,50.51l.54.32.55.29v1.27l-.55.29-.54.32-.54-.32-.54-.29V51.12l.54-.29Zm-37.28,0,.54.32.54.29v1.27l-.54.29-.54.32-.54-.32-.5-.29V51.12l.5-.29ZM80,51.27l-.9-.55-.94-.5V48.08l.94-.5L80,47l.9.54.91.5v2.14l-.91.5Z"/></svg>