<svg id="Layer_1" data-name="Layer 1" xmlns="http://www.w3.org/2000/svg" xmlns:xlink="http://www.w3.org/1999/xlink" viewBox="0 0 160 160"><defs><style>.cls-1{fill:#fff;}.cls-2{fill:#e9eaf0;}.cls-3{fill:#dbdce6;}.cls-4{fill:#a4a5c0;}.cls-5{fill:#a6a5c2;}.cls-6{fill:#f7a27a;}.cls-7{fill:#c15545;}.cls-8{fill:#f9c8ae;}.cls-9{fill:#70767d;}.cls-10{fill:#383b3f;}.cls-11{fill:#ecf0f4;}.cls-12{fill:#a70054;}.cls-13{fill:#dc99bb;}.cls-14{fill:#75002d;}.cls-15{fill:red;}.cls-16{fill:#e1e1e1;}.cls-17{fill:url(#linear-gradient);}.cls-18{fill:url(#linear-gradient-2);}.cls-19{fill:url(#linear-gradient-3);}.cls-20{fill:url(#linear-gradient-4);}.cls-21{fill:url(#linear-gradient-5);}.cls-22{fill:url(#linear-gradient-6);}.cls-23{fill:url(#linear-gradient-7);}.cls-24{fill:url(#linear-gradient-8);}.cls-25{fill:url(#linear-gradient-9);}.cls-26{fill:url(#linear-gradient-10);}.cls-27{fill:url(#linear-gradient-11);}</style><linearGradient id="linear-gradient" x1="12.22" y1="140.3" x2="12.07" y2="148.15" gradientUnits="userSpaceOnUse"><stop offset="0" stop-color="#70767d"/><stop offset="1" stop-color="red"/></linearGradient><linearGradient id="linear-gradient-2" x1="20.45" y1="139.44" x2="20.68" y2="147.48" xlink:href="#linear-gradient"/><linearGradient id="linear-gradient-3" x1="28.69" y1="139.2" x2="28.92" y2="147.25" xlink:href="#linear-gradient"/><linearGradient id="linear-gradient-4" x1="42.76" y1="138.79" x2="42.99" y2="146.84" xlink:href="#linear-gradient"/><linearGradient id="linear-gradient-5" x1="62.4" y1="139.89" x2="62.6" y2="146.13" xlink:href="#linear-gradient"/><linearGradient id="linear-gradient-6" x1="77.71" y1="139.14" x2="78.01" y2="144.79" xlink:href="#linear-gradient"/><linearGradient id="linear-gradient-7" x1="93.47" y1="138.14" x2="93.32" y2="145.78" xlink:href="#linear-gradient"/><linearGradient id="linear-gradient-8" x1="108.94" y1="138.44" x2="108.79" y2="146.09" xlink:href="#linear-gradient"/><linearGradient id="linear-gradient-9" x1="122.87" y1="138.98" x2="123.5" y2="146.8" xlink:href="#linear-gradient"/><linearGradient id="linear-gradient-10" x1="137.12" y1="139.32" x2="137.72" y2="146.66" xlink:href="#linear-gradient"/><linearGradient id="linear-gradient-11" x1="146.41" y1="139.78" x2="146.41" y2="149.87" xlink:href="#linear-gradient"/></defs><path class="cls-1" d="M157.75,150.45V114.82h-6.58l-5.68,0H124.1a21.17,21.17,0,0,0,3.71-1.81,15.74,15.74,0,0,0,4.36-3.72,33.38,33.38,0,0,0,4.91-8.67,70,70,0,0,0,3.14-10,7.83,7.83,0,0,0,2-6,8,8,0,0,0-.32-1.59,8,8,0,0,1,.69-1.26,32.93,32.93,0,0,0,3.77-9,36.37,36.37,0,0,0,1.27-7.21,36.34,36.34,0,0,1,.92-6.32c.17-.7.37-1.44.56-2.15a28.26,28.26,0,0,0,1-4.71,10.8,10.8,0,0,0-.25-3.92,6.18,6.18,0,0,0-4.35-4.5l2.94-7.65-6.58-2.53,2.4-6.62-6.6-2.39,2.48-6.83-21.23-7.69-9.18,25.32c-1.19-.35-2.48-.67-3.86-1-.18-.9-.38-1.95-.57-2.93h0c-1.08-5.57-2.71-14-3.91-18.07A13.72,13.72,0,0,0,95.81,6a21.72,21.72,0,0,0-7.27-3.09A39,39,0,0,0,80,2.08a39,39,0,0,0-8.54.78A21.72,21.72,0,0,0,64.19,6a13.72,13.72,0,0,0-5.61,7.58c-1.2,4.08-2.83,12.5-3.91,18.08-.19,1-.39,2-.57,2.93-1.38.3-2.67.62-3.86,1L41.06,10.19,19.83,17.88l2.48,6.83-6.6,2.39,2.4,6.62-6.58,2.53,2.94,7.65a6.18,6.18,0,0,0-4.35,4.5,10.8,10.8,0,0,0-.25,3.92,27.29,27.29,0,0,0,1,4.71c.19.71.39,1.45.56,2.15a36.34,36.34,0,0,1,.92,6.32,36.37,36.37,0,0,0,1.27,7.21,32.93,32.93,0,0,0,3.77,9,8,8,0,0,1,.69,1.26,8,8,0,0,0-.32,1.59,7.83,7.83,0,0,0,2,6,70,70,0,0,0,3.14,10,33.38,33.38,0,0,0,4.91,8.67,15.43,15.43,0,0,0,4.36,3.72c.9.5,1.85,1.23,2.82,1.81H18.61l-9.78,0H2.25v43.09L9.66,157c2.59-.32,3.87-.47,6.5-.77l1.24-.14,1.51-.16c1.85-.2,2.75-.29,4.62-.47l1.25-.13,1.35-.13c2.57-.24,3.85-.35,6.52-.58l.5,0,.8-.06c3.13-.26,4.65-.37,7.72-.57l1.93-.13,1.59-.1c3.07-.19,4.57-.27,7.62-.41l12.25-.46,1.5,0c1.93,0,2.85-.06,4.71-.09l1.36,0,1.53,0,5.32,0H83.8l18.94.44,2.06.09c3,.13,4.5.2,7.47.37l.48,0,.83.05c3.08.18,4.6.28,7.72.5l1.63.12,1.89.15c3.05.24,4.55.37,7.62.65l.49,0,.78.08c2.52.23,3.74.36,6.23.62l1.91.2,2,.22c2.63.29,3.91.45,6.52.77l7.41.92Z"/><path d="M154.35,150.45V118.21H104l.3-3.25c.46-.38,1.11-.92,1.8-1.57a11,11,0,0,0,3.14-4.27,23.94,23.94,0,0,0,.73-4.29c.46.5.94,1,1.42,1.42a19.69,19.69,0,0,0,4.7,3.26,14.66,14.66,0,0,0,6.44,1.52c2.55,0,4.93-1.31,7.07-3.89a30,30,0,0,0,4.38-7.78,67.86,67.86,0,0,0,3.19-10.47,4.55,4.55,0,0,0,1.73-4,4.92,4.92,0,0,0-.51-1.76,9.21,9.21,0,0,1,1.42-3.26,29.37,29.37,0,0,0,3.34-8,32.3,32.3,0,0,0,1.15-6.43,40,40,0,0,1,1-7c.18-.77.39-1.53.59-2.27a24.28,24.28,0,0,0,.9-4.12,7.89,7.89,0,0,0-.14-2.72,2.77,2.77,0,0,0-2-2.12l-.07,0h-.06a2,2,0,0,0-.41,0,3,3,0,0,0-2,.82,7.6,7.6,0,0,0-1.42,1.83,29.37,29.37,0,0,0-2.14,4.94c-.2.6-.41,1.22-.61,1.88-.12-.51-.29-1.15-.36-1.43l6.5-16.94-6.53-2.51,2.38-6.57-6.59-2.39,2.47-6.83L121,14.54l-7.22,19.91,6.6,2.39-2,5.51,6.34,2.3L122.26,51l3.93,1.51a1.92,1.92,0,0,0-1.87,1.17A2.63,2.63,0,0,0,122.46,55c-.82,1.32-1.1,3.63-.84,6.89l.09,1a18.22,18.22,0,0,1,.08,4.06,22,22,0,0,0-.3,7.4,8.49,8.49,0,0,0,.37,1.43,8.69,8.69,0,0,0-.54,1.51c-.07.28-.16.69-.23,1.16a13.12,13.12,0,0,0-.78,2.29,6.77,6.77,0,0,0,0,3.64,16.27,16.27,0,0,1-.69,3.85l-2.13-3.89h0c-2.56-4.7-5.45-10-6.6-11.49a12.17,12.17,0,0,0-3.51-2.55c-1.32-.73-3-1.57-5-2.49-2.52-1.16-4.95-2.16-6-2.6-.27-.74-.5-1.37-.66-1.83a8.42,8.42,0,0,0,2.72-3.88c.07-.23.15-.47.24-.73a3.44,3.44,0,0,0,1.34.29l.39,0A3.88,3.88,0,0,0,103,57c.29-.5.51-.91.7-1.27a8,8,0,0,1,1.4-2.09l0,0,0,0a6.89,6.89,0,0,0,1.38-5.32,7.62,7.62,0,0,0-.18-.93c2.07-.29,3.94-.58,5.45-.86,1.3-.24,2.34-.47,3.09-.68,1-.27,1.84-.58,2.18-1.41a1.6,1.6,0,0,0-.42-1.78c-2.41-2.17-7-3.9-13.69-5.14-.19-.83-.61-3-1-5.17h0c-1.07-5.51-2.68-13.83-3.83-17.77a10.43,10.43,0,0,0-4.27-5.73,18.64,18.64,0,0,0-6.15-2.59A36.41,36.41,0,0,0,80,5.48a36.41,36.41,0,0,0-7.74.68,18.64,18.64,0,0,0-6.15,2.59,10.43,10.43,0,0,0-4.27,5.73C60.69,18.42,59.07,26.74,58,32.25c-.42,2.14-.84,4.35-1,5.18-6.67,1.24-11.28,3-13.69,5.14a1.6,1.6,0,0,0-.42,1.78c.34.83,1.23,1.14,2.18,1.41.75.21,1.79.44,3.09.68,1.51.28,3.38.57,5.45.86a7.62,7.62,0,0,0-.18.93,6.89,6.89,0,0,0,1.38,5.32l0,0,0,0a8,8,0,0,1,1.4,2.09c.19.36.41.77.7,1.27A3.88,3.88,0,0,0,59.66,59l.39,0a3.44,3.44,0,0,0,1.34-.29c.09.26.17.5.24.73a8.42,8.42,0,0,0,2.72,3.88c-.16.46-.39,1.09-.67,1.83-1.08.44-3.51,1.44-6,2.6-2,.92-3.71,1.76-5,2.49a12.17,12.17,0,0,0-3.51,2.55c-1.15,1.46-4,6.78-6.6,11.49l-2.13,3.89a16.27,16.27,0,0,1-.69-3.85,6.77,6.77,0,0,0,0-3.64,13.12,13.12,0,0,0-.78-2.29c-.07-.47-.16-.88-.23-1.16a8.69,8.69,0,0,0-.54-1.51,8.49,8.49,0,0,0,.37-1.43,22.27,22.27,0,0,0-.3-7.4,18.22,18.22,0,0,1,.08-4.06l.09-1c.26-3.26,0-5.57-.84-6.89a2.63,2.63,0,0,0-1.86-1.31,1.92,1.92,0,0,0-1.87-1.17L37.74,51,35.3,44.65l6.34-2.3-2-5.51,6.6-2.39L39,14.54,24.19,19.91l2.47,6.83-6.59,2.39,2.38,6.57-6.53,2.51,6.5,16.94c-.07.28-.24.92-.36,1.43-.2-.66-.41-1.28-.61-1.88a28.49,28.49,0,0,0-2.15-4.94,7.59,7.59,0,0,0-1.41-1.83,3,3,0,0,0-2-.82,1.9,1.9,0,0,0-.41,0h-.07l-.06,0a2.77,2.77,0,0,0-2,2.12A7.89,7.89,0,0,0,13.25,52a24.28,24.28,0,0,0,.9,4.12c.2.74.41,1.5.59,2.27a40,40,0,0,1,1,7,32.3,32.3,0,0,0,1.15,6.43,29.32,29.32,0,0,0,3.33,8,9.1,9.1,0,0,1,1.43,3.26,4.92,4.92,0,0,0-.51,1.76,4.55,4.55,0,0,0,1.73,4,67.86,67.86,0,0,0,3.19,10.47,30,30,0,0,0,4.38,7.78c2.14,2.58,4.52,3.89,7.07,3.89A14.66,14.66,0,0,0,44,109.42a19.69,19.69,0,0,0,4.7-3.26c.48-.45,1-.92,1.41-1.42a24.74,24.74,0,0,0,.74,4.29A10.87,10.87,0,0,0,54,113.3c.68.65,1.34,1.19,1.8,1.57l.26,2.85-4,.1c-5.78.15-12.32.32-14.73.33H32.15l-9.83,0H18.61l-9.77,0H5.65v35.86l3.59-.44c2.61-.33,3.89-.48,6.55-.78l1.24-.13,1.51-.17,4.65-.48,1.26-.12,1.36-.13c2.59-.24,3.87-.36,6.56-.58l.51-.05.8-.06c3.15-.25,4.67-.37,7.76-.57l2-.13,1.6-.1c3.08-.19,4.59-.27,7.68-.42L65,149.46l1.53,0,4.73-.09,1.38,0,1.54,0,5.35,0h4.37l19,.44,2.09.09c3.06.14,4.54.21,7.52.38l.49,0,.82,0c3.12.19,4.64.29,7.77.51l1.65.12,1.89.15c3.08.24,4.58.37,7.67.65l.49,0,.79.07c2.54.24,3.77.36,6.27.63l1.91.2,2,.22c2.65.3,3.93.45,6.56.78l3.59.44Z"/><polygon class="cls-2" points="30.41 33.1 33.98 42.41 38.37 40.82 33.37 27.03 23.34 30.67 24.98 35.19 30.41 33.1"/><polygon class="cls-1" points="23.34 30.67 24.98 35.19 26.06 34.77 24.47 30.25 23.34 30.67"/><path class="cls-3" d="M32.72,86.45A9.13,9.13,0,0,0,37.08,84a3.74,3.74,0,0,0,.07-2.82,12.45,12.45,0,0,1-1.37,1.22,13.49,13.49,0,0,1-8.37,2.74,18.81,18.81,0,0,1-3.66-.38,2.37,2.37,0,0,0-.06.41,2.26,2.26,0,0,0,1.12,2,5.37,5.37,0,0,0,2.16.31A20.08,20.08,0,0,0,32.72,86.45Z"/><path class="cls-1" d="M23.75,84.71a2.37,2.37,0,0,0-.06.41,2.26,2.26,0,0,0,1.12,2,5.37,5.37,0,0,0,2.16.31h.49a2.65,2.65,0,0,1-.77-2.3A20.73,20.73,0,0,1,23.75,84.71Z"/><path class="cls-4" d="M37.15,81.13a12.45,12.45,0,0,1-1.37,1.22,12.65,12.65,0,0,1-2.43,1.47c.69.52.75,1.31.85,2.23A7.92,7.92,0,0,0,37.08,84,3.74,3.74,0,0,0,37.15,81.13Z"/><path class="cls-2" d="M25,51.66a4,4,0,0,1,1.64-1.41,2.13,2.13,0,0,1,2.37.26,2.08,2.08,0,0,1,.55.92l4.92-1.89L29.18,35.85l-10,3.83,5,13.06A10.11,10.11,0,0,1,25,51.66Z"/><path class="cls-1" d="M19.22,39.68l5,13.06A10.11,10.11,0,0,1,25,51.66a4,4,0,0,1,.26-.32L20.57,39.16Z"/><path class="cls-5" d="M34.44,49.54l-4.92,1.89a2.08,2.08,0,0,0-.55-.92,2,2,0,0,0-.37-.26l4.11-1.58L28,36.32l1.21-.47Z"/><path class="cls-2" d="M28.6,50.25l-.81.31a2.57,2.57,0,0,0-.23-.53A2,2,0,0,1,28.6,50.25Z"/><path class="cls-6" d="M27.41,83a11.31,11.31,0,0,0,7-2.24,10.15,10.15,0,0,0,2-2c0-.19-.53-1.88-.62-2l-1.38.35,1.2-1.82c.12-.21,1.13-2.19.12-7.87a22.6,22.6,0,0,1,.14-5.76A35,35,0,0,0,36.09,58c0-2.31-.58-2.09-.74-2-1.77.81-2.67,8.95-2.67,8.95s-1.09-6.95,1.44-9.72a.62.62,0,0,0-.85-.7c-5.2,2.29-5.09,9.75-5.09,9.75s-2-5.49-.81-9.46c.43-1.39.42-2.49.13-2.56-2.31-.54-5,13.74-5,13.74s-2.27-6.81-3.37-10c-1.76-5.21-2.89-6.28-3.17-6.2-.44.13-.25,1.3-.18,2.11A51.16,51.16,0,0,0,17,58,42.81,42.81,0,0,1,18.3,65.3a30,30,0,0,0,1.07,5.85,26.85,26.85,0,0,0,3,7.25,11.48,11.48,0,0,1,1.81,4.22A16.06,16.06,0,0,0,27.41,83Z"/><path class="cls-7" d="M22.43,65.67c-.43-1.28-2.31-6.93-3.28-9.78-1.76-5.21-2.89-6.28-3.17-6.2s-.28.35-.28.72C17.39,54.57,22.4,65.78,22.43,65.67Z"/><path class="cls-7" d="M28.11,64c-.52-1.85-1.61-6.46-.74-9.27.43-1.39.42-2.49.13-2.56a.9.9,0,0,0-.53.07C27,54,24.62,58.32,28.11,64Z"/><path class="cls-8" d="M18.65,68.69c.13.59.12,1.41.23,2.06a25.65,25.65,0,0,0,3.18,7.61C29.39,68.69,18.74,68.7,18.65,68.69Z"/><path class="cls-7" d="M32.68,64.87c-.08-2.27.08-8,1.63-9.73.09-.59-.79-1.12-.82-.73C33.42,55.4,30,57.42,32.68,64.87Z"/><path class="cls-7" d="M35.76,76.74l-1.38.35,1.2-1.82c.12-.21,1.13-2.19.12-7.87a22.6,22.6,0,0,1,.14-5.76A35,35,0,0,0,36.09,58c0-2.31-.58-2.09-.74-2l-.1.06c.16,2.64-1.89,7.74-1.58,10.56.87,7.72,0,10.11-1,11.26a1.89,1.89,0,0,0,.72-.31,4.53,4.53,0,0,1-.61,4.22,15.65,15.65,0,0,0,1.59-1,10.15,10.15,0,0,0,2-2C36.35,78.58,35.85,76.89,35.76,76.74Z"/><path class="cls-1" d="M72.55,108.75a0,0,0,0,0,0,0,0,0,0,1,0-.08,0A0,0,0,0,0,72.55,108.75Z"/><path class="cls-9" d="M101,45.41c3.53-.41,6.9-.88,9.46-1.32,1.45-.25,2.45-.46,3.13-.62-3.38-2-9.75-3.63-18.61-4.64a177,177,0,0,0-30,0c-8.86,1-15.23,2.59-18.61,4.64.68.16,1.68.37,3.13.62,2.56.44,5.92.91,9.46,1.32C67.25,46.37,92.75,46.37,101,45.41Z"/><path class="cls-10" d="M113.62,43.47c-3.38-2-9.72-3.63-18.55-4.63,2.62,1.2,6.19,5.39,6.84,6.47,3.21-.39,6.23-.82,8.58-1.22C111.94,43.84,112.94,43.63,113.62,43.47Z"/><path class="cls-9" d="M64.26,84.63A69.3,69.3,0,0,1,66.53,72a22,22,0,0,1,3-5.71c-1-.58-2-1.15-2.84-1.72-.59,1.62-1.65,4.49-2.85,7.34-.67,1.57-2.2,10.62-2.2,10.62.11-.59-1.06-7,.23-11.45.29-1,.79-1.91,1.15-2.81-1.18.49-2.7,1.15-4.27,1.86a49.47,49.47,0,0,0-6.41,3.35c0,.37-.56,5.34-.56,5.35s-1.5-2.83-1.52-3c-1.36,2.24-3.59,6.33-5.46,9.77-2,3.78-3.32,6.1-3.9,7,.11,1.24-.51,2.9-.87,4.56,0,0-2.51-9.63-2.66-10.47-2.8,2-7.43,2.92-10.35,2.92a10.74,10.74,0,0,1-1.32-.07,62.68,62.68,0,0,0,2.8,8.89c1.87,4.58,4.95,10,9.07,10a13.76,13.76,0,0,0,9.36-4.06,22.11,22.11,0,0,0,3.36-3.94c-.23-7,1.61-15.19,1.64-15.68,0,0-.19,15.65,1.08,22.31,1.91,0,8.15-.15,10.8-.23A188.32,188.32,0,0,1,64.26,84.63Z"/><path class="cls-11" d="M51.87,84.82a.54.54,0,0,0,0-.11,51.54,51.54,0,0,0-.29,6.78c.08.46-.1,9,1.09,15.53l2.89,0C54.34,102.92,51.87,84.62,51.87,84.82Z"/><path class="cls-9" d="M50.72,85.26a1.78,1.78,0,0,0,0-.4Z"/><path class="cls-10" d="M40,97.06c0-.1-.77-3.1-.94-3.63-.72-2.82-1.62-6.33-1.71-6.83a13.69,13.69,0,0,1-2.75,1.3C36.42,89.18,39.13,95.41,40,97.06Z"/><path class="cls-11" d="M58.7,70.13a49.47,49.47,0,0,0-6.41,3.35c0,.37-.56,5.34-.56,5.35s-1.5-2.83-1.52-3c-1.36,2.24-3.59,6.33-5.46,9.77a73.2,73.2,0,0,1-4,6.74c-.1.15-.74,4.52-.7,4.65.54-.67,9.67-17.08,10.64-18.65a4.11,4.11,0,0,0,1.25,1.43,48.42,48.42,0,0,1,1.75-5.26c.25-.5,8.33-4.07,8.44-4.14.28-.71.62-1.39.89-2.06C61.79,68.76,60.27,69.42,58.7,70.13Z"/><path class="cls-10" d="M51.87,84.82s-2.55,9.24-5.11,13.67c-3.66,6.34-12.8,10.69-16.61,4.77,1.87,3.86,4.16,5.13,7.37,5.13a13.76,13.76,0,0,0,9.36-4.06,22.11,22.11,0,0,0,3.36-3.94,53.62,53.62,0,0,1,.41-7.91C50.81,91.13,51.82,86.12,51.87,84.82Z"/><path class="cls-10" d="M66.56,64.48a19.84,19.84,0,0,0-.86,1.85c-.59,1.55-1.41,3-2.22,4.94-.3.7-.82,3.73-1.25,6,0,.72-.56,4.61-.6,4.87-.94,9.43-.61,24.6-.59,24.74l2.72-.07a188.32,188.32,0,0,1,.5-22.16A69.3,69.3,0,0,1,66.53,72a22,22,0,0,1,3-5.71C68.5,65.74,67.37,65,66.56,64.48Z"/><path class="cls-6" d="M75.45,67.06l1.16.61A8.73,8.73,0,0,0,80,68.81a8.73,8.73,0,0,0,3.39-1.14l1.16-.61c6.33-3.29,10.5-5.46,11.38-8.31a98.06,98.06,0,0,1,4.69-11.15l-1,.12a9.48,9.48,0,0,1-5.48,5.63,10.2,10.2,0,0,1-3.83.82,9.85,9.85,0,0,1-5.18-1.59c-.21-.13-.42-.27-.64-.43a7.16,7.16,0,0,0-8.9,0c-.22.16-.43.3-.64.43a9.85,9.85,0,0,1-5.18,1.59,10.16,10.16,0,0,1-3.83-.82,9.53,9.53,0,0,1-5.49-5.63l-1-.12a98.06,98.06,0,0,1,4.69,11.15C65,61.6,69.12,63.77,75.45,67.06Z"/><path class="cls-7" d="M99.58,47.72a9.51,9.51,0,0,1-4.3,5.07c-.78,1.85-1.53,3.73-2,5.24-.88,2.85-14.18,10.72-14.18,10.72.6.21,1.7.4,3.65-.57.4-.2,1.41-.92,1.79-1.12,6.32-3.29,10.5-5.46,11.38-8.31a98.06,98.06,0,0,1,4.69-11.15Z"/><path class="cls-8" d="M66,58.32c-1.54-3.46-5.07-9.31-5.58-10.68-.34,0-.76,0-1.11,0A98.06,98.06,0,0,1,64,58.75c.88,2.85,5.06,5,11.38,8.31l1.16.61c1.09.53,2.59,1.41,3.16,1.57C79.07,68.69,67,60.66,66,58.32Z"/><path class="cls-12" d="M89.17,73.45a5.84,5.84,0,0,0,.8-4.31,3.1,3.1,0,0,0-1.44-1.76l-3,1.57-1.18.61h0l-.36.18c.06.6.15,1.55.15,2.55a9.27,9.27,0,0,1-.43,3.29c.31.28.72.64,1.18,1,1.66,1.27,2.37,1.26,2.5,1.25.82-.09,1.27-1.36,1.27-2.61-.12-.9-2.22-3.27-2.22-3.27S88.58,72.55,89.17,73.45Z"/><path class="cls-12" d="M72.62,77.82c.13,0,.84,0,2.5-1.25.46-.34.87-.7,1.18-1a9,9,0,0,1-.43-3.29c0-1,.09-2,.15-2.55l-.36-.18h0L74.46,69l-3-1.57A3.1,3.1,0,0,0,70,69.14a5.84,5.84,0,0,0,.8,4.31c.59-.9,2.71-1.5,2.74-1.51s-2.1,2.37-2.22,3.27C71.35,76.46,71.8,77.73,72.62,77.82Z"/><path class="cls-13" d="M70.82,70.73a7.3,7.3,0,0,1,.65-3.35A3.1,3.1,0,0,0,70,69.14a5.84,5.84,0,0,0,.8,4.31,3.54,3.54,0,0,1,1.42-1C71.53,72.44,70.93,71.4,70.82,70.73Z"/><path class="cls-13" d="M73,72.42s-1.26,1.67-1.26,1.66a3.49,3.49,0,0,0-.49,1.27c0,1.09.09,1.78.73,2.1A9.21,9.21,0,0,1,73,72.42Z"/><path class="cls-14" d="M75.87,72.3c0-1,.09-2,.15-2.55a14.83,14.83,0,0,0-1.92,3.32c.37-.13.59-.13.81-.56a5.35,5.35,0,0,1-2.37,5.3h.08c.13,0,.84,0,2.5-1.25.46-.34.87-.7,1.18-1A9,9,0,0,1,75.87,72.3Z"/><path class="cls-13" d="M89.18,70.73a7.3,7.3,0,0,0-.65-3.35A3.1,3.1,0,0,1,90,69.14a5.84,5.84,0,0,1-.8,4.31,5.23,5.23,0,0,0-1.79-1.12A2.29,2.29,0,0,0,89.18,70.73Z"/><path class="cls-13" d="M87,72.42s1.26,1.67,1.26,1.66a3.49,3.49,0,0,1,.49,1.27c0,1.09-.1,1.78-.73,2.1A9.21,9.21,0,0,0,87,72.42Z"/><path class="cls-14" d="M84.13,72.3c0-1-.09-2-.15-2.55a14.83,14.83,0,0,1,1.92,3.32c-.37-.13-.59-.13-.81-.56a5.35,5.35,0,0,0,2.37,5.3h-.08c-.13,0-.84,0-2.5-1.25-.46-.34-.87-.7-1.18-1A9.27,9.27,0,0,0,84.13,72.3Z"/><path class="cls-12" d="M78.08,70.58c0,.44-.07,1-.08,1.53,0,2.26.33,2.83.39,2.92.6.28,2.7.41,3.22,0,.08-.07.44-.66.39-2.92,0-.55,0-1.09-.08-1.53A6.21,6.21,0,0,1,78.08,70.58Z"/><path class="cls-13" d="M80.16,70.88a5.28,5.28,0,0,1-2.08-.3c0,.44-.07,1-.08,1.53a13,13,0,0,0,0,1.48A4.62,4.62,0,0,1,80.16,70.88Z"/><path class="cls-14" d="M82,72.11c0-.55,0-1.09-.08-1.53l-.16.06A6.76,6.76,0,0,1,80.66,74a.9.9,0,0,0-.17.26,6.09,6.09,0,0,1-1.24,1,4.25,4.25,0,0,0,2.36-.2C81.69,75,82.05,74.37,82,72.11Z"/><polygon class="cls-2" points="34.65 24.3 38.37 34.59 42.97 32.92 37.49 17.81 27.46 21.45 29.21 26.27 34.65 24.3"/><polygon class="cls-1" points="27.46 21.45 29.21 26.27 30.62 25.87 28.73 20.98 27.46 21.45"/><polygon class="cls-5" points="42.97 32.92 38.37 34.59 37.93 33.36 41.01 32.24 35.98 18.36 37.49 17.81 42.97 32.92"/><polygon class="cls-5" points="38.51 40.78 33.92 42.44 33.47 41.21 36.55 40.1 31.52 26.21 33.04 25.67 38.51 40.78"/><rect class="cls-2" x="34.73" y="24.29" width="1.61" height="9.63" transform="translate(-7.79 13.85) rotate(-19.92)"/><path class="cls-1" d="M87.05,108.75a0,0,0,0,0,0,0s0,0,0,0a0,0,0,0,0,0,0A0,0,0,0,0,87.05,108.75Z"/><path class="cls-9" d="M122.68,86.6c-.15.84-2.66,10.47-2.66,10.47-.36-1.66-1-3.32-.88-4.56-.57-.85-1.84-3.17-3.89-7-1.87-3.44-4.1-7.53-5.46-9.77,0,.21-1.52,3-1.52,3s-.53-5-.56-5.35a49.47,49.47,0,0,0-6.41-3.35c-1.57-.71-3.09-1.37-4.27-1.86.36.9.85,1.82,1.15,2.81,1.29,4.42.13,11,.24,11.6,0,0-1.54-9.2-2.21-10.77C95,69.06,94,66.19,93.36,64.57c-.85.57-1.79,1.14-2.84,1.72a22,22,0,0,1,3,5.71,69.3,69.3,0,0,1,2.27,12.63,188.32,188.32,0,0,1,.5,22.16c2.65.08,8.89.19,10.8.23,1.27-6.66,1.08-22.31,1.08-22.31,0,.49,1.87,8.68,1.64,15.68a22.11,22.11,0,0,0,3.36,3.94,13.76,13.76,0,0,0,9.36,4.06c4.12,0,7.2-5.47,9.07-10a62.68,62.68,0,0,0,2.8-8.89,10.74,10.74,0,0,1-1.32.07C130.1,89.52,125.48,88.61,122.68,86.6Z"/><path class="cls-10" d="M133,89.52q-.67,0-1.44-.06c-6.61,22.19-16.14,16.12-16.92,16.15a13,13,0,0,0,7.81,2.78c4.12,0,7.2-5.47,9.07-10a62.68,62.68,0,0,0,2.8-8.89A10.74,10.74,0,0,1,133,89.52Z"/><path class="cls-10" d="M119.14,92.51c-.57-.85-1.84-3.17-3.89-7-1.87-3.44-4.1-7.53-5.46-9.77,0,.21-1.52,3-1.52,3s-.53-5-.56-5.35a49.47,49.47,0,0,0-6.41-3.35c-1.57-.71-3.09-1.37-4.27-1.86.32.8.94,2.26,1.23,3.12a71.51,71.51,0,0,1,7.09,3.54c.81.56,1.58,2.69,2.13,6.57.17-.13,1.83-2.68,1.88-2.64,1.31,2.63,10.29,18.07,10.66,18.21C119.66,95.41,119,93.75,119.14,92.51Z"/><path class="cls-9" d="M90.56,66.34l0,0v0Z"/><path class="cls-10" d="M96,70.41c-.77-2-2.26-4.69-2.68-5.84-.85.57-1.79,1.14-2.84,1.72l0,0h0v0A14.71,14.71,0,0,1,96,70.41Z"/><path class="cls-9" d="M108,85.29c0,.4,0,.81,0,1.22v0A3.66,3.66,0,0,0,108,85.29Z"/><path class="cls-10" d="M108.12,84.74c-.33.88-2.64,19.11-6.46,22.32-.44.37,4.7.39,5.47.4C109.07,99.77,108.27,86,108.12,84.74Z"/><path class="cls-15" d="M94.05,108.82l0-1c.59-18.65-.85-28.58-2.22-33.7a44.94,44.94,0,0,1-2,7.21,38.4,38.4,0,0,1-4,7.93,25.52,25.52,0,0,1-5.34,6.1v22.43h19.89L101,109c-2.64,0-5.22-.11-5.92-.15Z"/><path class="cls-12" d="M94.05,108.82l0-1c.59-18.65-.85-28.58-2.22-33.7a44.94,44.94,0,0,1-2,7.21,38.4,38.4,0,0,1-4,7.93,25.52,25.52,0,0,1-5.34,6.1v22.43h19.89L101,109c-2.64,0-5.22-.11-5.92-.15Z"/><path class="cls-14" d="M101,109c-2.64,0-5.22-.11-5.92-.15l-1-.06,0-1c.11-3.24.16-6.47.13-9.71,0-2.67-.08-5.33-.22-8s-.35-5.41-.68-8.1c-.18-1.42-.35-2.77-.6-4.19-.11-.65-.26-1.33-.4-2l-.2-.86a7.4,7.4,0,0,0-.27-1c-.1.52-.19,1.13-.3,1.64,2,8.47.6,40.32.25,42.33l8.7-.22Z"/><path class="cls-3" d="M136.25,84.71a18.81,18.81,0,0,1-3.66.38,13.55,13.55,0,0,1-8.38-2.74,13.25,13.25,0,0,1-1.36-1.22,3.74,3.74,0,0,0,.07,2.82,9.14,9.14,0,0,0,4.35,2.5,20.2,20.2,0,0,0,5.76.94,5.37,5.37,0,0,0,2.16-.31,2.28,2.28,0,0,0,1.12-2A2.37,2.37,0,0,0,136.25,84.71Z"/><path class="cls-4" d="M136.31,85.12a2.37,2.37,0,0,0-.06-.41,21.3,21.3,0,0,1-3.09.37,4.73,4.73,0,0,1-.88,2.31c.15,0,.6,0,.75,0A6.2,6.2,0,0,0,135.4,87,1.87,1.87,0,0,0,136.31,85.12Z"/><polygon class="cls-2" points="129.59 33.1 135.02 35.19 136.66 30.67 126.63 27.03 121.64 40.82 126.02 42.41 129.59 33.1"/><polygon class="cls-5" points="122.23 39.17 121.64 40.82 126.02 42.41 126.65 40.76 122.23 39.17"/><polygon class="cls-5" points="136.66 30.67 134.85 30.01 133.27 34.51 135.02 35.19 136.66 30.67"/><path class="cls-6" d="M144,49.69c-.28-.08-1.41,1-3.17,6.2-1.1,3.23-3.37,10-3.37,10s-2.67-14.28-5-13.74c-.29.07-.3,1.17.13,2.56,1.23,4-.81,9.46-.81,9.46s.11-7.46-5.09-9.75a.62.62,0,0,0-.85.7c2.53,2.77,1.44,9.63,1.44,9.72s-.9-8.14-2.67-8.95c-.16-.07-.72-.29-.74,2a35,35,0,0,0,.25,3.69,22.6,22.6,0,0,1,.14,5.76c-1,5.68,0,7.66.12,7.87l1.2,1.82-1.38-.35c-.09.15-.59,1.84-.62,2a10.15,10.15,0,0,0,2,2,11.31,11.31,0,0,0,7,2.24,16.06,16.06,0,0,0,3.23-.34,11.48,11.48,0,0,1,1.81-4.22,26.85,26.85,0,0,0,3-7.25,30.84,30.84,0,0,0,1.07-5.85A42.81,42.81,0,0,1,143,58a51.16,51.16,0,0,0,1.19-6.15C144.27,51,144.46,49.82,144,49.69Z"/><path class="cls-6" d="M132.34,53.51a8.3,8.3,0,0,0,.18.86,3,3,0,0,0-.17-.85Z"/><path class="cls-7" d="M137.43,65.68c-.37-1.9-2.8-14-4.93-13.49-.19,0-.26.56-.16,1.32h0C133.71,54.63,137,64.63,137.43,65.68Z"/><path class="cls-7" d="M126.73,54.46a.63.63,0,0,0-.82.34C130.63,58,131.82,64,131.82,64,131.59,58.67,130.34,56.05,126.73,54.46Z"/><path class="cls-7" d="M127.32,64.88s-.9-8.14-2.67-8.95c-.14-.06-.57-.23-.7,1.18C125.91,59.51,127.32,64.87,127.32,64.88Z"/><path class="cls-7" d="M144.05,49.63a1.85,1.85,0,0,0-.39.06c.24,1-1.77,6.73-2,7.2a55.21,55.21,0,0,0-2.3,9.43,24.13,24.13,0,0,1-3.05,9.52,24.87,24.87,0,0,0-3.16,7.36,16.88,16.88,0,0,0,2.66-.58,11.48,11.48,0,0,1,1.81-4.22,26.85,26.85,0,0,0,3-7.25,30.84,30.84,0,0,0,1.07-5.85A42.81,42.81,0,0,1,143,58a51.16,51.16,0,0,0,1.19-6.15C144.27,51,144.49,49.76,144.05,49.63Z"/><polygon class="cls-2" points="130.79 26.27 132.54 21.45 122.51 17.81 117.03 32.92 121.63 34.59 125.35 24.3 130.79 26.27"/><polygon class="cls-5" points="132.54 21.45 130.52 20.71 128.89 25.59 130.79 26.27 132.54 21.45"/><polygon class="cls-5" points="117.03 32.92 121.63 34.59 122.18 33.07 117.58 31.42 117.03 32.92"/><path class="cls-12" d="M95.23,36.72c1.83.2,3.56.43,5.18.69,0-.18-.08-.39-.13-.62-.21-1-.48-2.42-.8-4-.14-.75-.3-1.55-.46-2.39-7.16-1.92-30.88-1.92-38,0-.16.84-.32,1.64-.46,2.39-.32,1.63-.59,3-.8,4,0,.23-.09.44-.13.62,1.62-.26,3.35-.49,5.18-.69A178.07,178.07,0,0,1,95.23,36.72Z"/><path class="cls-12" d="M74.06,89.22a38.4,38.4,0,0,1-4-7.93,44.94,44.94,0,0,1-2-7.21c-1.37,5.12-2.81,15-2.22,33.7l0,1-1,.06c-.7,0-3.28.1-5.92.15l.52,8.72h20L79.4,95.32A25.52,25.52,0,0,1,74.06,89.22Z"/><path class="cls-13" d="M59,109l.52,8.72h3L62.06,109Z"/><path class="cls-9" d="M87.24,26.74A63,63,0,0,1,98.57,28c-.94-4.75-2-10-2.86-12.84-.93-3.2-3.8-5.4-8.52-6.54a38.63,38.63,0,0,0-14.38,0C68.09,9.8,65.22,12,64.29,15.2,63.46,18,62.37,23.29,61.43,28a63,63,0,0,1,11.33-1.3C76.54,26.58,83.46,26.58,87.24,26.74Z"/><path class="cls-10" d="M93.17,27.24c1.86.21,4,.47,5.4.8-.94-4.75-2-10-2.86-12.84s-3.29-5-7.26-6.2C91.51,12.3,92.48,23.78,93.17,27.24Z"/><path class="cls-14" d="M100.41,37.41c0-.18-.08-.39-.13-.62-.21-1-.48-2.42-.8-4-.14-.75-.3-1.55-.46-2.39a36.56,36.56,0,0,0-5.42-.86c.23,1.6.72,5.68.91,7.15l.72.08C97.06,36.92,98.79,37.15,100.41,37.41Z"/><path class="cls-11" d="M45.66,43.47c3.37-2,9.71-3.63,18.54-4.63C61.58,40,58,44.23,57.36,45.31c-3.21-.39-6.23-.82-8.58-1.22C47.33,43.84,46.34,43.63,45.66,43.47Z"/><path class="cls-11" d="M66.06,27.39a53.8,53.8,0,0,0-5.5,1.07c.94-4.76,2.13-10.43,3-13.26s3.29-5,7.26-6.2C67.72,12.3,66.76,23.94,66.06,27.39Z"/><path class="cls-13" d="M58.82,37.75c0-.18.08-.73.13-1,.21-1,.48-2.42.79-4,.15-.75.31-1.55.47-2.39a36.34,36.34,0,0,1,5.42-.86c-.23,1.6-.78,5.89-1,7.36C64.42,36.88,60.44,37.49,58.82,37.75Z"/><path class="cls-3" d="M84.16,88.05a36.41,36.41,0,0,0,4-8.22,3.23,3.23,0,0,1-.54.11h-.29a6.68,6.68,0,0,1-3.75-1.7c-.55-.42-1-.84-1.38-1.16-1.23.4-3.57.51-4.38,0-.35.32-.83.74-1.38,1.16A6.68,6.68,0,0,1,72.68,80h-.29a3.23,3.23,0,0,1-.54-.11,36.41,36.41,0,0,0,4,8.22A26.77,26.77,0,0,0,80,93,26.77,26.77,0,0,0,84.16,88.05Z"/><path class="cls-4" d="M87.61,79.94h-.29c-.19,0-.95-.25-1.14-.28,0,0-2.59,7.64-7.32,12.23A10.74,10.74,0,0,0,80,93a26.77,26.77,0,0,0,4.16-5,36.41,36.41,0,0,0,4-8.22A3.23,3.23,0,0,1,87.61,79.94Z"/><path class="cls-2" d="M133.4,50.25A4,4,0,0,1,135,51.66a10.11,10.11,0,0,1,.72,1.08l5-13.06-10-3.83-5.26,13.69,4.92,1.89a2.08,2.08,0,0,1,.55-.92A2.13,2.13,0,0,1,133.4,50.25Z"/><path class="cls-5" d="M138.54,38.82l-4.37,11.9a5.36,5.36,0,0,1,.87.94,10.11,10.11,0,0,1,.72,1.08l5-13.06Z"/><path class="cls-5" d="M125.56,49.54l4.92,1.89a2.08,2.08,0,0,1,.55-.92,2,2,0,0,1,.4-.28l-5.31-2.13Z"/><path class="cls-6" d="M56.28,47.23a6.22,6.22,0,0,0-.34,1.4,4.3,4.3,0,0,0,.83,3.3,10.62,10.62,0,0,1,1.76,2.6c.18.35.37.71.63,1.16s.58.78.83.81.4,0,.87-.36c-1.46-3.63-3.46-7.76-4-8.84Z"/><path class="cls-6" d="M103.72,47.23l-.59.07c-.53,1.08-2.53,5.21-4,8.84.47.36.76.38.87.36s.53-.3.83-.81.45-.81.63-1.16a10.62,10.62,0,0,1,1.76-2.6,4.3,4.3,0,0,0,.83-3.3A6.22,6.22,0,0,0,103.72,47.23Z"/><path class="cls-7" d="M99.14,56.14c.47.36.76.38.87.36s.53-.3.83-.81.45-.81.63-1.16a12.51,12.51,0,0,1,.75-1.31,5.16,5.16,0,0,1-1.6-.56C100.11,53.79,99.6,55,99.14,56.14Z"/><path class="cls-7" d="M60.86,56.14c-.47.36-.76.38-.87.36s-.53-.3-.83-.81-.45-.81-.63-1.16a12.51,12.51,0,0,0-.75-1.31,5.16,5.16,0,0,0,1.6-.56C59.88,53.79,60.4,55,60.86,56.14Z"/><path d="M144.51,47.59h-.1a2.4,2.4,0,0,0-2,.68A7,7,0,0,0,141.06,50,28.38,28.38,0,0,0,139,54.84c-.41,1.19-.77,2.38-1.08,3.43a7.2,7.2,0,0,1-.24-1c-.06-.47-.5-2.11-.5-2.11l6.4-16.67L137,36l2.38-6.56L132.79,27l2.48-6.83-14-5.09L114.31,34.2l6.59,2.39-2,5.5,6.35,2.3-2.45,6.38,7.7,2.95a13.83,13.83,0,0,0,.38,1.46,11.5,11.5,0,0,1,.36,1.54c-.54-.85-2-3-4.13-3.65-1.21-.37-2.33.07-2.46,1-.78.1-3.21.3-2.61,7.79A23.76,23.76,0,0,1,122.2,67a21.61,21.61,0,0,0-.29,7.25,8.26,8.26,0,0,0,.41,1.53,7,7,0,0,0-.58,1.59,10.09,10.09,0,0,0-.24,1.17,12.43,12.43,0,0,0-.77,2.27,6.21,6.21,0,0,0,0,3.46,22.24,22.24,0,0,1-1,5c-.75-1.34-1.73-3.13-2.63-4.8-2.55-4.69-5.44-10-6.56-11.43a11.88,11.88,0,0,0-3.39-2.44c-1.31-.73-3-1.56-5-2.48C99.52,67,97,65.93,96,65.53c-.36-1-.64-1.76-.83-2.28A8.33,8.33,0,0,0,98,59.38c.12-.38.25-.78.4-1.2a3.28,3.28,0,0,0,1.59.46l.34,0a3.42,3.42,0,0,0,2.38-1.85c.29-.49.5-.89.69-1.25a8.32,8.32,0,0,1,1.47-2.17l0,0,0,0a6.41,6.41,0,0,0,1.29-5,7.08,7.08,0,0,0-.29-1.34c2.24-.31,4.27-.63,5.91-.93,1.29-.24,2.32-.46,3-.67,1-.29,1.66-.56,1.9-1.16a1.14,1.14,0,0,0-.31-1.3c-2.39-2.15-7-3.86-13.74-5.1-.15-.51-.61-2.92-1.11-5.46-1.06-5.5-2.67-13.81-3.82-17.73a10,10,0,0,0-4.11-5.5,18.15,18.15,0,0,0-6-2.53,44.61,44.61,0,0,0-15.29,0,18.19,18.19,0,0,0-6,2.53,10,10,0,0,0-4.11,5.5c-1.15,3.92-2.76,12.23-3.82,17.73-.5,2.54-1,5-1.11,5.46-6.74,1.24-11.35,3-13.74,5.1a1.14,1.14,0,0,0-.31,1.3c.24.6.85.87,1.9,1.16.73.21,1.76.43,3,.67,1.64.3,3.67.62,5.91.93a7.9,7.9,0,0,0-.3,1.34,6.45,6.45,0,0,0,1.3,5l0,0,0,0a8.32,8.32,0,0,1,1.47,2.17c.19.36.4.76.69,1.25a3.42,3.42,0,0,0,2.38,1.85,2,2,0,0,0,.34,0,3.28,3.28,0,0,0,1.59-.46c.15.42.28.82.4,1.2a8.33,8.33,0,0,0,2.81,3.87c-.19.52-.47,1.32-.83,2.28-1,.4-3.54,1.45-6.19,2.66-2,.92-3.69,1.75-5,2.48a11.88,11.88,0,0,0-3.39,2.44c-1.12,1.43-4,6.74-6.56,11.43C42,86.21,41,88,40.25,89.34a22.24,22.24,0,0,1-1-5,6.21,6.21,0,0,0,0-3.46,12.43,12.43,0,0,0-.77-2.27,10.09,10.09,0,0,0-.24-1.17,7,7,0,0,0-.58-1.59,8.26,8.26,0,0,0,.41-1.53,21.39,21.39,0,0,0-.3-7.25A24.49,24.49,0,0,1,38,61.86c.6-7.49-1.83-7.69-2.61-7.79-.13-.93-1.25-1.37-2.46-1-2.17.66-3.59,2.8-4.13,3.65a10.13,10.13,0,0,1,.36-1.54,13.83,13.83,0,0,0,.38-1.46l7.7-2.95-2.45-6.38,6.35-2.3-2-5.5,6.59-2.39L38.77,15.08l-14,5.09L27.21,27l-6.6,2.39L23,36l-6.52,2.5,6.4,16.67s-.44,1.64-.5,2.11c0,.21-.12.58-.24,1-.31-1.05-.67-2.24-1.08-3.43A28.38,28.38,0,0,0,18.94,50a7.26,7.26,0,0,0-1.33-1.73,2.41,2.41,0,0,0-2-.68h-.09a2.36,2.36,0,0,0-1.69,1.82A7.34,7.34,0,0,0,13.68,52a53.36,53.36,0,0,0,1.47,6.33,39.12,39.12,0,0,1,1,7.06,32,32,0,0,0,1.14,6.34,28.81,28.81,0,0,0,3.28,7.86,9.27,9.27,0,0,1,1.52,3.56,4.45,4.45,0,0,0-.54,1.73,4.19,4.19,0,0,0,1.69,3.71,67.39,67.39,0,0,0,3.21,10.54,29.28,29.28,0,0,0,4.3,7.67c2.07,2.48,4.34,3.74,6.75,3.74h0A14.37,14.37,0,0,0,43.77,109a19,19,0,0,0,4.6-3.19,24.53,24.53,0,0,0,2-2.14,26.62,26.62,0,0,0,.81,5.19,10.48,10.48,0,0,0,3,4.09c.77.72,1.5,1.32,1.92,1.66l.47,5.23h46.74l.47-5.23c.42-.34,1.15-.94,1.92-1.66a10.48,10.48,0,0,0,3-4.09,26.62,26.62,0,0,0,.81-5.19,24.53,24.53,0,0,0,2,2.14,19,19,0,0,0,4.6,3.19,14.37,14.37,0,0,0,6.25,1.48h0c2.41,0,4.68-1.26,6.75-3.74a29.28,29.28,0,0,0,4.3-7.67,67.39,67.39,0,0,0,3.21-10.54,4.19,4.19,0,0,0,1.69-3.71,4.45,4.45,0,0,0-.54-1.73,9.27,9.27,0,0,1,1.52-3.56,29.13,29.13,0,0,0,3.28-7.86,32,32,0,0,0,1.14-6.34,39.12,39.12,0,0,1,1-7.06A53.36,53.36,0,0,0,146.32,52a7.08,7.08,0,0,0-.13-2.57A2.34,2.34,0,0,0,144.51,47.59ZM117,32.92l5.48-15.11,10,3.63-1.75,4.83-5.44-2-3.72,10.29Zm4.6,7.9,5-13.79,10,3.64L135,35.19l-5.43-2.09L126,42.41Zm9.4,9.69a2.08,2.08,0,0,0-.55.92l-4.92-1.89,5.26-13.69,10,3.83-5,13.06a10.11,10.11,0,0,0-.72-1.08,4,4,0,0,0-1.64-1.41A2.13,2.13,0,0,0,131,50.51Zm-27.8,1.42a10.62,10.62,0,0,0-1.76,2.6c-.18.35-.37.71-.63,1.16s-.58.78-.83.81-.4,0-.87-.36c1.46-3.63,3.46-7.76,4-8.84l.59-.07a6.22,6.22,0,0,1,.34,1.4A4.3,4.3,0,0,1,103.23,51.93ZM64.29,15.2c.93-3.2,3.8-5.4,8.52-6.54a38.63,38.63,0,0,1,14.38,0C91.91,9.8,94.78,12,95.71,15.2,96.54,18,97.63,23.29,98.57,28a63,63,0,0,0-11.33-1.3c-3.78-.16-10.7-.16-14.48,0A63,63,0,0,0,61.43,28C62.37,23.29,63.46,18,64.29,15.2ZM59.72,36.79c.21-1,.48-2.42.8-4,.14-.75.3-1.55.46-2.39,7.16-1.92,30.88-1.92,38,0,.16.84.32,1.64.46,2.39.32,1.63.59,3,.8,4,0,.23.09.44.13.62-1.62-.26-3.35-.49-5.18-.69a178.07,178.07,0,0,0-30.46,0c-1.83.2-3.56.43-5.18.69C59.63,37.23,59.67,37,59.72,36.79Zm-10.21,7.3c-1.45-.25-2.45-.46-3.13-.62,3.38-2,9.75-3.63,18.61-4.64a177,177,0,0,1,30,0c8.86,1,15.23,2.59,18.61,4.64-.68.16-1.68.37-3.13.62-2.56.44-5.93.91-9.46,1.32-8.28,1-33.78,1-42.06,0C55.43,45,52.07,44.53,49.51,44.09ZM60,56.5c-.25,0-.53-.3-.83-.81s-.45-.81-.63-1.16a10.62,10.62,0,0,0-1.76-2.6,4.3,4.3,0,0,1-.83-3.3,6.22,6.22,0,0,1,.34-1.4l.59.07c.53,1.08,2.53,5.21,4,8.84C60.39,56.5,60.1,56.52,60,56.5Zm4.08,2.25A98.06,98.06,0,0,0,59.38,47.6l1,.12a9.53,9.53,0,0,0,5.49,5.63,10.16,10.16,0,0,0,3.83.82,9.85,9.85,0,0,0,5.18-1.59c.21-.13.42-.27.64-.43a7.16,7.16,0,0,1,8.9,0c.22.16.43.3.64.43a9.85,9.85,0,0,0,5.18,1.59,10.2,10.2,0,0,0,3.83-.82,9.48,9.48,0,0,0,5.48-5.63l1-.12a98.06,98.06,0,0,0-4.69,11.15c-.88,2.85-5.05,5-11.38,8.31l-1.16.61A8.73,8.73,0,0,1,80,68.81a8.73,8.73,0,0,1-3.39-1.14l-1.16-.61C69.12,63.77,65,61.6,64.07,58.75ZM88.65,75.21c0,1.25-.45,2.52-1.27,2.61-.13,0-.84,0-2.5-1.25-.46-.34-.87-.7-1.18-1a9.27,9.27,0,0,0,.43-3.29c0-1-.09-2-.15-2.55l.36-.18h0L85.54,69l3-1.57A3.1,3.1,0,0,1,90,69.14a5.84,5.84,0,0,1-.8,4.31c-.59-.9-2.71-1.5-2.74-1.51S88.53,74.31,88.65,75.21Zm-7-.18c-.52.41-2.62.28-3.22,0-.06-.09-.44-.66-.39-2.92,0-.55,0-1.09.08-1.53a6.21,6.21,0,0,0,3.84,0c0,.44.07,1,.08,1.53C82.05,74.37,81.69,75,81.61,75ZM70.83,73.45a5.84,5.84,0,0,1-.8-4.31,3.1,3.1,0,0,1,1.44-1.76l3,1.57,1.18.61h0l.36.18c-.06.6-.15,1.55-.15,2.55a9,9,0,0,0,.43,3.29c-.31.28-.72.64-1.18,1-1.66,1.27-2.37,1.26-2.5,1.25-.82-.09-1.27-1.36-1.27-2.61.12-.9,2.22-3.27,2.22-3.27S71.42,72.55,70.83,73.45ZM37.49,17.81,43,32.92l-4.6,1.67L34.65,24.3l-5.44,2-1.75-4.83ZM33.37,27l5,13.79L34,42.41,30.41,33.1,25,35.19l-1.64-4.52ZM19.22,39.68l10-3.83,5.26,13.69-4.92,1.89a2.08,2.08,0,0,0-.55-.92,2.13,2.13,0,0,0-2.37-.26A4,4,0,0,0,25,51.66a10.11,10.11,0,0,0-.72,1.08ZM22.37,78.4a26.85,26.85,0,0,1-3-7.25A30,30,0,0,1,18.3,65.3,42.81,42.81,0,0,0,17,58,51.16,51.16,0,0,1,15.8,51.8c-.07-.81-.26-2,.18-2.11.28-.08,1.41,1,3.17,6.2,1.1,3.23,3.37,10,3.37,10s2.67-14.28,5-13.74c.29.07.3,1.17-.13,2.56-1.23,4,.81,9.46.81,9.46s-.11-7.46,5.09-9.75a.62.62,0,0,1,.85.7c-2.53,2.77-1.44,9.63-1.44,9.72s.9-8.14,2.67-8.95c.16-.07.72-.29.74,2a35,35,0,0,1-.25,3.69,22.6,22.6,0,0,0-.14,5.76c1,5.68,0,7.66-.12,7.87l-1.2,1.82,1.38-.35c.09.15.59,1.84.62,2a10.15,10.15,0,0,1-2,2,11.31,11.31,0,0,1-7,2.24,16.06,16.06,0,0,1-3.23-.34A11.48,11.48,0,0,0,22.37,78.4Zm1.32,6.72a2.37,2.37,0,0,1,.06-.41,18.81,18.81,0,0,0,3.66.38,13.49,13.49,0,0,0,8.37-2.74,12.45,12.45,0,0,0,1.37-1.22A3.74,3.74,0,0,1,37.08,84a9.13,9.13,0,0,1-4.36,2.5,20.08,20.08,0,0,1-5.75.94,5.37,5.37,0,0,1-2.16-.31A2.26,2.26,0,0,1,23.69,85.12ZM53,107c-1.27-6.66-1.08-22.31-1.08-22.31,0,.49-1.87,8.68-1.64,15.68a22.11,22.11,0,0,1-3.36,3.94,13.76,13.76,0,0,1-9.36,4.06c-4.12,0-7.2-5.47-9.07-10a62.68,62.68,0,0,1-2.8-8.89,10.74,10.74,0,0,0,1.32.07c2.92,0,7.55-.91,10.35-2.92.15.84,2.66,10.47,2.66,10.47.36-1.66.65-3,.87-4.56.58-.85,1.85-3.17,3.9-7,1.87-3.44,4.1-7.53,5.46-9.77,0,.21,1.52,3,1.52,3s.53-5,.56-5.35a49.47,49.47,0,0,1,6.41-3.35c1.57-.71,3.09-1.37,4.27-1.86-.36.9-.86,1.82-1.15,2.81-1.29,4.42-.26,11.13-.23,11.6,0,0,1.53-9.2,2.2-10.77,1.2-2.85,2.26-5.72,2.85-7.34.85.57,1.79,1.14,2.84,1.72a22,22,0,0,0-3,5.71,69.3,69.3,0,0,0-2.27,12.63,188.32,188.32,0,0,0-.5,22.16C61.11,106.87,54.87,107,53,107Zm6.55,10.73L59,109c2.64,0,5.22-.11,5.92-.15l1-.06,0-1c-.59-18.65.85-28.58,2.22-33.7a44.94,44.94,0,0,0,2,7.21,38.4,38.4,0,0,0,4,7.93,25.52,25.52,0,0,0,5.34,6.1l.09,22.43Zm16.33-29.7a36.41,36.41,0,0,1-4-8.22,3.23,3.23,0,0,0,.54.11h.29a6.68,6.68,0,0,0,3.75-1.7c.55-.42,1-.84,1.38-1.16.81.51,3.15.4,4.38,0,.35.32.83.74,1.38,1.16A6.68,6.68,0,0,0,87.32,80h.29a3.23,3.23,0,0,0,.54-.11,36.41,36.41,0,0,1-4,8.22A26.77,26.77,0,0,1,80,93,26.77,26.77,0,0,1,75.84,88.05Zm24.65,29.7H80.6V95.32a25.52,25.52,0,0,0,5.34-6.1,38.4,38.4,0,0,0,4-7.93,44.94,44.94,0,0,0,2-7.21c1.37,5.12,2.81,15,2.22,33.7l0,1,1,.06c.7,0,3.28.1,5.92.15Zm31.06-19.41c-1.87,4.58-5,10-9.07,10a13.76,13.76,0,0,1-9.36-4.06,22.11,22.11,0,0,1-3.36-3.94c.23-7-1.61-15.19-1.64-15.68,0,0,.19,15.65-1.08,22.31-1.91,0-8.15-.15-10.8-.23a188.32,188.32,0,0,0-.5-22.16A69.3,69.3,0,0,0,93.47,72a22,22,0,0,0-3-5.71c1-.58,2-1.15,2.84-1.72.59,1.62,1.65,4.49,2.85,7.34.67,1.57,2.21,10.77,2.21,10.77-.11-.59,1-7.18-.24-11.6-.3-1-.79-1.91-1.15-2.81,1.18.49,2.7,1.15,4.27,1.86a49.47,49.47,0,0,1,6.41,3.35c0,.37.56,5.34.56,5.35s1.5-2.83,1.52-3c1.36,2.24,3.59,6.33,5.46,9.77,2,3.78,3.32,6.1,3.89,7-.1,1.24.52,2.9.88,4.56,0,0,2.51-9.63,2.66-10.47,2.8,2,7.42,2.92,10.35,2.92a10.74,10.74,0,0,0,1.32-.07A62.68,62.68,0,0,1,131.55,98.34Zm3.64-11.26a5,5,0,0,1-2.16.31,20.2,20.2,0,0,1-5.76-.94,9.14,9.14,0,0,1-4.35-2.5,3.74,3.74,0,0,1-.07-2.82,13.25,13.25,0,0,0,1.36,1.22,13.55,13.55,0,0,0,8.38,2.74,18.81,18.81,0,0,0,3.66-.38,2.37,2.37,0,0,1,.06.41A2.14,2.14,0,0,1,135.19,87.08Zm9-35.28A51.16,51.16,0,0,1,143,58a42.81,42.81,0,0,0-1.31,7.35,30.84,30.84,0,0,1-1.07,5.85,26.85,26.85,0,0,1-3,7.25,11.48,11.48,0,0,0-1.81,4.22,16.06,16.06,0,0,1-3.23.34,11.31,11.31,0,0,1-7-2.24,10.15,10.15,0,0,1-2-2c0-.19.53-1.88.62-2l1.38.35-1.2-1.82c-.12-.21-1.13-2.19-.12-7.87a22.6,22.6,0,0,0-.14-5.76,35,35,0,0,1-.25-3.69c0-2.31.58-2.09.74-2,1.77.81,2.67,8.95,2.67,8.95s1.09-6.95-1.44-9.72a.62.62,0,0,1,.85-.7c5.2,2.29,5.09,9.75,5.09,9.75s2-5.49.81-9.46c-.43-1.39-.42-2.49-.13-2.56,2.31-.54,5,13.74,5,13.74s2.27-6.81,3.37-10c1.76-5.21,2.89-6.28,3.17-6.2C144.46,49.82,144.27,51,144.2,51.8Z"/><path class="cls-1" d="M73.8,60.52c.41.71.78,1.36,1.07,1.84.65,1.09,3.83,1.11,4.93,1.11s4.28,0,4.93-1.11c.29-.48.67-1.13,1.07-1.84a9.53,9.53,0,0,1-3,.14,20.66,20.66,0,0,0,3.87-1.73l.8-1.44c-3.09,1.77-11.8,2.34-15.38,0l.81,1.44a20.42,20.42,0,0,0,3.86,1.73A9.53,9.53,0,0,1,73.8,60.52Z"/><path class="cls-5" d="M87.49,57.49a12.71,12.71,0,0,1-4,1.22c1.36.41-.49,1.73-.92,1.9.09,0,2,1.92-.8,2.79,1.24-.11,2.58-.37,3-1,.29-.48.67-1.13,1.07-1.84a9.53,9.53,0,0,1-3,.14,20.66,20.66,0,0,0,3.87-1.73Z"/><path d="M79.76,64.53h.08c2.41,0,5-.21,5.81-1.62,1.12-1.89,3.55-7.1,3.55-7.1A26.17,26.17,0,0,1,79.8,58a18.49,18.49,0,0,1-9.4-2.14S72.83,61,74,62.91C74.8,64.32,77.35,64.53,79.76,64.53Zm-6.84-5.6-.81-1.44c3.58,2.34,12.29,1.77,15.38,0l-.8,1.44a20.66,20.66,0,0,1-3.87,1.73,9.53,9.53,0,0,0,3-.14c-.4.71-.78,1.36-1.07,1.84-.65,1.09-3.83,1.11-4.93,1.11s-4.28,0-4.93-1.11c-.29-.48-.66-1.13-1.07-1.84a9.53,9.53,0,0,0,3,.14A20.42,20.42,0,0,1,72.92,58.93Z"/><ellipse class="cls-11" cx="70.15" cy="15.05" rx="6.27" ry="4.26" transform="translate(23.3 69.39) rotate(-61.34)"/><path d="M72.51,104.3a1.91,1.91,0,1,0-1.9-1.9A1.91,1.91,0,0,0,72.51,104.3Z"/><path d="M72.55,110.79a2.09,2.09,0,1,0-2.09-2.08A2.08,2.08,0,0,0,72.55,110.79Z"/><circle cx="72.56" cy="113.92" r="2.43"/><path d="M87.09,104.3a1.91,1.91,0,1,0-1.91-1.9A1.91,1.91,0,0,0,87.09,104.3Z"/><path d="M87.05,110.79A2.09,2.09,0,1,0,85,108.71,2.09,2.09,0,0,0,87.05,110.79Z"/><circle cx="87.05" cy="113.92" r="2.43" transform="translate(-17.12 15.41) rotate(-9.22)"/><path d="M153.35,150.45V119.21H102.84s-38.12-.53-40.68-.53h0c-2.67,0-20.47.55-24.84.56H32.15l-9.83,0h-3.7l-9.78,0H6.65v33.73l2.47-.31c2.61-.32,3.9-.47,6.55-.77l1.25-.14,1.52-.16c1.87-.2,2.78-.3,4.65-.48l1.27-.13,1.36-.13c2.59-.24,3.88-.35,6.57-.58l.51,0,.8-.07c3.15-.25,4.68-.36,7.78-.57l1.86-.13h0l1.69-.1c3.09-.19,4.6-.27,7.69-.42l12.31-.45,1.53,0,4.74-.09,1.38,0,1.54,0,5.36,0h4.38l19,.45,2.1.09c3.06.13,4.53.2,7.53.37l.48,0,.83,0c3.12.18,4.65.28,7.78.51l1.69.12h0l1.86.14c3.08.25,4.59.37,7.69.66l.49,0,.78.08c2.54.24,3.78.36,6.28.62l2.43.26v-.07l0,.08,1.45.16c2.65.3,3.94.45,6.57.77l2.47.31Z"/><path class="cls-15" d="M8.35,120.9h.5l9.77,0H19l.07.41c.29,1.68.59,3.68.9,5.94.21,1.43.37,2.5.54,3.57.43-3.23.76-5.63,1.28-9.5l.06-.43h.44l9.82,0h.51v.5c0,4.74,0,8.43,0,12,0,4.47,0,8.76,0,14.7v.46l-.45,0c-2.7.22-4,.34-6.59.58l-.55.06s0-8.35,0-11.9c-.51,3.62-1,6.86-1.65,11.67l-.05.39-.39,0c-1.88.18-2.8.28-4.67.48l-.48,0-.07-.47c-.73-4.86-1.22-8.08-1.77-11.74,0,3.79,0,12.41,0,12.41l-.45,0c-2.66.3-4,.45-6.57.78l-.56.07Z"/><path class="cls-16" d="M32.15,121.35c0,10.68,0,16,0,26.7-2.64.22-4,.34-6.6.59,0-7.37,0-11,0-18.42-1.06,7.4-1.59,11.13-2.65,18.67l-4.68.48c-1.09-7.27-1.65-10.94-2.75-18.36,0,7.47,0,11.2,0,18.67-2.63.29-3.95.45-6.58.77v-29l9.77,0q.43,2.52.89,5.92c.43,2.82.64,4.23,1.07,7,.7-5.22,1.05-7.81,1.75-13Z"/><path class="cls-17" d="M10.1,149c1.45-.18,2.55-.31,4.08-.48,0-2,0-5.31,0-8.53H10.1Z"/><path class="cls-18" d="M19.26,148l2.52-.26c.42-3,.76-5.4,1.09-7.72H18.06C18.42,142.45,18.79,144.89,19.26,148Z"/><path class="cls-19" d="M26.77,140c0,2.22,0,4.48,0,7.25l4.1-.36c0-2.55,0-4.79,0-6.89Z"/><path class="cls-1" d="M11.75,124.29h4.4c.16,1,.33,2.19.49,3.41v0c.07.52.15,1,.21,1.43l-4.3.32s0,12.06,0,17.61l-.78.09Zm16.68,4.4-4.13-.3c.18-1.34.36-2.64.56-4.13h4.39c0,3.19,0,9.09,0,9.09,0,3.78,0,7.42,0,12l-.8.07C28.42,140.05,28.43,128.69,28.43,128.69Zm-7.94,16.39c-.5-3.27-.89-5.86-1.34-8.91l2.6,0C21.33,139.13,21,141.76,20.49,145.08Z"/><path class="cls-15" d="M32.93,147.87c1.6-11.06,2.37-16.28,3.9-26.6l.07-.43H48.67l.07.42c1.67,10,2.54,15.15,4.27,25.38l.1.56-.57,0c-3.1.14-4.62.23-7.72.42l-.48,0-.4-4.62-1.79.1v0c-.16,1.59-.25,2.53-.42,4.25l0,.43-.43,0c-3.1.21-4.63.32-7.8.58l-.62.05Zm10-16.63q-.57,3.91-.8,6.29l1.48-.06Q43.31,134.74,43,131.24Z"/><path class="cls-16" d="M48.24,121.33c1.71,10.24,2.57,15.31,4.28,25.39-3.09.14-4.64.23-7.73.42-.15-1.85-.23-2.77-.39-4.62l-2.7.14c-.19,1.88-.28,2.82-.47,4.7-3.12.21-4.69.33-7.81.58,1.56-10.76,2.34-16.08,3.91-26.6Zm-4,16.62q-.57-4.37-1.13-10.84c-.78,5-1.27,8.64-1.47,11Z"/><path class="cls-20" d="M35.84,140c-.29,2-.6,4.14-1,6.57,1.89-.15,3.26-.25,5.21-.38.11-1.13.2-2,.32-3.22l.15-1.5,1.07-.06,2.7-.14,1.21-.06s.34,4,.39,4.61c1.91-.12,3.25-.19,5.12-.28-.34-2-.65-3.85-.94-5.57Z"/><path class="cls-1" d="M36.81,144.77c1.15-7.91,1.88-12.85,3-20.53h6c1.3,7.77,2.12,12.63,3.33,19.75l-1.68.1-.29-3.35h.34l-.41-3.14c-.37-2.88-.74-6.49-1.11-10.72l-.13-1.45-5.4-.19-.22,1.44c-.79,5-1.29,8.74-1.5,11.14l-.29,3.29.51,0s-.3,3-.35,3.57Z"/><path class="cls-15" d="M60.67,147.41a8.41,8.41,0,0,1-3.46-.72,6.55,6.55,0,0,1-2.72-2.05A6,6,0,0,1,53.32,142a26.18,26.18,0,0,1-.22-4l0-7.53a22.47,22.47,0,0,1,.47-5.41,6.1,6.1,0,0,1,2.79-3.31,10.65,10.65,0,0,1,5.78-1.44h0a12.1,12.1,0,0,1,5.74,1.23,6.37,6.37,0,0,1,3.08,3,13.07,13.07,0,0,1,.7,4.84v1.57h-.49l-7.56.06h-.5v-2.78a8.55,8.55,0,0,0-.18-2.5c0-.06-.09-.22-.54-.22h0c-.41,0-.49.15-.52.21a6.09,6.09,0,0,0-.19,2.15v4.84c0,2.23,0,4.26,0,7.18a5.73,5.73,0,0,0,.2,2c0,.07.11.22.5.22h0c.47,0,.61-.19.69-.35a5.42,5.42,0,0,0,.25-2.13v-2.45l-1.52,0v-4.81h.49c3.57-.06,5.3-.08,8.86-.1h.5v.51c0,5.33,0,8,0,13.32v.49h-.49l-4.75.09h-.35l-.5-1.27A5.82,5.82,0,0,1,64,146.68a6.88,6.88,0,0,1-3,.72Z"/><path class="cls-16" d="M71.17,130.45l-7.55.06v-2.27a9.91,9.91,0,0,0-.21-2.68,1,1,0,0,0-1-.54,1,1,0,0,0-1,.47,6.57,6.57,0,0,0-.25,2.39c0,4.81,0,7.21,0,12a6.13,6.13,0,0,0,.25,2.22,1,1,0,0,0,1,.5,1.15,1.15,0,0,0,1.12-.63,6.07,6.07,0,0,0,.3-2.35v-3l-1.52,0v-3.8c3.54-.06,5.31-.08,8.85-.1,0,5.33,0,8,0,13.32l-4.75.09-.7-1.76a5.26,5.26,0,0,1-1.95,1.78,6.37,6.37,0,0,1-2.78.66,7.82,7.82,0,0,1-3.57-.67,6.19,6.19,0,0,1-2.52-1.88,5.51,5.51,0,0,1-1.08-2.46A26.61,26.61,0,0,1,53.6,138c0-3,0-4.52,0-7.53a22.1,22.1,0,0,1,.45-5.28,5.63,5.63,0,0,1,2.58-3,10.06,10.06,0,0,1,5.51-1.36,11.58,11.58,0,0,1,5.5,1.17,5.88,5.88,0,0,1,2.85,2.76,12.5,12.5,0,0,1,.67,4.65C71.17,129.8,71.17,130,71.17,130.45Z"/><path class="cls-21" d="M65.09,140a6.28,6.28,0,0,1-.43,2.59,2.36,2.36,0,0,1-2.21,1.33h-.09a2.19,2.19,0,0,1-2.08-1.22,6.49,6.49,0,0,1-.37-2.69h-5a13.32,13.32,0,0,0,.16,1.73,4.27,4.27,0,0,0,.84,1.91,5,5,0,0,0,2,1.49,6.67,6.67,0,0,0,2.75.57h.27a5.21,5.21,0,0,0,2.24-.53,4,4,0,0,0,1.49-1.36l1.32-2s1.15,2.9,1.26,3.2l2.67-.06v-5Z"/><path class="cls-1" d="M59,143.75a3,3,0,0,1-.41-.17,3.42,3.42,0,0,1-1.38-1,2.7,2.7,0,0,1-.54-1.19A23.11,23.11,0,0,1,56.5,138l0-7.53a18.74,18.74,0,0,1,.35-4.51c0-.14.24-.64,1.35-1.35a6.28,6.28,0,0,1,.58-.31,8.06,8.06,0,0,0-.52,3.59v4.83c0,2.23,0,4.27,0,7.2a7.91,7.91,0,0,0,.53,3.46Zm7.74-4.6v-3.4l1.53,0V143Zm-.23-11.57a8.46,8.46,0,0,0-.41-3.09.36.36,0,0,0,0-.09l.24.12a3.43,3.43,0,0,1,1.54,1.31,7,7,0,0,1,.36,1.74Z"/><path class="cls-15" d="M73.59,146.09c0-7.17,0-11.75,0-17.49v-7.79h8.55v25.76H79.48l-5.38,0h-.51Z"/><path class="cls-16" d="M81.66,121.31v24.76c-3,0-4.54,0-7.57,0,0-9.91,0-14.87,0-24.78Z"/><path class="cls-22" d="M75.35,139.93c0,1.52,0,3.13,0,4.9l4.14,0h.93v-4.89Z"/><path class="cls-1" d="M77,143.17c0-5.6,0-9.68,0-14.63v-4.33h1.76v19Z"/><path class="cls-15" d="M93.93,147.25h-.41a13.89,13.89,0,0,1-5.7-1.19,5.89,5.89,0,0,1-3.1-3.14,16.16,16.16,0,0,1-.74-5.64v-7.23a27.76,27.76,0,0,1,.22-4.1,5.73,5.73,0,0,1,1.4-2.82A7.52,7.52,0,0,1,88.76,121a12.73,12.73,0,0,1,4.53-.75A12.49,12.49,0,0,1,99,121.46a6.27,6.27,0,0,1,3.1,3,15.09,15.09,0,0,1,.72,5.39v2.9h-.51l-7.56-.11h-.49v-4.83a5.77,5.77,0,0,0-.19-2.13c-.08-.17-.38-.2-.62-.2h0c-.4,0-.64.08-.72.26a6.84,6.84,0,0,0-.2,2.26c0,3.46,0,11.55,0,11.55a6.17,6.17,0,0,0,.21,2.17c0,.06.12.27.68.28h0c.49,0,.57-.18.61-.25a7.18,7.18,0,0,0,.21-2.39c0-1.25,0-1.88,0-3.13v-.51h.51c3,0,4.51.07,7.56.14l.49,0v1.47a16.75,16.75,0,0,1-.66,5.7,6.16,6.16,0,0,1-3,3A11.08,11.08,0,0,1,93.93,147.25Z"/><path class="cls-16" d="M102.35,132.28l-7.56-.11c0-1.73,0-2.6,0-4.33a6.77,6.77,0,0,0-.24-2.36,1.1,1.1,0,0,0-1.07-.47c-.62,0-1,.18-1.18.56A7.42,7.42,0,0,0,92,128c0,4.62,0,6.93,0,11.55A6.93,6.93,0,0,0,92.3,142a1.13,1.13,0,0,0,1.13.58,1.09,1.09,0,0,0,1.11-.53,7.94,7.94,0,0,0,.26-2.61c0-1.25,0-1.88,0-3.13,3,0,4.54.07,7.56.14v1a16.68,16.68,0,0,1-.62,5.52,5.68,5.68,0,0,1-2.82,2.76,10.74,10.74,0,0,1-5.38,1.08A13.24,13.24,0,0,1,88,145.61a5.35,5.35,0,0,1-2.85-2.87,15.94,15.94,0,0,1-.71-5.46v-7.23a28.16,28.16,0,0,1,.21-4A5.26,5.26,0,0,1,86,123.45a7.16,7.16,0,0,1,3-2,12.4,12.4,0,0,1,4.35-.71,12.09,12.09,0,0,1,5.51,1.11,5.72,5.72,0,0,1,2.85,2.79,14.56,14.56,0,0,1,.69,5.2Z"/><path class="cls-23" d="M96,139.89a6.56,6.56,0,0,1-.37,2.64,2.23,2.23,0,0,1-2.19,1.25h-.07a2.34,2.34,0,0,1-2.25-1.31,6.33,6.33,0,0,1-.36-2.57h-5a9.33,9.33,0,0,0,.5,2.38,4.15,4.15,0,0,0,2.24,2.2,12.11,12.11,0,0,0,5,1h.37a9.3,9.3,0,0,0,4.39-.93,4.47,4.47,0,0,0,2.24-2.12,8.9,8.9,0,0,0,.46-2.56Z"/><path class="cls-1" d="M97.12,143.32l0-.09a8.61,8.61,0,0,0,.53-3.84v-.19l1.72,0a9.46,9.46,0,0,1-.38,2.61c-.07.18-.36.67-1.48,1.26A4.3,4.3,0,0,1,97.12,143.32Zm-7.45-.15-.35-.16a2.5,2.5,0,0,1-1.43-1.31,13.09,13.09,0,0,1-.51-4.42V130a22.81,22.81,0,0,1,.18-3.55,2.32,2.32,0,0,1,.61-1.15,4.1,4.1,0,0,1,1.49-1l0,.07a8.78,8.78,0,0,0-.49,3.63c0,3.49,0,5.66,0,8.51v3a8.35,8.35,0,0,0,.51,3.57Zm9.77-13.83-1.76,0v-1.47a8.37,8.37,0,0,0-.47-3.48l.26.12a3.12,3.12,0,0,1,1.5,1.31A10.77,10.77,0,0,1,99.44,129.34Z"/><path class="cls-15" d="M112.61,147.48c-3-.17-4.48-.24-7.55-.37l-.48,0v-.48c0-4.81,0-8.48,0-12.09,0-4,0-7.89,0-13.2v-.5h8.55v.5c0,5.1,0,8.93,0,12.76s0,7.73,0,12.89v.53Z"/><path class="cls-16" d="M112.59,121.33l0,25.66c-3-.18-4.53-.25-7.56-.38,0-10.12,0-15.18,0-25.29Z"/><path class="cls-24" d="M106.32,139.88c0,1.7,0,3.52,0,5.53l5.06.25c0-2.11,0-4,0-5.79Z"/><path class="cls-1" d="M109.74,143.92l-1.77-.08c0-3.52,0-6.44,0-9.32v-.6c0-3,0-6,0-9.7h1.76c0,3.66,0,6.69,0,9.71v.16C109.72,137.16,109.73,140.22,109.74,143.92Z"/><path class="cls-15" d="M133,149c-3.11-.29-4.62-.42-7.71-.66l-.42,0-.41-4.79-1.79-.11c-.1,1-.17,1.79-.25,2.67l-.2,2-.48,0c-3.15-.23-4.68-.33-7.81-.51l-.54,0,.08-.54c1.52-10.24,2.29-15.39,3.8-25.73l.06-.42h11.78l.07.42c1.75,10.76,2.61,16.08,4.36,27.15l.1.64Zm-10.34-11.25,1.48.07c-.23-1.87-.47-4-.71-6.41C123.06,134.08,122.8,136.18,122.66,137.75Z"/><path class="cls-16" d="M128.68,121.35c1.75,10.71,2.62,16.14,4.37,27.15-3.09-.28-4.63-.42-7.72-.66-.16-1.92-.25-2.87-.41-4.79l-2.7-.16-.45,4.68c-3.12-.22-4.68-.33-7.81-.51,1.52-10.2,2.29-15.34,3.81-25.72Zm-4,17c-.39-3-.78-6.73-1.17-11.13-.76,5-1.24,8.69-1.43,11Z"/><path class="cls-25" d="M116.3,139.86c-.28,1.86-.57,3.83-.9,6,1.92.11,3.29.2,5.24.34l0-.33c.09-1,.17-1.85.29-3.14l.12-1.2,1.2.07,2.71.17,1.07.07.42,4.8c1.91.15,3.25.26,5.07.43-.43-2.7-.8-5.07-1.15-7.27Z"/><path class="cls-1" d="M129.6,145.28l-1.59-.13-.32-3.75.34,0-.44-3.44c-.38-3-.77-6.67-1.16-11l-.13-1.45-5.41-.17-.22,1.45c-.77,5.15-1.25,8.81-1.45,11.19l-.25,3,.51,0s-.27,2.93-.33,3.48l-1.86-.12c1.07-7.18,1.8-12.11,3-20.12h6C127.53,132.3,128.34,137.35,129.6,145.28Z"/><path class="cls-15" d="M151.09,151c-2.64-.33-3.93-.48-6.59-.78l-.33,0-.1-.31c-1.19-4.06-1.93-6.51-2.95-9.87v.41c0,2.91,0,5.24,0,8.89v.55l-.55-.06c-2.51-.26-3.75-.38-6.3-.62l-.45-.05v-.45c0-6.37,0-10.88,0-15.7,0-3.43,0-7,0-11.56v-.5h.5l6.31,0H141l.11.34c1.37,4,2.17,6.43,3.27,9.78V120.89h7.31V151Z"/><path class="cls-16" d="M151.15,121.4v29c-2.64-.32-4-.48-6.6-.78-1.57-5.32-2.36-7.93-3.93-13.09,0,5.07,0,7.6,0,12.67-2.52-.27-3.78-.39-6.3-.63,0-10.9,0-16.36,0-27.26l6.31,0c1.7,5,2.55,7.57,4.24,12.76V121.39Z"/><path class="cls-26" d="M135.58,147.48l3.8.38c0-2.88,0-5,0-7.49v-.55h-3.81C135.57,142.15,135.57,144.63,135.58,147.48Z"/><path class="cls-27" d="M149.9,139.8h-7c.9,3,1.58,5.26,2.61,8.71l4.38.52Z"/><path class="cls-1" d="M148.25,147.18l-1.46-.17c-1.16-3.91-1.91-6.4-3.25-10.79l4.2-.68V124.29h.51v22.89Zm-11-1.2c0-5,0-8.93,0-13,0,0,0-5.51,0-8.66h1.33c1.24,3.69,2,6.08,3.4,10.26l-4.2.63s0,9.34,0,10.87Z"/></svg>