<svg id="Layer_1" data-name="Layer 1" xmlns="http://www.w3.org/2000/svg" viewBox="0 0 160 160"><defs><style>.cls-1,.cls-10,.cls-11,.cls-12,.cls-13,.cls-14{fill:#fff;}.cls-2{fill:#f0de4e;}.cls-3{fill:#db9e34;}.cls-4{fill:#a79297;}.cls-5{fill:#b7af8f;}.cls-6{fill:#635f4c;}.cls-7{fill:#515151;}.cls-8{fill:#2b2b2b;}.cls-9{fill:#4585c5;}.cls-10{font-size:20px;letter-spacing:0.01em;}.cls-10,.cls-11,.cls-12,.cls-13,.cls-14{font-family:Roboto-Black, Roboto;font-weight:800;}.cls-11,.cls-12{font-size:32.66px;letter-spacing:-0.02em;}.cls-11,.cls-13{stroke:#000;stroke-miterlimit:10;}.cls-11{stroke-width:4.7px;}.cls-13,.cls-14{font-size:40.28px;letter-spacing:-0.02em;}.cls-13{stroke-width:5.79px;}</style></defs><path class="cls-1" d="M144.41,121.56l-.14-1.37c-.79-7.72-1.88-18.3-2.13-20.82l-.32-3.29-5.55-.77c-2.05-.29-4.19-.57-6.38-.85,8.37-5.13,13.58-11.54,15.52-19.09,2.38-9.3-.4-20-8.26-31.81l-4.47-6.71-1.27,8c0,.11-1.7,10.08-10.41,20.75l-2-7.84-.09,0a21.27,21.27,0,0,0-.49-3.44,38,38,0,0,0,16.08-34.69l-.69-9.9-5.14,8.48c-.05.06-4.29,6.81-10.59,6.81a11.17,11.17,0,0,1-5.45-1.56c-4.11-2.29-5.13-4.65-6.42-7.63-2.1-4.87-4.48-10.39-18.58-14.1L82.5.32l1.2,5.11c.32,1.36.77,5.47-.85,8a5.08,5.08,0,0,1-2.91,2.14A5.09,5.09,0,0,1,77,13.45c-1.62-2.55-1.17-6.66-.86-8L77.38.33,72.31,1.67c-14.1,3.71-16.48,9.23-18.58,14.1-1.29,3-2.31,5.34-6.42,7.63A11.2,11.2,0,0,1,41.86,25c-6.31,0-10.54-6.74-10.58-6.8L26.13,9.68l-.69,9.89A38,38,0,0,0,41.6,54.32a21.74,21.74,0,0,0-.48,3.4l-2.07,7.9C30.36,55,28.61,44.92,28.59,44.81l-1.27-8-4.47,6.71C15,55.37,12.21,66.08,14.6,75.38c1.93,7.54,7.13,13.93,15.46,19.06-2.24.28-4.47.57-6.64.88l-5.54.77-.33,3.29c-1,10.47-2.09,21.05-3.14,31.43l-.54,5.33,8.62-1.2c2.08-.29,4.17-.56,6.21-.82l2.34-.28,9.66-1L48.3,138l-.13,2-.53,8.21,8.22-.38c2-.1,4.18-.18,6.4-.26L80,159.68,97.8,147.55l6.11.25,8.21.38-.64-10,7.87-5.37.76.07c5.68.58,11.47,1.26,17.19,2l8.6,1.16-.54-5.3C145.22,129.44,144.85,125.86,144.41,121.56Z"/><polygon points="116.4 60.42 80.03 53.18 43.67 60.42 27.99 120.32 80.03 155.87 132.08 120.32 116.4 60.42"/><polygon class="cls-2" points="45.53 115.39 57.13 71.09 80.03 66.53 80.03 57.19 47.71 63.62 33.25 118.84 80.03 150.79 80.03 138.96 45.53 115.39"/><polygon class="cls-3" points="112.36 63.62 80.03 57.19 80.03 66.53 102.94 71.09 114.54 115.39 80.03 138.96 80.03 150.79 126.82 118.84 112.36 63.62"/><path d="M134.52,45.31S130.08,73.17,96.59,87l5.26,14.15S165.65,92.06,134.52,45.31Z"/><path d="M25.48,45.31S29.92,73.17,63.41,87L58.15,101.1S-5.65,92.06,25.48,45.31Z"/><path class="cls-1" d="M136.25,80.6h0c-4.29,6.21-13.11,12-30,15.27l-.66-1.81s22.23-7,28.45-21.56c0,0-7.56,10.6-30.23,17.79l-1.29-.45-2.27-.79s26.9-11.51,35.12-34.77C135.41,54.28,144.74,68.3,136.25,80.6Z"/><path class="cls-4" d="M136.25,80.6h0c-4.29,6.21-13.11,12-30,15.27l-.66-1.81s22.23-7,28.45-21.56c0,0-7.56,10.6-30.23,17.79l-1.29-.45a66.64,66.64,0,0,0,33.3-28.25S140.64,69.36,136.25,80.6Z"/><path class="cls-1" d="M23.75,80.6h0c4.29,6.21,13.11,12,30,15.27l.66-1.81s-22.23-7-28.45-21.56c0,0,7.56,10.6,30.23,17.79l1.29-.45,2.27-.79S32.81,77.54,24.59,54.28C24.59,54.28,15.26,68.3,23.75,80.6Z"/><path class="cls-4" d="M23.75,80.6h0c4.29,6.21,13.11,12,30,15.27l.66-1.81s-22.23-7-28.45-21.56c0,0,7.56,10.6,30.23,17.79l1.29-.45a66.64,66.64,0,0,1-33.3-28.25S19.36,69.36,23.75,80.6Z"/><path d="M107.68,43c-1.46-14.11-19.49-11.29-26.31-10.3v-.17a9.45,9.45,0,0,1-1.15.33l-.19,0h-.1l-.18,0a9,9,0,0,1-1.15-.33v.17c-6.81-1-24.85-3.81-26.3,10.3,0,0-8,6-8.07,15.77l.21.18v.06l7.18,8.3L48,71,45,77.4s.48,7.41,1.74,10.77l1.25-2L59.2,103.37l2.52-3.85L80,110.69,98.26,99.52l2.52,3.85L112,86.15l1.26,2C114.52,84.81,115,77.4,115,77.4L112,71l-3.65-3.61,7.18-8.3V59l.22-.18C115.65,49,107.68,43,107.68,43Z"/><path class="cls-1" d="M86.64,59.61s2.65-2.23,3.24-2.57,3.46-1.42,3.46-1.42.74,0,.78.35S93.21,62.82,86.64,59.61Z"/><path class="cls-5" d="M102.17,53.33a13,13,0,0,1,1.18,2.34c.09.59-4.4,6.93-4.59,7.42a5.49,5.49,0,0,0-.1,1.66l-.88.88H93.59L93.13,65h0l-1.25-1.64,4.56-.86.08,0-.41-.13-2-.65,2.25-1.27,1.85-5.65V53.53H95.54l1.27-1.47,2.89-.71-3.58-.46s-8.39,3.51-9.1,4-4.3,4.29-4.3,4.29l-1.36-.52-.07-2.93s-1,2.08-1.23,2.34a2.31,2.31,0,0,1-.72.49,2.2,2.2,0,0,1-.71-.49c-.2-.26-1.24-2.34-1.24-2.34l-.07,2.93L76,59.22s-3.58-3.78-4.3-4.29-9.1-4-9.1-4L59,51.35l2.89.71,1.27,1.47H60.51V54.8l1.85,5.65,2.25,1.27-2.44.78,4.63.88-1.71,2.25H60.9L60,64.75a5.18,5.18,0,0,0-.1-1.66c-.19-.49-4.68-6.83-4.58-7.42a12.46,12.46,0,0,1,1.17-2.34l-2.25.2c.39-1.47,3.42-6,3.42-6A21.94,21.94,0,0,0,62,45.43a1.9,1.9,0,0,1,2.44,0c.68.49,9.76,5.36,10.54,5.66s2.44,3.31,2.44,3.31l.49-.87H80.8l.49.87a25.52,25.52,0,0,1,1.46-2.32,3,3,0,0,1,1-1c.78-.3,9.86-5.17,10.54-5.66a1.9,1.9,0,0,1,2.44,0A21.94,21.94,0,0,0,101,47.57s3,4.49,3.42,6Z"/><path class="cls-5" d="M87.67,64.46c-.46.68-2.91,4.1-2.91,4.1l.31-4v-.08c0-.35-1.39-.92-2-1.32a1,1,0,0,0-1.14,0l-2.63,1.32-2.62-1.32a1,1,0,0,0-1.14,0c-.57.4-2,1-2,1.32a.32.32,0,0,0,0,.08c0,.65.3,4,.3,4s-2.45-3.42-2.91-4.1c0,0-6.1,4.3-6.07,11.4h0c8.14-2.47,14.38-2.55,21.58,1.06A24.29,24.29,0,0,0,94,79H94C94.53,70.39,87.67,64.46,87.67,64.46Zm-5.08,2.12c-.08.13-.13,1.37-.17,1.54s-.6.39-.6.39a2.56,2.56,0,0,1-.08-.43c0-.13-.6-.64-.6-.64L80,68.12l-.63,1.06h0l-.64-1.07-1.16-.68s-.6.51-.6.64a2.56,2.56,0,0,1-.08.43s-.56-.22-.6-.39-.09-1.41-.17-1.54.56-.9.56-.9.55-.3.68-.13a6.1,6.1,0,0,0,2,.9h0a6.29,6.29,0,0,0,2-.9c.13-.17.69.13.69.13S82.68,66.45,82.59,66.58Z"/><path class="cls-1" d="M72,59.61S69.39,57.38,68.8,57s-3.46-1.42-3.46-1.42-.73,0-.78.35S65.47,62.82,72,59.61Z"/><path class="cls-5" d="M93.59,84.38c-.26.26-1.11-.13-1.63-.39a25.76,25.76,0,0,0-3.08-.72l.68.41,2.92,1.81a6.65,6.65,0,0,1-.4.64c-1.25,1.84-5.55,7-14.45,6.59-5.35-.21-8.4-3.68-10-6.57h0A16.62,16.62,0,0,1,66,82.2l3.76-2.33c-.37.08-.9.21-1.48.37h0a23.05,23.05,0,0,1-3,.7c-.63,0-1-1.65-.86-2.28a2.5,2.5,0,0,1,.92-1.2l.1-.06c2.2-1.2,13-3.06,18-.17a27.85,27.85,0,0,0,10,3.49h0c.57.08.88.13.9.19A14.33,14.33,0,0,1,93.59,84.38Z"/><path class="cls-6" d="M93.59,84.38c-.26.26-1.11-.13-1.63-.39a25.76,25.76,0,0,0-3.08-.72l.68.41,2.92,1.81a6.65,6.65,0,0,1-.4.64l-4-.92-1-2.43a47.29,47.29,0,0,0,5.39.5c.63-.09.86-1.65.94-2.56.57.08.88.13.9.19A14.33,14.33,0,0,1,93.59,84.38Z"/><path class="cls-6" d="M89.12,83.31l3.36,2.18s-4,7.67-14.85,7.23c-5.35-.21-8.4-3.68-10-6.57.25.33,6,7.66,11.34,3.42,6.29-5-4.45-10-4.45-10s5.33,0,7.34,1.07A30.09,30.09,0,0,0,89.12,83.31Z"/><path class="cls-6" d="M97,87.52a.06.06,0,0,1-.06,0S97,87.48,97,87.52Z"/><path class="cls-7" d="M66,27.77V32l-1.11,2.17a13.73,13.73,0,0,1,.21-1.71l.09-.46a12.31,12.31,0,0,0-3.57,5.87l-.45.16C60.29,31.48,66,27.77,66,27.77Z"/><path class="cls-8" d="M107.5,80l-2.07-2.24a43.69,43.69,0,0,1,.27,5.55c-.21.7-4.85,9.21-4.85,9.21l-1.17-5s-4.46,7.43-5.62,9.82h0c-.07.15-.14.29-.18.4,0-.19.83-6.1,1.93-8.21s3-8,2.71-10.22a17.36,17.36,0,0,1,.09-4.32l2.08,2.41s-.54-5.79-.53-6.65a10.76,10.76,0,0,1,1.31-3s3.08,5.41,5.6,6.84Z"/><path class="cls-7" d="M102.66,82.26l-2.23-1.7-.75,6.86-5.62,9.82s-.14.3-.18.41c0-.19.83-6.1,1.93-8.21s3-8,2.71-10.22a17.36,17.36,0,0,1,.09-4.32l2.08,2.41s-.54-5.79-.53-6.65a10.76,10.76,0,0,1,1.31-3Z"/><path class="cls-8" d="M52.74,80l2.06-2.24a42.11,42.11,0,0,0-.26,5.55c.2.7,4.85,9.21,4.85,9.21l1.17-5s4.46,7.43,5.61,9.82h0a3.17,3.17,0,0,1,.18.4c0-.19-.82-6.1-1.92-8.21s-3-8-2.72-10.22a17.36,17.36,0,0,0-.09-4.32l-2.07,2.41s.54-5.79.52-6.65a10.76,10.76,0,0,0-1.31-3s-3.08,5.41-5.59,6.84Z"/><path class="cls-7" d="M57.57,82.26l2.24-1.7.75,6.86,5.61,9.82s.14.3.18.41c0-.19-.82-6.1-1.92-8.21s-3-8-2.72-10.22a17.36,17.36,0,0,0-.09-4.32l-2.07,2.41s.54-5.79.52-6.65a10.76,10.76,0,0,0-1.31-3Z"/><path class="cls-8" d="M111.15,57.33c-2,.19-8.45,8-8.68,8.29h0c.48-3.13,4.88-11.42,4.88-11.42,0-.55-2-7.19-2.22-8h0l0-.08C111,49.62,111.15,57.33,111.15,57.33Z"/><path class="cls-7" d="M109.4,54.47c-1.48,1-6.77,10.84-6.93,11.15h0c.48-3.13,4.88-11.42,4.88-11.42,0-.55-2-7.19-2.22-8A49.87,49.87,0,0,1,109.4,54.47Z"/><path class="cls-8" d="M47.8,57.33c2,.19,8.46,8,8.68,8.29h0C56,62.5,51.61,54.21,51.61,54.21c0-.55,2-7.19,2.22-8h0l0-.08C48,49.62,47.8,57.33,47.8,57.33Z"/><path class="cls-7" d="M49.55,54.47c1.49,1,6.77,10.84,6.93,11.15h0C56,62.5,51.61,54.21,51.61,54.21c0-.55,2-7.19,2.22-8A50.21,50.21,0,0,0,49.55,54.47Z"/><path class="cls-6" d="M104.42,53.53c-.39-1.47-3.42-6-3.42-6l.13,2.54S95.84,49,95.44,49s-9.56,4.57-9.56,4.57l-2.61,3.05s-.36.26-.52,0a42.32,42.32,0,0,1,0-4.51,25.52,25.52,0,0,0-1.46,2.32l-.49-.87H77.88l-.49.87a25.52,25.52,0,0,0-1.46-2.32,42.32,42.32,0,0,1,0,4.51c-.16.26-.52,0-.52,0L72.8,53.54S63.64,49,63.24,49s-5.68,1.14-5.68,1.14l.12-2.54s-3,4.49-3.42,6l2.25-.2a12.46,12.46,0,0,0-1.17,2.34c-.1.59,4.39,6.93,4.58,7.42a5.18,5.18,0,0,1,.1,1.66l.88.88h4.19l.46-.61-3.87-.39s-1.32-1.19.56-2.11l.33-.15-1.2-1.87-1.71-5.19.85-1.78h2.63l-1.27-1.47L59,51.35l3.58-.46s8.39,3.51,9.1,4S76,59.22,76,59.22l1.36-.52.07-2.93s1,2.08,1.24,2.34a2.2,2.2,0,0,0,.71.49,2.31,2.31,0,0,0,.72-.49c.19-.26,1.23-2.34,1.23-2.34l.07,2.93,1.36.52s3.58-3.78,4.3-4.29,9.1-4,9.1-4l3.58.46-2.89.71-1.27,1.47h2.63L99,55.31,97.31,60.5l-1.2,1.87.33.15c1.89.92.56,2.11.56,2.11L93.13,65l.46.61h4.19l.88-.88a5.49,5.49,0,0,1,.1-1.66c.19-.49,4.68-6.83,4.59-7.42a13,13,0,0,0-1.18-2.34Z"/><path class="cls-6" d="M87.67,64.46c-.46.68-2.91,4.1-2.91,4.1l.31-4a7.53,7.53,0,0,1-.9,1.48.81.81,0,0,1-.71,0l-1.54-1.49-2.54,1.28-2.62-1.28L75.22,66s-.43.2-.7,0a6.67,6.67,0,0,1-.9-1.48c0,.65.3,4,.3,4s-2.45-3.42-2.91-4.1c0,0-6.1,4.3-6.07,11.4h0c.92-2.61,2.76-6.56,5.86-8.37,0,0,3.23,2,3.41,2s3,0,3,0,.15-.89.37-.92a3.16,3.16,0,0,1,1.1.55c.1.09.68.5.68.5s.59-.41.68-.5a3.16,3.16,0,0,1,1.1-.55c.22,0,.37.92.37.92s2.77,0,3,0,3.41-2,3.41-2C92,69.9,93.59,77,94,79H94C94.53,70.39,87.67,64.46,87.67,64.46Zm-5.08,2.12c-.08.13-.13,1.37-.17,1.54s-.6.39-.6.39a2.56,2.56,0,0,1-.08-.43c0-.13-.6-.64-.6-.64L80,68.12l-.63,1.06h0l-.64-1.07-1.16-.68s-.6.51-.6.64a2.56,2.56,0,0,1-.08.43s-.56-.22-.6-.39-.09-1.41-.17-1.54.56-.9.56-.9.55-.3.68-.13a6.1,6.1,0,0,0,2,.9h0a6.29,6.29,0,0,0,2-.9c.13-.17.69.13.69.13S82.68,66.45,82.59,66.58Z"/><path d="M74.3,79.53s4.65-1,7.85,1.26Z"/><path class="cls-6" d="M68.27,80.24h0a23.05,23.05,0,0,1-3,.7c-.63,0-1-1.65-.86-2.28a2.5,2.5,0,0,1,.92-1.2l.1-.06a9,9,0,0,0,0,2.56C65.7,80.33,68.27,80.24,68.27,80.24Z"/><path d="M131.31,19.79s-8,13.2-20.27,6.36S108.22,10.37,86.78,4.71c0,0,2.82,12-6.84,14.14-9.66-2.12-6.83-14.14-6.83-14.14-21.44,5.66-12,14.61-24.26,21.44s-20.27-6.36-20.27-6.36C26.93,43.35,45.31,52.93,45.31,52.93,63.69,36.11,79.94,37,79.94,37s16.26-.88,34.64,15.94C114.58,52.93,133,43.35,131.31,19.79Z"/><path class="cls-9" d="M125.24,30.22s-10.88,5-18.43-.8C98.31,22.9,99.52,14,91.84,11c0,0-.88,7.83-7.07,10.63A9.45,9.45,0,0,0,93,17.12s2.45,2.66,7.33,10.65C105.62,36.49,120.05,36.56,125.24,30.22Z"/><path class="cls-9" d="M34.39,30.22s10.88,5,18.43-.8C61.32,22.9,60.11,14,67.79,11c0,0,.88,7.83,7.07,10.63a9.45,9.45,0,0,1-8.19-4.47s-2.45,2.66-7.33,10.65C54,36.49,39.58,36.56,34.39,30.22Z"/><path d="M40.19,136.61q.57-8.82,1.13-17.64l.34-5.22,5.22-.25c11-.52,22.06-.78,33-.78s22,.26,33,.78l5.22.25.33,5.22q.57,8.82,1.14,17.64l.42,6.52-6.53-.3c-11.15-.52-22.46-.78-33.59-.78s-22.43.26-33.59.78l-6.53.3Z"/><path class="cls-9" d="M115.64,137.66c-23.87-1.12-47.65-1.12-71.51,0l1.2-18.78c23.06-1.11,46-1.11,69.11,0Q115,128.27,115.64,137.66Z"/><text class="cls-10" transform="translate(57.67 134.21)">FISH</text><text class="cls-11" transform="matrix(0.98, -0.22, 0.22, 0.98, 21.5, 129.35)">GO</text><text class="cls-12" transform="matrix(0.98, -0.22, 0.22, 0.98, 21.5, 129.35)">GO</text><text class="cls-13" transform="translate(107.94 136.65) rotate(20.68)">!</text><text class="cls-14" transform="translate(107.94 136.65) rotate(20.68)">!</text></svg>