<svg id="Layer_1" data-name="Layer 1" xmlns="http://www.w3.org/2000/svg" viewBox="0 0 160 160"><defs><style>.cls-1,.cls-3{fill:#fff;}.cls-2,.cls-3{font-size:50px;stroke-miterlimit:10;font-family:Roboto-Black, Roboto;font-weight:800;}.cls-2{stroke:#000;stroke-width:9px;}.cls-3{stroke:#40deff;}.cls-4{fill:#74acdd;}.cls-5{fill:#0b1c2a;}.cls-6{fill:#000b17;}.cls-7{fill:red;}.cls-8{fill:#98c3e6;}.cls-9{fill:#72efff;}</style></defs><path class="cls-1" d="M136.63,142a24.39,24.39,0,0,1-11.85-2.81v2.3H78.17l-3.71-6.37v6.37H28l-3.71-6.37v6.37H4V94H21.24a11,11,0,0,1,.49-1.46,21.39,21.39,0,0,1,4.66-6.92,6.94,6.94,0,0,1,1.31-1,4.55,4.55,0,0,0,.71-.49,36.66,36.66,0,0,0,3-3l.1-.13a.68.68,0,0,0-.26-.07c-.57-.09-1.14-.2-1.71-.31s-1-.19-1.46-.27a3.47,3.47,0,0,0-2.65.3c-.86.58-1.79,1.17-2.87,1.81a7.14,7.14,0,0,1-7.15.38c-.57-.3-1.14-.62-1.7-1a18.54,18.54,0,0,0-2.58-1.32,6.37,6.37,0,0,1-4-4.51,3.68,3.68,0,0,1,.6-3.17,6,6,0,0,1,3.72-2.08c.29,0,.62-.12.8-.77.24-.84.45-1.69.66-2.55.26-1.07.53-2.17.86-3.26l.27-.91a25.75,25.75,0,0,1,2-5.23,15.83,15.83,0,0,1,2.91-3.48c.24-.24.49-.48.72-.72a56.44,56.44,0,0,1-1.18-5.66,19.59,19.59,0,0,1,.34-8.39c.43-1.46.83-2.65,1.27-3.74a2.48,2.48,0,0,1,1.83-1.64,2.73,2.73,0,0,1,2.49.94c1.39,1.45,2.84,2.91,4.25,4.31l.41.41,2.87,2.84.1.1.42-.59c1.52-2.1,3-4.23,4.57-6.37a8.06,8.06,0,0,0,.48-.8c.19-.33.38-.65.59-1a2.46,2.46,0,0,1,1.83-1.07,2.17,2.17,0,0,1,2,1.58,6.64,6.64,0,0,0,1.81,2.68l.23.25c.34.37.66.76,1,1.15a21.3,21.3,0,0,1,3.24-8.12c1.69-2.36,8.34-9.31,13.68-9.68L63.13,21l.33,1.18a4.88,4.88,0,0,1-1.1,4.3l-.18.27c-1.35,2-2.58,4.21-2.44,6.72A6.75,6.75,0,0,0,60.31,36a1.91,1.91,0,0,0,1.32,1c1.27.32,2.54.66,3.8,1a3.24,3.24,0,0,0-2.11-1.16s-2.94-.77-3.16-2.36h0a1.87,1.87,0,0,1,.42-1.44c1-1.29,3.9-1.58,3.92-1.58,1.36-.12,2.71-.15,4.08-.17A17,17,0,0,1,72.92,22c2.14-2.55,5-3.43,7.24-4.14,1.28-.4,2.58-.74,3.84-1.07A37.31,37.31,0,0,0,92,14a3.93,3.93,0,0,1,.4-.17,20.08,20.08,0,0,0,2.91-1.48L97.67,11l-.15,2.8a51,51,0,0,0,.37,12c1.1-.31,2.24-.63,3.36-1a15.87,15.87,0,0,1,7.45-.83c2,.36,3.89.76,5.63,1.23a9.33,9.33,0,0,1,2,.92c.26.14.52.28.79.41l2.56,1.27-2.5,1.39-1.34.76c-1,.56-2,1.14-3,1.66a12.83,12.83,0,0,0-3.15,2.18,16.06,16.06,0,0,1,3.8-.82c1.13-.11,2.25-.15,3.34-.19s2.25-.08,3.33-.19A7.37,7.37,0,0,0,124,31.25a6.89,6.89,0,0,1,1.7-.91c.2-.09.4-.17.6-.27l1.47-.7,1.1,2.88c.37,1,.74,1.93,1.12,2.89a11.17,11.17,0,0,1,.44,7.34c.8.11,1.61.23,2.41.38a6.57,6.57,0,0,1,2.37.87,2.56,2.56,0,0,1,1.27,2.09,2.68,2.68,0,0,1-1.2,2.27,7.18,7.18,0,0,1-1.56.84A5.53,5.53,0,0,0,132,50a20.43,20.43,0,0,1,2.58-.85l.65-.19a20.22,20.22,0,0,1,11.18,0c.29.08.57.14.86.2a7.48,7.48,0,0,1,3.14,1.2,4.08,4.08,0,0,1,.95,1.12c.07.1.12.19.19.28l.91,1.24-1.25.88L151,54a3.13,3.13,0,0,1-1.26.73,8.16,8.16,0,0,0-3.39,1.82,1.23,1.23,0,0,0-.37.63,47.16,47.16,0,0,0-.71,5.25c-.09,1.21-.09,2.41-.1,3.68,0,.81,0,1.62,0,2.43-.17,5.23-1.71,9.18-4.71,12.09a17.07,17.07,0,0,1-4.42,3.3,10.89,10.89,0,0,1,5,9.92,19.7,19.7,0,0,1,8.65,3.66,15.2,15.2,0,0,1,5.94,12.93l0,.9-1.7,5.1h-1A15.26,15.26,0,0,1,156,126a14.49,14.49,0,0,1-6.15,12.2C146.39,140.74,141.94,142,136.63,142Zm-14.85-8.58,2.41,1.83q.27.21.54.39a20.74,20.74,0,0,0,11.9,3.36c4.66,0,8.52-1.08,11.47-3.21A11.59,11.59,0,0,0,153,126a12,12,0,0,0-4.26-9.54h0l-.44-.35-3.47-2.69h6.84l.88-2.63v-.45a12.27,12.27,0,0,0-4.76-10.46,17.25,17.25,0,0,0-8.65-3.29l-1.57-.18.26-1.56a8.57,8.57,0,0,0,.13-1.16c.23-3.81-1.64-6.47-6.28-8.86l-2.84-1.48L132,82.07a2.1,2.1,0,0,1,.67-.22c2.13-.3,3.8-1.56,5.66-3.36,2.45-2.38,3.65-5.57,3.8-10,0-.78,0-1.57,0-2.35,0-1.26,0-2.56.11-3.86a52.73,52.73,0,0,1,.74-5.57,4.27,4.27,0,0,1,1.3-2.32,10.81,10.81,0,0,1,3.31-2.06l-1-.23c-.34-.07-.68-.14-1-.23a17.25,17.25,0,0,0-9.56,0l-.68.19a8.93,8.93,0,0,0-3.94,1.83c-.42.4-.81.81-1.21,1.23L127.42,58l-.34-3.18a6,6,0,0,1,.16-2,8.68,8.68,0,0,1,5.46-6.69A2.22,2.22,0,0,0,133,46a4.35,4.35,0,0,0-.69-.17c-.9-.17-1.81-.3-2.78-.42l-1.22-.17L126.64,45l.54-2a8.65,8.65,0,0,1,.25-.87,8.06,8.06,0,0,0-.2-5.9c-.36-.94-.72-1.87-1.07-2.8l-.27.17a10.17,10.17,0,0,1-5.39,1.89c-1.2.13-2.4.17-3.56.21s-2.11.07-3.14.17c-3.18.32-5.4,1.42-7,3.45a6.94,6.94,0,0,1-.79.82,3.07,3.07,0,0,1-.26.25l-1.73,1.73-.75-2.33a2.39,2.39,0,0,1,0-1.69,16.57,16.57,0,0,1,8.19-9.26c.58-.28,1.14-.59,1.71-.91-1.55-.41-3.21-.77-5-1.08a13,13,0,0,0-6,.74c-1.18.36-2.37.69-3.52,1l-2.92.82-.39-1.49a41.5,41.5,0,0,1-.91-11.71c-.44.21-.75.33-1,.41l-.14.05a39.67,39.67,0,0,1-8.55,3c-1.23.32-2.49.65-3.7,1-2.5.78-4.38,1.47-5.85,3.21-2.38,2.82-3.52,5.36-3.69,8.23a2.12,2.12,0,0,1-2.26,2.16c-1.29,0-2.55,0-3.79.11,2.34,1,3.41,2.8,3.4,5.71v2.07l-2.21-.74L65,41c-1.36-.37-2.72-.74-4.08-1.08a4.91,4.91,0,0,1-3.31-2.61,10.25,10.25,0,0,1-.86-3.65c-.18-3.4,1.31-6.12,2.94-8.56l.2-.3.08-.12c-3.67,1.61-8,6-9.29,7.85-1.59,2.22-2.35,4.86-3,8.15l-.42,2.18-2.07,1-2.46-3c-.31-.38-.61-.76-.94-1.11l-.22-.25a13.54,13.54,0,0,1-1.79-2.23q-.15.26-.33.51c-1.52,2.14-3.06,4.27-4.57,6.38l-2.47,3.44-2.59-2.56c-1-1-1.95-1.91-2.89-2.86l-.41-.41c-1.29-1.29-2.62-2.62-3.92-4-.31.85-.61,1.75-.93,2.82a16.42,16.42,0,0,0-.24,7.12,53.17,53.17,0,0,0,1.14,5.43,2.52,2.52,0,0,1-.7,2.66l-.85.85a13.05,13.05,0,0,0-2.38,2.79,22.89,22.89,0,0,0-1.73,4.64l-.28.92c-.31,1-.56,2-.82,3.1-.22.89-.43,1.78-.68,2.67a3.85,3.85,0,0,1-3.34,2.92,2.89,2.89,0,0,0-1.76,1c-.08.43,0,2,2.23,3a20.78,20.78,0,0,1,2.93,1.5c.52.29,1,.59,1.56.86A4.11,4.11,0,0,0,21,79.86c1-.62,1.91-1.18,2.72-1.72a6.42,6.42,0,0,1,4.79-.79l1.58.29c.52.11,1,.21,1.57.29a3.27,3.27,0,0,1,2.68,2A3.09,3.09,0,0,1,33.68,83a37,37,0,0,1-3.24,3.26,7.83,7.83,0,0,1-1.15.83,4.18,4.18,0,0,0-.75.53,18.51,18.51,0,0,0-4,6c-.77,1.92-.5,2.73.19,3.42a2.73,2.73,0,0,1,.65,1.19l.06.17c.3.64.6.79.89.87a1.81,1.81,0,0,0,.56.06l1.54,0v12.15L20,97H7V138.5H21.24V124l8.44,14.49H71.46V124L79.9,138.5h41.88ZM10.06,74.71ZM40.56,36ZM127,121.07h-7.73v-8.54l2.73,3.86a10.68,10.68,0,0,0,1.86,2ZM60.32,97H55.61l1.87-2.57c.15-.21.29-.4.43-.62h0a4.52,4.52,0,0,1,5.22-2.06l3.26.87L63,94.8a15.64,15.64,0,0,0-2.21,1.76Z"/><text class="cls-2" transform="translate(7.16 135.5)">NINES</text><text class="cls-3" transform="translate(7.16 135.5)">NINES</text><path class="cls-4" d="M16.24,121v12.52H12V121h4.25m.5-.5H11.49V134h5.25V120.49Z"/><path class="cls-4" d="M37.63,121v12.52H32.55L25.27,121h2.91l2,3.37.21.35.38-.13,2.33-.78.34-.12V121h4.23m.5-.5H32.9v2.84l-2.33.78-2.11-3.62H24.4L32.26,134h5.87V120.49Z"/><path class="cls-4" d="M52,121v12.52H47.81V121H52m.5-.5H47.31V134h5.22V120.49Z"/><path class="cls-4" d="M66.46,121v12.52H62.21V121h4.25m.5-.5H61.71V134H67V120.49Z"/><path class="cls-4" d="M87.85,121v12.52H82.77L75.49,121H78.4l2,3.37.21.35.38-.13,2.33-.78.34-.12V121h4.23m.5-.5H83.12v2.84l-2.33.78-2.11-3.62H74.62L82.48,134h5.87V120.49Z"/><path class="cls-4" d="M101.76,121v10.17h15v2.35H97.51V121h4.25m.5-.5H97V134h20.27v-3.35h-15V120.49Z"/><path class="cls-4" d="M146.24,121a7.08,7.08,0,0,1,1.76,5,6.59,6.59,0,0,1-2.83,5.71c-2.09,1.51-5,2.28-8.54,2.28a15.92,15.92,0,0,1-9.1-2.51,7.18,7.18,0,0,1-3.11-5.43h4.17a6.44,6.44,0,0,0,2.06,3.93,9,9,0,0,0,6,1.78,7.89,7.89,0,0,0,5.12-1.48,5.25,5.25,0,0,0,2-4.23,5.49,5.49,0,0,0-2-4.47,7.27,7.27,0,0,0-.89-.62h5.36m.21-.5h-7.66a11.53,11.53,0,0,1,2.66,1.51,5,5,0,0,1,1.8,4.08,4.79,4.79,0,0,1-1.82,3.85,7.4,7.4,0,0,1-4.8,1.36,8.57,8.57,0,0,1-5.66-1.66,6.12,6.12,0,0,1-1.95-4h-5.15a7.85,7.85,0,0,0,3.38,6.35,16.36,16.36,0,0,0,9.38,2.59c3.69,0,6.66-.8,8.83-2.37a7.06,7.06,0,0,0,3-6.12,7.53,7.53,0,0,0-2.05-5.54Z"/><path class="cls-5" d="M12.23,74.49c-.47.32-1.24.59-1.33,1s.33,1,.71,1.53c.15.24.37.45.41-.07l.49-2.24C12.58,74.42,12.63,74.14,12.23,74.49Z"/><path class="cls-6" d="M10.88,75.61A3,3,0,0,0,11.61,77c.15.24.37.45.41-.07l.35-1.61A1.76,1.76,0,0,1,10.88,75.61Z"/><path class="cls-1" d="M24,51.36c-.23-.77-.53-1.53-.8-2.29a10.65,10.65,0,0,1-.38-5.3L26.5,51c.81-.13,1-.71,1.09-1.37.28-1.35.62-2.69,1-4.18l1.84,1.09-8-7.66C21,43.5,21.84,48.29,23,53.1,24.34,52.59,24.39,52.52,24,51.36Z"/><path class="cls-1" d="M42.18,91.82A9.15,9.15,0,0,0,39,91.53a13.58,13.58,0,0,0-3.19.93A1.65,1.65,0,0,0,35,94.28a8.73,8.73,0,0,1,4.46-1.71A26.64,26.64,0,0,0,42.18,91.82Z"/><path class="cls-1" d="M40.2,85.57a4.4,4.4,0,0,1,.1,1.74c.25-.24.45-.44.66-.63a2.24,2.24,0,0,0-.25-3.63c-1.55-.87-3.2-1.55-4.82-2.3-.29-.13-.61-.19-1-.31,0,.34,0,.54,0,.74A4.2,4.2,0,0,1,33.31,85c-1.2.9-2.5,1.67-3.72,2.53a8.06,8.06,0,0,0-1.84,1.53A45.24,45.24,0,0,0,25,93.26a18.52,18.52,0,0,0-1,2.51l1.15-.59c-.17,1.42-.38,2.61.64,3.49.8.68,1.63.17,2.54-.08C27,97.2,26.8,95.27,27.8,94.8c0,.2,0,.35,0,.51.12,1.44,1.25,2.27,2.42,1.79,2.3-1,2.58-1.38,2.58-3.81,0-.2,0-.4,0-.61a5.73,5.73,0,0,1,2.32-4l-1.31,2.66C36.54,90.05,38.86,88.36,40.2,85.57Z"/><path class="cls-1" d="M112.26,51.69c0,.1.14.17.29.34.19-.31.35-.57.52-.83a32.86,32.86,0,0,1,2.28-3.27c1.87-2.14,4.47-3,7.14-3.44,2.49-.46,3.38-1.43,3.28-4,0-.27,0-.52-.06-.78-.13-1.39-.27-2.77-.4-4.19a15.9,15.9,0,0,1-1.91.77,32,32,0,0,1-8.1.91c-2.93,0-5.76.5-7.85,2.85s-2.27,2.87-.66,4.72C108.71,47,111,48.92,112.26,51.69Z"/><path class="cls-1" d="M88.77,38.24A11.44,11.44,0,0,0,86.14,47a5.4,5.4,0,0,0,.54,2.41C89.74,54,91.52,59,90.52,64.6a18.18,18.18,0,0,1-1.45,4.7,29.91,29.91,0,0,1-2.72,4,2.43,2.43,0,0,1-.4.45c-1.28,1.14-1.12,2.42.33,3.42,3.42,2.37,7,1.85,10.67.74a27.68,27.68,0,0,0,5-2.42c3.69-2,5.84-5.27,7.66-8.85a15,15,0,0,0,1.23-6.45,11,11,0,0,0-1.46-6.34,52.35,52.35,0,0,0-4.59-6.08,8.32,8.32,0,0,0-.77-.68c-.33-.3-.78-.56-1-.94A42.69,42.69,0,0,1,101.43,42a6.77,6.77,0,0,1,.4-5.09c.69-1.43,1.45-2.82,2.23-4.21a7.22,7.22,0,0,1,4.47-3.5c.65-.19,1.29-.4,1.94-.6l0-.22a28.22,28.22,0,0,0-11.13,2A42.9,42.9,0,0,0,93.93,33C91.75,34.25,90.36,36.37,88.77,38.24Z"/><path class="cls-1" d="M70.8,40.3c.69,2.19.07,4.3-.6,6.38-.45,1.39-1,2.74-1.49,4.14a19.38,19.38,0,0,0-.56,8.76,9.31,9.31,0,0,0,.53,1.65,17.39,17.39,0,0,1,.61,1.71c.36,1.46.64,1.66,2.15,1.92a10.73,10.73,0,0,1,2.89.87c1.74.82,3.41,1.81,5.12,2.7a8.21,8.21,0,0,1,3.74,3.74c.19.38.4.76.59,1.14A11.9,11.9,0,0,0,85,71.06a5.08,5.08,0,0,1,.37-.78,11.41,11.41,0,0,0,1.71-5.92c0-1.28,0-2.55,0-3.83a8.33,8.33,0,0,0-.22-2.4c-.5-1.56-.87-3.32-1.86-4.54a25.75,25.75,0,0,1-4.37-7.53,15.22,15.22,0,0,0-3.39-6c-1.32-1.28-2.12-2.81-5-3.79l-2.51-.59c-.55-.12-1.11-.22-1.91-.37a8.11,8.11,0,0,0,.74,1A9.41,9.41,0,0,1,70.8,40.3Z"/><path class="cls-1" d="M53,48.42a14.72,14.72,0,0,1,10.81,3.47,3.74,3.74,0,0,1,.47.61,7.16,7.16,0,0,0-5.29.21C61.14,54,63.39,54.86,64.67,57l.21-.09c0-1.47.07-3,0-4.43a13.39,13.39,0,0,1,1.63-6.85c.62-1.25.32-2.15-1-2.6-1.07-.37-2.17-.64-3.24-1a20.37,20.37,0,0,1-3-1.1A6.51,6.51,0,0,1,55.55,35,15.37,15.37,0,0,1,57,28.71c.18-.45.31-.92.45-1.38a1.48,1.48,0,0,0-.89.57,68.31,68.31,0,0,0-5.06,7.25c-1.89,3.55-3,7.34-1.19,11.4C51.11,48.45,51,48.53,53,48.42Z"/><path class="cls-1" d="M74,33.62a10.66,10.66,0,0,0,1.79.89,12.84,12.84,0,0,1,6.39,5.88l1.25,2.19a2.1,2.1,0,0,0,.25-1.06A7.76,7.76,0,0,1,84.74,37a21.87,21.87,0,0,1,6.94-7.31c1.31-.8,1.28-1.67,1-2.82-.06-.29-.15-.56-.22-.84a13.69,13.69,0,0,1-.69-2.6c-.1-1.5,0-3,0-4.44a17.68,17.68,0,0,1-2.53,1.18c-2,.61-4.09,1.05-6.13,1.62a12.76,12.76,0,0,0-7.56,5.36,11.2,11.2,0,0,0-2,5.66A1,1,0,0,0,74,33.62Z"/><path class="cls-7" d="M25.76,64.31c-1.16,1.71-2.18,3.51-3.27,5.3,1.45,1.13,5.28.18,6.51-1a2.75,2.75,0,0,0,1-1.18,10.45,10.45,0,0,0-.37-5.51C28.11,62.62,26.62,63,25.76,64.31Z"/><path class="cls-1" d="M98.44,86.75C97,84.34,94.35,83.5,92,82.4a14.39,14.39,0,0,0-3.78-.7,20.7,20.7,0,0,1,2.07,8.89c1.49-.77,3.39-3.59,3.56-3.74a11.67,11.67,0,0,1-.77,3.76A6.07,6.07,0,0,1,88,94c-3.12.19-6.26.25-9.39.18-3.57-.09-7.13-.84-10.73,0A10.75,10.75,0,0,0,63.35,96a39.85,39.85,0,0,0-5.18,4.87,21.31,21.31,0,0,0-2.23,4.33l.22.15a27.27,27.27,0,0,1,6.6-1.22,48.46,48.46,0,0,1,12.9.51,33.19,33.19,0,0,0,9.31.79,51.06,51.06,0,0,0,6.25-1.09,10.76,10.76,0,0,0,4-1.31c2.12-1.55,4.31-3.1,5.22-5.86.84-2.55,1.23-5,0-7.48C99.87,88.66,99.07,87.75,98.44,86.75Z"/><path class="cls-1" d="M119.67,85.83c2.77-1.6,3.73-4.38,4.18-7.37.33-2.21.56-4.43,1-6.62a22.34,22.34,0,0,0,.31-8.19,47.67,47.67,0,0,1-.76-6.72,12.84,12.84,0,0,1,2.8-8.65c.63-.78,1.34-1.5,2.14-2.38-2.61.52-5.19.91-7.71,1.57a8,8,0,0,0-4.32,2.64c-1.05,1.31-2.11,2.62-3.11,4a1.79,1.79,0,0,0-.23,1.1,51.17,51.17,0,0,1,.49,5.62,19.29,19.29,0,0,1-4,11.47,19.68,19.68,0,0,1-2.28,2.94c-2.78,2.37-5.6,4.71-9.2,5.8a.76.76,0,0,0-.21.14l3,2.94c.56.54,1.09,1.12,1.69,1.61,2.3,1.89,5.16,2.12,7.93,2.5C114.45,88.6,117.13,87.29,119.67,85.83Z"/><path class="cls-1" d="M124.7,86.58a19.45,19.45,0,0,1-5.78,3.78,13.47,13.47,0,0,1-5.83,1.18c-2.62-.12-5.23-.51-7.69-.77-.09,1.44-.19,2.94-.28,4.46a4.2,4.2,0,0,0,.06.6,5.42,5.42,0,0,0,2.47,3.64,10.7,10.7,0,0,0,7.43,2.21c2.3-.2,4.66-.32,6.48-2.07.06,0,.16-.07.23-.12A39,39,0,0,0,126.35,96a15.74,15.74,0,0,1,8-4.32,4,4,0,0,1,1.52.1,9.45,9.45,0,0,1,1.29.41,3.54,3.54,0,0,0-1.42-3,15.67,15.67,0,0,0-5.54-3.5C128.2,85.13,126.26,85.09,124.7,86.58Z"/><path class="cls-1" d="M65.87,88.91c.71,0,1.42-.07,2.12-.16,1.17-.14,2.34-.37,3.52-.47,1.47-.12,2.95-.15,4.42-.22a10.49,10.49,0,0,1,1.12,0,35.42,35.42,0,0,0,8.39-.65c-.39-1-.73-1.87-1.13-2.76s-.94-1.85-1.29-2.82c-.66-1.81-1.46-3.5-3.21-4.49-.7-.39-2.56-1.24-2.73-1.41.2-.08,2.08-.58,5.3.43-.52-.85-.92-1.58-1.4-2.27a17.17,17.17,0,0,0-7.54-6c-.72-.31-1.52-.41-2.22-.73-7.31-3.08-9.45-6.72-9.4-6.78l4.07,2.16A17.12,17.12,0,0,0,63.67,59a18,18,0,0,0-4-4,5.48,5.48,0,0,0-1.9-.73c-1.41-.3-2.85-.51-4.39-.78L57,50.78H55.34c-.49,0-1,0-1.47,0a11.71,11.71,0,0,0-4.76.84,1.43,1.43,0,0,0-.61.67c-.44.9-.81,1.84-1.26,2.74a.78.78,0,0,0,0,1c.62.83,1.2,1.68,1.76,2.55a11.46,11.46,0,0,1,.64,1.26c-3.5-3.67-7.08-7.09-12.48-7.7a4.33,4.33,0,0,1,1.47-.46,10.5,10.5,0,0,1-.44-5.51,12.85,12.85,0,0,1,2.17-5.08c-.35,2,.56,3.45,1.78,4.8a5.25,5.25,0,0,1,.6.74c1.24,1.91,2.52,3.8,2,6.27a.78.78,0,0,0,.11.63c.54.53,1.13,1,1.72,1.53a10.76,10.76,0,0,0-.53-8.39,31,31,0,0,0-3.23-4.9c-1.15-1.32-2-2.86-3.13-4.38-1.16,2.22-2.31,4.42-3.45,6.63a2.11,2.11,0,0,0-.09.68c-.29,2.37-.59,4.73-.9,7.24-1.83-1.76-1.26-4.07-1.82-6.11a17.5,17.5,0,0,0-.67,2.91c-.1.88-.44,1.17-1.24.76s-1.32-.8-2.1-1.28a7,7,0,0,0-.18.89c-.06,1-.12,2-.15,2.94,0,.46,0,.72-.64.87a10.8,10.8,0,0,0-3.22,1.26A16.3,16.3,0,0,0,17.74,64.4c-.59,2.41-1.19,4.81-1.8,7.28a6.45,6.45,0,0,1,1.55.51,4.65,4.65,0,0,0-4.08,3.47,16.33,16.33,0,0,1-.82,2.52c.58.26,1.34.54,2,.93a3.77,3.77,0,0,0,3.52,0,8.9,8.9,0,0,0,3-2A5.49,5.49,0,0,1,23.61,75c-1.37,2.29-2.51,4.59-5.2,5.5a2.63,2.63,0,0,0,1.25-.31,47.93,47.93,0,0,1,5.74-3c1.58-.57,4.81-.91,6.11-.34a2.32,2.32,0,0,0-1.34.59,39.94,39.94,0,0,1,6.18,1.22A39.82,39.82,0,0,1,42,81.65c-.93-2.34-2.8-4-4.33-6a10.92,10.92,0,0,1,3.39,1.2c1.91,1.31,4,2.33,5.48,4.31a1.72,1.72,0,0,0,3-.55c.12-.27.21-.55.34-.8A9,9,0,0,1,52.94,76c-.63,1.77-1.31,3.54-1.87,5.36-.63,2-.28,4.08-.21,6.13.06,1.56,0,1.56,1.45,2.09a6.3,6.3,0,0,1,1,.38,10.92,10.92,0,0,1,1,.88,16,16,0,0,0-1.61-.33,12,12,0,0,0-6.63,1.4,25.71,25.71,0,0,1-7.79,2.63A2.24,2.24,0,0,0,36.5,95.9a5.23,5.23,0,0,1,1.56.22,11.58,11.58,0,0,0-1.84,1c-.43.33-1,.89-.93,1.32s.73.73,1.17,1a2.3,2.3,0,0,0,.71.25c.91-1.74,1.9-2.33,2.95-1.69-.72.68-1.65,1.23-1.69,2.39,1.87.33,3.66.51,5.29-.66.85-.61,1.68-1.25,2.53-1.85a3.33,3.33,0,0,1,.81-.39c.36.64.87.17,1.27.15.92,0,1.84-.25,2.76-.25,2.71,0,4.92-.83,6.38-3.26,2.19-3.63,4.93-6.75,6.5-11.83.06,2.35-.93,4.49-1.54,6.78.3,0,.55-.1.81-.11C64.11,89,65,89,65.87,88.91ZM21.29,59.45a9.82,9.82,0,0,1,4-2.65c1.79-.73,3.56-1.49,5.51-2.31a4.4,4.4,0,0,1-1.36,2.62,34.19,34.19,0,0,1-4.22,3.17c-1.91,1.21-4.29,3.46-4.65,6.19A5.94,5.94,0,0,1,21.29,59.45Zm10.59,5.36A23.27,23.27,0,0,1,31.75,68c.93-.29,1.69-2.1,1.76-2.08a6.58,6.58,0,0,1-.46,1.69,5.46,5.46,0,0,1-3,2.88c-2,.62-3.94,1.47-6.1.92a2.69,2.69,0,0,1-.89-.31,7.89,7.89,0,0,0-3.54-1.28c-1.14-.16-1.67-1.32-1.18-2.59.15.22.19,1.23,1.35,1.41a2,2,0,0,0,2-.62c1.39-1.59,2-3.56,2.93-5.39a4.57,4.57,0,0,1,2.85-2.42C26.87,61,26,61.6,26,62.45c.49-.31,1-.65,1.49-.94a7.38,7.38,0,0,1,5.82-1,5.73,5.73,0,0,1,1,.53l-3.23.39A27.09,27.09,0,0,1,31.88,64.81Zm17.06,3.85-3-2.66-.23.14a20.84,20.84,0,0,1-2.05,8.52c-.13-1.82-.34-3.56-.37-5.31a11.08,11.08,0,0,0-1.88-5.69c-.35-.58-1.25-.82-1.88-1.2.36-.33.37-.34,1.87-.15a12.39,12.39,0,0,1,2.18.44,18.29,18.29,0,0,1,2.07,1c-1-2.59-3-4.25-4.85-6.06C44.31,57.22,50.13,65.51,48.94,68.66Z"/><path class="cls-1" d="M65.87,88.91c.71,0,1.42-.07,2.12-.16,1.17-.14,2.34-.37,3.52-.47,1.47-.12,2.95-.15,4.42-.22a10.49,10.49,0,0,1,1.12,0,35.42,35.42,0,0,0,8.39-.65c-.39-1-.73-1.87-1.13-2.76s-.94-1.85-1.29-2.82c-.66-1.81-1.46-3.5-3.21-4.49-.7-.39-2.56-1.24-2.73-1.41.2-.08,2.08-.58,5.3.43-.52-.85-.92-1.58-1.4-2.27a17.17,17.17,0,0,0-7.54-6c-.72-.31-1.52-.41-2.22-.73-7.31-3.08-9.45-6.72-9.4-6.78l4.07,2.16A17.12,17.12,0,0,0,63.67,59a18,18,0,0,0-4-4,5.48,5.48,0,0,0-1.9-.73c-1.41-.3-2.85-.51-4.39-.78L57,50.78H55.34c-.49,0-1,0-1.47,0a11.71,11.71,0,0,0-4.76.84,1.43,1.43,0,0,0-.61.67c-.44.9-.81,1.84-1.26,2.74a.78.78,0,0,0,0,1c.62.83,1.2,1.68,1.76,2.55a11.46,11.46,0,0,1,.64,1.26c-3.5-3.67-7.08-7.09-12.48-7.7a4.33,4.33,0,0,1,1.47-.46,10.5,10.5,0,0,1-.44-5.51,12.85,12.85,0,0,1,2.17-5.08c-.35,2,.56,3.45,1.78,4.8a5.25,5.25,0,0,1,.6.74c1.24,1.91,2.52,3.8,2,6.27a.78.78,0,0,0,.11.63c.54.53,1.13,1,1.72,1.53a10.76,10.76,0,0,0-.53-8.39,31,31,0,0,0-3.23-4.9c-1.15-1.32-2-2.86-3.13-4.38-1.16,2.22-2.31,4.42-3.45,6.63a2.11,2.11,0,0,0-.09.68c-.29,2.37-.59,4.73-.9,7.24-1.83-1.76-1.26-4.07-1.82-6.11a17.5,17.5,0,0,0-.67,2.91c-.1.88-.44,1.17-1.24.76s-1.32-.8-2.1-1.28a7,7,0,0,0-.18.89c-.06,1-.12,2-.15,2.94,0,.46,0,.72-.64.87a10.8,10.8,0,0,0-3.22,1.26A16.3,16.3,0,0,0,17.74,64.4c-.59,2.41-1.19,4.81-1.8,7.28a6.45,6.45,0,0,1,1.55.51,4.65,4.65,0,0,0-4.08,3.47,16.33,16.33,0,0,1-.82,2.52c.58.26,1.34.54,2,.93a3.77,3.77,0,0,0,3.52,0,8.9,8.9,0,0,0,3-2A5.49,5.49,0,0,1,23.61,75c-1.37,2.29-2.51,4.59-5.2,5.5a2.63,2.63,0,0,0,1.25-.31,47.93,47.93,0,0,1,5.74-3c1.58-.57,4.81-.91,6.11-.34a2.32,2.32,0,0,0-1.34.59,39.94,39.94,0,0,1,6.18,1.22A39.82,39.82,0,0,1,42,81.65c-.93-2.34-2.8-4-4.33-6a10.92,10.92,0,0,1,3.39,1.2c1.91,1.31,4,2.33,5.48,4.31a1.72,1.72,0,0,0,3-.55c.12-.27.21-.55.34-.8A9,9,0,0,1,52.94,76c-.63,1.77-1.31,3.54-1.87,5.36-.63,2-.28,4.08-.21,6.13.06,1.56,0,1.56,1.45,2.09a6.3,6.3,0,0,1,1,.38,10.92,10.92,0,0,1,1,.88,16,16,0,0,0-1.61-.33,12,12,0,0,0-6.63,1.4,25.71,25.71,0,0,1-7.79,2.63A2.24,2.24,0,0,0,36.5,95.9a5.23,5.23,0,0,1,1.56.22,11.58,11.58,0,0,0-1.84,1c-.43.33-1,.89-.93,1.32s.73.73,1.17,1a2.3,2.3,0,0,0,.71.25c.91-1.74,1.9-2.33,2.95-1.69-.72.68-1.65,1.23-1.69,2.39,1.87.33,3.66.51,5.29-.66.85-.61,1.68-1.25,2.53-1.85a3.33,3.33,0,0,1,.81-.39c.36.64.87.17,1.27.15.92,0,1.84-.25,2.76-.25,2.71,0,4.92-.83,6.38-3.26,2.19-3.63,4.93-6.75,6.5-11.83.06,2.35-.93,4.49-1.54,6.78.3,0,.55-.1.81-.11C64.11,89,65,89,65.87,88.91Zm-34-24.1A23.27,23.27,0,0,1,31.75,68c.93-.29,1.69-2.1,1.76-2.08a6.58,6.58,0,0,1-.46,1.69,5.46,5.46,0,0,1-3,2.88c-2,.62-3.94,1.47-6.1.92a2.69,2.69,0,0,1-.89-.31,7.89,7.89,0,0,0-3.54-1.28c-1.14-.16-1.67-1.32-1.18-2.59.15.22.19,1.23,1.35,1.41a2,2,0,0,0,2-.62c1.39-1.59,2-3.56,2.93-5.39a4.57,4.57,0,0,1,2.85-2.42C26.87,61,26,61.6,26,62.45c.49-.31,1-.65,1.49-.94a7.38,7.38,0,0,1,5.82-1,5.73,5.73,0,0,1,1,.53l-3.23.39A27.09,27.09,0,0,1,31.88,64.81Zm17.06,3.85-3-2.66-.23.14a20.84,20.84,0,0,1-2.05,8.52c-.13-1.82-.34-3.56-.37-5.31a11.08,11.08,0,0,0-1.88-5.69c-.35-.58-1.25-.82-1.88-1.2.36-.33.37-.34,1.87-.15a12.39,12.39,0,0,1,2.18.44,18.29,18.29,0,0,1,2.07,1c-1-2.59-3-4.25-4.85-6.06C44.31,57.22,50.13,65.51,48.94,68.66Z"/><path class="cls-1" d="M133.33,54.59a11.32,11.32,0,0,0-2.55,1.73A13.46,13.46,0,0,0,129,59.39a2.45,2.45,0,0,0-.1,1.24,39.6,39.6,0,0,1,.73,6.37c-.17,3.6-.74,7.19-1.16,10.78-.06.51-.16,1-.26,1.68,1.25-.38,2.35-.65,3.4-1a6.41,6.41,0,0,0,2.2-1.19c2.07-2,4.39-3.83,5.35-6.82a16.76,16.76,0,0,0,.86-4.47c.09-2.69.22-5.38.47-8.06a5.26,5.26,0,0,1,1.7-3.35c.72-.67,1.47-1.3,2.39-2.11-3.95,0-7.67.05-11,2.08C133.5,54.54,133.4,54.54,133.33,54.59Z"/><path d="M149.47,51.53A9.59,9.59,0,0,0,146,50.38a18.78,18.78,0,0,0-10.38,0c-1.86.55-3.78,1-5.24,2.38-.62.6-1.2,1.23-1.8,1.84a4.57,4.57,0,0,1,.13-1.5,7.18,7.18,0,0,1,4.53-5.61,5.56,5.56,0,0,0,1.22-.67,1,1,0,0,0,0-1.86,5.45,5.45,0,0,0-1.86-.67c-1.32-.25-2.67-.4-4.06-.6.1-.36.18-.73.3-1.08a9.56,9.56,0,0,0-.21-7c-.56-1.43-1.1-2.86-1.64-4.26a10.28,10.28,0,0,0-2,1A8.76,8.76,0,0,1,120.34,34c-2.22.24-4.47.16-6.69.38a10.91,10.91,0,0,0-8,4,9,9,0,0,1-.92.93,1,1,0,0,1,0-.68,15.18,15.18,0,0,1,7.47-8.47c1.46-.72,2.86-1.57,4.31-2.38a14.84,14.84,0,0,0-2.56-1.23c-1.81-.49-3.65-.88-5.49-1.2a14.37,14.37,0,0,0-6.75.78c-1.68.52-3.37,1-4.93,1.4-1.16-4.44-1-9.53-.75-13.9a20.39,20.39,0,0,1-3.37,1.69c-3.79,2-8,2.66-12,3.92-2.43.76-4.76,1.56-6.55,3.68a15.24,15.24,0,0,0-4,9.1c0,.53-.21.75-.79.75-1.53,0-3.07,0-4.6.17-.86.08-3.09.62-3,1.33,0,.25,1.52,1,2,1.1,2.54.63,3.7,1.85,3.69,4.72L67,40c-1.92-.52-3.84-1.06-5.77-1.54A3.43,3.43,0,0,1,59,36.66a8.51,8.51,0,0,1-.71-3.09c-.16-2.89,1.13-5.32,2.69-7.64.67-1,1.47-2,1.08-3.33-4.76.33-11.06,7-12.56,9a21.72,21.72,0,0,0-3.24,8.74l-.27,1.47L45.6,42l-1.26-1.53c-.47-.58-.93-1.18-1.43-1.73a8.72,8.72,0,0,1-2.4-3.57.72.72,0,0,0-.53-.45,1,1,0,0,0-.65.42c-.4.57-.69,1.21-1.09,1.78-2,2.82-4,5.63-6,8.39-1.48-1.47-2.86-2.82-4.22-4.18-1.57-1.57-3.15-3.14-4.69-4.74-.69-.73-1.47-.71-1.84.21C21,37.8,20.6,39,20.24,40.23A18.15,18.15,0,0,0,20,48a53.89,53.89,0,0,0,1.17,5.59,1.1,1.1,0,0,1-.32,1.25,20.16,20.16,0,0,0-3.47,4,30.29,30.29,0,0,0-2.14,5.85c-.58,1.91-1,3.88-1.51,5.8a2.34,2.34,0,0,1-2.06,1.84,4.51,4.51,0,0,0-2.8,1.61c-.56.6-.71,3.68,2.82,5.26a46.85,46.85,0,0,1,4.43,2.33,5.63,5.63,0,0,0,5.71-.33c.94-.56,1.88-1.14,2.79-1.76a5,5,0,0,1,3.72-.54c1.05.16,2.1.42,3.16.57,1.49.22,2.07,1.5,1.08,2.66a35.44,35.44,0,0,1-3.12,3.13c-.59.54-1.4.85-2,1.42a20,20,0,0,0-4.34,6.43c-.67,1.68-1,3.49.51,5a3.1,3.1,0,0,1,.42.94,2.83,2.83,0,0,0,1.87,1.68A3.32,3.32,0,0,0,29.6,99.3.65.65,0,0,1,30,99a5.61,5.61,0,0,0,3.93-2.26c-.64,2-.53,2.7.8,3.47A10.34,10.34,0,0,0,38,101.67a8.22,8.22,0,0,0,7-1.49,4.74,4.74,0,0,1,2.36-.88c2.21-.25,4.45-.32,6.67-.51a4.13,4.13,0,0,0,3.09-1.4,27.94,27.94,0,0,0,2.12-2.84,3,3,0,0,1,3.56-1.4l-.6.39a24.58,24.58,0,0,0-5.83,5.68c-1.8,2.31-2.35,5.25-3,8.07a1.57,1.57,0,0,0,.41,1.35,2,2,0,0,0,1.5.09c1.32-.36,2.32-1.53,3.81-1.52a29.6,29.6,0,0,0,3.53-.12,35,35,0,0,1,5.79,0c2.8.1,5.4,1,8.11,1.46a47.91,47.91,0,0,0,6.51.93,29,29,0,0,0,10.59-1.74,14.35,14.35,0,0,0,4.18-1.86c2.23-1.7,4.72-3.21,5.94-6a6.39,6.39,0,0,1,.4.56,10.5,10.5,0,0,0,4.37,4.08,30.38,30.38,0,0,0,3.71,1.14c2.83.88,5.49.3,8.17-.57a23.32,23.32,0,0,0,5.85-3.37,7.58,7.58,0,0,0,1.91-2,12.07,12.07,0,0,1,6-4.42,2.45,2.45,0,0,1,3.23,1.54,11.5,11.5,0,0,1,.25,2.2,8.1,8.1,0,0,0,2-5.21c.31-5.19-2.82-8.08-7.09-10.28a2.19,2.19,0,0,1,.45-.19c2.68-.38,4.68-2,6.5-3.77,3.1-3,4.12-6.89,4.26-11.07.06-2,0-4.11.14-6.16a52.05,52.05,0,0,1,.73-5.41,2.75,2.75,0,0,1,.83-1.47,9.73,9.73,0,0,1,4-2.17,3.42,3.42,0,0,0,1-.67A5.32,5.32,0,0,0,149.47,51.53Zm-42-11.47c2.09-2.35,4.92-2.83,7.85-2.85a32,32,0,0,0,8.1-.91,15.9,15.9,0,0,0,1.91-.77c.13,1.42.27,2.8.4,4.19,0,.26.05.51.06.78.1,2.56-.79,3.53-3.28,4-2.67.49-5.27,1.3-7.14,3.44a32.86,32.86,0,0,0-2.28,3.27c-.17.26-.33.52-.52.83-.15-.17-.25-.24-.29-.34-1.23-2.77-3.55-4.68-5.47-6.91C105.18,42.93,105.46,42.3,107.45,40.06Zm-8.16-9.69a28.22,28.22,0,0,1,11.13-2l0,.22c-.65.2-1.29.41-1.94.6a7.22,7.22,0,0,0-4.47,3.5c-.78,1.39-1.54,2.78-2.23,4.21a6.77,6.77,0,0,0-.4,5.09,42.69,42.69,0,0,0,1.63,4.19c.17.38.62.64,1,.94a8.32,8.32,0,0,1,.77.68,52.35,52.35,0,0,1,4.59,6.08,11,11,0,0,1,1.46,6.34,15,15,0,0,1-1.23,6.45c-1.82,3.58-4,6.84-7.66,8.85a27.68,27.68,0,0,1-5,2.42c-3.64,1.11-7.25,1.63-10.67-.74-1.45-1-1.61-2.28-.33-3.42a2.43,2.43,0,0,0,.4-.45,29.91,29.91,0,0,0,2.72-4,18.18,18.18,0,0,0,1.45-4.7c1-5.61-.78-10.56-3.84-15.2A5.4,5.4,0,0,1,86.14,47a11.44,11.44,0,0,1,2.63-8.75c1.59-1.87,3-4,5.16-5.24A42.9,42.9,0,0,1,99.29,30.37ZM75.61,27.19a12.76,12.76,0,0,1,7.56-5.36c2-.57,4.11-1,6.13-1.62A17.68,17.68,0,0,0,91.83,19c0,1.42-.11,2.94,0,4.44a13.69,13.69,0,0,0,.69,2.6c.07.28.16.55.22.84.23,1.15.26,2-1,2.82A21.87,21.87,0,0,0,84.74,37a7.76,7.76,0,0,0-1.08,4.48,2.1,2.1,0,0,1-.25,1.06l-1.25-2.19a12.84,12.84,0,0,0-6.39-5.88A10.66,10.66,0,0,1,74,33.62a1,1,0,0,1-.36-.77A11.2,11.2,0,0,1,75.61,27.19Zm-5.84,8.49,2.51.59c2.85,1,3.65,2.51,5,3.79a15.22,15.22,0,0,1,3.39,6A25.75,25.75,0,0,0,85,53.59c1,1.22,1.36,3,1.86,4.54a8.33,8.33,0,0,1,.22,2.4c0,1.28,0,2.55,0,3.83a11.41,11.41,0,0,1-1.71,5.92,5.08,5.08,0,0,0-.37.78,11.9,11.9,0,0,1-1.25,2.25c-.19-.38-.4-.76-.59-1.14a8.21,8.21,0,0,0-3.74-3.74c-1.71-.89-3.38-1.88-5.12-2.7a10.73,10.73,0,0,0-2.89-.87c-1.51-.26-1.79-.46-2.15-1.92a17.39,17.39,0,0,0-.61-1.71,9.31,9.31,0,0,1-.53-1.65,19.38,19.38,0,0,1,.56-8.76c.44-1.4,1-2.75,1.49-4.14.67-2.08,1.29-4.19.6-6.38a9.41,9.41,0,0,0-2.2-4,8.11,8.11,0,0,1-.74-1C68.66,35.46,69.22,35.56,69.77,35.68Zm-18.31-.53a68.31,68.31,0,0,1,5.06-7.25,1.48,1.48,0,0,1,.89-.57c-.14.46-.27.93-.45,1.38A15.37,15.37,0,0,0,55.55,35a6.51,6.51,0,0,0,3.7,5.93,20.37,20.37,0,0,0,3,1.1c1.07.36,2.17.63,3.24,1,1.31.45,1.61,1.35,1,2.6a13.39,13.39,0,0,0-1.63,6.85c.09,1.47,0,3,0,4.43l-.21.09c-1.28-2.14-3.53-3-5.65-4.29a7.16,7.16,0,0,1,5.29-.21,3.74,3.74,0,0,0-.47-.61A14.72,14.72,0,0,0,53,48.42c-2.06.11-1.92,0-2.76-1.87C48.48,42.49,49.57,38.7,51.46,35.15Zm-29.1,3.76,8,7.66-1.84-1.09c-.34,1.49-.68,2.83-1,4.18-.13.66-.28,1.24-1.09,1.37l-3.64-7.26a10.65,10.65,0,0,0,.38,5.3c.27.76.57,1.52.8,2.29.35,1.16.3,1.23-1,1.74C21.84,48.29,21,43.5,22.36,38.91Zm-9.85,35.8L12,77c0,.52-.26.31-.41.07-.38-.52-.81-1.1-.71-1.53s.86-.68,1.33-1S12.58,74.42,12.51,74.71ZM33.79,91.38l1.31-2.66a5.73,5.73,0,0,0-2.32,4c0,.21,0,.41,0,.61,0,2.43-.28,2.85-2.58,3.81-1.17.48-2.3-.35-2.42-1.79,0-.16,0-.31,0-.51-1,.47-.76,2.4.47,3.79-.91.25-1.74.76-2.54.08-1-.88-.81-2.07-.64-3.49l-1.15.59a18.52,18.52,0,0,1,1-2.51,45.24,45.24,0,0,1,2.78-4.18,8.06,8.06,0,0,1,1.84-1.53c1.22-.86,2.52-1.63,3.72-2.53a4.2,4.2,0,0,0,1.61-3.84c0-.2,0-.4,0-.74.36.12.68.18,1,.31,1.62.75,3.27,1.43,4.82,2.3A2.24,2.24,0,0,1,41,86.68c-.21.19-.41.39-.66.63a4.4,4.4,0,0,0-.1-1.74C38.86,88.36,36.54,90.05,33.79,91.38Zm2.05,1.08A13.58,13.58,0,0,1,39,91.53a9.15,9.15,0,0,1,3.15.29,26.64,26.64,0,0,1-2.75.75A8.73,8.73,0,0,0,35,94.28,1.65,1.65,0,0,1,35.84,92.46Zm26.59-3.34C63,86.83,64,84.69,64,82.34c-1.57,5.08-4.31,8.2-6.5,11.83C56,96.6,53.8,97.44,51.09,97.43c-.92,0-1.84.21-2.76.25-.4,0-.91.49-1.27-.15a3.33,3.33,0,0,0-.81.39c-.85.6-1.68,1.24-2.53,1.85-1.63,1.17-3.42,1-5.29.66,0-1.16,1-1.71,1.69-2.39-1-.64-2-.05-2.95,1.69a2.3,2.3,0,0,1-.71-.25c-.44-.32-1.15-.68-1.17-1s.5-1,.93-1.32a11.58,11.58,0,0,1,1.84-1,5.23,5.23,0,0,0-1.56-.22,2.24,2.24,0,0,1,1.78-1.34,25.71,25.71,0,0,0,7.79-2.63,12,12,0,0,1,6.63-1.4,16,16,0,0,1,1.61.33,10.92,10.92,0,0,0-1-.88,6.3,6.3,0,0,0-1-.38c-1.4-.53-1.39-.53-1.45-2.09-.07-2.05-.42-4.12.21-6.13.56-1.82,1.24-3.59,1.87-5.36a9,9,0,0,0-3.06,3.84c-.13.25-.22.53-.34.8a1.72,1.72,0,0,1-3,.55c-1.44-2-3.57-3-5.48-4.31a10.92,10.92,0,0,0-3.39-1.2c1.53,2,3.4,3.61,4.33,6a39.82,39.82,0,0,0-5.64-3.07,39.94,39.94,0,0,0-6.18-1.22,2.32,2.32,0,0,1,1.34-.59c-1.3-.57-4.53-.23-6.11.34a47.93,47.93,0,0,0-5.74,3,2.63,2.63,0,0,1-1.25.31c2.69-.91,3.83-3.21,5.2-5.5a5.49,5.49,0,0,0-2.49,2.11,8.9,8.9,0,0,1-3,2,3.77,3.77,0,0,1-3.52,0c-.7-.39-1.46-.67-2-.93a16.33,16.33,0,0,0,.82-2.52,4.65,4.65,0,0,1,4.08-3.47,6.45,6.45,0,0,0-1.55-.51c.61-2.47,1.21-4.87,1.8-7.28a16.3,16.3,0,0,1,7.53-10.22,10.8,10.8,0,0,1,3.22-1.26c.63-.15.63-.41.64-.87,0-1,.09-2,.15-2.94a7,7,0,0,1,.18-.89c.78.48,1.41.93,2.1,1.28s1.14.12,1.24-.76a17.5,17.5,0,0,1,.67-2.91c.56,2,0,4.35,1.82,6.11.31-2.51.61-4.87.9-7.24a2.11,2.11,0,0,1,.09-.68c1.14-2.21,2.29-4.41,3.45-6.63,1.08,1.52,2,3.06,3.13,4.38a31,31,0,0,1,3.23,4.9,10.76,10.76,0,0,1,.53,8.39c-.59-.52-1.18-1-1.72-1.53a.78.78,0,0,1-.11-.63c.51-2.47-.77-4.36-2-6.27a5.25,5.25,0,0,0-.6-.74c-1.22-1.35-2.13-2.81-1.78-4.8a12.85,12.85,0,0,0-2.17,5.08,10.5,10.5,0,0,0,.44,5.51,4.33,4.33,0,0,0-1.47.46c5.4.61,9,4,12.48,7.7A11.46,11.46,0,0,0,49,58.58c-.56-.87-1.14-1.72-1.76-2.55a.78.78,0,0,1,0-1c.45-.9.82-1.84,1.26-2.74a1.43,1.43,0,0,1,.61-.67,11.71,11.71,0,0,1,4.76-.84c.49,0,1,0,1.47,0H57l-3.63,2.71c1.54.27,3,.48,4.39.78a5.48,5.48,0,0,1,1.9.73,18,18,0,0,1,4,4,17.12,17.12,0,0,1,2.22,3.62l-4.07-2.16c0,.06,2.09,3.7,9.4,6.78.7.32,1.5.42,2.22.73A17.17,17.17,0,0,1,81,74c.48.69.88,1.42,1.4,2.27-3.22-1-5.1-.51-5.3-.43.17.17,2,1,2.73,1.41,1.75,1,2.55,2.68,3.21,4.49.35,1,.88,1.87,1.29,2.82s.74,1.8,1.13,2.76a35.42,35.42,0,0,1-8.39.65,10.49,10.49,0,0,0-1.12,0c-1.47.07-3,.1-4.42.22-1.18.1-2.35.33-3.52.47-.7.09-1.41.13-2.12.16-.87,0-1.76.06-2.63.1C63,89,62.73,89.08,62.43,89.12Zm38,8.06c-.91,2.76-3.1,4.31-5.22,5.86a10.76,10.76,0,0,1-4,1.31A51.06,51.06,0,0,1,85,105.44a33.19,33.19,0,0,1-9.31-.79,48.46,48.46,0,0,0-12.9-.51,27.27,27.27,0,0,0-6.6,1.22l-.22-.15a21.31,21.31,0,0,1,2.23-4.33A39.85,39.85,0,0,1,63.35,96a10.75,10.75,0,0,1,4.55-1.83c3.6-.85,7.16-.1,10.73,0,3.13.07,6.27,0,9.39-.18a6.07,6.07,0,0,0,5.07-3.38,11.67,11.67,0,0,0,.77-3.76c-.17.15-2.07,3-3.56,3.74a20.7,20.7,0,0,0-2.07-8.89,14.39,14.39,0,0,1,3.78.7c2.34,1.1,4.94,1.94,6.43,4.35.63,1,1.43,1.91,2,3C101.69,92.16,101.3,94.63,100.46,97.18Zm3-11.49c-.6-.49-1.13-1.07-1.69-1.61l-3-2.94A.76.76,0,0,1,99,81c3.6-1.09,6.42-3.43,9.2-5.8a19.68,19.68,0,0,0,2.28-2.94,19.29,19.29,0,0,0,4-11.47,51.17,51.17,0,0,0-.49-5.62,1.79,1.79,0,0,1,.23-1.1c1-1.34,2.06-2.65,3.11-4a8,8,0,0,1,4.32-2.64c2.52-.66,5.1-1,7.71-1.57-.8.88-1.51,1.6-2.14,2.38a12.84,12.84,0,0,0-2.8,8.65,47.67,47.67,0,0,0,.76,6.72,22.34,22.34,0,0,1-.31,8.19c-.42,2.19-.65,4.41-1,6.62-.45,3-1.41,5.77-4.18,7.37-2.54,1.46-5.22,2.77-8.29,2.36C108.61,87.81,105.75,87.58,103.45,85.69Zm32.25,3.52a3.54,3.54,0,0,1,1.42,3,9.45,9.45,0,0,0-1.29-.41,4,4,0,0,0-1.52-.1,15.74,15.74,0,0,0-8,4.32,39,39,0,0,1-4.56,3.45c-.07.05-.17.07-.23.12-1.82,1.75-4.18,1.87-6.48,2.07a10.7,10.7,0,0,1-7.43-2.21,5.42,5.42,0,0,1-2.47-3.64,4.2,4.2,0,0,1-.06-.6c.09-1.52.19-3,.28-4.46,2.46.26,5.07.65,7.69.77a13.47,13.47,0,0,0,5.83-1.18,19.45,19.45,0,0,0,5.78-3.78c1.56-1.49,3.5-1.45,5.46-.87A15.67,15.67,0,0,1,135.7,89.21Zm6.51-34.69a5.26,5.26,0,0,0-1.7,3.35c-.25,2.68-.38,5.37-.47,8.06a16.76,16.76,0,0,1-.86,4.47c-1,3-3.28,4.79-5.35,6.82a6.41,6.41,0,0,1-2.2,1.19c-1,.4-2.15.67-3.4,1,.1-.66.2-1.17.26-1.68.42-3.59,1-7.18,1.16-10.78a39.6,39.6,0,0,0-.73-6.37,2.45,2.45,0,0,1,.1-1.24,13.46,13.46,0,0,1,1.76-3.07,11.32,11.32,0,0,1,2.55-1.73c.07-.05.17-.05.24-.1,3.36-2,7.08-2.05,11-2.08C143.68,53.22,142.93,53.85,142.21,54.52Z"/><path d="M33.32,60.5a7.38,7.38,0,0,0-5.82,1c-.51.29-1,.63-1.49.94,0-.85.86-1.45,1.48-2.2a4.57,4.57,0,0,0-2.85,2.42c-.9,1.83-1.54,3.8-2.93,5.39a2,2,0,0,1-2,.62c-1.16-.18-1.2-1.19-1.35-1.41-.49,1.27,0,2.43,1.18,2.59a7.89,7.89,0,0,1,3.54,1.28,2.69,2.69,0,0,0,.89.31c2.16.55,4.12-.3,6.1-.92a5.46,5.46,0,0,0,3-2.88A6.58,6.58,0,0,0,33.51,66c-.07,0-.83,1.79-1.76,2.08a23.27,23.27,0,0,0,.13-3.23,27.09,27.09,0,0,0-.74-3.39L34.37,61A5.73,5.73,0,0,0,33.32,60.5ZM30,67.38a2.75,2.75,0,0,1-1,1.18c-1.23,1.23-5.06,2.18-6.51,1,1.09-1.79,2.11-3.59,3.27-5.3.86-1.28,2.35-1.69,3.86-2.44A10.45,10.45,0,0,1,30,67.38Z"/><path d="M40.79,57.65c1.9,1.81,3.82,3.47,4.85,6.06a18.29,18.29,0,0,0-2.07-1,12.39,12.39,0,0,0-2.18-.44c-1.5-.19-1.51-.18-1.87.15.63.38,1.53.62,1.88,1.2a11.08,11.08,0,0,1,1.88,5.69c0,1.75.24,3.49.37,5.31a20.84,20.84,0,0,0,2.05-8.52l.23-.14,3,2.66C50.13,65.51,44.31,57.22,40.79,57.65Z"/><path class="cls-8" d="M100.41,89.7A13,13,0,0,0,99.32,88c1.16,2.7,1.38,5.84,0,8.2-2.16,3.61-6.29,4.94-13.19,5.56s-8.59-1-12.1-.62a25,25,0,0,1,3.57,2.11c-12.64-2.59-21.62,1.94-21.62,1.94l.22.15a27.27,27.27,0,0,1,6.6-1.22,48.46,48.46,0,0,1,12.9.51,33.19,33.19,0,0,0,9.31.79,51.06,51.06,0,0,0,6.25-1.09,10.76,10.76,0,0,0,4-1.31c2.12-1.55,4.31-3.1,5.22-5.86C101.3,94.63,101.69,92.16,100.41,89.7Z"/><path class="cls-8" d="M122.58,96.7a14.91,14.91,0,0,1,2-3.16s-.27-.13-6.94,4.95c-5.16,3.93-10.39-.73-12.5-3,0,.13,0,.25.05.38a5.42,5.42,0,0,0,2.47,3.64,10.7,10.7,0,0,0,7.43,2.21c2.3-.2,4.66-.32,6.48-2.07.06,0,.16-.07.23-.12A39,39,0,0,0,126.35,96a15.74,15.74,0,0,1,8-4.32,4,4,0,0,1,1.52.1,9.45,9.45,0,0,1,1.29.41C133,88.5,124.85,93.75,122.58,96.7Z"/><path class="cls-8" d="M137.94,68.46a10.82,10.82,0,0,0-.93-3,17.55,17.55,0,0,1-8.78,14c1.25-.38,2.35-.65,3.4-1a6.41,6.41,0,0,0,2.2-1.19c2.07-2,4.39-3.83,5.35-6.82a16.76,16.76,0,0,0,.86-4.47c.09-2.69.22-5.38.47-8.06a5.26,5.26,0,0,1,1.7-3.35c.72-.67,1.47-1.3,2.39-2.11C136.21,54.68,138.46,65.47,137.94,68.46Z"/><path class="cls-8" d="M122.48,61.35c1.13,5.05.31,10.51-.72,14.32,0,0-1.14-3.2-1.76-5-1,5,.42,5.87-1,10.19-1.34,4-9.48,6.49-15.52,4.88,2.3,1.89,5.16,2.12,7.93,2.5,3.07.41,5.75-.9,8.29-2.36,2.77-1.6,3.73-4.38,4.18-7.37.33-2.21.56-4.43,1-6.62a22.34,22.34,0,0,0,.31-8.19,47.67,47.67,0,0,1-.76-6.72,12.84,12.84,0,0,1,2.8-8.65c.63-.78,1.34-1.5,2.14-2.38C124.09,47.33,121.34,56.31,122.48,61.35Z"/><path class="cls-1" d="M120.42,40.56h0Z"/><path class="cls-8" d="M125.71,39.72c-.13-1.39-.27-2.77-.4-4.19-.27,9-4.69,8.32-7.16,8,0,0,2.06-1.34,2.27-3,0,.07-.28,1.07-4.54,2.26-2.86.79-4.56,3.91-5.41,6a13.05,13.05,0,0,1,1.79,2.85c0,.1.14.17.29.34.19-.31.35-.57.52-.83a32.86,32.86,0,0,1,2.28-3.27c1.87-2.14,4.47-3,7.14-3.44,2.49-.46,3.38-1.43,3.28-4C125.76,40.23,125.74,40,125.71,39.72Z"/><path class="cls-8" d="M104.78,47.76a8.32,8.32,0,0,0-.77-.68c-.33-.3-.78-.56-1-.94A42.69,42.69,0,0,1,101.43,42a6.77,6.77,0,0,1,.4-5.09c.69-1.43,1.45-2.82,2.23-4.21a7.22,7.22,0,0,1,4.47-3.5c.65-.19,1.29-.4,1.94-.6-14.47,1.8-12.94,14.58-9.23,18.8s5,8.44,4.33,10.81a7.34,7.34,0,0,0-3.19-3.71s3.4,2.58-.83,12.26c-4,9.17-13.11,9.49-16.32,9.3a2.81,2.81,0,0,0,1,1.15c3.42,2.37,7,1.85,10.67.74a27.68,27.68,0,0,0,5-2.42c3.69-2,5.84-5.27,7.66-8.85a15,15,0,0,0,1.23-6.45,11,11,0,0,0-1.46-6.34A52.35,52.35,0,0,0,104.78,47.76Z"/><path class="cls-8" d="M90.22,24.38c-.52,2.78-.66,3-5.47,7a12.25,12.25,0,0,0-4.09,6.78,14.39,14.39,0,0,1,1.5,2.22l1.25,2.19a2.1,2.1,0,0,0,.25-1.06A7.76,7.76,0,0,1,84.74,37a21.87,21.87,0,0,1,6.94-7.31c1.31-.8,1.28-1.67,1-2.82-.06-.29-.15-.56-.22-.84a13.69,13.69,0,0,1-.69-2.6c-.09-1.38,0-2.78,0-4.1A24.05,24.05,0,0,0,90.22,24.38Z"/><path class="cls-8" d="M87.09,60.53a8.33,8.33,0,0,0-.22-2.4c-.5-1.56-.87-3.32-1.86-4.54a25.75,25.75,0,0,1-4.37-7.53,15.22,15.22,0,0,0-3.39-6c-.44-.42-.82-.88-1.24-1.33a32.74,32.74,0,0,1,3.48,8.06c1,3.5,2.75,6.11,3.16,8.31,0,0-1.44-1.86-2.75-3.3A51.39,51.39,0,0,1,82,58.26a13,13,0,0,1-2.15,10.41,8.11,8.11,0,0,1,3.31,3.5c.19.38.4.76.59,1.14A11.9,11.9,0,0,0,85,71.06a5.08,5.08,0,0,1,.37-.78,11.41,11.41,0,0,0,1.71-5.92C87.12,63.08,87.12,61.81,87.09,60.53Z"/><path class="cls-8" d="M65.5,43c-1.07-.37-2.17-.64-3.24-1a20.37,20.37,0,0,1-3-1.1,6.34,6.34,0,0,1-3.45-4.17h0a5.94,5.94,0,0,0,3.9,5c2.15.92,3.11,1.74,3.2,2.66A2.66,2.66,0,0,0,61.25,44s3.26,2.15-1,3a18.39,18.39,0,0,0-4.65,1.52,14.29,14.29,0,0,1,8.24,3.44,3.74,3.74,0,0,1,.47.61,7.16,7.16,0,0,0-5.29.21C61.14,54,63.39,54.86,64.67,57l.21-.09c0-1.47.07-3,0-4.43a13.39,13.39,0,0,1,1.63-6.85C67.11,44.38,66.81,43.48,65.5,43Z"/><path class="cls-8" d="M40.71,83.05c-1.55-.87-3.2-1.55-4.82-2.3-.29-.13-.61-.19-1-.31,2.48,4.18-1,5.76-3.9,7.18a9,9,0,0,0-5.09,5.9l.73-.46c-.91,2.61-.68,5.36,1.61,5.53C27,97.2,26.8,95.27,27.8,94.8c0,.2,0,.35,0,.51.12,1.44,1.25,2.27,2.42,1.79,2.3-1,2.58-1.38,2.58-3.81,0-.2,0-.4,0-.61a5.73,5.73,0,0,1,2.32-4l-1.31,2.66c2.75-1.33,5.07-3,6.41-5.81a4.4,4.4,0,0,1,.1,1.74c.25-.24.45-.44.66-.63A2.24,2.24,0,0,0,40.71,83.05Z"/><path class="cls-8" d="M50,77.68c-1,1.24-1.86,2.34-4.2,0S39,74.46,35.23,74.53a8.92,8.92,0,0,1,3.4,3.67,11.7,11.7,0,0,0-6-1.65,9.07,9.07,0,0,1,.73-.65c-3-1.48-7.7-.24-9.76.93.68-.45,1.2-2.1,2.23-3a13.43,13.43,0,0,0-6.46,3c-1.65,1.54-3.61,1.85-4.74.31s.89-4,2.84-5a4.65,4.65,0,0,0-4.08,3.47,16.33,16.33,0,0,1-.82,2.52c.58.26,1.34.54,2,.93a3.77,3.77,0,0,0,3.52,0,8.9,8.9,0,0,0,3-2A5.49,5.49,0,0,1,23.61,75c-1.37,2.29-2.51,4.59-5.2,5.5a2.63,2.63,0,0,0,1.25-.31,47.93,47.93,0,0,1,5.74-3c1.58-.57,4.81-.91,6.11-.34a2.32,2.32,0,0,0-1.34.59,39.94,39.94,0,0,1,6.18,1.22A39.82,39.82,0,0,1,42,81.65c-.93-2.34-2.8-4-4.33-6a10.92,10.92,0,0,1,3.39,1.2c1.91,1.31,4,2.33,5.48,4.31a1.72,1.72,0,0,0,3-.55c.12-.27.21-.55.34-.8A9,9,0,0,1,52.94,76,6.1,6.1,0,0,0,50,77.68Z"/><path class="cls-8" d="M84.31,84.6c-.41-.95-.94-1.85-1.29-2.82-.66-1.81-1.46-3.5-3.21-4.49-.7-.39-2.56-1.24-2.73-1.41.2-.08,2.07-.58,5.26.42-2.94-1.89-8.33-2.87-11.65-1,7,1.92,8.25,6.32,9.07,9.06,0,0-5.22-.27-9.76-.13s-5.22-3.71-7.42-5.5c-.13,4.4-2,8.24-6.66,11.26,1.92,4.26-5.47,6.35-7.12,6.32a7.2,7.2,0,0,0-5.32,2.54c-1.86,1.89-3.7,1.58-5,1.53,1.87.33,3.66.51,5.29-.66.85-.61,1.68-1.25,2.53-1.85a3.33,3.33,0,0,1,.81-.39c.36.64.87.17,1.27.15.92,0,1.84-.25,2.76-.25,2.71,0,4.92-.83,6.38-3.26,2.19-3.63,4.93-6.75,6.5-11.83.06,2.35-.93,4.49-1.54,6.78.3,0,.55-.1.81-.11.87,0,1.76-.05,2.63-.1.71,0,1.42-.07,2.12-.16,1.17-.14,2.34-.37,3.52-.47,1.47-.12,2.95-.15,4.42-.22a10.49,10.49,0,0,1,1.12,0,35.42,35.42,0,0,0,8.39-.65C85.05,86.4,84.71,85.49,84.31,84.6Z"/><path class="cls-8" d="M27.59,49.66c.28-1.35.62-2.69,1-4.18l1.84,1.09-8-7.66c.36,2.28,3.49,5.17,3.49,5.17a3.63,3.63,0,0,1-1.79-.59C24.65,45.73,28,47.84,26.5,51,27.31,50.9,27.46,50.32,27.59,49.66Z"/><path class="cls-8" d="M44.85,47.31a9.89,9.89,0,0,1-2.4-3.09c-.21,1.09,1.37,3.19,2.44,4.56,1,1.22,1,3.83.61,5.31l1.12,1a10.76,10.76,0,0,0-.53-8.39,31,31,0,0,0-3.23-4.9c-1.15-1.32-2-2.86-3.13-4.38.24,1.5.41,2.67,2.44,5.45S44.82,46.58,44.85,47.31Z"/><path class="cls-7" d="M25.8,58.9a2.67,2.67,0,0,0,.69-.36,27.41,27.41,0,0,0,2.94-2.48c-1.53.67-3.38,1.55-4.92,2.2a7.25,7.25,0,0,0-3.35,3.39,7.45,7.45,0,0,0-.46,1.25C22.24,61.3,23.66,59.65,25.8,58.9Z"/><path class="cls-1" d="M70.94,69c5.26,2,9.4,4.26,11.4,7.33h0c-.52-.85-.92-1.58-1.4-2.27a17.17,17.17,0,0,0-7.54-6c-.72-.31-1.52-.41-2.22-.73-7.31-3.08-9.45-6.72-9.4-6.78C61.07,63,65.68,67,70.94,69Z"/><path class="cls-9" d="M48.84,53.66a20.35,20.35,0,0,1,4.81-1.79A12.8,12.8,0,0,0,50.35,55c6.8,0,11,2.27,15.54,7.69A17.12,17.12,0,0,0,63.67,59a18,18,0,0,0-4-4,5.48,5.48,0,0,0-1.9-.73c-1.41-.3-2.85-.51-4.39-.78L57,50.78H55.34c-.49,0-1,0-1.47,0a11.71,11.71,0,0,0-4.76.84,1.43,1.43,0,0,0-.61.67c-.44.9-.81,1.84-1.26,2.74a.43.43,0,0,0,0,.07A7.87,7.87,0,0,1,48.84,53.66Z"/><path class="cls-1" d="M25.29,56.8c1.71-.69,3.39-1.42,5.23-2.19-4.24.09-6.43,2.09-7.93,3.21a7.33,7.33,0,0,0-1.58,2c.09-.12.18-.24.28-.35A9.82,9.82,0,0,1,25.29,56.8Z"/><path class="cls-9" d="M40.79,57.65h0c3.52-.43,9.34,7.86,8.15,11h0s1.82-2.42-.51-6.45C46,58,41.69,57.09,40.79,57.65Z"/><path class="cls-9" d="M20.18,61.24A6.48,6.48,0,0,1,21,59.8a7.33,7.33,0,0,1,1.58-2c1.5-1.12,3.69-3.12,7.93-3.21a5,5,0,0,1,.86,0c-.09-1.38-.27-3.07-.27-3.07.87.32,2.2-1.1,2.33-2.15a3.73,3.73,0,0,0,1.85,2.54c-1.83-1.76-1.26-4.07-1.82-6.11a17.5,17.5,0,0,0-.67,2.91c-.1.88-.44,1.17-1.24.76s-1.32-.8-2.1-1.28a7,7,0,0,0-.18.89c-.06,1-.12,2-.15,2.94,0,.46,0,.72-.64.87a10.8,10.8,0,0,0-3.22,1.26A16.3,16.3,0,0,0,17.74,64.4c-.59,2.41-1.19,4.81-1.8,7.28.55-1.23,1.56-4,2.06-5.58A36.37,36.37,0,0,1,20.18,61.24Z"/><path class="cls-9" d="M110.47,28.55l0-.22a28.22,28.22,0,0,0-11.13,2A42.9,42.9,0,0,0,93.93,33c-2.18,1.25-3.57,3.37-5.16,5.24A11.44,11.44,0,0,0,86.14,47a5.4,5.4,0,0,0,.54,2.41c.23.34.44.68.65,1C87.24,45.23,89,30.78,110.47,28.55Z"/><path class="cls-9" d="M69.6,51.78c2.37-8.24,4.87-10.9-1.74-16.47a8.11,8.11,0,0,0,.74,1,9.41,9.41,0,0,1,2.2,4c.69,2.19.07,4.3-.6,6.38-.45,1.39-1,2.74-1.49,4.14a19.38,19.38,0,0,0-.56,8.76,9.31,9.31,0,0,0,.53,1.65,17.39,17.39,0,0,1,.61,1.71c.36,1.46.64,1.66,2.15,1.92h0A16.15,16.15,0,0,1,69.6,51.78Z"/><path class="cls-9" d="M57.41,27.33a1.48,1.48,0,0,0-.89.57,68.31,68.31,0,0,0-5.06,7.25c-1.89,3.55-3,7.34-1.19,11.4.71,1.61.72,1.92,2,1.9C50.65,45.85,48.27,38.88,57.41,27.33Z"/><path class="cls-9" d="M74,33.62a7.07,7.07,0,0,0,.76.43,13.11,13.11,0,0,1,8.6-11c4-1.42,7-2.57,8.32-3.93a14,14,0,0,1-2.36,1.1c-2,.61-4.09,1.05-6.13,1.62a12.76,12.76,0,0,0-7.56,5.36,11.2,11.2,0,0,0-2,5.66A1,1,0,0,0,74,33.62Z"/><path class="cls-7" d="M24.59,72.88s5.5.94,7.48.31l-1.36-.42A8,8,0,0,0,35.53,68c-1.31,1.42-4.45,3.93-6.6,3.93l.89.73S26.16,73.35,24.59,72.88Z"/><path class="cls-5" d="M12.23,74.49c-.47.32-1.24.59-1.33,1s.33,1,.71,1.53c.15.24.37.45.41-.07l.49-2.24C12.58,74.42,12.63,74.14,12.23,74.49Z"/><path class="cls-6" d="M10.88,75.61A3,3,0,0,0,11.61,77c.15.24.37.45.41-.07l.35-1.61A1.76,1.76,0,0,1,10.88,75.61Z"/><path class="cls-1" d="M24,51.36c-.23-.77-.53-1.53-.8-2.29a10.65,10.65,0,0,1-.38-5.3L26.5,51c.81-.13,1-.71,1.09-1.37.28-1.35.62-2.69,1-4.18l1.84,1.09-8-7.66C21,43.5,21.84,48.29,23,53.1,24.34,52.59,24.39,52.52,24,51.36Z"/><path class="cls-1" d="M42.18,91.82A9.15,9.15,0,0,0,39,91.53a13.58,13.58,0,0,0-3.19.93A1.65,1.65,0,0,0,35,94.28a8.73,8.73,0,0,1,4.46-1.71A26.64,26.64,0,0,0,42.18,91.82Z"/><path class="cls-1" d="M40.2,85.57a4.4,4.4,0,0,1,.1,1.74c.25-.24.45-.44.66-.63a2.24,2.24,0,0,0-.25-3.63c-1.55-.87-3.2-1.55-4.82-2.3-.29-.13-.61-.19-1-.31,0,.34,0,.54,0,.74A4.2,4.2,0,0,1,33.31,85c-1.2.9-2.5,1.67-3.72,2.53a8.06,8.06,0,0,0-1.84,1.53A45.24,45.24,0,0,0,25,93.26a18.52,18.52,0,0,0-1,2.51l1.15-.59c-.17,1.42-.38,2.61.64,3.49.8.68,1.63.17,2.54-.08C27,97.2,26.8,95.27,27.8,94.8c0,.2,0,.35,0,.51.12,1.44,1.25,2.27,2.42,1.79,2.3-1,2.58-1.38,2.58-3.81,0-.2,0-.4,0-.61a5.73,5.73,0,0,1,2.32-4l-1.31,2.66C36.54,90.05,38.86,88.36,40.2,85.57Z"/><path class="cls-1" d="M112.26,51.69c0,.1.14.17.29.34.19-.31.35-.57.52-.83a32.86,32.86,0,0,1,2.28-3.27c1.87-2.14,4.47-3,7.14-3.44,2.49-.46,3.38-1.43,3.28-4,0-.27,0-.52-.06-.78-.13-1.39-.27-2.77-.4-4.19a15.9,15.9,0,0,1-1.91.77,32,32,0,0,1-8.1.91c-2.93,0-5.76.5-7.85,2.85s-2.27,2.87-.66,4.72C108.71,47,111,48.92,112.26,51.69Z"/><path class="cls-1" d="M88.77,38.24A11.44,11.44,0,0,0,86.14,47a5.4,5.4,0,0,0,.54,2.41C89.74,54,91.52,59,90.52,64.6a18.18,18.18,0,0,1-1.45,4.7,29.91,29.91,0,0,1-2.72,4,2.43,2.43,0,0,1-.4.45c-1.28,1.14-1.12,2.42.33,3.42,3.42,2.37,7,1.85,10.67.74a27.68,27.68,0,0,0,5-2.42c3.69-2,5.84-5.27,7.66-8.85a15,15,0,0,0,1.23-6.45,11,11,0,0,0-1.46-6.34,52.35,52.35,0,0,0-4.59-6.08,8.32,8.32,0,0,0-.77-.68c-.33-.3-.78-.56-1-.94A42.69,42.69,0,0,1,101.43,42a6.77,6.77,0,0,1,.4-5.09c.69-1.43,1.45-2.82,2.23-4.21a7.22,7.22,0,0,1,4.47-3.5c.65-.19,1.29-.4,1.94-.6l0-.22a28.22,28.22,0,0,0-11.13,2A42.9,42.9,0,0,0,93.93,33C91.75,34.25,90.36,36.37,88.77,38.24Z"/><path class="cls-1" d="M70.8,40.3c.69,2.19.07,4.3-.6,6.38-.45,1.39-1,2.74-1.49,4.14a19.38,19.38,0,0,0-.56,8.76,9.31,9.31,0,0,0,.53,1.65,17.39,17.39,0,0,1,.61,1.71c.36,1.46.64,1.66,2.15,1.92a10.73,10.73,0,0,1,2.89.87c1.74.82,3.41,1.81,5.12,2.7a8.21,8.21,0,0,1,3.74,3.74c.19.38.4.76.59,1.14A11.9,11.9,0,0,0,85,71.06a5.08,5.08,0,0,1,.37-.78,11.41,11.41,0,0,0,1.71-5.92c0-1.28,0-2.55,0-3.83a8.33,8.33,0,0,0-.22-2.4c-.5-1.56-.87-3.32-1.86-4.54a25.75,25.75,0,0,1-4.37-7.53,15.22,15.22,0,0,0-3.39-6c-1.32-1.28-2.12-2.81-5-3.79l-2.51-.59c-.55-.12-1.11-.22-1.91-.37a8.11,8.11,0,0,0,.74,1A9.41,9.41,0,0,1,70.8,40.3Z"/><path class="cls-1" d="M53,48.42a14.72,14.72,0,0,1,10.81,3.47,3.74,3.74,0,0,1,.47.61,7.16,7.16,0,0,0-5.29.21C61.14,54,63.39,54.86,64.67,57l.21-.09c0-1.47.07-3,0-4.43a13.39,13.39,0,0,1,1.63-6.85c.62-1.25.32-2.15-1-2.6-1.07-.37-2.17-.64-3.24-1a20.37,20.37,0,0,1-3-1.1A6.51,6.51,0,0,1,55.55,35,15.37,15.37,0,0,1,57,28.71c.18-.45.31-.92.45-1.38a1.48,1.48,0,0,0-.89.57,68.31,68.31,0,0,0-5.06,7.25c-1.89,3.55-3,7.34-1.19,11.4C51.11,48.45,51,48.53,53,48.42Z"/><path class="cls-1" d="M74,33.62a10.66,10.66,0,0,0,1.79.89,12.84,12.84,0,0,1,6.39,5.88l1.25,2.19a2.1,2.1,0,0,0,.25-1.06A7.76,7.76,0,0,1,84.74,37a21.87,21.87,0,0,1,6.94-7.31c1.31-.8,1.28-1.67,1-2.82-.06-.29-.15-.56-.22-.84a13.69,13.69,0,0,1-.69-2.6c-.1-1.5,0-3,0-4.44a17.68,17.68,0,0,1-2.53,1.18c-2,.61-4.09,1.05-6.13,1.62a12.76,12.76,0,0,0-7.56,5.36,11.2,11.2,0,0,0-2,5.66A1,1,0,0,0,74,33.62Z"/><path class="cls-7" d="M25.76,64.31c-1.16,1.71-2.18,3.51-3.27,5.3,1.45,1.13,5.28.18,6.51-1a2.75,2.75,0,0,0,1-1.18,10.45,10.45,0,0,0-.37-5.51C28.11,62.62,26.62,63,25.76,64.31Z"/><path class="cls-1" d="M98.44,86.75C97,84.34,94.35,83.5,92,82.4a14.39,14.39,0,0,0-3.78-.7,20.7,20.7,0,0,1,2.07,8.89c1.49-.77,3.39-3.59,3.56-3.74a11.67,11.67,0,0,1-.77,3.76A6.07,6.07,0,0,1,88,94c-3.12.19-6.26.25-9.39.18-3.57-.09-7.13-.84-10.73,0A10.75,10.75,0,0,0,63.35,96a39.85,39.85,0,0,0-5.18,4.87,21.31,21.31,0,0,0-2.23,4.33l.22.15a27.27,27.27,0,0,1,6.6-1.22,48.46,48.46,0,0,1,12.9.51,33.19,33.19,0,0,0,9.31.79,51.06,51.06,0,0,0,6.25-1.09,10.76,10.76,0,0,0,4-1.31c2.12-1.55,4.31-3.1,5.22-5.86.84-2.55,1.23-5,0-7.48C99.87,88.66,99.07,87.75,98.44,86.75Z"/><path class="cls-1" d="M119.67,85.83c2.77-1.6,3.73-4.38,4.18-7.37.33-2.21.56-4.43,1-6.62a22.34,22.34,0,0,0,.31-8.19,47.67,47.67,0,0,1-.76-6.72,12.84,12.84,0,0,1,2.8-8.65c.63-.78,1.34-1.5,2.14-2.38-2.61.52-5.19.91-7.71,1.57a8,8,0,0,0-4.32,2.64c-1.05,1.31-2.11,2.62-3.11,4a1.79,1.79,0,0,0-.23,1.1,51.17,51.17,0,0,1,.49,5.62,19.29,19.29,0,0,1-4,11.47,19.68,19.68,0,0,1-2.28,2.94c-2.78,2.37-5.6,4.71-9.2,5.8a.76.76,0,0,0-.21.14l3,2.94c.56.54,1.09,1.12,1.69,1.61,2.3,1.89,5.16,2.12,7.93,2.5C114.45,88.6,117.13,87.29,119.67,85.83Z"/><path class="cls-1" d="M124.7,86.58a19.45,19.45,0,0,1-5.78,3.78,13.47,13.47,0,0,1-5.83,1.18c-2.62-.12-5.23-.51-7.69-.77-.09,1.44-.19,2.94-.28,4.46a4.2,4.2,0,0,0,.06.6,5.42,5.42,0,0,0,2.47,3.64,10.7,10.7,0,0,0,7.43,2.21c2.3-.2,4.66-.32,6.48-2.07.06,0,.16-.07.23-.12A39,39,0,0,0,126.35,96a15.74,15.74,0,0,1,8-4.32,4,4,0,0,1,1.52.1,9.45,9.45,0,0,1,1.29.41,3.54,3.54,0,0,0-1.42-3,15.67,15.67,0,0,0-5.54-3.5C128.2,85.13,126.26,85.09,124.7,86.58Z"/><path class="cls-1" d="M65.87,88.91c.71,0,1.42-.07,2.12-.16,1.17-.14,2.34-.37,3.52-.47,1.47-.12,2.95-.15,4.42-.22a10.49,10.49,0,0,1,1.12,0,35.42,35.42,0,0,0,8.39-.65c-.39-1-.73-1.87-1.13-2.76s-.94-1.85-1.29-2.82c-.66-1.81-1.46-3.5-3.21-4.49-.7-.39-2.56-1.24-2.73-1.41.2-.08,2.08-.58,5.3.43-.52-.85-.92-1.58-1.4-2.27a17.17,17.17,0,0,0-7.54-6c-.72-.31-1.52-.41-2.22-.73-7.31-3.08-9.45-6.72-9.4-6.78l4.07,2.16A17.12,17.12,0,0,0,63.67,59a18,18,0,0,0-4-4,5.48,5.48,0,0,0-1.9-.73c-1.41-.3-2.85-.51-4.39-.78L57,50.78H55.34c-.49,0-1,0-1.47,0a11.71,11.71,0,0,0-4.76.84,1.43,1.43,0,0,0-.61.67c-.44.9-.81,1.84-1.26,2.74a.78.78,0,0,0,0,1c.62.83,1.2,1.68,1.76,2.55a11.46,11.46,0,0,1,.64,1.26c-3.5-3.67-7.08-7.09-12.48-7.7a4.33,4.33,0,0,1,1.47-.46,10.5,10.5,0,0,1-.44-5.51,12.85,12.85,0,0,1,2.17-5.08c-.35,2,.56,3.45,1.78,4.8a5.25,5.25,0,0,1,.6.74c1.24,1.91,2.52,3.8,2,6.27a.78.78,0,0,0,.11.63c.54.53,1.13,1,1.72,1.53a10.76,10.76,0,0,0-.53-8.39,31,31,0,0,0-3.23-4.9c-1.15-1.32-2-2.86-3.13-4.38-1.16,2.22-2.31,4.42-3.45,6.63a2.11,2.11,0,0,0-.09.68c-.29,2.37-.59,4.73-.9,7.24-1.83-1.76-1.26-4.07-1.82-6.11a17.5,17.5,0,0,0-.67,2.91c-.1.88-.44,1.17-1.24.76s-1.32-.8-2.1-1.28a7,7,0,0,0-.18.89c-.06,1-.12,2-.15,2.94,0,.46,0,.72-.64.87a10.8,10.8,0,0,0-3.22,1.26A16.3,16.3,0,0,0,17.74,64.4c-.59,2.41-1.19,4.81-1.8,7.28a6.45,6.45,0,0,1,1.55.51,4.65,4.65,0,0,0-4.08,3.47,16.33,16.33,0,0,1-.82,2.52c.58.26,1.34.54,2,.93a3.77,3.77,0,0,0,3.52,0,8.9,8.9,0,0,0,3-2A5.49,5.49,0,0,1,23.61,75c-1.37,2.29-2.51,4.59-5.2,5.5a2.63,2.63,0,0,0,1.25-.31,47.93,47.93,0,0,1,5.74-3c1.58-.57,4.81-.91,6.11-.34a2.32,2.32,0,0,0-1.34.59,39.94,39.94,0,0,1,6.18,1.22A39.82,39.82,0,0,1,42,81.65c-.93-2.34-2.8-4-4.33-6a10.92,10.92,0,0,1,3.39,1.2c1.91,1.31,4,2.33,5.48,4.31a1.72,1.72,0,0,0,3-.55c.12-.27.21-.55.34-.8A9,9,0,0,1,52.94,76c-.63,1.77-1.31,3.54-1.87,5.36-.63,2-.28,4.08-.21,6.13.06,1.56,0,1.56,1.45,2.09a6.3,6.3,0,0,1,1,.38,10.92,10.92,0,0,1,1,.88,16,16,0,0,0-1.61-.33,12,12,0,0,0-6.63,1.4,25.71,25.71,0,0,1-7.79,2.63A2.24,2.24,0,0,0,36.5,95.9a5.23,5.23,0,0,1,1.56.22,11.58,11.58,0,0,0-1.84,1c-.43.33-1,.89-.93,1.32s.73.73,1.17,1a2.3,2.3,0,0,0,.71.25c.91-1.74,1.9-2.33,2.95-1.69-.72.68-1.65,1.23-1.69,2.39,1.87.33,3.66.51,5.29-.66.85-.61,1.68-1.25,2.53-1.85a3.33,3.33,0,0,1,.81-.39c.36.64.87.17,1.27.15.92,0,1.84-.25,2.76-.25,2.71,0,4.92-.83,6.38-3.26,2.19-3.63,4.93-6.75,6.5-11.83.06,2.35-.93,4.49-1.54,6.78.3,0,.55-.1.81-.11C64.11,89,65,89,65.87,88.91ZM21.29,59.45a9.82,9.82,0,0,1,4-2.65c1.79-.73,3.56-1.49,5.51-2.31a4.4,4.4,0,0,1-1.36,2.62,34.19,34.19,0,0,1-4.22,3.17c-1.91,1.21-4.29,3.46-4.65,6.19A5.94,5.94,0,0,1,21.29,59.45Zm10.59,5.36A23.27,23.27,0,0,1,31.75,68c.93-.29,1.69-2.1,1.76-2.08a6.58,6.58,0,0,1-.46,1.69,5.46,5.46,0,0,1-3,2.88c-2,.62-3.94,1.47-6.1.92a2.69,2.69,0,0,1-.89-.31,7.89,7.89,0,0,0-3.54-1.28c-1.14-.16-1.67-1.32-1.18-2.59.15.22.19,1.23,1.35,1.41a2,2,0,0,0,2-.62c1.39-1.59,2-3.56,2.93-5.39a4.57,4.57,0,0,1,2.85-2.42C26.87,61,26,61.6,26,62.45c.49-.31,1-.65,1.49-.94a7.38,7.38,0,0,1,5.82-1,5.73,5.73,0,0,1,1,.53l-3.23.39A27.09,27.09,0,0,1,31.88,64.81Zm17.06,3.85-3-2.66-.23.14a20.84,20.84,0,0,1-2.05,8.52c-.13-1.82-.34-3.56-.37-5.31a11.08,11.08,0,0,0-1.88-5.69c-.35-.58-1.25-.82-1.88-1.2.36-.33.37-.34,1.87-.15a12.39,12.39,0,0,1,2.18.44,18.29,18.29,0,0,1,2.07,1c-1-2.59-3-4.25-4.85-6.06C44.31,57.22,50.13,65.51,48.94,68.66Z"/><path class="cls-1" d="M65.87,88.91c.71,0,1.42-.07,2.12-.16,1.17-.14,2.34-.37,3.52-.47,1.47-.12,2.95-.15,4.42-.22a10.49,10.49,0,0,1,1.12,0,35.42,35.42,0,0,0,8.39-.65c-.39-1-.73-1.87-1.13-2.76s-.94-1.85-1.29-2.82c-.66-1.81-1.46-3.5-3.21-4.49-.7-.39-2.56-1.24-2.73-1.41.2-.08,2.08-.58,5.3.43-.52-.85-.92-1.58-1.4-2.27a17.17,17.17,0,0,0-7.54-6c-.72-.31-1.52-.41-2.22-.73-7.31-3.08-9.45-6.72-9.4-6.78l4.07,2.16A17.12,17.12,0,0,0,63.67,59a18,18,0,0,0-4-4,5.48,5.48,0,0,0-1.9-.73c-1.41-.3-2.85-.51-4.39-.78L57,50.78H55.34c-.49,0-1,0-1.47,0a11.71,11.71,0,0,0-4.76.84,1.43,1.43,0,0,0-.61.67c-.44.9-.81,1.84-1.26,2.74a.78.78,0,0,0,0,1c.62.83,1.2,1.68,1.76,2.55a11.46,11.46,0,0,1,.64,1.26c-3.5-3.67-7.08-7.09-12.48-7.7a4.33,4.33,0,0,1,1.47-.46,10.5,10.5,0,0,1-.44-5.51,12.85,12.85,0,0,1,2.17-5.08c-.35,2,.56,3.45,1.78,4.8a5.25,5.25,0,0,1,.6.74c1.24,1.91,2.52,3.8,2,6.27a.78.78,0,0,0,.11.63c.54.53,1.13,1,1.72,1.53a10.76,10.76,0,0,0-.53-8.39,31,31,0,0,0-3.23-4.9c-1.15-1.32-2-2.86-3.13-4.38-1.16,2.22-2.31,4.42-3.45,6.63a2.11,2.11,0,0,0-.09.68c-.29,2.37-.59,4.73-.9,7.24-1.83-1.76-1.26-4.07-1.82-6.11a17.5,17.5,0,0,0-.67,2.91c-.1.88-.44,1.17-1.24.76s-1.32-.8-2.1-1.28a7,7,0,0,0-.18.89c-.06,1-.12,2-.15,2.94,0,.46,0,.72-.64.87a10.8,10.8,0,0,0-3.22,1.26A16.3,16.3,0,0,0,17.74,64.4c-.59,2.41-1.19,4.81-1.8,7.28a6.45,6.45,0,0,1,1.55.51,4.65,4.65,0,0,0-4.08,3.47,16.33,16.33,0,0,1-.82,2.52c.58.26,1.34.54,2,.93a3.77,3.77,0,0,0,3.52,0,8.9,8.9,0,0,0,3-2A5.49,5.49,0,0,1,23.61,75c-1.37,2.29-2.51,4.59-5.2,5.5a2.63,2.63,0,0,0,1.25-.31,47.93,47.93,0,0,1,5.74-3c1.58-.57,4.81-.91,6.11-.34a2.32,2.32,0,0,0-1.34.59,39.94,39.94,0,0,1,6.18,1.22A39.82,39.82,0,0,1,42,81.65c-.93-2.34-2.8-4-4.33-6a10.92,10.92,0,0,1,3.39,1.2c1.91,1.31,4,2.33,5.48,4.31a1.72,1.72,0,0,0,3-.55c.12-.27.21-.55.34-.8A9,9,0,0,1,52.94,76c-.63,1.77-1.31,3.54-1.87,5.36-.63,2-.28,4.08-.21,6.13.06,1.56,0,1.56,1.45,2.09a6.3,6.3,0,0,1,1,.38,10.92,10.92,0,0,1,1,.88,16,16,0,0,0-1.61-.33,12,12,0,0,0-6.63,1.4,25.71,25.71,0,0,1-7.79,2.63A2.24,2.24,0,0,0,36.5,95.9a5.23,5.23,0,0,1,1.56.22,11.58,11.58,0,0,0-1.84,1c-.43.33-1,.89-.93,1.32s.73.73,1.17,1a2.3,2.3,0,0,0,.71.25c.91-1.74,1.9-2.33,2.95-1.69-.72.68-1.65,1.23-1.69,2.39,1.87.33,3.66.51,5.29-.66.85-.61,1.68-1.25,2.53-1.85a3.33,3.33,0,0,1,.81-.39c.36.64.87.17,1.27.15.92,0,1.84-.25,2.76-.25,2.71,0,4.92-.83,6.38-3.26,2.19-3.63,4.93-6.75,6.5-11.83.06,2.35-.93,4.49-1.54,6.78.3,0,.55-.1.81-.11C64.11,89,65,89,65.87,88.91Zm-34-24.1A23.27,23.27,0,0,1,31.75,68c.93-.29,1.69-2.1,1.76-2.08a6.58,6.58,0,0,1-.46,1.69,5.46,5.46,0,0,1-3,2.88c-2,.62-3.94,1.47-6.1.92a2.69,2.69,0,0,1-.89-.31,7.89,7.89,0,0,0-3.54-1.28c-1.14-.16-1.67-1.32-1.18-2.59.15.22.19,1.23,1.35,1.41a2,2,0,0,0,2-.62c1.39-1.59,2-3.56,2.93-5.39a4.57,4.57,0,0,1,2.85-2.42C26.87,61,26,61.6,26,62.45c.49-.31,1-.65,1.49-.94a7.38,7.38,0,0,1,5.82-1,5.73,5.73,0,0,1,1,.53l-3.23.39A27.09,27.09,0,0,1,31.88,64.81Zm17.06,3.85-3-2.66-.23.14a20.84,20.84,0,0,1-2.05,8.52c-.13-1.82-.34-3.56-.37-5.31a11.08,11.08,0,0,0-1.88-5.69c-.35-.58-1.25-.82-1.88-1.2.36-.33.37-.34,1.87-.15a12.39,12.39,0,0,1,2.18.44,18.29,18.29,0,0,1,2.07,1c-1-2.59-3-4.25-4.85-6.06C44.31,57.22,50.13,65.51,48.94,68.66Z"/><path class="cls-1" d="M133.33,54.59a11.32,11.32,0,0,0-2.55,1.73A13.46,13.46,0,0,0,129,59.39a2.45,2.45,0,0,0-.1,1.24,39.6,39.6,0,0,1,.73,6.37c-.17,3.6-.74,7.19-1.16,10.78-.06.51-.16,1-.26,1.68,1.25-.38,2.35-.65,3.4-1a6.41,6.41,0,0,0,2.2-1.19c2.07-2,4.39-3.83,5.35-6.82a16.76,16.76,0,0,0,.86-4.47c.09-2.69.22-5.38.47-8.06a5.26,5.26,0,0,1,1.7-3.35c.72-.67,1.47-1.3,2.39-2.11-3.95,0-7.67.05-11,2.08C133.5,54.54,133.4,54.54,133.33,54.59Z"/><path d="M149.47,51.53A9.59,9.59,0,0,0,146,50.38a18.78,18.78,0,0,0-10.38,0c-1.86.55-3.78,1-5.24,2.38-.62.6-1.2,1.23-1.8,1.84a4.57,4.57,0,0,1,.13-1.5,7.18,7.18,0,0,1,4.53-5.61,5.56,5.56,0,0,0,1.22-.67,1,1,0,0,0,0-1.86,5.45,5.45,0,0,0-1.86-.67c-1.32-.25-2.67-.4-4.06-.6.1-.36.18-.73.3-1.08a9.56,9.56,0,0,0-.21-7c-.56-1.43-1.1-2.86-1.64-4.26a10.28,10.28,0,0,0-2,1A8.76,8.76,0,0,1,120.34,34c-2.22.24-4.47.16-6.69.38a10.91,10.91,0,0,0-8,4,9,9,0,0,1-.92.93,1,1,0,0,1,0-.68,15.18,15.18,0,0,1,7.47-8.47c1.46-.72,2.86-1.57,4.31-2.38a14.84,14.84,0,0,0-2.56-1.23c-1.81-.49-3.65-.88-5.49-1.2a14.37,14.37,0,0,0-6.75.78c-1.68.52-3.37,1-4.93,1.4-1.16-4.44-1-9.53-.75-13.9a20.39,20.39,0,0,1-3.37,1.69c-3.79,2-8,2.66-12,3.92-2.43.76-4.76,1.56-6.55,3.68a15.24,15.24,0,0,0-4,9.1c0,.53-.21.75-.79.75-1.53,0-3.07,0-4.6.17-.86.08-3.09.62-3,1.33,0,.25,1.52,1,2,1.1,2.54.63,3.7,1.85,3.69,4.72L67,40c-1.92-.52-3.84-1.06-5.77-1.54A3.43,3.43,0,0,1,59,36.66a8.51,8.51,0,0,1-.71-3.09c-.16-2.89,1.13-5.32,2.69-7.64.67-1,1.47-2,1.08-3.33-4.76.33-11.06,7-12.56,9a21.72,21.72,0,0,0-3.24,8.74l-.27,1.47L45.6,42l-1.26-1.53c-.47-.58-.93-1.18-1.43-1.73a8.72,8.72,0,0,1-2.4-3.57.72.72,0,0,0-.53-.45,1,1,0,0,0-.65.42c-.4.57-.69,1.21-1.09,1.78-2,2.82-4,5.63-6,8.39-1.48-1.47-2.86-2.82-4.22-4.18-1.57-1.57-3.15-3.14-4.69-4.74-.69-.73-1.47-.71-1.84.21C21,37.8,20.6,39,20.24,40.23A18.15,18.15,0,0,0,20,48a53.89,53.89,0,0,0,1.17,5.59,1.1,1.1,0,0,1-.32,1.25,20.16,20.16,0,0,0-3.47,4,30.29,30.29,0,0,0-2.14,5.85c-.58,1.91-1,3.88-1.51,5.8a2.34,2.34,0,0,1-2.06,1.84,4.51,4.51,0,0,0-2.8,1.61c-.56.6-.71,3.68,2.82,5.26a46.85,46.85,0,0,1,4.43,2.33,5.63,5.63,0,0,0,5.71-.33c.94-.56,1.88-1.14,2.79-1.76a5,5,0,0,1,3.72-.54c1.05.16,2.1.42,3.16.57,1.49.22,2.07,1.5,1.08,2.66a35.44,35.44,0,0,1-3.12,3.13c-.59.54-1.4.85-2,1.42a20,20,0,0,0-4.34,6.43c-.67,1.68-1,3.49.51,5a3.1,3.1,0,0,1,.42.94,2.83,2.83,0,0,0,1.87,1.68A3.32,3.32,0,0,0,29.6,99.3.65.65,0,0,1,30,99a5.61,5.61,0,0,0,3.93-2.26c-.64,2-.53,2.7.8,3.47A10.34,10.34,0,0,0,38,101.67a8.22,8.22,0,0,0,7-1.49,4.74,4.74,0,0,1,2.36-.88c2.21-.25,4.45-.32,6.67-.51a4.13,4.13,0,0,0,3.09-1.4,27.94,27.94,0,0,0,2.12-2.84,3,3,0,0,1,3.56-1.4l-.6.39a24.58,24.58,0,0,0-5.83,5.68c-1.8,2.31-2.35,5.25-3,8.07a1.57,1.57,0,0,0,.41,1.35,2,2,0,0,0,1.5.09c1.32-.36,2.32-1.53,3.81-1.52a29.6,29.6,0,0,0,3.53-.12,35,35,0,0,1,5.79,0c2.8.1,5.4,1,8.11,1.46a47.91,47.91,0,0,0,6.51.93,29,29,0,0,0,10.59-1.74,14.35,14.35,0,0,0,4.18-1.86c2.23-1.7,4.72-3.21,5.94-6a6.39,6.39,0,0,1,.4.56,10.5,10.5,0,0,0,4.37,4.08,30.38,30.38,0,0,0,3.71,1.14c2.83.88,5.49.3,8.17-.57a23.32,23.32,0,0,0,5.85-3.37,7.58,7.58,0,0,0,1.91-2,12.07,12.07,0,0,1,6-4.42,2.45,2.45,0,0,1,3.23,1.54,11.5,11.5,0,0,1,.25,2.2,8.1,8.1,0,0,0,2-5.21c.31-5.19-2.82-8.08-7.09-10.28a2.19,2.19,0,0,1,.45-.19c2.68-.38,4.68-2,6.5-3.77,3.1-3,4.12-6.89,4.26-11.07.06-2,0-4.11.14-6.16a52.05,52.05,0,0,1,.73-5.41,2.75,2.75,0,0,1,.83-1.47,9.73,9.73,0,0,1,4-2.17,3.42,3.42,0,0,0,1-.67A5.32,5.32,0,0,0,149.47,51.53Zm-42-11.47c2.09-2.35,4.92-2.83,7.85-2.85a32,32,0,0,0,8.1-.91,15.9,15.9,0,0,0,1.91-.77c.13,1.42.27,2.8.4,4.19,0,.26.05.51.06.78.1,2.56-.79,3.53-3.28,4-2.67.49-5.27,1.3-7.14,3.44a32.86,32.86,0,0,0-2.28,3.27c-.17.26-.33.52-.52.83-.15-.17-.25-.24-.29-.34-1.23-2.77-3.55-4.68-5.47-6.91C105.18,42.93,105.46,42.3,107.45,40.06Zm-8.16-9.69a28.22,28.22,0,0,1,11.13-2l0,.22c-.65.2-1.29.41-1.94.6a7.22,7.22,0,0,0-4.47,3.5c-.78,1.39-1.54,2.78-2.23,4.21a6.77,6.77,0,0,0-.4,5.09,42.69,42.69,0,0,0,1.63,4.19c.17.38.62.64,1,.94a8.32,8.32,0,0,1,.77.68,52.35,52.35,0,0,1,4.59,6.08,11,11,0,0,1,1.46,6.34,15,15,0,0,1-1.23,6.45c-1.82,3.58-4,6.84-7.66,8.85a27.68,27.68,0,0,1-5,2.42c-3.64,1.11-7.25,1.63-10.67-.74-1.45-1-1.61-2.28-.33-3.42a2.43,2.43,0,0,0,.4-.45,29.91,29.91,0,0,0,2.72-4,18.18,18.18,0,0,0,1.45-4.7c1-5.61-.78-10.56-3.84-15.2A5.4,5.4,0,0,1,86.14,47a11.44,11.44,0,0,1,2.63-8.75c1.59-1.87,3-4,5.16-5.24A42.9,42.9,0,0,1,99.29,30.37ZM75.61,27.19a12.76,12.76,0,0,1,7.56-5.36c2-.57,4.11-1,6.13-1.62A17.68,17.68,0,0,0,91.83,19c0,1.42-.11,2.94,0,4.44a13.69,13.69,0,0,0,.69,2.6c.07.28.16.55.22.84.23,1.15.26,2-1,2.82A21.87,21.87,0,0,0,84.74,37a7.76,7.76,0,0,0-1.08,4.48,2.1,2.1,0,0,1-.25,1.06l-1.25-2.19a12.84,12.84,0,0,0-6.39-5.88A10.66,10.66,0,0,1,74,33.62a1,1,0,0,1-.36-.77A11.2,11.2,0,0,1,75.61,27.19Zm-5.84,8.49,2.51.59c2.85,1,3.65,2.51,5,3.79a15.22,15.22,0,0,1,3.39,6A25.75,25.75,0,0,0,85,53.59c1,1.22,1.36,3,1.86,4.54a8.33,8.33,0,0,1,.22,2.4c0,1.28,0,2.55,0,3.83a11.41,11.41,0,0,1-1.71,5.92,5.08,5.08,0,0,0-.37.78,11.9,11.9,0,0,1-1.25,2.25c-.19-.38-.4-.76-.59-1.14a8.21,8.21,0,0,0-3.74-3.74c-1.71-.89-3.38-1.88-5.12-2.7a10.73,10.73,0,0,0-2.89-.87c-1.51-.26-1.79-.46-2.15-1.92a17.39,17.39,0,0,0-.61-1.71,9.31,9.31,0,0,1-.53-1.65,19.38,19.38,0,0,1,.56-8.76c.44-1.4,1-2.75,1.49-4.14.67-2.08,1.29-4.19.6-6.38a9.41,9.41,0,0,0-2.2-4,8.11,8.11,0,0,1-.74-1C68.66,35.46,69.22,35.56,69.77,35.68Zm-18.31-.53a68.31,68.31,0,0,1,5.06-7.25,1.48,1.48,0,0,1,.89-.57c-.14.46-.27.93-.45,1.38A15.37,15.37,0,0,0,55.55,35a6.51,6.51,0,0,0,3.7,5.93,20.37,20.37,0,0,0,3,1.1c1.07.36,2.17.63,3.24,1,1.31.45,1.61,1.35,1,2.6a13.39,13.39,0,0,0-1.63,6.85c.09,1.47,0,3,0,4.43l-.21.09c-1.28-2.14-3.53-3-5.65-4.29a7.16,7.16,0,0,1,5.29-.21,3.74,3.74,0,0,0-.47-.61A14.72,14.72,0,0,0,53,48.42c-2.06.11-1.92,0-2.76-1.87C48.48,42.49,49.57,38.7,51.46,35.15Zm-29.1,3.76,8,7.66-1.84-1.09c-.34,1.49-.68,2.83-1,4.18-.13.66-.28,1.24-1.09,1.37l-3.64-7.26a10.65,10.65,0,0,0,.38,5.3c.27.76.57,1.52.8,2.29.35,1.16.3,1.23-1,1.74C21.84,48.29,21,43.5,22.36,38.91Zm-9.85,35.8L12,77c0,.52-.26.31-.41.07-.38-.52-.81-1.1-.71-1.53s.86-.68,1.33-1S12.58,74.42,12.51,74.71ZM33.79,91.38l1.31-2.66a5.73,5.73,0,0,0-2.32,4c0,.21,0,.41,0,.61,0,2.43-.28,2.85-2.58,3.81-1.17.48-2.3-.35-2.42-1.79,0-.16,0-.31,0-.51-1,.47-.76,2.4.47,3.79-.91.25-1.74.76-2.54.08-1-.88-.81-2.07-.64-3.49l-1.15.59a18.52,18.52,0,0,1,1-2.51,45.24,45.24,0,0,1,2.78-4.18,8.06,8.06,0,0,1,1.84-1.53c1.22-.86,2.52-1.63,3.72-2.53a4.2,4.2,0,0,0,1.61-3.84c0-.2,0-.4,0-.74.36.12.68.18,1,.31,1.62.75,3.27,1.43,4.82,2.3A2.24,2.24,0,0,1,41,86.68c-.21.19-.41.39-.66.63a4.4,4.4,0,0,0-.1-1.74C38.86,88.36,36.54,90.05,33.79,91.38Zm2.05,1.08A13.58,13.58,0,0,1,39,91.53a9.15,9.15,0,0,1,3.15.29,26.64,26.64,0,0,1-2.75.75A8.73,8.73,0,0,0,35,94.28,1.65,1.65,0,0,1,35.84,92.46Zm26.59-3.34C63,86.83,64,84.69,64,82.34c-1.57,5.08-4.31,8.2-6.5,11.83C56,96.6,53.8,97.44,51.09,97.43c-.92,0-1.84.21-2.76.25-.4,0-.91.49-1.27-.15a3.33,3.33,0,0,0-.81.39c-.85.6-1.68,1.24-2.53,1.85-1.63,1.17-3.42,1-5.29.66,0-1.16,1-1.71,1.69-2.39-1-.64-2-.05-2.95,1.69a2.3,2.3,0,0,1-.71-.25c-.44-.32-1.15-.68-1.17-1s.5-1,.93-1.32a11.58,11.58,0,0,1,1.84-1,5.23,5.23,0,0,0-1.56-.22,2.24,2.24,0,0,1,1.78-1.34,25.71,25.71,0,0,0,7.79-2.63,12,12,0,0,1,6.63-1.4,16,16,0,0,1,1.61.33,10.92,10.92,0,0,0-1-.88,6.3,6.3,0,0,0-1-.38c-1.4-.53-1.39-.53-1.45-2.09-.07-2.05-.42-4.12.21-6.13.56-1.82,1.24-3.59,1.87-5.36a9,9,0,0,0-3.06,3.84c-.13.25-.22.53-.34.8a1.72,1.72,0,0,1-3,.55c-1.44-2-3.57-3-5.48-4.31a10.92,10.92,0,0,0-3.39-1.2c1.53,2,3.4,3.61,4.33,6a39.82,39.82,0,0,0-5.64-3.07,39.94,39.94,0,0,0-6.18-1.22,2.32,2.32,0,0,1,1.34-.59c-1.3-.57-4.53-.23-6.11.34a47.93,47.93,0,0,0-5.74,3,2.63,2.63,0,0,1-1.25.31c2.69-.91,3.83-3.21,5.2-5.5a5.49,5.49,0,0,0-2.49,2.11,8.9,8.9,0,0,1-3,2,3.77,3.77,0,0,1-3.52,0c-.7-.39-1.46-.67-2-.93a16.33,16.33,0,0,0,.82-2.52,4.65,4.65,0,0,1,4.08-3.47,6.45,6.45,0,0,0-1.55-.51c.61-2.47,1.21-4.87,1.8-7.28a16.3,16.3,0,0,1,7.53-10.22,10.8,10.8,0,0,1,3.22-1.26c.63-.15.63-.41.64-.87,0-1,.09-2,.15-2.94a7,7,0,0,1,.18-.89c.78.48,1.41.93,2.1,1.28s1.14.12,1.24-.76a17.5,17.5,0,0,1,.67-2.91c.56,2,0,4.35,1.82,6.11.31-2.51.61-4.87.9-7.24a2.11,2.11,0,0,1,.09-.68c1.14-2.21,2.29-4.41,3.45-6.63,1.08,1.52,2,3.06,3.13,4.38a31,31,0,0,1,3.23,4.9,10.76,10.76,0,0,1,.53,8.39c-.59-.52-1.18-1-1.72-1.53a.78.78,0,0,1-.11-.63c.51-2.47-.77-4.36-2-6.27a5.25,5.25,0,0,0-.6-.74c-1.22-1.35-2.13-2.81-1.78-4.8a12.85,12.85,0,0,0-2.17,5.08,10.5,10.5,0,0,0,.44,5.51,4.33,4.33,0,0,0-1.47.46c5.4.61,9,4,12.48,7.7A11.46,11.46,0,0,0,49,58.58c-.56-.87-1.14-1.72-1.76-2.55a.78.78,0,0,1,0-1c.45-.9.82-1.84,1.26-2.74a1.43,1.43,0,0,1,.61-.67,11.71,11.71,0,0,1,4.76-.84c.49,0,1,0,1.47,0H57l-3.63,2.71c1.54.27,3,.48,4.39.78a5.48,5.48,0,0,1,1.9.73,18,18,0,0,1,4,4,17.12,17.12,0,0,1,2.22,3.62l-4.07-2.16c0,.06,2.09,3.7,9.4,6.78.7.32,1.5.42,2.22.73A17.17,17.17,0,0,1,81,74c.48.69.88,1.42,1.4,2.27-3.22-1-5.1-.51-5.3-.43.17.17,2,1,2.73,1.41,1.75,1,2.55,2.68,3.21,4.49.35,1,.88,1.87,1.29,2.82s.74,1.8,1.13,2.76a35.42,35.42,0,0,1-8.39.65,10.49,10.49,0,0,0-1.12,0c-1.47.07-3,.1-4.42.22-1.18.1-2.35.33-3.52.47-.7.09-1.41.13-2.12.16-.87,0-1.76.06-2.63.1C63,89,62.73,89.08,62.43,89.12Zm38,8.06c-.91,2.76-3.1,4.31-5.22,5.86a10.76,10.76,0,0,1-4,1.31A51.06,51.06,0,0,1,85,105.44a33.19,33.19,0,0,1-9.31-.79,48.46,48.46,0,0,0-12.9-.51,27.27,27.27,0,0,0-6.6,1.22l-.22-.15a21.31,21.31,0,0,1,2.23-4.33A39.85,39.85,0,0,1,63.35,96a10.75,10.75,0,0,1,4.55-1.83c3.6-.85,7.16-.1,10.73,0,3.13.07,6.27,0,9.39-.18a6.07,6.07,0,0,0,5.07-3.38,11.67,11.67,0,0,0,.77-3.76c-.17.15-2.07,3-3.56,3.74a20.7,20.7,0,0,0-2.07-8.89,14.39,14.39,0,0,1,3.78.7c2.34,1.1,4.94,1.94,6.43,4.35.63,1,1.43,1.91,2,3C101.69,92.16,101.3,94.63,100.46,97.18Zm3-11.49c-.6-.49-1.13-1.07-1.69-1.61l-3-2.94A.76.76,0,0,1,99,81c3.6-1.09,6.42-3.43,9.2-5.8a19.68,19.68,0,0,0,2.28-2.94,19.29,19.29,0,0,0,4-11.47,51.17,51.17,0,0,0-.49-5.62,1.79,1.79,0,0,1,.23-1.1c1-1.34,2.06-2.65,3.11-4a8,8,0,0,1,4.32-2.64c2.52-.66,5.1-1,7.71-1.57-.8.88-1.51,1.6-2.14,2.38a12.84,12.84,0,0,0-2.8,8.65,47.67,47.67,0,0,0,.76,6.72,22.34,22.34,0,0,1-.31,8.19c-.42,2.19-.65,4.41-1,6.62-.45,3-1.41,5.77-4.18,7.37-2.54,1.46-5.22,2.77-8.29,2.36C108.61,87.81,105.75,87.58,103.45,85.69Zm32.25,3.52a3.54,3.54,0,0,1,1.42,3,9.45,9.45,0,0,0-1.29-.41,4,4,0,0,0-1.52-.1,15.74,15.74,0,0,0-8,4.32,39,39,0,0,1-4.56,3.45c-.07.05-.17.07-.23.12-1.82,1.75-4.18,1.87-6.48,2.07a10.7,10.7,0,0,1-7.43-2.21,5.42,5.42,0,0,1-2.47-3.64,4.2,4.2,0,0,1-.06-.6c.09-1.52.19-3,.28-4.46,2.46.26,5.07.65,7.69.77a13.47,13.47,0,0,0,5.83-1.18,19.45,19.45,0,0,0,5.78-3.78c1.56-1.49,3.5-1.45,5.46-.87A15.67,15.67,0,0,1,135.7,89.21Zm6.51-34.69a5.26,5.26,0,0,0-1.7,3.35c-.25,2.68-.38,5.37-.47,8.06a16.76,16.76,0,0,1-.86,4.47c-1,3-3.28,4.79-5.35,6.82a6.41,6.41,0,0,1-2.2,1.19c-1,.4-2.15.67-3.4,1,.1-.66.2-1.17.26-1.68.42-3.59,1-7.18,1.16-10.78a39.6,39.6,0,0,0-.73-6.37,2.45,2.45,0,0,1,.1-1.24,13.46,13.46,0,0,1,1.76-3.07,11.32,11.32,0,0,1,2.55-1.73c.07-.05.17-.05.24-.1,3.36-2,7.08-2.05,11-2.08C143.68,53.22,142.93,53.85,142.21,54.52Z"/><path d="M33.32,60.5a7.38,7.38,0,0,0-5.82,1c-.51.29-1,.63-1.49.94,0-.85.86-1.45,1.48-2.2a4.57,4.57,0,0,0-2.85,2.42c-.9,1.83-1.54,3.8-2.93,5.39a2,2,0,0,1-2,.62c-1.16-.18-1.2-1.19-1.35-1.41-.49,1.27,0,2.43,1.18,2.59a7.89,7.89,0,0,1,3.54,1.28,2.69,2.69,0,0,0,.89.31c2.16.55,4.12-.3,6.1-.92a5.46,5.46,0,0,0,3-2.88A6.58,6.58,0,0,0,33.51,66c-.07,0-.83,1.79-1.76,2.08a23.27,23.27,0,0,0,.13-3.23,27.09,27.09,0,0,0-.74-3.39L34.37,61A5.73,5.73,0,0,0,33.32,60.5ZM30,67.38a2.75,2.75,0,0,1-1,1.18c-1.23,1.23-5.06,2.18-6.51,1,1.09-1.79,2.11-3.59,3.27-5.3.86-1.28,2.35-1.69,3.86-2.44A10.45,10.45,0,0,1,30,67.38Z"/><path d="M40.79,57.65c1.9,1.81,3.82,3.47,4.85,6.06a18.29,18.29,0,0,0-2.07-1,12.39,12.39,0,0,0-2.18-.44c-1.5-.19-1.51-.18-1.87.15.63.38,1.53.62,1.88,1.2a11.08,11.08,0,0,1,1.88,5.69c0,1.75.24,3.49.37,5.31a20.84,20.84,0,0,0,2.05-8.52l.23-.14,3,2.66C50.13,65.51,44.31,57.22,40.79,57.65Z"/><path class="cls-8" d="M100.41,89.7A13,13,0,0,0,99.32,88c1.16,2.7,1.38,5.84,0,8.2-2.16,3.61-6.29,4.94-13.19,5.56s-8.59-1-12.1-.62a25,25,0,0,1,3.57,2.11c-12.64-2.59-21.62,1.94-21.62,1.94l.22.15a27.27,27.27,0,0,1,6.6-1.22,48.46,48.46,0,0,1,12.9.51,33.19,33.19,0,0,0,9.31.79,51.06,51.06,0,0,0,6.25-1.09,10.76,10.76,0,0,0,4-1.31c2.12-1.55,4.31-3.1,5.22-5.86C101.3,94.63,101.69,92.16,100.41,89.7Z"/><path class="cls-8" d="M122.58,96.7a14.91,14.91,0,0,1,2-3.16s-.27-.13-6.94,4.95c-5.16,3.93-10.39-.73-12.5-3,0,.13,0,.25.05.38a5.42,5.42,0,0,0,2.47,3.64,10.7,10.7,0,0,0,7.43,2.21c2.3-.2,4.66-.32,6.48-2.07.06,0,.16-.07.23-.12A39,39,0,0,0,126.35,96a15.74,15.74,0,0,1,8-4.32,4,4,0,0,1,1.52.1,9.45,9.45,0,0,1,1.29.41C133,88.5,124.85,93.75,122.58,96.7Z"/><path class="cls-8" d="M137.94,68.46a10.82,10.82,0,0,0-.93-3,17.55,17.55,0,0,1-8.78,14c1.25-.38,2.35-.65,3.4-1a6.41,6.41,0,0,0,2.2-1.19c2.07-2,4.39-3.83,5.35-6.82a16.76,16.76,0,0,0,.86-4.47c.09-2.69.22-5.38.47-8.06a5.26,5.26,0,0,1,1.7-3.35c.72-.67,1.47-1.3,2.39-2.11C136.21,54.68,138.46,65.47,137.94,68.46Z"/><path class="cls-8" d="M122.48,61.35c1.13,5.05.31,10.51-.72,14.32,0,0-1.14-3.2-1.76-5-1,5,.42,5.87-1,10.19-1.34,4-9.48,6.49-15.52,4.88,2.3,1.89,5.16,2.12,7.93,2.5,3.07.41,5.75-.9,8.29-2.36,2.77-1.6,3.73-4.38,4.18-7.37.33-2.21.56-4.43,1-6.62a22.34,22.34,0,0,0,.31-8.19,47.67,47.67,0,0,1-.76-6.72,12.84,12.84,0,0,1,2.8-8.65c.63-.78,1.34-1.5,2.14-2.38C124.09,47.33,121.34,56.31,122.48,61.35Z"/><path class="cls-1" d="M120.42,40.56h0Z"/><path class="cls-8" d="M125.71,39.72c-.13-1.39-.27-2.77-.4-4.19-.27,9-4.69,8.32-7.16,8,0,0,2.06-1.34,2.27-3,0,.07-.28,1.07-4.54,2.26-2.86.79-4.56,3.91-5.41,6a13.05,13.05,0,0,1,1.79,2.85c0,.1.14.17.29.34.19-.31.35-.57.52-.83a32.86,32.86,0,0,1,2.28-3.27c1.87-2.14,4.47-3,7.14-3.44,2.49-.46,3.38-1.43,3.28-4C125.76,40.23,125.74,40,125.71,39.72Z"/><path class="cls-8" d="M104.78,47.76a8.32,8.32,0,0,0-.77-.68c-.33-.3-.78-.56-1-.94A42.69,42.69,0,0,1,101.43,42a6.77,6.77,0,0,1,.4-5.09c.69-1.43,1.45-2.82,2.23-4.21a7.22,7.22,0,0,1,4.47-3.5c.65-.19,1.29-.4,1.94-.6-14.47,1.8-12.94,14.58-9.23,18.8s5,8.44,4.33,10.81a7.34,7.34,0,0,0-3.19-3.71s3.4,2.58-.83,12.26c-4,9.17-13.11,9.49-16.32,9.3a2.81,2.81,0,0,0,1,1.15c3.42,2.37,7,1.85,10.67.74a27.68,27.68,0,0,0,5-2.42c3.69-2,5.84-5.27,7.66-8.85a15,15,0,0,0,1.23-6.45,11,11,0,0,0-1.46-6.34A52.35,52.35,0,0,0,104.78,47.76Z"/><path class="cls-8" d="M90.22,24.38c-.52,2.78-.66,3-5.47,7a12.25,12.25,0,0,0-4.09,6.78,14.39,14.39,0,0,1,1.5,2.22l1.25,2.19a2.1,2.1,0,0,0,.25-1.06A7.76,7.76,0,0,1,84.74,37a21.87,21.87,0,0,1,6.94-7.31c1.31-.8,1.28-1.67,1-2.82-.06-.29-.15-.56-.22-.84a13.69,13.69,0,0,1-.69-2.6c-.09-1.38,0-2.78,0-4.1A24.05,24.05,0,0,0,90.22,24.38Z"/><path class="cls-8" d="M87.09,60.53a8.33,8.33,0,0,0-.22-2.4c-.5-1.56-.87-3.32-1.86-4.54a25.75,25.75,0,0,1-4.37-7.53,15.22,15.22,0,0,0-3.39-6c-.44-.42-.82-.88-1.24-1.33a32.74,32.74,0,0,1,3.48,8.06c1,3.5,2.75,6.11,3.16,8.31,0,0-1.44-1.86-2.75-3.3A51.39,51.39,0,0,1,82,58.26a13,13,0,0,1-2.15,10.41,8.11,8.11,0,0,1,3.31,3.5c.19.38.4.76.59,1.14A11.9,11.9,0,0,0,85,71.06a5.08,5.08,0,0,1,.37-.78,11.41,11.41,0,0,0,1.71-5.92C87.12,63.08,87.12,61.81,87.09,60.53Z"/><path class="cls-8" d="M65.5,43c-1.07-.37-2.17-.64-3.24-1a20.37,20.37,0,0,1-3-1.1,6.34,6.34,0,0,1-3.45-4.17h0a5.94,5.94,0,0,0,3.9,5c2.15.92,3.11,1.74,3.2,2.66A2.66,2.66,0,0,0,61.25,44s3.26,2.15-1,3a18.39,18.39,0,0,0-4.65,1.52,14.29,14.29,0,0,1,8.24,3.44,3.74,3.74,0,0,1,.47.61,7.16,7.16,0,0,0-5.29.21C61.14,54,63.39,54.86,64.67,57l.21-.09c0-1.47.07-3,0-4.43a13.39,13.39,0,0,1,1.63-6.85C67.11,44.38,66.81,43.48,65.5,43Z"/><path class="cls-8" d="M40.71,83.05c-1.55-.87-3.2-1.55-4.82-2.3-.29-.13-.61-.19-1-.31,2.48,4.18-1,5.76-3.9,7.18a9,9,0,0,0-5.09,5.9l.73-.46c-.91,2.61-.68,5.36,1.61,5.53C27,97.2,26.8,95.27,27.8,94.8c0,.2,0,.35,0,.51.12,1.44,1.25,2.27,2.42,1.79,2.3-1,2.58-1.38,2.58-3.81,0-.2,0-.4,0-.61a5.73,5.73,0,0,1,2.32-4l-1.31,2.66c2.75-1.33,5.07-3,6.41-5.81a4.4,4.4,0,0,1,.1,1.74c.25-.24.45-.44.66-.63A2.24,2.24,0,0,0,40.71,83.05Z"/><path class="cls-8" d="M50,77.68c-1,1.24-1.86,2.34-4.2,0S39,74.46,35.23,74.53a8.92,8.92,0,0,1,3.4,3.67,11.7,11.7,0,0,0-6-1.65,9.07,9.07,0,0,1,.73-.65c-3-1.48-7.7-.24-9.76.93.68-.45,1.2-2.1,2.23-3a13.43,13.43,0,0,0-6.46,3c-1.65,1.54-3.61,1.85-4.74.31s.89-4,2.84-5a4.65,4.65,0,0,0-4.08,3.47,16.33,16.33,0,0,1-.82,2.52c.58.26,1.34.54,2,.93a3.77,3.77,0,0,0,3.52,0,8.9,8.9,0,0,0,3-2A5.49,5.49,0,0,1,23.61,75c-1.37,2.29-2.51,4.59-5.2,5.5a2.63,2.63,0,0,0,1.25-.31,47.93,47.93,0,0,1,5.74-3c1.58-.57,4.81-.91,6.11-.34a2.32,2.32,0,0,0-1.34.59,39.94,39.94,0,0,1,6.18,1.22A39.82,39.82,0,0,1,42,81.65c-.93-2.34-2.8-4-4.33-6a10.92,10.92,0,0,1,3.39,1.2c1.91,1.31,4,2.33,5.48,4.31a1.72,1.72,0,0,0,3-.55c.12-.27.21-.55.34-.8A9,9,0,0,1,52.94,76,6.1,6.1,0,0,0,50,77.68Z"/><path class="cls-8" d="M84.31,84.6c-.41-.95-.94-1.85-1.29-2.82-.66-1.81-1.46-3.5-3.21-4.49-.7-.39-2.56-1.24-2.73-1.41.2-.08,2.07-.58,5.26.42-2.94-1.89-8.33-2.87-11.65-1,7,1.92,8.25,6.32,9.07,9.06,0,0-5.22-.27-9.76-.13s-5.22-3.71-7.42-5.5c-.13,4.4-2,8.24-6.66,11.26,1.92,4.26-5.47,6.35-7.12,6.32a7.2,7.2,0,0,0-5.32,2.54c-1.86,1.89-3.7,1.58-5,1.53,1.87.33,3.66.51,5.29-.66.85-.61,1.68-1.25,2.53-1.85a3.33,3.33,0,0,1,.81-.39c.36.64.87.17,1.27.15.92,0,1.84-.25,2.76-.25,2.71,0,4.92-.83,6.38-3.26,2.19-3.63,4.93-6.75,6.5-11.83.06,2.35-.93,4.49-1.54,6.78.3,0,.55-.1.81-.11.87,0,1.76-.05,2.63-.1.71,0,1.42-.07,2.12-.16,1.17-.14,2.34-.37,3.52-.47,1.47-.12,2.95-.15,4.42-.22a10.49,10.49,0,0,1,1.12,0,35.42,35.42,0,0,0,8.39-.65C85.05,86.4,84.71,85.49,84.31,84.6Z"/><path class="cls-8" d="M27.59,49.66c.28-1.35.62-2.69,1-4.18l1.84,1.09-8-7.66c.36,2.28,3.49,5.17,3.49,5.17a3.63,3.63,0,0,1-1.79-.59C24.65,45.73,28,47.84,26.5,51,27.31,50.9,27.46,50.32,27.59,49.66Z"/><path class="cls-8" d="M44.85,47.31a9.89,9.89,0,0,1-2.4-3.09c-.21,1.09,1.37,3.19,2.44,4.56,1,1.22,1,3.83.61,5.31l1.12,1a10.76,10.76,0,0,0-.53-8.39,31,31,0,0,0-3.23-4.9c-1.15-1.32-2-2.86-3.13-4.38.24,1.5.41,2.67,2.44,5.45S44.82,46.58,44.85,47.31Z"/><path class="cls-7" d="M25.8,58.9a2.67,2.67,0,0,0,.69-.36,27.41,27.41,0,0,0,2.94-2.48c-1.53.67-3.38,1.55-4.92,2.2a7.25,7.25,0,0,0-3.35,3.39,7.45,7.45,0,0,0-.46,1.25C22.24,61.3,23.66,59.65,25.8,58.9Z"/><path class="cls-7" d="M24.59,72.88s5.5.94,7.48.31l-1.36-.42A8,8,0,0,0,35.53,68c-1.31,1.42-4.45,3.93-6.6,3.93l.89.73S26.16,73.35,24.59,72.88Z"/></svg>