<svg id="Layer_1" data-name="Layer 1" xmlns="http://www.w3.org/2000/svg" viewBox="0 0 160 160"><defs><style>.cls-1{fill:#fff;}.cls-2{fill:#08081e;}.cls-3{fill:#ed2041;}.cls-4{fill:#991a33;}.cls-5{fill:#1c243f;}.cls-6{fill:#9a9ea8;}.cls-7{fill:#fafafa;}.cls-8{fill:#4d597c;}.cls-9{fill:#a35a53;}.cls-10{fill:#8d3d3b;}.cls-11{fill:#cab99f;}.cls-12{fill:#93816a;}.cls-13{fill:none;}</style></defs><path class="cls-1" d="M147.79,79.87H136.2a22,22,0,0,0,.28-4.16c0-1.37-.54-4.07-4.61-11.68V29.23l-1.15-.54c-2.33-1.1-4.83-2.14-7.45-3.11V16.83q0-4.44,0-8.87a6.36,6.36,0,0,0-.39-2.17A5.88,5.88,0,0,0,117.32,2H104.64a5.85,5.85,0,0,0-5.55,3.81,6.39,6.39,0,0,0-5.9-3.65,8.59,8.59,0,0,0-2.73.48A21.75,21.75,0,0,0,80.11.36,21.48,21.48,0,0,0,69.77,2.67,8.61,8.61,0,0,0,67,2.17a6.44,6.44,0,0,0-6.09,4,3.45,3.45,0,0,0-.14-.42A5.86,5.86,0,0,0,55.21,2H42.54A5.88,5.88,0,0,0,36.6,8V25.63c-2.57.95-5,2-7.33,3.06l-1.14.54V60.77c-4,7.5-6.08,13.36-6.08,17.41a10.87,10.87,0,0,0,.13,1.69h-10L9.1,124.49,15.5,137l4.05-.14,4.07-.14,3.39-.1,4.07-.12,2.57-.07c9.87,6.77,28.19,18.18,45.82,23.06l.53.15.53-.15c17.63-4.88,36-16.29,45.83-23.06l18.14.56,6.4-12.5Z"/><path class="cls-2" d="M80,157.57c-22-6.09-45.59-22.91-49.88-26.06v-101C52,20.2,78.88,19.42,80,19.39s28.07.82,49.88,11.1v101C125.59,134.66,102,151.48,80,157.57Z"/><path class="cls-3" d="M80,141.55c-13.2-4.49-26.79-12.83-34.56-18V40.86A136.05,136.05,0,0,1,80,34.71h0V22.77h0c-1.77,0-26,.89-46.5,9.89v97.13c6.41,4.59,27,18.63,46.5,24.28V141.55Z"/><path class="cls-4" d="M80,22.77V34.71a136.67,136.67,0,0,1,34.56,6.15v82.66c-7.78,5.2-21.38,13.54-34.56,18v12.52c19.47-5.65,40.09-19.7,46.5-24.29V32.66C106.06,23.68,81.75,22.82,80,22.77Z"/><path class="cls-2" d="M121.27,8A4.19,4.19,0,0,0,121,6.5,3.85,3.85,0,0,0,117.32,4H104.64a3.87,3.87,0,0,0-4,4V22.16c-.89-4-1.89-8.09-2.06-8.78-.09-7.62-3-9.22-5.44-9.22a7,7,0,0,0-2.93.72c-2.13-1.57-5.94-2.53-10.15-2.53S72.3,3.27,70,4.9a7.06,7.06,0,0,0-3-.74c-2.43,0-5.34,1.6-5.44,9.22-.19.78-1.42,5.78-2.38,10.2V8A4,4,0,0,0,58.9,6.5,3.84,3.84,0,0,0,55.21,4H42.54a3.87,3.87,0,0,0-3.95,4V28a4.59,4.59,0,0,0,0,.7A3.88,3.88,0,0,0,42.52,32H55.24a4,4,0,0,0,.72-.06,3.91,3.91,0,0,0,2.09-1.09c.29,3.29,2.91,7.72,6.84,11.51,4.7,4.53,10.24,7.12,15.2,7.12,10.28,0,21-12.16,22-18.38a3.93,3.93,0,0,0,2.54.9h12.71a4,4,0,0,0,.72-.06,3.87,3.87,0,0,0,3.22-3.86V16.83C121.28,13.87,121.28,10.92,121.27,8Z"/><path class="cls-2" d="M59.15,31.36s-7.67,4-8.73,5.69S40.32,45,40.32,45a9.22,9.22,0,0,0-4.48,4.59,18.35,18.35,0,0,0-2,5.42S24,70.05,24,78.18c0,6.72,8,13.55,12.63,13.55a16.16,16.16,0,0,0,6.93-1.22s-1.94,4,1.73,6S62.24,102,65.61,99.78s3.87-3.46,3.87-3.46,14.68,8.25,27.11,6S113.92,93,113.92,93s7.44.11,12.74-3.16,8-7,7.83-14.05c-.08-4.55-9.69-20-9.69-20s-1.51-8.26-3.44-10-6.63-3.65-6.63-3.65L108,35.52s-6.39-5.71-8.15-5.35S59.15,31.36,59.15,31.36Z"/><path class="cls-5" d="M78.28,88.69c17.53,1.84,25.19-4.46,26.2-9.85l-3.71-.36c2.09-2,5-11.74,4.32-20.79-2.57-5.07-4.31-8.12-4.31-8.12L98.14,51a100.18,100.18,0,0,1,3,9.62C95.75,71.38,75.83,77.74,75.83,77.74a12.52,12.52,0,0,0-1.13.68C68,83,68,92.26,68,92.26c1.07.51,2.12,1,3.14,1.41,26.27,11.1,37.22.2,37.22.2C80.79,97.24,78.28,88.69,78.28,88.69Z"/><path class="cls-6" d="M131.45,79.35c-.92,5.88-9.71,11.85-16.08,9.25a5.88,5.88,0,0,1-1.87-1.22h0c-3.88-3.8-1.7-12.46-1.7-12.46.73.88,4.51,1.67,4.51,1.67l-4.51-4.14c-2.49-4.88-4.74-14.32-1.07-16A9.77,9.77,0,0,0,117,54.09c2.57-2.44,1.94-7,1.94-7a7.48,7.48,0,0,1,2.75,4.14,8.35,8.35,0,0,1,.21,3.25c-1.24,3.06.88,10.24.88,10.24l1.2-3.37C127.86,65.59,132.36,73.46,131.45,79.35Z"/><path class="cls-5" d="M72.55,76.87a19.75,19.75,0,0,0-3,4.28,30.5,30.5,0,0,0-3.63,13.62c0,.21,0,.42,0,.63,0,0-1.28,1.94-5.36,1.73S50,97,48.08,94.18c-2.34-3.37-.83-5.31-.83-5.31s.79,1.32,4.6,3.07a11.08,11.08,0,0,0,6.11.6s-6.13-2.35-6.55-10.29S55,65.39,55,65.39,62.47,74.75,72.55,76.87Z"/><path class="cls-5" d="M74.27,76.23h0c-.39-.11-13.05-3.9-23-17,0,0,5.07-3.9,5.22-8.08l-6.11-2.51,7.95-14.38s.39,3.25,1.19,7.62c1.28,6.9,3.59,16.59,7.07,20.72C73.05,70.18,74.27,76.23,74.27,76.23Z"/><path class="cls-5" d="M96.18,50.25c.46,2.84,3.66,9.87,3.66,9.87C95.7,68.45,76.77,75.74,76.77,75.74q1.41-1.65,2.73-3.3A143.21,143.21,0,0,0,93.61,51.17l.74-1.39c.44-.85.87-1.67,1.26-2.46,1.65-3.3,2.89-6.13,3.78-8.3.33-.82.61-1.54.85-2.16.63-1.69.93-2.63.93-2.63l4.64,9.61Z"/><path class="cls-6" d="M71.7,44.51l-2.09,3.74s-4.36-2.57-6.92-10.43c0,0,.58.55,1.62,1.41A64.73,64.73,0,0,0,70.82,44Z"/><path class="cls-6" d="M95.57,39.89C93.05,44.69,86,49.57,86,49.57l-2-2.45c.3-.12.6-.26.91-.4A64.94,64.94,0,0,0,95.57,39.89Z"/><path class="cls-4" d="M80.19,48.91,74.32,46s-1.81.78-1.77,2,3.42,4.61,5.08,4.75,4-4.42,4-4.42Z"/><path class="cls-6" d="M97.35,40.31c-4.22,9.9-13.94,23.75-13.94,23.75a15,15,0,0,0-.32-1.87c-.45-1.93-1.26-4.43-1.9-6.3-.53-1.55-1-2.66-1-2.66a37,37,0,0,0,3.17-4.62c1.23,3.81,3,2.51,3,2.51C90.28,49.67,97.14,40.6,97.35,40.31Z"/><path class="cls-6" d="M75.64,53.61s-.39.75-.94,2a49.41,49.41,0,0,0-3,8.19,26.5,26.5,0,0,0-.54,2.8,53.46,53.46,0,0,1-10.45-31s1.4,11.49,9.4,15.09a2.09,2.09,0,0,0,1-2S74.83,53.38,75.64,53.61Z"/><path class="cls-4" d="M77.08,53.83S72.87,64.1,72.45,67.49L75.64,74s6-6.6,6.88-8.28c0,0-2.54-9.15-3.66-11.91C78.86,53.83,77.74,54.67,77.08,53.83Z"/><path class="cls-7" d="M74.7,55.57a49.41,49.41,0,0,0-3,8.19c-2.93-3.15-6.31-13.83-6.42-14.19C66.26,52,72.55,56,72.55,56l-1.26-2.91Z"/><path class="cls-7" d="M88.8,51a33.19,33.19,0,0,1-5.71,11.15c-.45-1.93-1.26-4.43-1.9-6.3a10.77,10.77,0,0,0,2.42-3.22,5.8,5.8,0,0,1,.32,2.56A22.83,22.83,0,0,0,88.8,51Z"/><path class="cls-3" d="M77.14,56.41,76.42,72s-2.53-4.21-2.5-5.34S77.14,56.41,77.14,56.41Z"/><path class="cls-7" d="M95.57,39.89S89,46.71,86.46,48.25l-1.62-1.53A64.94,64.94,0,0,0,95.57,39.89Z"/><path class="cls-7" d="M69.14,46.35c0,.08,0,0,0,0Z"/><path class="cls-7" d="M69.14,46.35a19.35,19.35,0,0,0-1.5-1.62,26.31,26.31,0,0,1-3.33-5.5A64.73,64.73,0,0,0,70.82,44Z"/><path class="cls-7" d="M120.25,52.19s-1.39,6.77-4.14,8.05a6.38,6.38,0,0,1-5,.25s.13,2.91,2.39,3.57a5,5,0,0,0,3.52,0s.52,2.63-3.52,1.91c1,5.08,1.54,9,5.27,12.37-1.4.43-4,0-5.89-.67a8.62,8.62,0,0,0,5.88,5.5c3.09.79,6.93.7,9-.46l-3.88-.81s5.3-1.07,5.61-2.81a13.58,13.58,0,0,0-1.38-8.71c-1.09-2.25-3.46-5.91-3.46-5.91l-.46,3.7s-2.65-.65-3.53-5.38a26.2,26.2,0,0,1,0-7.6S120.88,52.85,120.25,52.19Z"/><path class="cls-6" d="M27.26,79.35C28.18,85.23,37,91.2,43.34,88.6a5.88,5.88,0,0,0,1.87-1.22h0c3.88-3.8,1.7-12.46,1.7-12.46-.73.88-4.51,1.67-4.51,1.67l4.51-4.14c2.49-4.88,4.74-14.32,1.07-16a9.76,9.76,0,0,1-6.25-2.39c-2.57-2.44-1.94-7-1.94-7A7.48,7.48,0,0,0,37,51.26a8.35,8.35,0,0,0-.21,3.25C38.07,57.57,36,64.75,36,64.75l-1.2-3.37C30.85,65.59,26.35,73.46,27.26,79.35Z"/><path class="cls-7" d="M38.46,52.19S39.85,59,42.6,60.24a6.38,6.38,0,0,0,5,.25s-.13,2.91-2.39,3.57a5,5,0,0,1-3.52,0s-.52,2.63,3.52,1.91c-1,5.08-1.54,9-5.27,12.37,1.4.43,4,0,5.89-.67A8.62,8.62,0,0,1,40,83.17c-3.09.79-6.93.7-9-.46l3.88-.81s-5.3-1.07-5.61-2.81a13.58,13.58,0,0,1,1.38-8.71C31.67,68.13,34,64.47,34,64.47l.46,3.7s2.65-.65,3.53-5.38a26.2,26.2,0,0,0,0-7.6S37.83,52.85,38.46,52.19Z"/><path class="cls-8" d="M69.52,81.15a30.5,30.5,0,0,0-3.63,13.62c-2.57.26-11.1.8-14-2.83a11.08,11.08,0,0,0,6.11.6l2.8-.61a11.76,11.76,0,0,1-6.21-6.62C52.92,80.52,55.88,71,55.88,71S65,80.46,69.52,81.15Z"/><path class="cls-8" d="M74.27,76.23h0c-9.07-4-18.38-17.51-18.38-17.51,1.9-1.53,3.93-9.8,3.93-9.8l-3.93-1.79c1.17-1.77,2.67-3.88,3.68-5.27,1.28,6.9,3.59,16.59,7.07,20.72C73.05,70.18,74.27,76.23,74.27,76.23Z"/><path class="cls-8" d="M101.57,44.73s-.35-4.25-2.18-5.71c-.89,2.17-2.13,5-3.78,8.3-.39.79-.82,1.61-1.26,2.46-.11.21-.22.42-.34.63l-.3.56,0,0A142.6,142.6,0,0,1,79.5,72.44c3.6-1.64,15-7.13,17.85-12.13l-2.82-9.89Z"/><path class="cls-8" d="M101.57,66.44s-.86,8.63-4.22,11.84-4.85,3-4.85,3h8.06s-5.11,4.35-10.81,5-15.48,0-15.48,0S77.09,95.09,86.61,96c0,0-14.08-2.29-17.34-5.5,0,0,3.6-8.87,6.21-9.94S92.41,76.39,101.57,66.44Z"/><path class="cls-2" d="M101.42,30.26c0-2.57-3.54-16.79-3.54-16.79-.11-12.37-7.71-7.7-7.71-7.7C86.39,2.46,74.94,2,70,5.77c0,0-7.6-4.67-7.71,7.7,0,0-3.53,14.22-3.53,16.79,0,6.2,10.61,18.47,21.32,18.47C90.63,48.73,101.42,35.55,101.42,30.26Z"/><path class="cls-9" d="M97.8,24.79a15.14,15.14,0,0,1-.44,1.54h0a25.13,25.13,0,0,1-9.72,12.3,3.79,3.79,0,0,0,.52-1.34A11.67,11.67,0,0,0,88,34.76h0a30.77,30.77,0,0,0-1.42-5.42h0c8.27.37,6.14-7.64,6.09-7.81h0c-1.81-.47-5.75.95-6.61,1.27.88-.41,2.66-2.16,4.14-2.9,1.09-.54,4.08.76,4.08.76a4.26,4.26,0,0,0-2.37-1.74c-3.56-1.1-5.39,1.28-6.74,2.23a18.78,18.78,0,0,1-2,1.13l-1.33.63-1.09-.09a4.08,4.08,0,0,0-.61,0,3.94,3.94,0,0,0-.6,0l-.38,0a28.22,28.22,0,0,1-3.24-1.7c-1.35-.95-3.18-3.33-6.75-2.23a4.26,4.26,0,0,0-2.37,1.74s3-1.3,4.09-.76c1.48.74,3.25,2.49,4.14,2.9-.86-.32-4.8-1.74-6.61-1.27,0,0-2.12,7.64,5.25,7.83-.08.21-1.8,4.91-1.54,7.94a3.79,3.79,0,0,0,.52,1.34A24.39,24.39,0,0,1,62.48,24.79c-.72-3.23.93-7.63.93-7.63l-.47,5,1.45-4.93s6.26-5.27,7.35-6.06S72,7.42,72,7.42l-.46,2.43-2.7,2.37C67.68,8.8,66.63,8.6,65.45,8.8s-.79,6.85-.79,6.85c-1.12-3.56-1.25-8.43,1.77-9.09s4.81,2.37,4.81,2.37a2.64,2.64,0,0,0,0-1.84,18.13,18.13,0,0,1,8.9-1.91,18.59,18.59,0,0,1,3,.12,16.17,16.17,0,0,1,5.92,1.79,2.58,2.58,0,0,0,0,1.84s1.77-3,4.8-2.37,2.9,5.53,1.78,9.09c0,0,.4-6.65-.79-6.85s-2.24,0-3.42,3.42L88.71,9.85l-.46-2.43s-.79,3,.3,3.75,7.34,6.06,7.34,6.06l1.45,4.93-.46-5S98.53,21.56,97.8,24.79Z"/><path class="cls-10" d="M83.13,5.3c-2.18,2.16-4.86,5.26-5.8,8.16-1.69,5.19,0,6.11,0,6.11l4.51,3.33-1.09-.09a4.08,4.08,0,0,0-.61,0,3.94,3.94,0,0,0-.6,0l-.38,0a28.22,28.22,0,0,1-3.24-1.7c-1.35-.95-3.18-3.33-6.75-2.23a4.26,4.26,0,0,0-2.37,1.74s3-1.3,4.09-.76c1.48.74,3.25,2.49,4.14,2.9-.86-.32-4.8-1.74-6.61-1.27,0,0-2.12,7.64,5.25,7.83-.08.21-1.8,4.91-1.54,7.94a3.79,3.79,0,0,0,.52,1.34A24.39,24.39,0,0,1,62.48,24.79c-.72-3.23.93-7.63.93-7.63l-.47,5,1.45-4.93s6.26-5.27,7.35-6.06S72,7.42,72,7.42l-.46,2.43-2.7,2.37C67.68,8.8,66.63,8.6,65.45,8.8s-.79,6.85-.79,6.85c-1.12-3.56-1.25-8.43,1.77-9.09s4.81,2.37,4.81,2.37a2.64,2.64,0,0,0,0-1.84,18.13,18.13,0,0,1,8.9-1.91A18.59,18.59,0,0,1,83.13,5.3Z"/><path class="cls-11" d="M80.14,42.44s-7.27-1.38-6.76-7.83A9.73,9.73,0,0,1,73.64,33h0l1.18-3.2a1.81,1.81,0,0,0-.42-1.95,9.42,9.42,0,0,1,2.07-2.82s1.3,1.16-.21,6.06c0,.11-.07.22-.11.34l.13-.23c.54-1,2.63-5.12.86-6.59a14.64,14.64,0,0,0,1.1-1.48c.37-.58,3.42-.58,3.78,0a15.71,15.71,0,0,0,1.11,1.48c-2,1.68,1,6.82,1,6.82-1.68-5.19-.33-6.4-.33-6.4a9.53,9.53,0,0,1,2.08,2.82,1.81,1.81,0,0,0-.42,1.95L86,31.21h0L86.64,33C88.58,40.83,80.14,42.44,80.14,42.44Z"/><path class="cls-12" d="M86.64,33,86,31.21h0c-.64,1.87-1.23,2-1.23,2a49.88,49.88,0,0,1-8.15,1.22,30,30,0,0,0-.3-3.19l0-.11c-.65-3.9-1.86-3.24-1.86-3.24a1.81,1.81,0,0,1,.42,1.95L73.65,33h0c0,.14-.06.26-.08.39l0,.13c0,.09,0,.17,0,.26a.5.5,0,0,1,0,.12,2.51,2.51,0,0,1,0,.27v.08l0,.34h0c-.51,6.44,6.76,7.83,6.76,7.83S88.58,40.83,86.64,33Z"/><path class="cls-2" d="M75.63,34.61a1.24,1.24,0,0,1,.19-1.44,7,7,0,0,1,4.08-1.83c2.54-.42,3.91.26,4.56.78a.93.93,0,0,1,.28,1.07c-.46,1.17-1.74,3.73-4.14,4.06A4.9,4.9,0,0,1,75.63,34.61Z"/><path class="cls-1" d="M76.75,33.42c.49-1,5.19-2.07,6.47-1.23s-3,.64-4.39,1.23S76.2,34.55,76.75,33.42Z"/><path class="cls-1" d="M73.78,25.53l-3.46-1.45a2.4,2.4,0,0,0,1.1,1.77C72.4,26.37,73.78,25.53,73.78,25.53Z"/><path class="cls-10" d="M67.89,37.05s5,7.52,8,8.61c2.4.87,9.38-.49,10.1-1.09a23.8,23.8,0,0,0,4.2-6.23A14.92,14.92,0,0,1,79.5,42.28C72.8,42.09,67.89,37.05,67.89,37.05Z"/><path class="cls-13" d="M93.73,39.67h0l.39-.39Z"/><path class="cls-1" d="M86.39,25.78s1.63-2.38,4-2.51a2.6,2.6,0,0,1-.88,3A2.54,2.54,0,0,1,86.39,25.78Z"/><path class="cls-10" d="M97.36,26.33a25.13,25.13,0,0,1-9.72,12.3,3.79,3.79,0,0,0,.52-1.34A11.67,11.67,0,0,0,88,34.76S95.06,31.68,97.36,26.33Z"/><path class="cls-10" d="M93.53,26.33c-.72,1.87-2.87,4.83-6.92,3h0c8.27.37,6.14-7.64,6.09-7.81C92.78,21.6,94.23,24.49,93.53,26.33Z"/><path class="cls-2" d="M71.13,33.7s2.75,4.61,5.68,4.73S85.61,37.29,88.6,34l-.72-1.14s2.34.24,2,2.16l-.78-.12s-1.55,6.52-3.77,8.26-7.3,2.27-8.62,1.91-6.4-10.59-6.4-10.59l-1,.18a3,3,0,0,1,2.52-1.8Z"/><path class="cls-1" d="M75.86,39s.41,2.4,3.23,1.74,6-1.61,6.28-2a6.47,6.47,0,0,0,.36-1.68S80.34,40.21,75.86,39Z"/><path class="cls-1" d="M77.71,43.34s5.2.37,7.54-1.74a.6.6,0,0,0-.48-.72c-.6-.12-3,1.76-7.06,1.24C77.71,42.12,76.81,42.5,77.71,43.34Z"/><path class="cls-2" d="M110.26,31.26h-5.63a3.16,3.16,0,0,1-3.15-2.65,3,3,0,0,1,0-.57V8a3.13,3.13,0,0,1,3.2-3.2h12.68a3.1,3.1,0,0,1,3,2,3.45,3.45,0,0,1,.22,1.2V28.08a3.14,3.14,0,0,1-2.6,3.13,3.51,3.51,0,0,1-.59.05Z"/><path class="cls-1" d="M119,8a1.93,1.93,0,0,0-.12-.67,1.64,1.64,0,0,0-1.6-1H104.64A1.65,1.65,0,0,0,102.93,8V28a1.67,1.67,0,0,0,0,.32,1.64,1.64,0,0,0,1.68,1.4h12.71a1.67,1.67,0,0,0,.32,0A1.65,1.65,0,0,0,119,28.08V8Z"/><path class="cls-9" d="M67.25,26.35s2.14,3.54,5.29,3.81A3.71,3.71,0,0,1,69,31.46C67,30.91,67.25,26.35,67.25,26.35Z"/><path class="cls-2" d="M120.93,37l-.19-.62c.17-.65.39-2.33-.79-5,0-1,0-5.38-1.57-7.15s-7-2.57-9.44-2.57a2.85,2.85,0,0,0-1.71.33A3.7,3.7,0,0,0,106,25.23a3.25,3.25,0,0,0,1,2.06c-1.4.67-3.48,1.9-4.13,3.43a2.43,2.43,0,0,0,0,2,3.23,3.23,0,0,0,2.79,2.12l0,.05c0,.06-2.14,6.28.85,9.86a9.64,9.64,0,0,0,3.25,5.22l1.19,5a1.58,1.58,0,0,0,1.55,1.23,1.53,1.53,0,0,0,.7-.16c2-1,6.49-3.77,5.9-9.11v-.1l-.63-1.61c.56-.81,1.84-2.79,1.88-4.09,0-.53,0-.88,0-1.13A4.86,4.86,0,0,0,120.93,37Z"/><path class="cls-9" d="M118.92,35.49a9.23,9.23,0,0,0-3.19-2.19A31.22,31.22,0,0,0,112.64,32l-.4-.7c-.3-.52-2.94.24-2.94.24s-3.37,3-4.7,1.42,1.23-3.41,1.85-3.84,6.19-2.64,8.31-1.78S118.92,35.49,118.92,35.49Z"/><path class="cls-9" d="M118.92,39.1l-1-1.23c0,.08,1,2.79.75,3.21s-3.24,6.28-3.24,6.28l1.53-1.52a2.29,2.29,0,0,1,.56,2.52,9.9,9.9,0,0,1-1.15,2.75h0A7.06,7.06,0,0,1,114.59,53a8.34,8.34,0,0,1-1.85,1.12.57.57,0,0,1-.77-.4l-1-4.09,1.78.59c-.1-.09-3.34-2.86-3.7-3.93a4.44,4.44,0,0,1-.17-.81,14.68,14.68,0,0,1,0-2.44s1.89.47,2.35-.06c0,0,1.16,1.09,1.32.61a5.26,5.26,0,0,0-.23-1.9L114,42a15.1,15.1,0,0,1-1.62-1.32c0-.1,1.42-1.16,1.42-1.16s-1.68.46-1.91.46-1.33-1.32-1.33-1.32.86,2.22.56,2.58a2.7,2.7,0,0,1-1,.72.93.93,0,0,1-.69,0c-.53-.23-1.13-2.58-.56-3.87A2.72,2.72,0,0,1,112,36.45c1.41.29,2.51.48,2.58.49l-.23-.15h0c-.64-.42-2.44-1.56-3.24-1.53-1,0-2.55,1.69-2.55,1.69a.94.94,0,0,1-.86.1h0c0-.09,1.42-3.74,3.57-4.13s7.63,3.28,7.92,4.4A2,2,0,0,1,118.92,39.1Z"/><path class="cls-9" d="M117.37,29.8a6.93,6.93,0,0,0-1.89-3.28c-.56-.58-2.31-.29-4.49.24s-2.95-.63-2.95-.63a2,2,0,0,1-.34-1.53,1.88,1.88,0,0,1,.9-1c1.23-.77,3.11.29,5.3.46s3.34,1.49,4.23,4.07S117.37,29.8,117.37,29.8Z"/><path class="cls-9" d="M108.51,42.16s-1.75.1-2.14-2.44c-.43-2.86.74-4.17.79-4.23a4.47,4.47,0,0,0,.49,3.34,8.19,8.19,0,0,0,.85,3.32Z"/><path class="cls-10" d="M115.73,33.3A31.22,31.22,0,0,0,112.64,32l-.4-.7c-.3-.52-2.94.24-2.94.24s-3.37,3-4.7,1.42a16.61,16.61,0,0,0,3.05-1.66c1-.78,4.51-2,5.37-1.77A3.74,3.74,0,0,1,115.73,33.3Z"/><path class="cls-10" d="M117.37,29.8a6.93,6.93,0,0,0-1.89-3.28c-.56-.58-2.31-.29-4.49.24s-2.95-.63-2.95-.63a2,2,0,0,1-.34-1.53c.21.25,1,1.18,1.81,1.12s5.68-.47,6.22,0A5.61,5.61,0,0,1,117.37,29.8Z"/><path class="cls-10" d="M114.36,36.79c-.64-.42-2.44-1.56-3.24-1.53-1,0-2.55,1.69-2.55,1.69a.94.94,0,0,1-.86.1h0c.08-.09,2.8-3.2,3.67-2.81A18.08,18.08,0,0,1,114.36,36.79Z"/><path class="cls-10" d="M113.79,44.3c.84-1.64,1.15-5.92-2-6.15-2.66-.2-2,2.91-1.71,3.85a2.7,2.7,0,0,0,1-.72c.3-.36-.56-2.58-.56-2.58S111.61,40,111.85,40s1.91-.46,1.91-.46-1.39,1.06-1.42,1.16A15.1,15.1,0,0,0,114,42l-1.62-.33a5.26,5.26,0,0,1,.23,1.9c-.16.48-1.32-.61-1.32-.61-.46.53-2.35.06-2.35.06a14,14,0,0,0,0,2.44h0a.22.22,0,0,1,0,.08s0,.06,0,.08a.17.17,0,0,0,0,.07l0,.19v0c0,.06,0,.12,0,.18h0a1.21,1.21,0,0,0,0,.18c.36,1.07,3.6,3.84,3.7,3.93a16.07,16.07,0,0,1-1.84-4.09A4.57,4.57,0,0,0,113.79,44.3Z"/><path class="cls-10" d="M115.47,51.79c-2.06,1.34-3.52.12-3.67-.69s1-.86,1-.86L111,49.65l1,4.09a.57.57,0,0,0,.77.4A8.34,8.34,0,0,0,114.59,53a7.06,7.06,0,0,0,1.72-1.91A5.3,5.3,0,0,1,115.47,51.79Z"/><path class="cls-10" d="M108.5,42.15a8.43,8.43,0,0,1-1.62-2.6,5.87,5.87,0,0,1,.28-4.06,4.47,4.47,0,0,0,.49,3.34A8.19,8.19,0,0,0,108.5,42.15Z"/><path class="cls-3" d="M105.62,10h-1a.11.11,0,0,0-.08.07c0,.11-.08.23-.12.34a.26.26,0,0,1-.26.19h-.49c-.18,0-.24-.08-.18-.25.25-.73.51-1.45.76-2.17l.29-.84c.07-.19.12-.22.32-.22h.44c.18,0,.24,0,.3.22.33.92.65,1.85,1,2.78l.09.27c0,.13,0,.21-.16.21H106a.22.22,0,0,1-.22-.18Zm-.51-1.69h0l-.28.91h.61Z"/><path class="cls-2" d="M48.16,31.26H42.52a3.15,3.15,0,0,1-3.14-2.65,3,3,0,0,1,0-.57V8a3.13,3.13,0,0,1,3.2-3.2H55.21a3.12,3.12,0,0,1,3,2A3.44,3.44,0,0,1,58.42,8c0,3,0,5.91,0,8.87V28.08a3.14,3.14,0,0,1-2.6,3.13,3.61,3.61,0,0,1-.59.05Z"/><path class="cls-3" d="M111.39,21.53a10.05,10.05,0,0,1,.66-1c.47-.57,1-1.11,1.47-1.64a3.22,3.22,0,0,0,.9-1.26,1.9,1.9,0,0,0-.79-2.13,1.73,1.73,0,0,0-2.15.26l-.09.07-.1-.07a1.73,1.73,0,0,0-2-.21,1.91,1.91,0,0,0-.88,2,1.7,1.7,0,0,0,.51,1A10.15,10.15,0,0,1,111.39,21.53Z"/><path class="cls-1" d="M56.93,8a1.93,1.93,0,0,0-.12-.67,1.63,1.63,0,0,0-1.6-1H42.54A1.65,1.65,0,0,0,40.83,8V28a1.67,1.67,0,0,0,0,.32,1.64,1.64,0,0,0,1.68,1.4H55.24a1.77,1.77,0,0,0,.32,0,1.65,1.65,0,0,0,1.38-1.66V18.9Q56.94,13.44,56.93,8Z"/><path class="cls-2" d="M49.21,19.92a2.51,2.51,0,0,0,1.1,1.84H47.46a2.5,2.5,0,0,0,1.09-1.83l-.31.21a1.69,1.69,0,0,1-2.48-1,2,2,0,0,1,.2-1.27,4.57,4.57,0,0,1,.78-1.08c.2-.22.41-.43.61-.64s.56-.58.82-.89.49-.64.73-1h0a8.77,8.77,0,0,0,1.5,1.83,9.37,9.37,0,0,1,1.17,1.34A2.63,2.63,0,0,1,52,18.6a1.66,1.66,0,0,1-2.7,1.4Z"/><path class="cls-2" d="M43.94,10.42H43s-.07,0-.08.08l-.12.33a.24.24,0,0,1-.26.19H42c-.18,0-.23-.08-.17-.26.25-.72.5-1.45.76-2.17.09-.28.19-.55.29-.83s.11-.23.32-.23h.44c.18,0,.24,0,.3.22.32.93.65,1.85,1,2.78,0,.09.07.18.09.27s0,.21-.15.22h-.55a.25.25,0,0,1-.23-.18C44,10.7,44,10.56,43.94,10.42Zm-.51-1.7h0l-.28.92h.61Z"/><path class="cls-2" d="M54.34,28.47c-.46,0-.44,0-.61-.44-.31-.91-.63-1.82-.95-2.73a.5.5,0,0,1,0-.13c0-.1,0-.17.13-.18s.42,0,.63,0,.13.09.17.15a2.06,2.06,0,0,1,.12.35.11.11,0,0,0,.12.09h.86a.1.1,0,0,0,.12-.09l.1-.31a.25.25,0,0,1,.29-.2h.45c.21,0,.26.08.19.27L55,27.93c0,.11-.09.23-.13.35a.24.24,0,0,1-.27.19Zm0-1.18h0l.28-.91H54Z"/><path class="cls-2" d="M56.23,30.72c-.65-1.53-2.73-2.76-4.13-3.43a3.3,3.3,0,0,0,1-2.06A3.72,3.72,0,0,0,51.82,22a2.9,2.9,0,0,0-1.72-.33c-2.4,0-7.92.91-9.43,2.57s-1.6,6.11-1.57,7.15c-1.19,2.69-1,4.37-.8,5l-.18.62A4.79,4.79,0,0,0,38.76,40c0,.25,0,.6,0,1.13,0,1.3,1.33,3.28,1.89,4.09L40,46.79v.1C39.44,52.23,44,55,45.93,56a1.52,1.52,0,0,0,.69.16,1.59,1.59,0,0,0,1.56-1.23l1.19-5a9.64,9.64,0,0,0,3.25-5.22c3-3.58.87-9.8.85-9.86s0,0,0-.05a3.24,3.24,0,0,0,2.79-2.12A2.47,2.47,0,0,0,56.23,30.72Z"/><path class="cls-9" d="M40.12,35.49a9.28,9.28,0,0,1,3.2-2.19A31.22,31.22,0,0,1,46.41,32l.39-.7c.3-.52,3,.24,3,.24s3.37,3,4.69,1.42-1.22-3.41-1.85-3.84-6.18-2.64-8.3-1.78S40.12,35.49,40.12,35.49Z"/><path class="cls-9" d="M40.12,39.1l1.06-1.23c0,.08-1,2.79-.76,3.21s3.24,6.28,3.24,6.28l-1.52-1.52a2.29,2.29,0,0,0-.56,2.52,9.9,9.9,0,0,0,1.15,2.75h0A7.27,7.27,0,0,0,44.46,53a8.56,8.56,0,0,0,1.84,1.12.58.58,0,0,0,.78-.4l1-4.09-1.78.59c.1-.09,3.34-2.86,3.7-3.93a3.75,3.75,0,0,0,.16-.81,13.55,13.55,0,0,0,0-2.44s-1.88.47-2.34-.06c0,0-1.16,1.09-1.33.61a5.45,5.45,0,0,1,.24-1.9L45.09,42a15.1,15.1,0,0,0,1.62-1.32c0-.1-1.43-1.16-1.43-1.16S47,40,47.2,40s1.32-1.32,1.32-1.32-.86,2.22-.56,2.58A2.75,2.75,0,0,0,49,42a.93.93,0,0,0,.69,0c.53-.23,1.12-2.58.56-3.87A2.72,2.72,0,0,0,47,36.45c-1.41.29-2.51.48-2.58.49l.23-.15h0c.64-.42,2.43-1.56,3.24-1.53,1,0,2.55,1.69,2.55,1.69a.93.93,0,0,0,.86.1h0c0-.09-1.41-3.74-3.57-4.13s-7.62,3.28-7.91,4.4A2,2,0,0,0,40.12,39.1Z"/><path class="cls-9" d="M41.68,29.8a7,7,0,0,1,1.88-3.28c.57-.58,2.32-.29,4.5.24S51,26.13,51,26.13a2,2,0,0,0,.34-1.53,2,2,0,0,0-.91-1c-1.22-.77-3.11.29-5.29.46s-3.34,1.49-4.23,4.07S41.68,29.8,41.68,29.8Z"/><path class="cls-9" d="M50.54,42.16s1.75.1,2.13-2.44c.44-2.86-.73-4.17-.79-4.23a4.45,4.45,0,0,1-.48,3.34,8.19,8.19,0,0,1-.85,3.32Z"/><path class="cls-10" d="M43.32,33.3A31.22,31.22,0,0,1,46.41,32l.39-.7c.3-.52,3,.24,3,.24s3.37,3,4.69,1.42a16.64,16.64,0,0,1-3-1.66c-1-.78-4.51-2-5.37-1.77A3.73,3.73,0,0,0,43.32,33.3Z"/><path class="cls-10" d="M41.68,29.8a7,7,0,0,1,1.88-3.28c.57-.58,2.32-.29,4.5.24S51,26.13,51,26.13a2,2,0,0,0,.34-1.53c-.21.25-1.05,1.18-1.81,1.12s-5.68-.47-6.22,0A5.53,5.53,0,0,0,41.68,29.8Z"/><path class="cls-10" d="M44.69,36.79c.64-.42,2.43-1.56,3.24-1.53,1,0,2.55,1.69,2.55,1.69a.93.93,0,0,0,.86.1h0c-.08-.09-2.8-3.2-3.66-2.81A18.08,18.08,0,0,0,44.69,36.79Z"/><path class="cls-10" d="M45.26,44.3c-.84-1.64-1.15-5.92,2-6.15,2.67-.2,2,2.91,1.72,3.85a2.75,2.75,0,0,1-1-.72c-.3-.36.56-2.58.56-2.58S47.43,40,47.2,40s-1.92-.46-1.92-.46,1.39,1.06,1.43,1.16A15.1,15.1,0,0,1,45.09,42l1.62-.33a5.45,5.45,0,0,0-.24,1.9c.17.48,1.33-.61,1.33-.61.46.53,2.34.06,2.34.06a13.55,13.55,0,0,1,0,2.44h0a.22.22,0,0,1,0,.08s0,.06,0,.08a.17.17,0,0,1,0,.07l0,.19v0c0,.06,0,.12,0,.18h0c0,.06,0,.12-.05.18-.36,1.07-3.6,3.84-3.7,3.93a15.71,15.71,0,0,0,1.83-4.09A4.57,4.57,0,0,1,45.26,44.3Z"/><path class="cls-10" d="M43.58,51.79c2.06,1.34,3.51.12,3.66-.69s-1-.86-1-.86l1.78-.59-1,4.09a.58.58,0,0,1-.78.4A8.56,8.56,0,0,1,44.46,53a7.27,7.27,0,0,1-1.73-1.91A5,5,0,0,0,43.58,51.79Z"/><path class="cls-10" d="M50.55,42.15a8.53,8.53,0,0,0,1.61-2.6,5.75,5.75,0,0,0-.28-4.06,4.45,4.45,0,0,1-.48,3.34A8.19,8.19,0,0,1,50.55,42.15Z"/><path class="cls-2" d="M38.44,129.87l-4.27.08-.25,4.49-2.9.08-4.07.11-3.39.11-4.08.13-2.79.1-5.57-10.9,3-42.21H145.93l2.95,42.21L143.31,135l-17.23-.53-.25-4.48-4.18-.08Z"/><path class="cls-1" d="M24.89,85.14h4.23l-.3,5.33-.56,9.82-2.17,1.48,2,1.47,0,.23,0,.52-.27,4.81,0,.47-.39,6.92c-.1,1.78-.21,3.55-.31,5.33l-4.4.12-3.67.12-4.41.14.38-5.38L16,100.74l0-.52c.11-1.63.22-3.25.34-4.87l0-.47.3-4.35.38-5.39h7.76ZM24,100.44c.2-3.32.4-6.63.61-10l-3.55,0-.48,7.39C21.66,98.75,22.8,99.6,24,100.44Zm-.42,6.8,1.33,0-.08,0-1.2-.87c-1.15-.83-2.29-1.68-3.44-2.52q-.41,6.3-.82,12.61L23,116.3Q23.24,111.77,23.53,107.24Z"/><path class="cls-1" d="M42.38,108.21l-.1,2.49-.05,1.08-.06,1.45L42,116.36l-4.38.08-3.65.07-4.38.1c.08-1.54.16-3.08.25-4.61l.54-10c.07-1.12.1-1.68.16-2.79l0-.69c.07-1.39.11-2.09.19-3.48l.54-9.91h4.23l-1.34,26.77,3.63-.06v-.2l0-.89v-.12l0-.44,0-.48c.07-1.46.1-2.2.17-3.66l0-.4Z"/><path class="cls-1" d="M53.33,85.14h4.23l-.12,4.55c-.09,3.69-.19,7.38-.28,11.08v.44c0,1.64-.07,2.46-.11,4.1v.4l-.27,10.44-4.38,0L52.75,104h1.33l-.07,0-1.23-.75L49.25,101q-.26,7.63-.52,15.27l-4.38.07q.34-9,.7-17.95l0-.44c.06-1.65.09-2.48.16-4.13v-.4l.15-3.69.18-4.57h7.76Zm-.4,13c.09-2.82.17-5.64.26-8.46H49.64L49.43,96Z"/><path class="cls-1" d="M67.41,94.76c0-1.69,0-3.39.07-5.08H63.93q-.2,10.93-.4,21.88l3.64,0,.12-8.47,0-1.91c0-1.22,0-1.83,0-3.06l4.27,2.61v.44c0,1.64,0,2.46,0,4.09v.4l0,5.88c0,1.51,0,3,0,4.53l-4.39,0-3.65,0-4.38,0c0-1.51.07-3,.1-4.54l.51-21.91c0-1.51.07-3,.11-4.54h12c0,1.51,0,3,0,4.53l0,5.09Z"/><path class="cls-1" d="M86.08,98,84,99.24l2.08,1.27v.64l0,4.09v.39L86.21,116H81.83l0-12.19h1.33l-.08,0-1.25-.75-3.6-2.19,0,15.17H73.79l.12-17.79v-.44l0-4.09v-.4q0-4.08,0-8.18h4.24l0,10.76,3.58,2.19,0-13H86Z"/><path class="cls-1" d="M100.93,116.13l-4.38,0-3.65,0-4.39,0c0-1.51,0-3,0-4.53l-.08-8.46,0-1.91,0-3.06q2.16,1.32,4.33,2.63v.44l.06,4.1v.39l.08,5.89,3.64,0q-.16-8.4-.31-16.79L96,85.14h4.23c.08,3.22.15,6.43.23,9.64l.39,16.81Z"/><path class="cls-1" d="M110.2,85.14h4.23l.18,4.57c.15,3.72.29,7.43.44,11.14l0,.44.16,4.13v.4q.21,5.25.41,10.5l-4.38-.07L110.85,104h1.33l-.08,0-1.28-.77L107.16,101q.23,7.64.46,15.25l-4.38,0q-.24-8.93-.46-17.85v-.44c0-1.64-.07-2.46-.11-4.11v-.4c0-1.46-.05-2.2-.09-3.66l-.12-4.55h7.76Zm.45,13-.29-8.48h-3.55q.1,3.12.19,6.26Z"/><path class="cls-1" d="M124.91,94.9c-.09-1.72-.17-3.44-.26-5.16H121.1q.53,11.05,1,22.12l3.63.06c-.14-2.86-.29-5.72-.43-8.58l-.1-1.94-.15-3.1,4.44,2.71,0,.44c.1,1.67.14,2.5.23,4.17l0,.4.33,6c.09,1.53.17,3.07.25,4.61l-4.38-.1-3.65-.07-4.38-.08c-.06-1.53-.13-3-.19-4.58q-.47-11-.92-22.06c-.06-1.53-.13-3-.19-4.58h12c.09,1.54.17,3.08.25,4.61.1,1.73.19,3.45.29,5.18Z"/><path class="cls-1" d="M143.94,100.45l-2,1.43,2.19,1.55v.23l0,.52.34,4.87,0,.47.87,12.38-4.41-.14q-.47-7.23-.94-14.45l1.33,0-.08,0-1.31-.92-3.77-2.65q.56,9,1.1,17.92l-4.4-.12-1.2-21,0-.51-.27-4.82,0-.46c-.18-3.21-.37-6.43-.55-9.64h4.23l.79,12.72,3.74,2.63q-.49-7.68-1-15.35h4.23Q143.41,92.81,143.94,100.45Z"/><path class="cls-13" d="M91.67,112.71h1.16l3.63,0h1.21l-.22-11.87h-6.8l.86.52Z"/><path class="cls-13" d="M122.11,113l3.63.06,1.26,0-.61-12.24h-6L121,113Z"/><path class="cls-13" d="M63.54,112.73l3.63,0h1.16l.17-11.84h-6l-.22,11.87Z"/><polygon class="cls-6" points="25.09 101.03 25.31 100.88 25.1 100.88 25.09 101.03"/><path class="cls-6" d="M15.83,120.68l3.1-.1,3.67-.11,3.33-.1.68-12-2,0-.55,9-1.08,0-3.65.1-1.29,0,1.05-16.06,1.73,1.28,3.44,2.52,1.16.84,1.25.78.18-3.16-1.48-1.09-.39-.29v.24l-1.74-1.28-.69-.52H17.21Z"/><path class="cls-6" d="M30.87,115.4l3.11-.07,3.66-.07,3.27-.06.26-6.34-1.93-1.17L39,113l-1.11,0-3.63.06-1.26,0,.61-12.24H31.67Z"/><path class="cls-6" d="M53.39,102.14l1.2.73,0,0-.54,2.22H53.9L53.6,115l2,0L56,100.87H51.33C52,101.27,52.55,101.63,53.39,102.14Z"/><path class="cls-6" d="M45.57,115.12l2,0,.49-14.22H46.13Z"/><path class="cls-6" d="M68.33,112.71H67.17l-3.63,0H62.33l.22-11.87H60.6l-.33,14.07,3.17,0,3.66,0,3.22,0,.13-13.5c-.28-.16-.55-.33-.82-.5H68.5Z"/><path class="cls-6" d="M75,114.86h2l0-14h-2Z"/><path class="cls-6" d="M82.41,102l1.22.74,0,0L83.11,105H83l0,9.83h2l-.09-13.68-.49-.31h-4Z"/><path class="cls-6" d="M97.67,112.74H96.46l-3.63,0H91.67l-.16-11.32-.86-.52h-1.1l.13,14,3.22,0,3.66,0,3.17,0-.33-14.07h-2Z"/><path class="cls-6" d="M104.39,115l2,0L106,100.87h-2Z"/><path class="cls-6" d="M111.43,102.17l1.25.75,0,0-.56,2.22h-.1l.34,9.92,2,0-.56-14.25H109.3Z"/><path class="cls-6" d="M127,113.11l-1.26,0-3.63-.06L121,113l-.56-12.14h-2l.6,14.33,3.27.06,3.66.07,3.11.07-.75-13.72-1.32-.81h-.67Z"/><path class="cls-6" d="M141.35,108.51l.79,12.1,2,.07-.85-12.13Z"/><path class="cls-6" d="M143.22,107.05l-.21-3-2-1.45,0,.24-2-1.41-.82-.58H133l1.11,19.5,2,.06-1.18-19.08,2,1.41,3.77,2.64,1.29.9Z"/><path class="cls-6" d="M140.87,101.22l.4-.29.08-.06h-.5Z"/></svg>