<svg id="Layer_1" data-name="Layer 1" xmlns="http://www.w3.org/2000/svg" xmlns:xlink="http://www.w3.org/1999/xlink" viewBox="0 0 160 160"><defs><style>.cls-1{fill:#fff;}.cls-2{fill:#dd0900;}.cls-3{fill:url(#linear-gradient);}.cls-4{fill:url(#linear-gradient-2);}.cls-5{fill:url(#linear-gradient-3);}.cls-6{fill:url(#linear-gradient-4);}.cls-7{fill:url(#linear-gradient-5);}.cls-8{fill:url(#linear-gradient-6);}.cls-9{fill:url(#linear-gradient-7);}.cls-10{fill:url(#linear-gradient-8);}.cls-11{fill:#c70c04;}.cls-12{fill:#950903;}.cls-13{fill:#dd6d68;}</style><linearGradient id="linear-gradient" x1="22.14" y1="117.59" x2="23.03" y2="134.31" gradientUnits="userSpaceOnUse"><stop offset="0" stop-color="#fea621"/><stop offset="1" stop-color="#c70c04"/></linearGradient><linearGradient id="linear-gradient-2" x1="42.84" y1="119.4" x2="42.84" y2="130.68" xlink:href="#linear-gradient"/><linearGradient id="linear-gradient-3" x1="68.35" y1="119.85" x2="68.05" y2="128.06" xlink:href="#linear-gradient"/><linearGradient id="linear-gradient-4" x1="82.44" y1="119.6" x2="82.73" y2="127.22" xlink:href="#linear-gradient"/><linearGradient id="linear-gradient-5" x1="94.36" y1="119.48" x2="94.26" y2="127.89" xlink:href="#linear-gradient"/><linearGradient id="linear-gradient-6" x1="114.31" y1="119.36" x2="114.41" y2="129.55" xlink:href="#linear-gradient"/><linearGradient id="linear-gradient-7" x1="131.35" y1="119.28" x2="131.55" y2="132.93" xlink:href="#linear-gradient"/><linearGradient id="linear-gradient-8" x1="144.19" y1="122.57" x2="144.09" y2="136.22" xlink:href="#linear-gradient"/></defs><path class="cls-1" d="M155.83,141.61V130.37c0-.33,0-.69,0-1.06v-.12a27.4,27.4,0,0,0-.4-6.07,11.89,11.89,0,0,0-.64-2.06l-.32-.75.3-.77a19.1,19.1,0,0,0,1.06-7.25V112a20.82,20.82,0,0,0-1.93-9.76l-.57-1.1.72-1a6.26,6.26,0,0,0,1.16-2.81,7.09,7.09,0,0,0-1.14-5,14.86,14.86,0,0,0-2.24-2.62A55.56,55.56,0,0,1,140.76,74.2L140.2,73c-1.93-4.1-4.31-9.17-9.4-11.45-.48-.22-.93-.38-1.29-.52l-1.14-.43-.55-1.47A45.65,45.65,0,0,0,120,45.78a11.32,11.32,0,0,0-2.07-1.9l-.81-.56,0-1a24.44,24.44,0,0,0-1.34-6.85,31.14,31.14,0,0,0-5.93-10.18,37,37,0,0,0-53.16-2.83,31.61,31.61,0,0,0-8,11,27.7,27.7,0,0,0-1.89,7.07l0,.24c-.1.7-.17,1.26-.22,1.77l-.1.89-.72.52a10.11,10.11,0,0,0-1.4,1.23,38.64,38.64,0,0,0-8.24,13.48L36,59l-.31.86-.29.71-.69.34c-.26.13-.63.29-.92.42-.53.23-1.08.47-1.65.78-4.77,2.53-7,7.26-8.91,11.43-.26.56-.51,1.11-.76,1.62A50.12,50.12,0,0,1,11.82,89.69C10.55,90.89,8.44,92.9,8.36,96a6.57,6.57,0,0,0,.1,1.33l.17,1L8,99a13.07,13.07,0,0,0-1.82,2.55c-1.78,3.22-2,6.84-2,10a19.34,19.34,0,0,0,1.34,7.67,14.29,14.29,0,0,0,.84,1.71l.67,1.2-2,2.43-.55,1.54v3.44a23,23,0,0,0,1.4,8.89c1,2.32,3.18,5.36,8.18,6.72a15.07,15.07,0,0,0,4,.51,25.92,25.92,0,0,0,6.36-.93A29.78,29.78,0,0,0,32.9,141l.86-.57,1.25-.86.88.73,2,.53.67-.13c3.32-.62,6.71-1.18,10.08-1.67l.55-.08,1.47-.81,3.1-3.54L55,131.48l5.74,5.37,1.85.66.64,0c3.37-.25,6.79-.43,10.18-.54l.59,0,1.43-.63,1.4.57h.62c4.24,0,8.57,0,12.85.22l.92,0c.89.05,1.9.1,2.93.1a24.15,24.15,0,0,0,2.8-.15,17.41,17.41,0,0,0,3.26-.65l1.22-.38,1.2,1.33,1.52.79.56.06c5.83.68,11.72,1.58,17.49,2.68l.67.13.77-.21.88.54.51.11c3.32.69,6.68,1.47,10,2.31l.69.18h0l.83-.18,1,.65.48.14c3.06.84,6.15,1.74,9.17,2.7h0l.7.22,2.2-.37,4.78-3.5Z"/><path d="M152.43,123.74a10,10,0,0,0-1.56-3.47c1.91-2.45,1.9-5.77,1.89-8V112c0-3.22-.28-6.6-2.26-9.49a10.91,10.91,0,0,0-2-2.16c2.06-.64,3.4-1.91,3.65-3.49.33-2.15-1.38-3.84-2.51-5A58.47,58.47,0,0,1,138,75.52c-.19-.4-.39-.81-.58-1.23-1.79-3.81-3.82-8.12-7.88-9.94-.36-.16-.74-.3-1.1-.44a6,6,0,0,1-2.15-1.12A6.21,6.21,0,0,1,125,60.41l-.07-.19a42.59,42.59,0,0,0-7.29-12.47c-.43-.51-2-2.18-3.73-2.18h0a20.39,20.39,0,0,0-1.07-9.1,28.08,28.08,0,0,0-5.34-9.16,33.91,33.91,0,0,0-48.77-2.59,28.72,28.72,0,0,0-7.22,9.88,24.7,24.7,0,0,0-1.68,6.29c0,.09,0,.21,0,.35a24.08,24.08,0,0,0-.32,4.35,5.23,5.23,0,0,0-2.91,1.66A35.45,35.45,0,0,0,39,59.66l-.12.32a7.59,7.59,0,0,1-1.25,2.55A7.36,7.36,0,0,1,35,64.11c-.47.21-1,.42-1.43.67-3.86,2.06-5.75,6.11-7.57,10-.25.55-.52,1.12-.78,1.66A53,53,0,0,1,13.93,91.91c-1.1,1-2.46,2.34-2.51,4.14A3.74,3.74,0,0,0,12.76,99,11.43,11.43,0,0,0,8.83,103c-1.43,2.61-1.62,5.62-1.61,8.48A16.82,16.82,0,0,0,8.32,118a10.48,10.48,0,0,0,3.19,4.34l.54.39-1.62.32-.48.3L7.73,126l-.2.54v2.86A20.28,20.28,0,0,0,8.7,137.2a8.64,8.64,0,0,0,6.15,4.94,12,12,0,0,0,3.18.4,23.29,23.29,0,0,0,5.61-.83,26.71,26.71,0,0,0,7.62-3.28,16.82,16.82,0,0,0,3.61-3l2.46,2.06.7.18c3.37-.63,6.8-1.2,10.2-1.7l.52-.28L51.12,133l.21-.55.09-9.37a21.76,21.76,0,0,0,6-1.31,12,12,0,0,0,1.73-.83l-.06,9.82.27.62,3,2.78.64.22c3.41-.25,6.87-.43,10.3-.54l.58-.26,1.47-1.52,1.46,1.45.6.24h2.17c3.59,0,7.24.08,10.84.24l.93,0c.9.05,1.84.09,2.79.09a23,23,0,0,0,2.45-.12,12,12,0,0,0,4.41-1.25,7.34,7.34,0,0,0,1-.66l0,.06,2.45,2.73.53.27c5.91.68,11.87,1.59,17.71,2.71l.7-.19.79-.65.93,1.13.47.29c3.37.71,6.77,1.49,10.11,2.34l.73-.15.85-.67,1,1.32.44.3c3.1.85,6.22,1.77,9.28,2.73l.75-.12,3.61-2.64.34-.68v-10.5c0-.4,0-.82,0-1.23A24.71,24.71,0,0,0,152.43,123.74Z"/><path d="M151.61,123.91a10,10,0,0,0-1.81-3.68h0a3.85,3.85,0,0,0,.39-.44c1.76-2.23,1.74-5.39,1.74-7.48V112c0-3.08-.26-6.31-2.12-9a9.67,9.67,0,0,0-6-4,46.66,46.66,0,0,0-9.18-.64h-1.26l-7.32,0-1.81,1.82-1.85-1.84-17.23,0L102.42,101l0,1.54a11.82,11.82,0,0,0-1.24-1.35,10.82,10.82,0,0,0-5.4-2.44,42.2,42.2,0,0,0-8-.57H77.4l-2.08,2.08-2.07-2.08H62.91l-2.76,2.75v.21a5.46,5.46,0,0,0-.45-.39,10.89,10.89,0,0,0-4.54-2,35,35,0,0,0-7-.56h0l-10.41,0L34.91,101l0,1.64A9.86,9.86,0,0,0,30,98.9a20,20,0,0,0-7.87-1.37h-.06a18.36,18.36,0,0,0-7.4,1.39,10.83,10.83,0,0,0-5.08,4.5c-1.34,2.44-1.52,5.32-1.51,8.06a15.92,15.92,0,0,0,1,6.17,9.52,9.52,0,0,0,2.92,4,21,21,0,0,0,2.31,1.48l-3.73.73-2.22,2.72v2.85a19.62,19.62,0,0,0,1.1,7.45,7.86,7.86,0,0,0,5.59,4.45,11.65,11.65,0,0,0,3,.37,22.34,22.34,0,0,0,5.4-.81,25.87,25.87,0,0,0,7.38-3.17,15.19,15.19,0,0,0,3.95-3.44l3.11,2.6c3.39-.63,6.83-1.2,10.24-1.7l2.37-2.71.1-10.16h.24A21.7,21.7,0,0,0,57.13,121a9.82,9.82,0,0,0,2.9-1.7L60,130.78l3,2.78c3.43-.25,6.91-.43,10.34-.54l2.07-2.14,2.06,2.05h2.18c3.61,0,7.26.08,10.87.24l.94,0c.89,0,1.81.09,2.75.09a20.92,20.92,0,0,0,2.35-.12,11.17,11.17,0,0,0,4.11-1.15,6.42,6.42,0,0,0,2.08-1.73v1.3l2.46,2.73c5.93.68,11.91,1.6,17.77,2.72l1.44-1.21,1.47,1.79c3.38.71,6.79,1.5,10.14,2.35l1.52-1.19,1.53,2c3.1.85,6.23,1.77,9.3,2.74l3.61-2.64V130.39c0-.4,0-.81,0-1.25A24.78,24.78,0,0,0,151.61,123.91Z"/><path class="cls-2" d="M33.49,111.3c-3.19.21-6.39.44-9.57.69v-2.67a4.72,4.72,0,0,0-.35-2.37,1.35,1.35,0,0,0-1.22-.47,1.7,1.7,0,0,0-1.41.77,3.89,3.89,0,0,0-.49,2.18,5.47,5.47,0,0,0,.52,2.74,6.61,6.61,0,0,0,2.89,2c2.85,1.3,6.53,2.61,8.62,5,1.61,1.86,1.74,4.7,1.72,7a12.09,12.09,0,0,1-1,5.51,10.78,10.78,0,0,1-3.85,3.71,22.79,22.79,0,0,1-6.57,2.82c-2.24.57-4.74,1.06-7,.45A5.16,5.16,0,0,1,12,135.81a18.07,18.07,0,0,1-.89-6.64v-2.59q4.72-1,9.47-1.79c0,1.49,0,3,0,4.49a4.87,4.87,0,0,0,.39,2.58c.26.34.73.42,1.41.27a2.29,2.29,0,0,0,1.53-1.07,4.4,4.4,0,0,0,.51-2.28c0-1.25,0-3.12-.92-4-1.24-1.12-3.19-1.8-4.78-2.56a29.05,29.05,0,0,1-5-2.79,6.87,6.87,0,0,1-2-2.87,13.48,13.48,0,0,1-.82-5.1c0-2.18.08-4.73,1.17-6.71a8,8,0,0,1,3.76-3.31,16,16,0,0,1,6.29-1.15,17.76,17.76,0,0,1,6.85,1.15c1.38.58,3,1.37,3.73,2.79.87,1.72.85,3.81.87,5.71Z"/><path class="cls-1" d="M18,138.14a7.58,7.58,0,0,1-2-.25,4.36,4.36,0,0,1-3.23-2.39,16.6,16.6,0,0,1-.83-6.12v-2.15c2.61-.53,5.26-1,7.89-1.5l0,3.55c0,1.65.16,2.57.56,3.07a1.73,1.73,0,0,0,1.45.65,3.61,3.61,0,0,0,.76-.1,3.05,3.05,0,0,0,2-1.43,5.26,5.26,0,0,0,.62-2.7v-.23c0-1.38,0-3.29-1.18-4.34a14,14,0,0,0-3.79-2.15l-1.18-.53-.42-.2a25.6,25.6,0,0,1-4.48-2.51,6,6,0,0,1-1.8-2.54,12.58,12.58,0,0,1-.75-4.8c0-2.11.06-4.52,1.06-6.33a7.18,7.18,0,0,1,3.39-3,14.75,14.75,0,0,1,6-1.08h.06a16.7,16.7,0,0,1,6.49,1.08c1.39.58,2.75,1.28,3.33,2.42a11.76,11.76,0,0,1,.78,5.08v.87c-2.65.19-5.33.38-8,.59v-1.82a5,5,0,0,0-.5-2.84,2,2,0,0,0-1.75-.79h-.14a2.47,2.47,0,0,0-2,1.13,4.59,4.59,0,0,0-.62,2.62v0a6,6,0,0,0,.64,3.11,6.14,6.14,0,0,0,2.82,2.07l.4.19h0c.46.22.94.42,1.45.64,2.46,1.08,5.26,2.29,6.89,4.18,1.38,1.6,1.55,4.17,1.53,6.47a11.33,11.33,0,0,1-1,5.14,9.82,9.82,0,0,1-3.57,3.42,22,22,0,0,1-6.34,2.72A19,19,0,0,1,18,138.14Z"/><path class="cls-3" d="M28.51,119.2H18.37l1.06.51.42.2,1.11.5h0a15.51,15.51,0,0,1,4.28,2.46c1.73,1.58,1.75,4,1.76,5.65v.23a6.91,6.91,0,0,1-.88,3.62A4.75,4.75,0,0,1,23,134.64a5.15,5.15,0,0,1-1.14.14A3.55,3.55,0,0,1,19,133.46c-.68-.86-.95-2.08-.94-4.19v-1.4c-1.44.26-2.89.54-4.32.82v.67a15.55,15.55,0,0,0,.69,5.45c.17.42.57,1,2.06,1.36a5.7,5.7,0,0,0,1.56.19,17.54,17.54,0,0,0,4.09-.65,20.39,20.39,0,0,0,5.83-2.5,8.37,8.37,0,0,0,2.95-2.76,9.84,9.84,0,0,0,.74-4.31c0-1.86-.09-4.13-1.1-5.3A8.71,8.71,0,0,0,28.51,119.2Z"/><path class="cls-1" d="M17.35,134.44l-.39-.08a3.27,3.27,0,0,1-.84-.33,11.71,11.71,0,0,1-.5-3.8l.54-.1A7.5,7.5,0,0,0,17.35,134.44Zm11.46-4.3a9.17,9.17,0,0,0,.08-1.4v-.22c0-1.83,0-4.89-2.38-7l-.48-.41H28a6.15,6.15,0,0,1,1.17,1c.3.36.66,1.34.64,4.05a9.33,9.33,0,0,1-.51,3.44A2.8,2.8,0,0,1,28.81,130.14Z"/><path class="cls-2" d="M37.68,101l10.41,0a32.79,32.79,0,0,1,6.49.5A8.29,8.29,0,0,1,58,102.9a4.78,4.78,0,0,1,1.53,2.29,15.36,15.36,0,0,1,.37,4.17c0,1,0,1.57,0,2.62a8.48,8.48,0,0,1-.82,4.24,5.56,5.56,0,0,1-2.91,2.2,18.88,18.88,0,0,1-5.51,1.11l-2.79.23-.12,12.68q-5.19.75-10.35,1.72Q37.53,117.59,37.68,101ZM48,106.35c0,2.67-.05,5.34-.07,8l.76,0a3,3,0,0,0,2-.66,3.44,3.44,0,0,0,.58-2.31l0-2.54c0-1.07-.2-1.75-.62-2.06A4.75,4.75,0,0,0,48,106.35Z"/><path class="cls-1" d="M38.46,101.79l9.63,0a31.32,31.32,0,0,1,6.32.47,7.57,7.57,0,0,1,3.08,1.3,3.88,3.88,0,0,1,1.25,1.86,14.94,14.94,0,0,1,.35,4l0,2.64a7.63,7.63,0,0,1-.71,3.84,5,5,0,0,1-2.52,1.86,18.11,18.11,0,0,1-5.28,1l-2.8.24-.71.06-.12,12.71c-2.92.44-5.86.92-8.77,1.46Zm9.9,3.76h-.42l-.76,0-.09,9.59.81,0c.3,0,.57,0,.8,0a3.69,3.69,0,0,0,2.5-.9,4,4,0,0,0,.8-2.85l0-2.55a3.11,3.11,0,0,0-.94-2.7A4.68,4.68,0,0,0,48.36,105.55Z"/><path class="cls-4" d="M40.3,119.42l-.11,11.88c1.72-.3,3.46-.59,5.19-.86l.11-11Z"/><path class="cls-1" d="M42.16,121.3h1.43l-.07,7.53-1.43.24Z"/><path class="cls-2" d="M73.25,100.92q0,14.67-.08,29.33-5.23.17-10.45.55.11-14.94.2-29.87Z"/><path class="cls-1" d="M63.7,101.72h8.76l-.08,27.77c-2.94.11-5.92.26-8.86.47Z"/><path class="cls-5" d="M65.59,119.42l-.06,8.85c1.76-.11,3.54-.2,5.3-.28l0-8.57Z"/><path class="cls-1" d="M67.46,121.3H69l0,4.89-1.52.08Z"/><path class="cls-2" d="M77.4,100.92h7.73a54.36,54.36,0,0,1,10.13.52,8.31,8.31,0,0,1,4,1.72,5.38,5.38,0,0,1,1.74,2.67,30.1,30.1,0,0,1,.39,5.77c0,3.53,0,7.06.08,10.59a17.09,17.09,0,0,1-.46,5.4,3.65,3.65,0,0,1-1.76,2,8.84,8.84,0,0,1-3.11.84,37.55,37.55,0,0,1-5.61,0q-6.6-.28-13.19-.23Zm10.35,5,.06,19.32c1,0,2.25,0,2.78-.57s.52-2.51.5-3.6c0-3.82,0-7.64,0-11.46a12.35,12.35,0,0,0-.18-2.57,1.34,1.34,0,0,0-.79-.84A7.15,7.15,0,0,0,87.75,105.94Z"/><path class="cls-1" d="M94.13,129.73c-.85,0-1.73,0-2.58-.09l-1,0c-3.65-.16-7.36-.24-11-.24H78.16l0-27.65H87.8a39,39,0,0,1,7.31.51,7.31,7.31,0,0,1,3.63,1.51,4.63,4.63,0,0,1,1.52,2.27,24.41,24.41,0,0,1,.36,4.86c0,.25,0,.5,0,.75l.08,10.58v.8a13.56,13.56,0,0,1-.42,4.34,2.78,2.78,0,0,1-1.38,1.55,8.15,8.15,0,0,1-2.83.75A16.34,16.34,0,0,1,94.13,129.73ZM87,126l.75,0,.67,0a3.47,3.47,0,0,0,2.74-.86c.78-.9.74-2.63.71-3.9v-.23l0-11.45a10.5,10.5,0,0,0-.22-2.8,2.1,2.1,0,0,0-1.23-1.33,7.1,7.1,0,0,0-2.62-.35H87Z"/><path class="cls-6" d="M79.94,127.58q2.66,0,5.31.06l0-8.44H80Z"/><path class="cls-1" d="M83.36,125.73l-1.53,0v-4.63h1.52Z"/><path class="cls-7" d="M98.93,122.2l0-3H93.65v2.07c0,1.56.09,3.69-1.14,5.1a4.46,4.46,0,0,1-2.89,1.41l1,0,1,0c.83,0,1.69.09,2.49.09a14.91,14.91,0,0,0,1.74-.09,6.47,6.47,0,0,0,2.19-.55,1,1,0,0,0,.55-.57,12.33,12.33,0,0,0,.32-3.73Z"/><path class="cls-1" d="M94.91,126.05a11.55,11.55,0,0,0,.64-4.83v-.14H97V123a15.6,15.6,0,0,1-.12,2.74,6.64,6.64,0,0,1-1.27.23Q95.32,126,94.91,126.05Z"/><path class="cls-2" d="M105.19,101l17.23,0c0,2.21,0,4.43.07,6.64l-6.9-.26.06,6.07,6.46.45.06,6.3c-2.15-.24-4.31-.46-6.46-.66,0,2.34.05,4.69.07,7q3.8.5,7.58,1.08,0,3.33.07,6.67-8.94-1.71-18-2.75Q105.33,116.26,105.19,101Z"/><path class="cls-1" d="M122.63,133.36c-5.42-1-10.92-1.85-16.39-2.5L106,101.74l15.65.05,0,5-6.07-.23-.83,0,.07,7.63.74,0c1.9.12,3.82.26,5.72.4l.05,4.67-5.59-.56-.87-.08.08,8.6.69.09c2.29.3,4.61.62,6.9,1Z"/><path class="cls-8" d="M115.45,129.12l-2.22-.28-.1-9.64h-5.21l.09,10.08c4.27.54,8.57,1.19,12.82,1.94l0-1.35C119,129.61,117.23,129.36,115.45,129.12Z"/><path class="cls-1" d="M111.34,127.83l-1.47-.2-.05-6.55h1.45Z"/><path class="cls-2" d="M126.08,101l7.31,0a53.7,53.7,0,0,1,9.91.59,7,7,0,0,1,4.22,2.89c1.47,2.15,1.62,5,1.63,7.46,0,1.85.08,4.52-1.14,6.08-1,1.23-3,1.35-4.5,1.24a9,9,0,0,1,4.09,2.6,7,7,0,0,1,1.29,2.56,30.76,30.76,0,0,1,.26,5.93v10.48q-4.68-1.49-9.41-2.77l-.06-12.31c0-1.18.07-2.81-.52-3.76-.46-.74-1.74-1-2.62-1.09q0,8.17.1,16.34-5.1-1.29-10.25-2.38Q126.24,118,126.08,101Zm10.37,6.24c0,2.69,0,5.37.05,8.06a4.24,4.24,0,0,0,2.43-.19c.68-.51.71-1.86.68-2.82v-2a3.06,3.06,0,0,0-.69-2.34A4.18,4.18,0,0,0,136.45,107.26Z"/><path class="cls-1" d="M148.36,139.8c-2.59-.8-5.22-1.58-7.83-2.3l-.06-11.7v-.21a7.67,7.67,0,0,0-.64-4c-.64-1-2.13-1.32-3.2-1.45l-.89-.11.1,16.21c-2.87-.71-5.78-1.39-8.67-2l-.29-32.46,6.51,0h1.27a44,44,0,0,1,8.48.57,6.22,6.22,0,0,1,3.73,2.56c1.3,1.9,1.48,4.49,1.49,7v.32c0,1.69,0,4-1,5.27-.63.8-2,1-3,1l-.78,0-.33,1.53a8.15,8.15,0,0,1,3.73,2.34,6.2,6.2,0,0,1,1.15,2.24,21.83,21.83,0,0,1,.25,4.47c0,.43,0,.87,0,1.3ZM135.71,116l.71.07a10.59,10.59,0,0,0,1.19.07h0a3,3,0,0,0,1.79-.41c.95-.71,1-2.15,1-3.46v-2a3.74,3.74,0,0,0-1-2.94,4.84,4.84,0,0,0-2.94-.86l-.84,0Z"/><path class="cls-9" d="M128.94,132.83c1.7.37,3.41.76,5.11,1.17l-.1-14.8h-5.13Z"/><path class="cls-1" d="M132.15,131.62l-1.34-.3-.09-10.24h1.37Z"/><path class="cls-10" d="M145.55,123.48a6.18,6.18,0,0,0-2.91-1.75l-.94-.34a10.6,10.6,0,0,1,.55,4.22v.2l.05,10.34c1.43.4,2.85.82,4.27,1.24v-7c0-.46,0-.92,0-1.34a19.83,19.83,0,0,0-.21-4.08A4.48,4.48,0,0,0,145.55,123.48Z"/><path class="cls-1" d="M144.17,134.73l0-8.91v-.19c0-.29,0-.59,0-.91a3.15,3.15,0,0,1,.41.7,19.59,19.59,0,0,1,.17,3.63h0c0,.42,0,.89,0,1.35v4.47Z"/><path class="cls-1" d="M68.25,76a8.41,8.41,0,0,0-.64,3.09,5.41,5.41,0,0,0,.81,3.12,6.42,6.42,0,0,0,4.42,2.42h0c-.71-1.52-1.1-3.16-1.71-4.72C70.69,78.76,69.63,76.27,68.25,76Z"/><path class="cls-11" d="M35,73.92a2.41,2.41,0,0,0-2.6-2c-1.28.26-1.86,1.82-2.3,2.9A59,59,0,0,1,15.17,95.9c1.54.72,3.24,1.45,4.88,1s2.6-1.71,3.56-3c4-5.13,7.94-10.38,10.63-16.3A6.19,6.19,0,0,0,35,73.92Z"/><path class="cls-12" d="M35,73.92a2.71,2.71,0,0,0-1.17-1.69c-1,4.08-5.56,15.18-15.07,24.81a4,4,0,0,0,1.29-.13c1.52-.4,2.6-1.71,3.56-3,4-5.13,7.94-10.38,10.63-16.3A6.19,6.19,0,0,0,35,73.92Z"/><path class="cls-13" d="M32.05,72c-1,.45-1.55,1.82-1.95,2.8A59.06,59.06,0,0,1,15.62,95.49C22.41,95.23,32.05,76.31,32.05,72Z"/><path class="cls-11" d="M47.47,79.1a.74.74,0,0,0-.33-.3,47.49,47.49,0,0,0-6.2-3.33h0a9.22,9.22,0,0,0-.29,2.5,25.55,25.55,0,0,1-.5,2.86,35.94,35.94,0,0,1-1.68,5.37,55.21,55.21,0,0,1-2.38,5.19c-.3.58-2.23,5-2.76,5a9.36,9.36,0,0,0,4.58.1c2-.6,3.35-2.32,4.42-4.07,2.42-4,3.78-8.44,5.11-12.87A.67.67,0,0,0,47.47,79.1Z"/><path class="cls-12" d="M47.47,79.1a.74.74,0,0,0-.33-.3c-.72-.39-1.44-.83-2.18-1.27-.39,6.94-3.86,16.2-10.25,19.09a7.35,7.35,0,0,0,3.2-.14c2-.6,3.35-2.32,4.42-4.07,2.42-4,3.78-8.44,5.11-12.87A.67.67,0,0,0,47.47,79.1Z"/><path class="cls-13" d="M41,75.49l-.06,0h0a9.22,9.22,0,0,0-.29,2.5,25.55,25.55,0,0,1-.5,2.86,35.94,35.94,0,0,1-1.68,5.37,55.21,55.21,0,0,1-2.38,5.19c-.3.58-2.23,5-2.76,5l.78.15C37.08,94.63,45.5,81,41,75.49Z"/><path class="cls-11" d="M61,68.69a.88.88,0,0,0,.6.14.93.93,0,0,0,.47-.43l1.07-1.57a.6.6,0,0,0,.15-.43.53.53,0,0,0-.17-.25c-3.62-3.62-6.86-8.08-10.85-11.28-1.61,1.83-.22,7.69.4,9.87a13.78,13.78,0,0,0,2.55,5.14,7.57,7.57,0,0,0,4.92,2.76c-.17-.62-.81-1-1.37-1.29a9.32,9.32,0,0,1-3.66-3.6,6.4,6.4,0,0,1-.55-5A15.49,15.49,0,0,0,61,68.69Z"/><path class="cls-12" d="M63.14,66.83a.6.6,0,0,0,.15-.43.53.53,0,0,0-.17-.25c-3-3-5.73-6.57-8.85-9.52a10.42,10.42,0,0,0,1.53,5.23c.44.79.83,1.59,1.36,2.38a16.67,16.67,0,0,0,1.15,1.37,3.25,3.25,0,0,0,.92.74c.18.09.22.31.4.44.81.59,1.61,1.14,2.42,1.64l0,0Z"/><path class="cls-11" d="M46.15,68c-.55-.38-1.13-.73-1.74-1.13a8.12,8.12,0,0,0-.46.76c-.55,1.2-1.05,2.42-1.64,3.59-.29.58-.28,1,.26,1.33.18.12.35.27.54.38,1.13.64,2.31,1.2,3.38,1.91A44.57,44.57,0,0,0,55.37,79l1.48.57,1.6-4.08a41.33,41.33,0,0,1-4.4-2.12C51.36,71.69,48.78,69.82,46.15,68Z"/><path class="cls-13" d="M54.05,73.39c-2.69-1.7-5.27-3.57-7.9-5.36-.55-.38-1.13-.73-1.74-1.13a8.12,8.12,0,0,0-.46.76c-.44,1-.71,1.64-1.16,2.59.37.17,14.65,7.13,14.87,7.28l.79-2A41.33,41.33,0,0,1,54.05,73.39Z"/><path class="cls-11" d="M55.36,82.53C54.18,82,52,80.47,51.23,81.32S50.1,85,49.68,86.21q-.88,2.4-2,4.73c-.25.53-1.7,4.26-2.21,4.29a19.66,19.66,0,0,0,4.56-.87,4,4,0,0,0,1.09-.49,3.85,3.85,0,0,0,1.08-1.32,26.72,26.72,0,0,0,2.08-5.28l1.3-4.14a.39.39,0,0,0-.25-.6Z"/><path class="cls-12" d="M55.63,82.73a.51.51,0,0,0-.27-.2c-.44-.2-1-.54-1.61-.84a24.78,24.78,0,0,1-4.62,12.94q.46-.12.93-.27a4,4,0,0,0,1.09-.49,3.85,3.85,0,0,0,1.08-1.32,26.72,26.72,0,0,0,2.08-5.28l1.3-4.14A.51.51,0,0,0,55.63,82.73Z"/><path class="cls-13" d="M52.27,81.11a1.05,1.05,0,0,0-1,.21c-.82.85-1.13,3.72-1.55,4.89q-.88,2.4-2,4.73c-.25.53-1.7,4.26-2.21,4.29.4,0,.79-.07,1.18-.12C49.54,93.4,52.41,82.1,52.27,81.11Z"/><path class="cls-11" d="M114,66.34l5.71-3.18c.13-.08.28-.16.33-.3v0a.62.62,0,0,0,0-.38,87.29,87.29,0,0,0-3.49-8.28,1.27,1.27,0,0,0-.47-.62c-1.38-.78-1.12,6.59-1.15,7.38A22.09,22.09,0,0,1,114,66.34Z"/><path class="cls-12" d="M120,62.45a87.29,87.29,0,0,0-3.49-8.28,1.27,1.27,0,0,0-.47-.62c-.63-.35-.92,1-1,2.64a84.63,84.63,0,0,1,3,7.91l1.69-.94c.13-.08.28-.16.33-.3v0A.62.62,0,0,0,120,62.45Z"/><path class="cls-12" d="M125,71.43c1.09-.36,2.16-.75,3.23-1.15.49-.18,1-.41,1.44-.61-.59-1.6-5.73-3.46-7.58-2.69.78,1.48,1.53,2.92,2.32,4.33C124.45,71.43,124.81,71.48,125,71.43Z"/><path class="cls-11" d="M66.52,62.81h0c4.35-3.68,9.42-7.1,15.12-7.18s10.67,3.06,14.86,6.74a.86.86,0,0,0,.63.3.81.81,0,0,0,.46-.27c4-3.6,8-7.65,9.44-12.84a17.86,17.86,0,0,0-1-11.91,23.57,23.57,0,0,0-7.7-9.28,28.21,28.21,0,0,0-19.38-5.21C67,24.42,53.31,35.27,56.32,48.63,57.62,54.4,62.18,58.79,66.52,62.81Z"/><path class="cls-13" d="M106,37.65q-.18-.42-.39-.84a23.78,23.78,0,0,0-8.39-9.22,28.29,28.29,0,0,0-19-4.3C66.3,24.9,52.78,36,56.48,49.3c1.53,5.48,5.89,9.64,10.07,13.51.12-.11-8.4-9.57-6.11-21.53,1-5.21,12.68-15.14,23.69-13.47,11.68,1.78,27.5,14.5,12.84,34.85a30.06,30.06,0,0,0,5.55-5.08,21.19,21.19,0,0,0,4.61-8.51A18,18,0,0,0,106,37.65Z"/><path class="cls-11" d="M49.19,66.16c.27.17.56.3.85.45l.18-.1c-2.4-4.33-2.14-9-2-13.71C46,56,44.69,59.62,43.26,63A27.06,27.06,0,0,1,46,64.13C47.07,64.74,48.11,65.48,49.19,66.16Z"/><path class="cls-12" d="M50,66.61l.18-.1c-2.4-4.33-2.14-9-2-13.71A27,27,0,0,0,46.32,56a24.41,24.41,0,0,0,.1,5.85,20.58,20.58,0,0,0,.7,3c.7.44,1.38.9,2.07,1.34C49.46,66.33,49.75,66.46,50,66.61Z"/><path class="cls-12" d="M39.37,71.17c.5-.88,1-1.78,1.43-2.67.26-.5.5-1,.74-1.49-1.39-1-6.7,1.17-7.61,2.66,1.7.63,3.34,1.25,5,1.82C39,71.53,39.29,71.32,39.37,71.17Z"/><path class="cls-11" d="M126.48,89.15c-.48-.94-.79-2-1.23-2.92A28,28,0,0,1,123,78.38c-.13-1-.12-1.92-.18-3-.28.13-.48.21-.67.32-1.89,1-3.77,2.09-5.67,3.11-.44.23-.52.44-.34.92.86,2.4,1.71,4.81,2.51,7.23a22.75,22.75,0,0,0,3.91,7.21,8.15,8.15,0,0,0,1.19,1.23c2,1.59,4.18,1.58,6.53.95l-.42-.8C128.76,93.42,127.58,91.3,126.48,89.15Z"/><path class="cls-12" d="M130.32,96.35l-.42-.8c-1.14-2.13-2.32-4.25-3.42-6.4-.48-.94-.79-2-1.23-2.92A28,28,0,0,1,123,78.38c-.13-1-.12-1.92-.18-3-.28.13-.48.21-.67.32l-4.06,2.24a97.78,97.78,0,0,0,7,18.39C127,97.68,128.09,97,130.32,96.35Z"/><path class="cls-11" d="M115.27,76c1.36-.65,2.66-1.45,4-2.23a23.2,23.2,0,0,0,2.11-1.45.68.68,0,0,0,.21-.6c-.62-1.43-1.29-2.84-1.94-4.26-.2-.43-.45-.53-.87-.24-1.85,1.3-3.69,2.6-5.57,3.86-1.42,1-2.86,1.88-4.35,2.72-1.18.66-2.45,1.16-3.61,1.7.53,1.34,1.05,2.68,1.6,4.1.88-.34,1.85-.69,2.8-1.1C111.5,77.69,113.41,76.9,115.27,76Z"/><path class="cls-12" d="M121.55,71.72c-.51-1.15-.71-1.59-1.24-2.74a61.11,61.11,0,0,1-14.39,8.34l.89,2.28c.88-.34,1.85-.69,2.8-1.1,1.89-.81,3.8-1.6,5.66-2.5,1.36-.65,2.66-1.45,4-2.23a23.2,23.2,0,0,0,2.11-1.45A.68.68,0,0,0,121.55,71.72Z"/><path class="cls-11" d="M113.13,83.38c-.22-.88-.55-1.73-.86-2.68l-4.31,2c.6,2,1.17,4,1.75,6A20.16,20.16,0,0,0,112,93.45a1.47,1.47,0,0,0,.74.61,21.76,21.76,0,0,0,2.59.74c1,.22,1.93.34,3,.53a6.64,6.64,0,0,0-.33-.63A35.74,35.74,0,0,1,113.13,83.38Z"/><path class="cls-12" d="M118.39,95.33a6.64,6.64,0,0,0-.33-.63,35.74,35.74,0,0,1-4.93-11.32c-.22-.88-.55-1.73-.86-2.68l-2.35,1.09c.63,5.88,4.78,12.86,5.45,13C116.33,95,117.3,95.14,118.39,95.33Z"/><path class="cls-11" d="M132.22,73.21a2.53,2.53,0,0,0-.84-.58,1.81,1.81,0,0,0-1.19-.11,2.11,2.11,0,0,0-1.4,1.77,5.4,5.4,0,0,0,.31,2.35,35,35,0,0,0,4.52,8.82c1.82,2.71,3.65,5.43,5.68,8a9.4,9.4,0,0,0,4,3.19,4.79,4.79,0,0,0,4.85-.77A75.49,75.49,0,0,1,133.4,75.11,6.74,6.74,0,0,0,132.22,73.21Z"/><path class="cls-12" d="M148.14,95.87A75.49,75.49,0,0,1,133.4,75.11a6.74,6.74,0,0,0-1.18-1.9,2.53,2.53,0,0,0-.84-.58,1.81,1.81,0,0,0-1.19-.11,1.75,1.75,0,0,0-1,.69c.38.34,13.74,23.31,14.06,23.43A4.79,4.79,0,0,0,148.14,95.87Z"/><path class="cls-11" d="M103.56,72.57a7,7,0,0,0,4.62-2.48,14.18,14.18,0,0,0,3.17-7.34,42.85,42.85,0,0,0,.17-8.09l0,.05q-2.85,3.38-6,6.47-1.57,1.56-3.23,3.05c-.82.75-2.06,1.5-1.69,2.79a3,3,0,0,0,1,1.44,1.12,1.12,0,0,0,.67.31,1.2,1.2,0,0,0,.63-.2A18.08,18.08,0,0,0,109.1,63a7.68,7.68,0,0,1,0,3.84C108.17,69.37,105.16,70.43,103.56,72.57Z"/><path class="cls-12" d="M111.52,54.66l0,.05q-2.81,3.32-5.89,6.38a36.89,36.89,0,0,0,1.68,4.16A18.64,18.64,0,0,0,109.1,63a7.68,7.68,0,0,1,0,3.84,4.23,4.23,0,0,1-.43.88c.2.32.4.63.62,1a15.32,15.32,0,0,0,2.1-5.93A42.85,42.85,0,0,0,111.52,54.66Z"/><path class="cls-11" d="M101.2,78.55a2.23,2.23,0,0,1-1.52,1.87,11.89,11.89,0,0,0-.88-9.11,23,23,0,0,0-6-7.13c-3.11-2.62-6.82-4.89-10.88-4.92-5.22,0-10.6,3.59-13.93,7.41a18.34,18.34,0,0,0-4.42,10.25c0,.43-.37,3.48,0,3.66a2,2,0,0,1-1.18-1.92,3.34,3.34,0,0,0-1.06,3,7.62,7.62,0,0,0,1.28,3.07,22.76,22.76,0,0,0,38,.56A8.51,8.51,0,0,0,102.17,82,3.88,3.88,0,0,0,101.2,78.55Zm-34.5,5a6.57,6.57,0,0,1-1.15-4.28,19.3,19.3,0,0,1,.91-4.42l-.06,0-1,.86a8.47,8.47,0,0,1,.15-1.41,1.81,1.81,0,0,1,1.08-.85,3.7,3.7,0,0,1,3.12.94A13.79,13.79,0,0,1,74,80.83a41.74,41.74,0,0,1,1.64,7.59C73.06,86.19,68.78,86.31,66.7,83.57Zm31.55-7.75A2.26,2.26,0,0,0,97.19,75a17.1,17.1,0,0,1,.93,4.4,6.54,6.54,0,0,1-1.19,4.26c-2.14,2.77-6.52,2.6-9.14,4.92.74-2.23,1-4.57,1.6-6.84.79-3.07,2.49-6.19,5.34-7.81a2.92,2.92,0,0,1,2.55-.25A1.77,1.77,0,0,1,98.25,75.82Z"/><path class="cls-13" d="M76.6,63.62c7.56-3.25,14.43,1.24,18.22,6.12,1.77,2.28,3.41,3.49,5.25,9a12.22,12.22,0,0,0-1.51-7.89,23.91,23.91,0,0,0-5.25-6.23c-3.16-2.79-6.87-5.41-11.09-5.54C76.39,58.9,70,63.23,66.76,67.83a19.51,19.51,0,0,0-2.42,5.43,18.83,18.83,0,0,0-.81,2.94c-.08.48,0,1-.06,1.45a12.67,12.67,0,0,0-.13,1.65C63.65,78.77,66.78,67.83,76.6,63.62Z"/><path class="cls-12" d="M74.82,90.93a19.87,19.87,0,0,1-12.65-12,3.48,3.48,0,0,0-.81,2.79,7.62,7.62,0,0,0,1.28,3.07,22.76,22.76,0,0,0,38,.56A8.51,8.51,0,0,0,102.17,82a4.48,4.48,0,0,0-.16-2.12C95.24,93,82.1,93.18,74.82,90.93Z"/><path class="cls-1" d="M95.41,75.86S94.08,77.17,94,77.28a13.08,13.08,0,0,0-1.36,2.31,33.11,33.11,0,0,0-1.75,5.14,6.8,6.8,0,0,0,4.48-2.65A5.41,5.41,0,0,0,96.05,79,12.9,12.9,0,0,0,95.41,75.86Z"/><path d="M149.08,92.49a59.75,59.75,0,0,1-11.84-16.6c-2-4.13-3.86-8.89-8-10.77-1.19-.53-2.55-.81-3.49-1.72a7.26,7.26,0,0,1-1.55-2.88A42.08,42.08,0,0,0,117,48.29c-1.06-1.25-2.87-2.52-4.16-1.51,1.34-6.72-1.52-13.74-6-18.92a33,33,0,0,0-47.55-2.52,27.82,27.82,0,0,0-7,9.59A23.29,23.29,0,0,0,50.67,41c-.12,1-.79,5.09,0,5.76-1-.88-2.57.09-3.5,1.07a34.68,34.68,0,0,0-7.4,12.11,9.14,9.14,0,0,1-1.53,3.15c-1.11,1.23-2.83,1.66-4.29,2.44-4.15,2.21-5.95,7.06-8,11.3A54,54,0,0,1,14.51,92.52c-1,1-2.21,2.11-2.24,3.55-.06,2.11,2.31,3.43,4.39,3.78a14.8,14.8,0,0,0,14-5.68c-.78,2.5-1.95,3.46-.44,4.69s3.67,1.19,5.62,1.08l9.29-.52a23.16,23.16,0,0,0,5-.67A11.69,11.69,0,0,0,58.4,87.27l0,0A24.66,24.66,0,0,0,66,94.8a7.34,7.34,0,0,1,2.45,2,11.1,11.1,0,0,1,1,3.21,7.8,7.8,0,0,0,7.67,5.53c.8-1.49-1.61-3.3-.8-4.78.44-.81,1.54-.9,2.46-.9l8,0a5.54,5.54,0,0,1-.66,5.36,7.37,7.37,0,0,0,8.11-5.33A11,11,0,0,1,95,97a7,7,0,0,1,2.62-2.2,24.8,24.8,0,0,0,7.62-7.54,11.65,11.65,0,0,0,8.12,11.44,23.16,23.16,0,0,0,5,.67l9.58.55c1.87.11,3.93.16,5.39-1s.6-2.18-.34-4.53a14.77,14.77,0,0,0,14.45,5.35c1.69-.36,3.56-1.3,3.82-3S150.27,93.66,149.08,92.49ZM129.65,69.67c-.48.2-1,.43-1.44.61-1.07.4-2.14.79-3.23,1.15-.17,0-.53,0-.59-.12-.79-1.41-1.54-2.85-2.32-4.33C123.92,66.21,129.06,68.07,129.65,69.67ZM116.08,53.55a1.27,1.27,0,0,1,.47.62A87.29,87.29,0,0,1,120,62.45a.62.62,0,0,1,0,.38v0c0,.14-.2.22-.33.3L114,66.34a22.09,22.09,0,0,0,.89-5.41C115,60.14,114.7,52.77,116.08,53.55ZM78.94,23.16a28.21,28.21,0,0,1,19.38,5.21,23.57,23.57,0,0,1,7.7,9.28,17.86,17.86,0,0,1,1,11.91c-1.46,5.19-5.43,9.24-9.44,12.84a.81.81,0,0,1-.46.27.86.86,0,0,1-.63-.3c-4.19-3.68-9.3-6.82-14.86-6.74s-10.77,3.5-15.12,7.18h0c-4.34-4-8.9-8.41-10.2-14.18C53.31,35.27,67,24.42,78.94,23.16ZM48.25,52.8c-.17,4.69-.43,9.38,2,13.71l-.18.1c-.29-.15-.58-.28-.85-.45-1.08-.68-2.12-1.42-3.23-2A27.06,27.06,0,0,0,43.26,63C44.69,59.62,46,56,48.25,52.8ZM41.54,67c-.24.49-.48,1-.74,1.49-.46.89-.93,1.79-1.43,2.67-.08.15-.35.36-.46.32-1.64-.57-3.28-1.19-5-1.82C34.84,68.18,40.15,66,41.54,67ZM23.61,94c-1,1.25-2,2.56-3.56,3s-3.34-.29-4.88-1A59,59,0,0,0,30.1,74.83c.44-1.08,1-2.64,2.3-2.9a2.41,2.41,0,0,1,2.6,2,6.19,6.19,0,0,1-.76,3.73C31.55,83.57,27.6,88.82,23.61,94Zm18.72-1.54c-1.07,1.75-2.46,3.47-4.42,4.07a9.36,9.36,0,0,1-4.58-.1c.53,0,2.46-4.41,2.76-5a55.21,55.21,0,0,0,2.38-5.19,35.94,35.94,0,0,0,1.68-5.37,25.55,25.55,0,0,0,.5-2.86,9.22,9.22,0,0,1,.29-2.5h0a47.49,47.49,0,0,1,6.2,3.33.74.74,0,0,1,.33.3.67.67,0,0,1,0,.44C46.11,84,44.75,88.46,42.33,92.41Zm13.28-9.28-1.3,4.14a26.72,26.72,0,0,1-2.08,5.28,3.85,3.85,0,0,1-1.08,1.32,4,4,0,0,1-1.09.49,19.66,19.66,0,0,1-4.56.87c.51,0,2-3.76,2.21-4.29q1.08-2.32,2-4.73c.42-1.17.73-4,1.55-4.89s3,.67,4.13,1.21a.39.39,0,0,1,.25.6Zm1.24-3.54L55.37,79a44.57,44.57,0,0,1-8.88-4.15c-1.07-.71-2.25-1.27-3.38-1.91-.19-.11-.36-.26-.54-.38-.54-.35-.55-.75-.26-1.33.59-1.17,1.09-2.39,1.64-3.59a8.12,8.12,0,0,1,.46-.76c.61.4,1.19.75,1.74,1.13,2.63,1.79,5.21,3.66,7.9,5.36a41.33,41.33,0,0,0,4.4,2.12ZM55.11,67.75a9.32,9.32,0,0,0,3.66,3.6c.56.32,1.2.67,1.37,1.29a7.57,7.57,0,0,1-4.92-2.76,13.78,13.78,0,0,1-2.55-5.14c-.62-2.18-2-8-.4-9.87,4,3.2,7.23,7.66,10.85,11.28a.53.53,0,0,1,.17.25.6.6,0,0,1-.15.43L62.07,68.4a.93.93,0,0,1-.47.43.88.88,0,0,1-.6-.14,15.49,15.49,0,0,1-6.44-6A6.4,6.4,0,0,0,55.11,67.75ZM70.9,98.24l3.37.89a6.51,6.51,0,0,0,.18,4.42C72.86,103.54,70.79,99.93,70.9,98.24Zm18.41,5.34a17.51,17.51,0,0,0,.35-2.15,19.73,19.73,0,0,0-.19-2.32l3.29-.87C92.84,100.27,90.9,103.22,89.31,103.58ZM102.17,82a8.51,8.51,0,0,1-1.52,3.34,22.76,22.76,0,0,1-38-.56,7.62,7.62,0,0,1-1.28-3.07,3.34,3.34,0,0,1,1.06-3,2,2,0,0,0,1.18,1.92c-.41-.18-.08-3.23,0-3.66A18.34,18.34,0,0,1,68,66.67c3.33-3.82,8.71-7.45,13.93-7.41,4.06,0,7.77,2.3,10.88,4.92a23,23,0,0,1,6,7.13,11.89,11.89,0,0,1,.88,9.11,2.23,2.23,0,0,0,1.52-1.87A3.88,3.88,0,0,1,102.17,82Zm6.93-19a18.08,18.08,0,0,1-6.17,5.56,1.2,1.2,0,0,1-.63.2,1.12,1.12,0,0,1-.67-.31,3,3,0,0,1-1-1.44c-.37-1.29.87-2,1.69-2.79q1.65-1.48,3.23-3.05,3.14-3.09,6-6.47l0-.05a42.85,42.85,0,0,1-.17,8.09,14.18,14.18,0,0,1-3.17,7.34,7,7,0,0,1-4.62,2.48c1.6-2.14,4.61-3.2,5.5-5.72A7.68,7.68,0,0,0,109.1,63ZM105.21,75.5c1.16-.54,2.43-1,3.61-1.7,1.49-.84,2.93-1.77,4.35-2.72,1.88-1.26,3.72-2.56,5.57-3.86.42-.29.67-.19.87.24.65,1.42,1.32,2.83,1.94,4.26a.68.68,0,0,1-.21.6,23.2,23.2,0,0,1-2.11,1.45c-1.3.78-2.6,1.58-4,2.23-1.86.9-3.77,1.69-5.66,2.5-1,.41-1.92.76-2.8,1.1C106.26,78.18,105.74,76.84,105.21,75.5Zm10.16,19.3a21.76,21.76,0,0,1-2.59-.74,1.47,1.47,0,0,1-.74-.61,20.16,20.16,0,0,1-2.33-4.78c-.58-2-1.15-3.92-1.75-6l4.31-2c.31,1,.64,1.8.86,2.68a35.74,35.74,0,0,0,4.93,11.32,6.64,6.64,0,0,1,.33.63C117.3,95.14,116.33,95,115.37,94.8Zm8.42.6a8.15,8.15,0,0,1-1.19-1.23A22.75,22.75,0,0,1,118.69,87c-.8-2.42-1.65-4.83-2.51-7.23-.18-.48-.1-.69.34-.92,1.9-1,3.78-2.08,5.67-3.11.19-.11.39-.19.67-.32.06,1.08,0,2,.18,3a28,28,0,0,0,2.21,7.85c.44,1,.75,2,1.23,2.92,1.1,2.15,2.28,4.27,3.42,6.4l.42.8C128,97,125.75,97,123.79,95.4Zm19.5,1.24a9.4,9.4,0,0,1-4-3.19c-2-2.56-3.86-5.28-5.68-8a35,35,0,0,1-4.52-8.82,5.4,5.4,0,0,1-.31-2.35,2.11,2.11,0,0,1,1.4-1.77,1.81,1.81,0,0,1,1.19.11,2.53,2.53,0,0,1,.84.58,6.74,6.74,0,0,1,1.18,1.9,75.49,75.49,0,0,0,14.74,20.76A4.79,4.79,0,0,1,143.29,96.64Z"/><path class="cls-12" d="M74.27,99.13l-3.37-.89c-.11,1.69,2,5.3,3.55,5.31A6.51,6.51,0,0,1,74.27,99.13Z"/><path class="cls-12" d="M89.47,99.11a19.73,19.73,0,0,1,.19,2.32,17.51,17.51,0,0,1-.35,2.15c1.59-.36,3.53-3.31,3.45-5.34Z"/><path d="M97.28,73.63a2.92,2.92,0,0,0-2.55.25c-2.85,1.62-4.55,4.74-5.34,7.81-.58,2.27-.86,4.61-1.6,6.84,2.62-2.32,7-2.15,9.14-4.92a6.54,6.54,0,0,0,1.19-4.26,17.1,17.1,0,0,0-.93-4.4,2.26,2.26,0,0,1,1.06.87A1.77,1.77,0,0,0,97.28,73.63Zm-1.91,8.45a6.8,6.8,0,0,1-4.48,2.65,33.11,33.11,0,0,1,1.75-5.14A13.08,13.08,0,0,1,94,77.28c.08-.11,1.41-1.41,1.41-1.42A12.9,12.9,0,0,1,96.05,79,5.41,5.41,0,0,1,95.37,82.08Z"/><path d="M69.77,74.46a3.7,3.7,0,0,0-3.12-.94,1.81,1.81,0,0,0-1.08.85,8.47,8.47,0,0,0-.15,1.41l1-.86.06,0a19.3,19.3,0,0,0-.91,4.42,6.57,6.57,0,0,0,1.15,4.28c2.08,2.74,6.36,2.62,9,4.85A41.74,41.74,0,0,0,74,80.83,13.79,13.79,0,0,0,69.77,74.46Zm3.07,10.19a6.42,6.42,0,0,1-4.42-2.42,5.41,5.41,0,0,1-.81-3.12A8.41,8.41,0,0,1,68.25,76c1.38.25,2.44,2.74,2.9,3.91.61,1.56,1,3.2,1.71,4.72Z"/><ellipse class="cls-13" cx="81.85" cy="30.89" rx="9.5" ry="3.8"/><ellipse class="cls-13" cx="81.85" cy="35.7" rx="7.96" ry="3.19"/></svg>