<svg id="Layer_1" data-name="Layer 1" xmlns="http://www.w3.org/2000/svg" viewBox="0 0 160 160"><defs><style>.cls-1,.cls-10{fill:#fff;}.cls-1,.cls-2,.cls-3,.cls-4,.cls-6,.cls-7,.cls-8,.cls-9{fill-rule:evenodd;}.cls-3{fill:#b7bece;}.cls-11,.cls-4{fill:#778399;}.cls-5,.cls-6{fill:red;}.cls-7{fill:#ab0202;}.cls-8{fill:#282b32;}.cls-9{fill:#0f1015;}.cls-12{stroke:#fff;stroke-miterlimit:10;stroke-width:4px;}</style></defs><path class="cls-1" d="M150.37,41.62,97,11.62,81.75,3,80,2.05,78.24,3,9.63,41.62l-8.81,5,10,1.7c9,1.54,14,6.17,14.71,15.28a57.46,57.46,0,0,0,.25,21.6h-.38l-3.61,0V124l1.75,1,11.25,6.74,1.45.86,1.59-.57a130.22,130.22,0,0,1,20-5.37,152.25,152.25,0,0,0,20.46,11.14l1.63.74,2.41-1a151.34,151.34,0,0,0,20-10.91,129,129,0,0,1,19.9,5.36l1.59.57,1.46-.86,11.25-6.74,1.74-1V85.14l-3.61,0h-.3a57,57,0,0,0,.25-21.6c.75-9.11,5.7-13.74,14.71-15.28l10-1.7Z"/><path class="cls-2" d="M79.71,134.62a5.58,5.58,0,0,1,.58,0A147,147,0,0,0,101.44,123a133.23,133.23,0,0,1,21.89,5.77L134.58,122V88.74l-5,0a52.27,52.27,0,0,0,1.29-25.05q1.08-16.14,17.71-19l-53.36-30L80,6.16,11.39,44.75Q28,47.59,29.1,63.73a52.4,52.4,0,0,0,1.28,25.05l-5,0V122l11.25,6.73A132.48,132.48,0,0,1,58.54,123a146.75,146.75,0,0,0,21.17,11.66"/><path class="cls-2" d="M32.28,41.91l35.07-13.8a7.28,7.28,0,0,1,9.39,4.09L99.08,89A7.28,7.28,0,0,1,95,98.39l-35.07,13.8a7.28,7.28,0,0,1-9.39-4.09L28.19,51.3a7.28,7.28,0,0,1,4.09-9.39"/><path class="cls-3" d="M33,43.69,68.05,29.9a5.35,5.35,0,0,1,6.91,3L97.3,89.7a5.35,5.35,0,0,1-3,6.91L59.22,110.4a5.35,5.35,0,0,1-6.91-3L30,50.6a5.34,5.34,0,0,1,3-6.91"/><path class="cls-1" d="M33,43.69,50.52,36.8q17.71,27.11-4.31,55.08L30,50.6a5.34,5.34,0,0,1,3-6.91"/><path class="cls-4" d="M75,32.9,97.3,89.7a5.35,5.35,0,0,1-3,6.91L59.22,110.4a5.34,5.34,0,0,1-6.3-1.89Q67.2,100.14,73,91,85.53,71.21,75,32.9"/><path class="cls-5" d="M38.49,51.33l-1.75-2V52Zm3,1.47-1.6.63-.08-.21.1,0s.06-.08,0-.18a.35.35,0,0,0-.06-.09L38.7,51.57l-2,.77a4.35,4.35,0,0,0,.2,1.41.5.5,0,0,0,.29.31.54.54,0,0,0,.43,0l.24-.09.08.21L36,55l-.08-.21c.33-.15.49-.63.49-1.43V47.93l.26-.11,3.38,4a4.19,4.19,0,0,0,.59.6.81.81,0,0,0,.76.22Z"/><path class="cls-5" d="M88.77,89l1.76,2V88.28Zm-3-1.47,1.6-.63.08.21-.1,0s-.06.08,0,.18a.24.24,0,0,0,.06.09l1.15,1.34,2-.76a4.38,4.38,0,0,0-.2-1.42.52.52,0,0,0-.29-.31.54.54,0,0,0-.43,0l-.24.09-.08-.21,2-.79.08.21c-.33.15-.49.63-.49,1.43v5.39l-.26.11-3.38-4a4.19,4.19,0,0,0-.59-.6.81.81,0,0,0-.76-.22Z"/><polygon class="cls-6" points="66.41 81.27 52.84 73.39 57.54 58.57 71.08 66.22 66.41 81.27"/><polygon class="cls-6" points="41.7 61.37 37.7 59.05 39.08 54.68 43.08 56.93 41.7 61.37"/><polygon class="cls-6" points="88.11 85.44 84.11 83.12 85.5 78.74 89.5 81 88.11 85.44"/><path class="cls-2" d="M49.43,33.16,86.71,27.6a7.47,7.47,0,0,1,8.47,6.27l9,60.36a7.48,7.48,0,0,1-6.27,8.47l-37.28,5.56A7.45,7.45,0,0,1,52.18,102l-9-60.36a7.46,7.46,0,0,1,6.26-8.47"/><path class="cls-3" d="M49.75,35.26,87,29.7a5.33,5.33,0,0,1,6,4.48l9,60.36a5.34,5.34,0,0,1-4.48,6.06l-37.27,5.56a5.33,5.33,0,0,1-6-4.48l-9-60.37a5.34,5.34,0,0,1,4.48-6.05"/><path class="cls-1" d="M49.75,35.26l18.64-2.78Q79.57,62.87,51.82,85.19L45.27,41.31a5.34,5.34,0,0,1,4.48-6.05"/><path class="cls-4" d="M93.07,34.18l9,60.36a5.34,5.34,0,0,1-4.48,6.06l-37.27,5.56a5.33,5.33,0,0,1-5.71-3.25q15.8-5,23.48-12.53,16.68-16.5,15-56.2"/><path d="M53.24,44,52,41.58l-.62,2.67Zm2.57,2.1-1.7.26,0-.23h.1c.06,0,.08-.07.06-.17a.19.19,0,0,0,0-.1l-.82-1.57-2.08.31A4.67,4.67,0,0,0,51.19,46a.51.51,0,0,0,.22.37.6.6,0,0,0,.42.09l.25,0,0,.22L50,46.94l0-.22c.36-.07.63-.5.8-1.28L52,40.18l.28,0,2.41,4.6a4.44,4.44,0,0,0,.44.73.85.85,0,0,0,.69.38Z"/><path d="M93.78,91.94,95,94.32l.61-2.66Zm-2.57-2.1,1.71-.26,0,.23h-.11s-.07.07-.06.17a.42.42,0,0,0,0,.1l.82,1.57,2.07-.31a4.76,4.76,0,0,0,.13-1.42.52.52,0,0,0-.22-.37.57.57,0,0,0-.43-.09l-.25,0,0-.23L97,89l0,.22c-.35.07-.62.5-.8,1.28l-1.21,5.26-.28,0-2.4-4.61a4.64,4.64,0,0,0-.45-.72.81.81,0,0,0-.69-.38Z"/><path class="cls-2" d="M74.42,72.89Zm-6.75-8.11a6,6,0,1,1,11-4.17,5.89,5.89,0,0,1-.17,2.55A6,6,0,1,1,74.78,73.3a10.27,10.27,0,0,0,2.73,5L72.94,79a10.53,10.53,0,0,0,1.29-5.66,6,6,0,1,1-6.56-8.53Z"/><path class="cls-2" d="M53.84,52.78Zm-1.93-2.32a1.6,1.6,0,0,1-.26-.69,1.72,1.72,0,0,1,3.4-.5A1.78,1.78,0,0,1,55,50a1.72,1.72,0,1,1-1.07,2.9,3,3,0,0,0,.78,1.43l-1.31.19a2.92,2.92,0,0,0,.37-1.62,1.72,1.72,0,1,1-1.87-2.44Z"/><path class="cls-2" d="M93.15,83.08Zm1.93,2.32a1.75,1.75,0,0,1,.26.68,1.72,1.72,0,0,1-3.41.51,1.63,1.63,0,0,1,0-.73,1.72,1.72,0,0,1-.44-3.41A1.7,1.7,0,0,1,93,83a2.94,2.94,0,0,0-.78-1.43l1.31-.19A3,3,0,0,0,93.2,83a1.72,1.72,0,0,1,3.25.49A1.72,1.72,0,0,1,95.08,85.4Z"/><path class="cls-2" d="M69,25.87l37.61,2.4a7.5,7.5,0,0,1,7,7.92L109.72,97.1a7.5,7.5,0,0,1-7.93,7l-37.61-2.39a7.5,7.5,0,0,1-7-7.93l3.88-60.91a7.5,7.5,0,0,1,7.93-7"/><path class="cls-3" d="M68.88,28l37.61,2.4a5.35,5.35,0,0,1,5,5.65L107.58,97a5.33,5.33,0,0,1-5.65,5l-37.61-2.4a5.33,5.33,0,0,1-5-5.65L63.23,33a5.35,5.35,0,0,1,5.65-5"/><path class="cls-1" d="M68.88,28l18.81,1.2q4.53,32.07-27.28,48.05L63.23,33a5.35,5.35,0,0,1,5.65-5"/><path class="cls-4" d="M111.47,36.05,107.58,97a5.33,5.33,0,0,1-5.65,5l-37.61-2.4a5.33,5.33,0,0,1-4.9-4.38Q75.91,93.63,85,87.85q19.77-12.61,26.46-51.8"/><path class="cls-5" d="M70.63,37.26l-.72-2.59-1.16,2.47Zm2.07,2.6L71,39.75l0-.23h.11s.08-.05.09-.15a.45.45,0,0,0,0-.11l-.48-1.71-2.09-.13a4.7,4.7,0,0,0-.42,1.37.54.54,0,0,0,.13.4.58.58,0,0,0,.4.18H69l0,.23-2.15-.14,0-.22c.36,0,.71-.36,1-1.09l2.28-4.88.29,0,1.38,5a4.68,4.68,0,0,0,.28.8c.17.32.37.5.6.52Z"/><path class="cls-5" d="M100.18,92.68l.72,2.6,1.16-2.48Zm-2.07-2.59,1.72.11,0,.22H99.7s-.08,0-.09.16a.34.34,0,0,0,0,.1l.48,1.71,2.09.14a4.78,4.78,0,0,0,.42-1.37.52.52,0,0,0-.53-.58l-.26,0,0-.23,2.15.14,0,.23q-.54,0-1,1.08l-2.29,4.89-.28,0-1.38-5a5,5,0,0,0-.28-.8.85.85,0,0,0-.6-.52Z"/><path class="cls-6" d="M86.16,57.09c4.56-6.6,14.3,1.66,9,7.16A57.88,57.88,0,0,0,84.72,75.59c-2.37-4.68-5.06-7.81-8.94-12.57-4.51-6.1,6.21-13.1,9.9-6,0,0,.14.25.22.26s.26-.22.26-.22"/><path class="cls-6" d="M69.71,41.81c1.45-2.11,4.56.53,2.88,2.29a18.08,18.08,0,0,0-3.34,3.61,21.68,21.68,0,0,0-2.86-4c-1.43-1.94,2-4.18,3.16-1.9,0,0,0,.08.07.08s.09-.07.09-.07"/><path class="cls-6" d="M101.24,88.15c1.18,2.27,4.6,0,3.15-1.91a18.54,18.54,0,0,1-2.85-4,21.31,21.31,0,0,1-3.34,3.62c-1.67,1.74,1.44,4.39,2.89,2.29,0,0,.06-.08.08-.07s.07.08.07.08"/><path class="cls-2" d="M93,21.19,127.73,35.8a7.49,7.49,0,0,1,4,9.78l-23.67,56.26a7.49,7.49,0,0,1-9.78,4L63.53,91.21a7.48,7.48,0,0,1-4-9.78L83.22,25.17a7.48,7.48,0,0,1,9.78-4"/><path class="cls-3" d="M92.17,23.16,126.9,37.78a5.33,5.33,0,0,1,2.84,7L106.07,101a5.33,5.33,0,0,1-7,2.84L64.37,89.24a5.36,5.36,0,0,1-2.85-7L85.19,26a5.36,5.36,0,0,1,7-2.85"/><path class="cls-1" d="M92.17,23.16l17.36,7.31Q103.29,62.24,68,66.89L85.19,26a5.36,5.36,0,0,1,7-2.85"/><path class="cls-4" d="M129.74,44.75,106.07,101a5.33,5.33,0,0,1-7,2.84L64.37,89.24a5.36,5.36,0,0,1-3.2-5.75q16.08,4,26.58,1.49,22.82-5.42,42-40.23"/><path d="M90.78,32.48,91,29.8l-1.9,1.95Zm1.1,3.13L90.29,35l.09-.21.1,0s.1,0,.14-.12a.25.25,0,0,0,0-.1l.12-1.77L88.82,32A4.87,4.87,0,0,0,88,33.13a.5.5,0,0,0,0,.43.63.63,0,0,0,.32.3l.23.1-.08.2-2-.83.09-.21c.34.12.79-.1,1.35-.68l3.76-3.86.26.11-.33,5.18a3.94,3.94,0,0,0,0,.85.82.82,0,0,0,.39.69Z"/><path class="cls-2" d="M92,74.3a10.46,10.46,0,0,1,.41-6.13c1.14,7.94,13.55,4.89,11.29-2.39A57.29,57.29,0,0,1,99.36,51c-4.21,3.14-8,4.74-13.62,7.27C79,61.68,85.47,72.73,92,68a10.46,10.46,0,0,1-4.22,4.51L92,74.3"/><path class="cls-2" d="M86.73,42a2.91,2.91,0,0,1,.11-1.71c.32,2.22,3.78,1.37,3.15-.66a16,16,0,0,1-1.21-4.13,19,19,0,0,1-3.79,2c-1.88,1-.07,4,1.73,2.71a2.89,2.89,0,0,1-1.18,1.26l1.19.5"/><path d="M100.49,94.53l-.18,2.69,1.91-2ZM99.38,91.4l1.59.67-.09.21-.1,0s-.09,0-.13.12a.29.29,0,0,0,0,.1l-.11,1.77,1.93.81a4.52,4.52,0,0,0,.85-1.15.58.58,0,0,0,0-.43.57.57,0,0,0-.32-.29l-.24-.1.09-.21,2,.83-.08.21c-.34-.12-.79.11-1.35.68l-3.77,3.86-.26-.11.34-5.18a5.89,5.89,0,0,0,0-.85.84.84,0,0,0-.39-.68Z"/><path class="cls-2" d="M104.54,85a2.91,2.91,0,0,1-.12,1.71c-.32-2.21-3.77-1.36-3.14.66a16,16,0,0,1,1.2,4.13,18.29,18.29,0,0,1,3.8-2c1.88-1,.07-4-1.74-2.72a3,3,0,0,1,1.18-1.26l-1.18-.5"/><path class="cls-2" d="M59.27,61.16C51.6,63.75,47.68,72.62,50.5,81s11.32,13,19,10.44S81.06,80,78.24,71.6s-11.31-13-19-10.44"/><path class="cls-4" d="M68.55,82.16a15,15,0,0,1-3.13-10.57q-5.88,1.84-6.88,10.52a11.08,11.08,0,0,1,.11-12A12.93,12.93,0,0,0,55.11,75a9.35,9.35,0,0,1,6.13-8.42c5.35-1.81,10.65,2,12.36,7S73.39,84.91,68,86.71q7.8-4.39,2.61-13.36,1,5.41-2.1,8.81M60.66,65.3c5.84-2,11.62,2.16,13.49,7.69s-.23,12.31-6.07,14.28-11.62-2.15-13.49-7.68S54.82,67.27,60.66,65.3Z"/><path class="cls-3" d="M66.76,61.94l-.39,2.31a10.4,10.4,0,0,0-3.3-.36l-.24-2.39a11.8,11.8,0,0,1,3.93.44"/><path class="cls-3" d="M61.5,61.64,62,64a10.69,10.69,0,0,0-1.6.4,11.62,11.62,0,0,0-1.57.68l-1.07-2.16a12.34,12.34,0,0,1,3.78-1.29"/><path class="cls-3" d="M56.27,63.85l1.31,2a10.06,10.06,0,0,0-2.07,2L53.8,66.29a11.91,11.91,0,0,1,2.47-2.44"/><path class="cls-3" d="M52.58,68.22l1.91,1.3a12.22,12.22,0,0,0-1.13,3.24l-2.13-.68a15.25,15.25,0,0,1,1.35-3.86"/><path class="cls-3" d="M51,74.08l2.17.35a14,14,0,0,0,0,2.67L51,77.26A16.12,16.12,0,0,1,51,74.08"/><path class="cls-3" d="M70.72,66.57a11.88,11.88,0,0,0-2.78-1.74l.69-2.21a14.68,14.68,0,0,1,3.31,2.07Z"/><path class="cls-3" d="M71.85,67.63,73.29,66a16.14,16.14,0,0,1,2.27,3l-1.8,1.19a13.41,13.41,0,0,0-1.91-2.51"/><path class="cls-1" d="M74.42,71.41l1.94-.94c.23.51.44,1,.62,1.56a15.41,15.41,0,0,1,.45,1.61l-2.11.43a13.59,13.59,0,0,0-.9-2.66"/><path class="cls-1" d="M75.56,75.47l2.16-.15a17.79,17.79,0,0,1,.07,3.18l-2.17-.36a14,14,0,0,0-.06-2.67"/><path class="cls-1" d="M75.39,79.81l2.12.68a14.39,14.39,0,0,1-1.35,3.86l-1.9-1.3a12.45,12.45,0,0,0,1.13-3.24"/><path class="cls-1" d="M73.24,84.67,75,86.28a12.16,12.16,0,0,1-2.47,2.44l-1.31-2a10.26,10.26,0,0,0,2.07-2"/><path class="cls-1" d="M70,87.48,71,89.64a12.12,12.12,0,0,1-1.87.81,13,13,0,0,1-1.91.48l-.46-2.37a10.4,10.4,0,0,0,1.6-.4A9.66,9.66,0,0,0,70,87.48"/><path class="cls-1" d="M65.67,88.69l.25,2.39A12.28,12.28,0,0,1,62,90.64l.38-2.32a10.12,10.12,0,0,0,3.3.37"/><path class="cls-1" d="M60.8,87.75,60.11,90a14.79,14.79,0,0,1-3.3-2.08L58,86a12.52,12.52,0,0,0,2.77,1.74"/><path class="cls-1" d="M56.89,85l-1.44,1.67a16.66,16.66,0,0,1-2.27-3L55,82.43A13.88,13.88,0,0,0,56.89,85"/><path class="cls-1" d="M54.32,81.16l-1.93.94a14.89,14.89,0,0,1-.62-1.56c-.18-.53-.33-1.07-.46-1.61l2.11-.43c.11.46.23.91.38,1.35a13.73,13.73,0,0,0,.52,1.31"/><path class="cls-2" d="M93.16,63.51c7.66,2.58,11.59,11.45,8.77,19.81s-11.32,13-19,10.44S71.36,82.3,74.18,74s11.32-13,19-10.44"/><path class="cls-7" d="M83.87,84.51A15.07,15.07,0,0,0,87,73.94q5.88,1.83,6.88,10.51a11.09,11.09,0,0,0-.11-12,13,13,0,0,1,3.53,4.89,9.34,9.34,0,0,0-6.13-8.42c-5.35-1.8-10.64,2-12.35,7S79,87.25,84.39,89.06q-7.8-4.4-2.61-13.36-1,5.4,2.09,8.81m7.89-16.86c-5.83-2-11.62,2.15-13.48,7.68s.23,12.32,6.06,14.29S96,87.46,97.83,81.93,97.6,69.62,91.76,67.65Z"/><path class="cls-6" d="M85.67,64.28l.39,2.32a10.06,10.06,0,0,1,3.29-.37l.25-2.39a12.28,12.28,0,0,0-3.93.44"/><path class="cls-6" d="M90.93,64l-.47,2.36a10.45,10.45,0,0,1,1.6.41,9.63,9.63,0,0,1,1.57.67l1.08-2.15a11.6,11.6,0,0,0-1.87-.81A11.37,11.37,0,0,0,90.93,64"/><path class="cls-6" d="M96.16,66.19l-1.31,2a10.06,10.06,0,0,1,2.07,2l1.71-1.61a12.2,12.2,0,0,0-2.47-2.45"/><path class="cls-7" d="M99.84,70.56l-1.9,1.31a12.45,12.45,0,0,1,1.13,3.24l2.12-.68a14.46,14.46,0,0,0-1.35-3.87"/><path class="cls-3" d="M101.47,76.42l-2.17.36a13.15,13.15,0,0,1-.06,2.66l2.16.16a16.92,16.92,0,0,0,.07-3.18"/><path class="cls-7" d="M81.71,68.91a12.52,12.52,0,0,1,2.77-1.74L83.79,65A14.79,14.79,0,0,0,80.49,67Z"/><path class="cls-7" d="M80.57,70,79.13,68.3a16.78,16.78,0,0,0-2.27,3l1.81,1.18A14.16,14.16,0,0,1,80.57,70"/><path class="cls-1" d="M78,73.75l-1.94-.93a15.35,15.35,0,0,0-.62,1.56A14.76,14.76,0,0,0,75,76l2.11.43a13.39,13.39,0,0,1,.9-2.67"/><path class="cls-1" d="M76.87,77.82l-2.16-.16a16.92,16.92,0,0,0-.07,3.18l2.17-.35a13.25,13.25,0,0,1,.06-2.67"/><path class="cls-1" d="M77,82.16l-2.12.67a14.79,14.79,0,0,0,1.34,3.87l1.91-1.3A12.72,12.72,0,0,1,77,82.16"/><path class="cls-1" d="M79.19,87l-1.71,1.62A12.42,12.42,0,0,0,80,91.07l1.31-2a10.06,10.06,0,0,1-2.07-2"/><path class="cls-1" d="M82.48,89.83,81.4,92a12.52,12.52,0,0,0,1.87.8,11.37,11.37,0,0,0,1.91.48l.47-2.36a10.4,10.4,0,0,1-1.6-.4,10.61,10.61,0,0,1-1.57-.68"/><path class="cls-1" d="M86.76,91l-.25,2.39A12.06,12.06,0,0,0,90.44,93l-.39-2.32a10.06,10.06,0,0,1-3.29.37"/><path class="cls-1" d="M91.63,90.09l.68,2.21a14.29,14.29,0,0,0,3.31-2.08L94.4,88.35a12.52,12.52,0,0,1-2.77,1.74"/><path class="cls-1" d="M95.53,87.29,97,89a16.78,16.78,0,0,0,2.27-3l-1.81-1.18a13.75,13.75,0,0,1-1.91,2.51"/><path class="cls-1" d="M98.1,83.51l1.94.94c.23-.51.44-1,.62-1.56a14.93,14.93,0,0,0,.45-1.62L99,80.85a12.91,12.91,0,0,1-.38,1.35,13.21,13.21,0,0,1-.52,1.31"/><path class="cls-2" d="M98.67,109a4.08,4.08,0,0,1-3,1.08l-12.82.06A4.19,4.19,0,0,1,79,108l0-.05,0,0q-4.25-7.5-8.5-15l0,0,0,0c-.92-1.91-1.08-4.09.76-5.5,1.23-1,2.49-1.87,3.73-2.79l11-8.27.47-.34H87l13.41-.11h.13a4.87,4.87,0,0,1,3.85,2.35l0,0,0,0,8.52,14.92,0,.09,0,.09a4.47,4.47,0,0,1-.59,5l-.11.11-.11.09L98.67,109"/><path class="cls-8" d="M95.7,108.36a2.23,2.23,0,0,0,1.77-.63l13.66-10.55a2.71,2.71,0,0,0,.28-3.11l-8.53-14.92a3.13,3.13,0,0,0-2.48-1.56L87,77.7l-14.75,11c-.9.69-1,1.8-.25,3.33l8.5,15a2.42,2.42,0,0,0,2.32,1.34l12.9,0"/><path class="cls-9" d="M88,77.69l12.44-.1a3.13,3.13,0,0,1,2.48,1.56l8.53,14.92a4.32,4.32,0,0,1,.3,1L98.59,94.3,88,77.69"/><path class="cls-9" d="M86.76,77.86,72.23,88.74c-.9.69-1,1.8-.25,3.33l8.5,15a3.17,3.17,0,0,0,.29.4q.45-17.3,5.77-29.44c.16-.08.23-.14.22-.17"/><path class="cls-2" d="M111.61,96.43a2.57,2.57,0,0,0,.1-1.39L97,95.52C92.67,87.33,89.89,81,88,77.69H87l-.44.33c1.88,3.22,5.28,9.3,9.74,17.72L80.77,107.47a2.52,2.52,0,0,0,1.17.85L97.19,96.38c1.15,0,6.3.05,14.42.05"/><path class="cls-1" d="M106.11,93.81c-.51.33-1.4-.13-2-1s-.63-1.9-.12-2.23,1.4.13,2,1,.63,1.91.11,2.23"/><path class="cls-1" d="M101.09,93.81c-.52.33-1.4-.13-2-1s-.63-1.9-.11-2.23,1.4.13,2,1,.63,1.91.12,2.23"/><path class="cls-1" d="M103.38,88.51c-.51.33-1.4-.13-2-1s-.62-1.9-.11-2.23,1.4.13,2,1,.63,1.9.11,2.23"/><path class="cls-1" d="M98.36,88.51c-.52.33-1.4-.13-2-1s-.63-1.9-.12-2.23,1.4.13,2,1,.63,1.9.12,2.23"/><path class="cls-1" d="M100.43,82.89c-.51.33-1.4-.14-2-1s-.63-1.9-.11-2.23,1.4.13,2,1,.63,1.9.11,2.23"/><path class="cls-1" d="M95.4,82.89c-.51.33-1.4-.14-2-1s-.63-1.9-.12-2.23,1.4.13,2,1,.63,1.9.11,2.23"/><path class="cls-1" d="M90.23,96.58a2.06,2.06,0,1,1,2-2.06,2,2,0,0,1-2,2.06"/><path class="cls-1" d="M82.8,102.52a2.06,2.06,0,1,1,2-2.06,2,2,0,0,1-2,2.06"/><path class="cls-1" d="M77.72,93.67a2.06,2.06,0,1,1,2-2.06,2,2,0,0,1-2,2.06"/><path class="cls-1" d="M85.26,88a2.07,2.07,0,1,1,2-2.06,2,2,0,0,1-2,2.06"/><path class="cls-9" d="M111.61,96.43a79.93,79.93,0,0,0-29.67,11.89,2.06,2.06,0,0,0,.86.09l12.9,0a2.23,2.23,0,0,0,1.77-.63l13.66-10.55a2.33,2.33,0,0,0,.48-.75"/><path class="cls-1" d="M96.3,100.83c-.36-.45.18-1.43,1.22-2.18s2.17-1,2.54-.55-.18,1.43-1.22,2.19-2.17,1-2.54.54"/><path class="cls-1" d="M93.84,106.62c-.36-.45.18-1.43,1.22-2.18s2.17-1,2.54-.54-.18,1.43-1.22,2.18-2.17,1-2.54.54"/><path class="cls-2" d="M57,70.87a4.87,4.87,0,0,1,3.57-1.3c5.15,0,10.3,0,15.44-.07a5.06,5.06,0,0,1,4.68,2.58l0,.06,0,0L91,90.26l0,.06,0,.07c1.1,2.3,1.29,4.92-.92,6.62-1.48,1.14-3,2.25-4.49,3.36l-13.3,9.95-.56.42h-.7L55,110.88h-.15A5.92,5.92,0,0,1,50.18,108l0-.05,0-.06L39.85,90l-.07-.1-.05-.12a5.38,5.38,0,0,1,.73-6l.12-.14.14-.11L57,70.87"/><path class="cls-6" d="M60.62,71.7a2.71,2.71,0,0,0-2.14.75L42,85.16q-1.31,1.43-.33,3.75l10.27,18a3.77,3.77,0,0,0,3,1.88l16.15-.13,17.77-13.3q1.64-1.25.3-4L79,73.24a3,3,0,0,0-2.8-1.61l-15.53.07"/><path class="cls-7" d="M69.94,108.63l-15,.12a3.77,3.77,0,0,1-3-1.88l-10.27-18a5.28,5.28,0,0,1-.36-1.21l15.8.92,12.81,20"/><path class="cls-7" d="M71.38,108.42l17.5-13.1q1.64-1.25.3-4L79,73.24c-.12-.17-.23-.33-.35-.48q-.54,20.83-7,35.46c-.19.1-.28.17-.26.2"/><path class="cls-2" d="M41.45,86.06a3.12,3.12,0,0,0-.12,1.68L59,87.16c5.23,9.86,8.57,17.45,10.9,21.47h1.17l.53-.4c-2.26-3.88-6.35-11.2-11.73-21.34L78.6,72.76a3.13,3.13,0,0,0-1.41-1L58.82,86.12c-1.39,0-7.59-.06-17.37-.06"/><path class="cls-1" d="M48.07,89.21c.62-.4,1.69.16,2.38,1.25s.76,2.29.14,2.68S48.9,93,48.21,91.9s-.76-2.29-.14-2.69"/><path class="cls-1" d="M54.12,89.21c.62-.4,1.69.16,2.39,1.25s.75,2.29.13,2.68S55,93,54.26,91.9s-.75-2.29-.14-2.69"/><path class="cls-1" d="M51.36,95.59c.62-.39,1.69.17,2.38,1.25s.76,2.29.14,2.69-1.69-.16-2.38-1.25-.76-2.29-.14-2.69"/><path class="cls-1" d="M57.42,95.59c.62-.39,1.68.17,2.38,1.25s.76,2.29.14,2.69-1.69-.16-2.39-1.25-.75-2.29-.13-2.69"/><path class="cls-1" d="M54.92,102.37c.62-.39,1.68.16,2.38,1.25s.75,2.29.13,2.69-1.68-.16-2.38-1.25-.75-2.29-.13-2.69"/><path class="cls-1" d="M61,102.37c.62-.39,1.69.16,2.38,1.25s.76,2.29.14,2.69-1.69-.16-2.38-1.25-.76-2.29-.14-2.69"/><path class="cls-1" d="M67.2,85.88a2.49,2.49,0,1,1-2.37,2.48,2.43,2.43,0,0,1,2.37-2.48"/><path class="cls-1" d="M76.15,78.72a2.49,2.49,0,1,1-2.37,2.48,2.43,2.43,0,0,1,2.37-2.48"/><path class="cls-1" d="M82.27,89.38a2.49,2.49,0,1,1-2.37,2.49,2.43,2.43,0,0,1,2.37-2.49"/><path class="cls-1" d="M73.19,96.23a2.49,2.49,0,1,1-2.37,2.48,2.43,2.43,0,0,1,2.37-2.48"/><path class="cls-7" d="M41.45,86.06A96.17,96.17,0,0,0,77.19,71.73a2.58,2.58,0,0,0-1-.1l-15.53.07a2.71,2.71,0,0,0-2.14.75L42,85.16a2.86,2.86,0,0,0-.57.9"/><path class="cls-1" d="M59.89,80.76c.44.55-.22,1.72-1.47,2.63s-2.61,1.2-3.05.65.21-1.72,1.46-2.62,2.62-1.2,3.06-.66"/><path class="cls-1" d="M62.85,73.79c.44.54-.22,1.72-1.47,2.62s-2.61,1.2-3.05.66.22-1.73,1.46-2.63,2.62-1.2,3.06-.65"/><path class="cls-2" d="M80,120.84a138.71,138.71,0,0,0-43.37,7.9L25.34,122V88.74q26.49.2,54.62,0v.13c17.8,0,39.88,0,54.62-.13V122l-11.25,6.73A138.77,138.77,0,0,0,80,120.84"/><path class="cls-10" d="M57.77,106.47c-.37-1.61-.75-3.23-1.12-4.86s-.75-3.3-1.12-5h-.09q-.7,3.27-1.4,6.6c-.47,2.23-.93,4.5-1.4,6.77q2.56-1.83,5.13-3.54m15.4,4.9c-2.44.17-4.29,0-5.55-.67s-2.84-2.06-1.88-3.29,3.18-1,4.77-1.46v1.26c0,1.18.87,1.7,2.61,1.59a4,4,0,0,0,1.95-.53,1.55,1.55,0,0,0,.66-1.4,2.54,2.54,0,0,0-.91-2A13.67,13.67,0,0,0,71.43,103a15.41,15.41,0,0,1-4.36-2.64,4,4,0,0,1-1.23-2.88A3.9,3.9,0,0,1,67.76,94a10.45,10.45,0,0,1,5.59-1.21,10.39,10.39,0,0,1,5.48,1.16c1.23.78,2.88,2.25,1.86,3.34s-3.19.49-4.77.75v-.92a1.49,1.49,0,0,0-.64-1.34,3.39,3.39,0,0,0-1.88-.41c-1.68,0-2.52.61-2.52,1.78A2.41,2.41,0,0,0,71.82,99a15.75,15.75,0,0,0,3.41,2,14.92,14.92,0,0,1,4.36,2.75,4.19,4.19,0,0,1,1.19,3,3.71,3.71,0,0,1-2,3.35A12.87,12.87,0,0,1,73.17,111.37ZM83.66,96.68q2.52-1.8,5-3.64v18.38c-1.68-.15-3.36-.27-5-.37V96.68Zm8.8-3.63h6.32q1.23,3,2.45,6c.82,2.07,1.63,4.17,2.46,6.31h.09V93.07h4.49v21.56c-1.73-.37-3.45-.73-5.18-1.07q-1.52-4-3-7.84c-1-2.53-2-5-3-7.43H97v14.18c-1.5-.23-3-.44-4.49-.64V93.05Zm-40.18,0,6.82,0q1.3,4.92,2.61,9.7c.86,3.14,1.74,6.25,2.61,9.31-1.68.25-3.36.51-5,.78-.31-1.25-.62-2.52-.92-3.79v0q-2.86.42-5.73.9c-.3,1.44-.61,2.87-.91,4.32-1.56.36-3.12.73-4.67,1.14q1.3-5.88,2.6-11.52T52.28,93.08Zm67,24.92c1.74,0,2.61-.94,2.61-2.81V99.65c0-1.87-.87-2.81-2.61-2.81s-2.61.94-2.61,2.81v15.54C116.7,117.06,117.57,118,119.31,118Zm0,4.07a8,8,0,0,1-5.68-1.87,7,7,0,0,1-2-5.29v-15a7,7,0,0,1,2-5.29,9.56,9.56,0,0,1,11.36,0,6.91,6.91,0,0,1,2,5.29v15a6.94,6.94,0,0,1-2,5.29A8,8,0,0,1,119.31,122.07Zm-81.37,0a7.64,7.64,0,0,1-5.52-1.83,6.84,6.84,0,0,1-1.9-5.17V99.77a6.82,6.82,0,0,1,1.9-5.16,7.64,7.64,0,0,1,5.52-1.83,7.66,7.66,0,0,1,5.52,1.83,6.82,6.82,0,0,1,1.9,5.16l-4.76,3V99.49c0-1.76-.84-2.65-2.52-2.65s-2.52.89-2.52,2.65V115.4c0,1.73.84,2.6,2.52,2.6s2.52-.87,2.52-2.6L45.36,111v4a6.84,6.84,0,0,1-1.9,5.17A7.66,7.66,0,0,1,37.94,122.07Z"/><path class="cls-11" d="M122.65,106.21l.57.2,3-1.81v2.27l-2.36,1.41-.44.26-.48-.17-.31-.11Zm-10.27-3.11q1.86.48,3.6,1v2c-1.16-.34-2.36-.67-3.6-1Zm-7.88-1.8.66.13,2.39.51v2c-.92-.21-1.86-.41-2.81-.6l-.24,0Zm-5.87-1c.83.12,1.65.26,2.45.39l.82,2.1c-.8-.15-1.6-.28-2.42-.42C99.2,101.66,98.92,101,98.63,100.28Zm-5.45-.73c1,.12,2,.24,3,.38v1.93l-3-.38Zm-8.79-.75c1.21.07,2.41.15,3.59.25V101c-1.18-.09-2.38-.17-3.59-.24Zm-17.13.69c1.22-.14,2.46-.26,3.73-.37a2.57,2.57,0,0,0,.33.33,11.12,11.12,0,0,0,2.17,1.4c-1.39.1-2.75.21-4.08.34a9,9,0,0,1-1.81-1.32A4,4,0,0,1,67.26,99.49Zm-10,1.47c1-.19,2-.37,3.09-.53.17.62.34,1.24.5,1.86-1.07.17-2.13.35-3.16.54-.11-.45-.21-.91-.31-1.36Zm-6.45,1.34c.93-.22,1.88-.43,2.84-.63l-.3,1.44-.13.61c-1,.22-2,.44-2.9.67l.07-.3Zm61.59,4.8c1.24.33,2.44.66,3.6,1v7.09c0,2.06,1,3.49,3.33,3.49s3.34-1.43,3.34-3.49v-5l.68.25,2.91-1.75v6.17a6.4,6.4,0,0,1-1.76,4.81,8.82,8.82,0,0,1-10.33,0,6.37,6.37,0,0,1-1.77-4.81Zm-12-2.57,2.38.42.26.69.15.38.42.06.15,0,.78.06v-.87c1,.21,2,.42,3,.64v7.86c-1.3-.28-2.61-.54-3.91-.8q-1.42-3.76-2.9-7.5Zm-7.18-1,3,.38v7.79c-1-.16-2-.3-3-.44Zm-8.79-.75c1.21.07,2.41.15,3.59.24v7.67c-1.2-.11-2.4-.19-3.59-.27v-7.64ZM73,102.93c1.36-.09,2.75-.18,4.16-.24A9.09,9.09,0,0,1,79,104.14a3.53,3.53,0,0,1,1,2.51,3,3,0,0,1-1.62,2.78,12.77,12.77,0,0,1-5.32,1.27c-1.54.1-3.75.15-5.14-.59-.64-.34-2.3-1.47-1.65-2.3.52-.67,1.75-.78,2.55-.88l.91-.13v.41c0,1.88,1.65,2.38,3.38,2.26a4.69,4.69,0,0,0,2.33-.65,2.24,2.24,0,0,0,1-1.95,3.21,3.21,0,0,0-1.14-2.44A10.57,10.57,0,0,0,73,102.93Zm-14.83,1.85c1.06-.19,2.15-.37,3.25-.54.67,2.43,1.36,4.86,2.05,7.28-1.2.18-2.39.36-3.58.56-.26-1.06-.51-2.12-.77-3.17l-.14-.6-1.28.14v.08l-2.17.33c.9-.62,1.8-1.23,2.71-1.83l.39-.26-.1-.44Zm-8.31,1.75c1-.24,1.95-.47,2.95-.69-.27,1.35-.55,2.7-.82,4s-.56,2.6-.83,3.89c-1,.24-2.07.49-3.11.75Q48.9,110.51,49.81,106.53Zm-5.17,6.12-3.33,3a2.9,2.9,0,0,1-3.23,3,3,3,0,0,1-3.25-3.28v-6l-3.59-2.15v7.78a6.28,6.28,0,0,0,1.69,4.69,7,7,0,0,0,5,1.63,7,7,0,0,0,5-1.63,6.25,6.25,0,0,0,1.7-4.69Zm-13.4-9.5,3.59,2.15v2.26l-3.59-2.15Z"/><path class="cls-7" d="M80,120.84c-3.66.1-7.15.32-10.48.64,3.43,2,7,3.79,10.52,5.48,3.55-1.69,7.08-3.51,10.5-5.47-3.34-.32-6.86-.55-10.54-.65"/><path class="cls-12" d="M65.21,136.28h.1Q66,128.6,67.08,121q3.32-.28,6.64-.42Q71,132.27,69.21,144.09c-1.74.15-3.47.34-5.19.56q-2.91-6.87-6.26-13.59h-.11q-1,7.44-1.66,14.86c-1.71.34-3.42.7-5.12,1.11Q45.5,136.38,39.15,126.1c2.15-.62,4.32-1.18,6.5-1.7q3.41,6.94,6.49,14h.1c.38-5.22.91-10.45,1.62-15.69,1.63-.29,3.27-.55,4.91-.78Q62.22,129,65.21,136.28Z"/><path class="cls-12" d="M88.21,139.4q-3.67-.24-7.35-.27c-.49,1.5-1,3-1.41,4.51-2,0-3.89.06-5.84.16a211.37,211.37,0,0,1,8.08-23.38l3.52.09v0l0,0c1.17,0,2.34.1,3.51.17a211.06,211.06,0,0,1,6.39,23.9q-2.91-.36-5.82-.58C89,142.47,88.59,140.93,88.21,139.4ZM82.26,135c1.62,0,3.24.09,4.85.18-.66-2.45-1.37-4.88-2.12-7.32h-.11C84,130.23,83.09,132.61,82.26,135Z"/><path class="cls-12" d="M103.2,136.79c-.52,2.92-1,5.85-1.55,8.77-1.83-.32-3.66-.61-5.5-.85l3-23c3.26.43,6.52,1,9.76,1.61a13,13,0,0,1,7.18,3.55,5.67,5.67,0,0,1,1.41,5.66,4.7,4.7,0,0,1-1.88,2.7,8.14,8.14,0,0,1-3.6,1.25,5.62,5.62,0,0,1,2.83,2.81,5.7,5.7,0,0,1,.05,3.66l-.39,1.42a8.63,8.63,0,0,0-.28,2.07,2.79,2.79,0,0,0,.49,1.87l-.09.3q-2.77-.79-5.58-1.47a2.6,2.6,0,0,1-.44-1.89,14.49,14.49,0,0,1,.34-2.33c.1-.46.21-.92.31-1.37a3.23,3.23,0,0,0-.37-2.69,3.93,3.93,0,0,0-2.59-1.44C105.29,137.18,104.24,137,103.2,136.79Zm.72-4.08c1,.18,2,.37,3,.57a4.71,4.71,0,0,0,2.94-.14,2.5,2.5,0,0,0,1.44-1.85,2.78,2.78,0,0,0-.51-2.47,4.39,4.39,0,0,0-2.72-1.46c-1.05-.21-2.1-.41-3.15-.59Z"/><path d="M65.35,136.69h.1q.63-7.65,1.62-15.32c2.2-.2,4.41-.36,6.61-.46q-2.69,11.74-4.3,23.58c-1.71.16-3.41.36-5.11.59q-2.94-6.84-6.36-13.52l-.11,0q-.94,7.44-1.41,14.87-2.52.52-5,1.17Q45.84,137,39.28,126.89c2.14-.66,4.3-1.27,6.46-1.82Q49.27,132,52.45,139h.1q.42-7.83,1.35-15.7c1.62-.32,3.25-.6,4.89-.85Q62.32,129.47,65.35,136.69Z"/><path d="M88.09,139.73q-3.63-.24-7.26-.26c-.47,1.5-.94,3-1.38,4.51-1.91,0-3.83.07-5.74.18a196.47,196.47,0,0,1,7.92-23.4c1.17,0,2.34,0,3.5.08v0l0,0c1.17,0,2.34.1,3.51.18a199.76,199.76,0,0,1,6.22,23.91c-1.91-.24-3.81-.44-5.72-.59C88.82,142.8,88.46,141.27,88.09,139.73Zm-5.88-4.39c1.6,0,3.2.08,4.8.17q-1-3.66-2.09-7.31h-.11Q83.45,131.76,82.21,135.34Z"/><path d="M102.92,137.19c-.54,2.92-1.09,5.84-1.63,8.75q-2.7-.49-5.4-.87,1.59-11.5,3.17-23c3.25.44,6.49,1,9.72,1.69a12.9,12.9,0,0,1,7.11,3.63,5.66,5.66,0,0,1,1.32,5.68,4.78,4.78,0,0,1-1.91,2.67,8.1,8.1,0,0,1-3.6,1.21,5.61,5.61,0,0,1,2.76,2.84,5.79,5.79,0,0,1,0,3.66c-.14.47-.27.94-.41,1.41a8.49,8.49,0,0,0-.32,2.07,2.81,2.81,0,0,0,.45,1.87l-.1.3c-1.81-.56-3.64-1.07-5.47-1.54a2.6,2.6,0,0,1-.4-1.89,15.47,15.47,0,0,1,.36-2.32c.12-.46.23-.91.34-1.37a3.24,3.24,0,0,0-.33-2.69,3.91,3.91,0,0,0-2.54-1.47C105,137.59,104,137.39,102.92,137.19Zm.76-4.08c1,.19,2,.39,3,.61a4.83,4.83,0,0,0,2.92-.11,2.52,2.52,0,0,0,1.45-1.84,2.8,2.8,0,0,0-.47-2.47,4.38,4.38,0,0,0-2.69-1.49c-1-.22-2.09-.43-3.13-.62Z"/></svg>