<svg id="Layer_1" data-name="Layer 1" xmlns="http://www.w3.org/2000/svg" viewBox="0 0 160 160"><defs><style>.cls-1,.cls-16{fill:#fff;}.cls-2{fill:#482900;}.cls-3{fill:#272727;}.cls-4{fill:#a2c8e3;}.cls-5{fill:#a6a5c2;}.cls-6{fill:#3f3f3f;}.cls-7{fill:red;}.cls-8{fill:#6d6d6d;}.cls-9{fill:#242424;}.cls-10{fill:#8c0000;}.cls-11{fill:#f99;}.cls-12{fill:#d4efff;}.cls-13{fill:#6692ad;}.cls-14{fill:#321b00;}.cls-15{fill:#917f66;}.cls-16{stroke:#000;stroke-miterlimit:10;stroke-width:7px;}</style></defs><path class="cls-1" d="M16.42,152.28H143.35v-15a26.11,26.11,0,0,0-.86-7.48c-.07-.22-.14-.43-.22-.64l-.48-4.49,0-.21,0-.24-.05-.41v0l-.13-.84-.08-.42-.09-.42-.08-.4-.1-.41c-.06-.28-.14-.56-.21-.83s-.07-.24-.1-.35l0,0c0-.16-.08-.29-.12-.43s-.19-.56-.26-.78v0l-.06-.15c-.07-.2-.15-.43-.25-.67l-.18-.46,0-.08-.13-.31-.16-.36-.18-.35-.15-.32-.13-.25,0-.07-.2-.36-.2-.35,0,0q-.09-.17-.18-.3l-.05-.08c-.12-.2-.24-.37-.32-.48l-.05-.07-.09-.13c-1.07-8.7-3-15-5.89-19.87s-6.47-7.38-9.58-9.63a42.15,42.15,0,0,1-6.18-5.26.73.73,0,0,0-.05-.09l0-.09-.16-.31a10.59,10.59,0,0,0-.68-1.1l0-.07c-.24-.34-.44-.6-.65-.85-.35-.43-.73-.85-1.16-1.3s-.61-.6-.89-.86a16,16,0,0,0-.31-6.62c.25-.26.49-.52.71-.77h.11a8.94,8.94,0,0,0,.89-.09,7,7,0,0,0,1.36-.35h0a6.1,6.1,0,0,0,1.86-1.1,6,6,0,0,0,1.55-2.08,6.38,6.38,0,0,0,.5-1.81h0a6.54,6.54,0,0,0,0-1.25c0-.14,0-.28,0-.4a43.17,43.17,0,0,0,3.18-5.61,23.71,23.71,0,0,0,2.22-7.32,13.09,13.09,0,0,0-.28-4.76,10.7,10.7,0,0,0-2.07-4.14,31.66,31.66,0,0,0-10.69-8.39,38.63,38.63,0,0,1-1.53-4.9,33.42,33.42,0,0,0-2.87-8.13,17.49,17.49,0,0,0-8.14-8,43.69,43.69,0,0,0-9-2.94,56.91,56.91,0,0,0-7.4-1.11V4.51l-3.95,0-3.94,0v.24a56.91,56.91,0,0,0-7.4,1.11,43.69,43.69,0,0,0-9,2.94,17.49,17.49,0,0,0-8.14,8,33.42,33.42,0,0,0-2.87,8.13A38.63,38.63,0,0,1,46,29.82a31.66,31.66,0,0,0-10.69,8.39,10.7,10.7,0,0,0-2.07,4.14,13.09,13.09,0,0,0-.28,4.76,23.44,23.44,0,0,0,2.22,7.32A43.17,43.17,0,0,0,38.33,60c0,.12,0,.26,0,.4a6.54,6.54,0,0,0,0,1.25h0a6.54,6.54,0,0,0,.5,1.82,6.16,6.16,0,0,0,1.54,2.07,6.44,6.44,0,0,0,1.88,1.11h0a6.88,6.88,0,0,0,1.37.35,8.46,8.46,0,0,0,.88.09h.11c.22.25.46.51.71.77A16,16,0,0,0,45,74.53c-.28.26-.58.54-.88.86s-.81.86-1.17,1.3c-.2.24-.41.51-.66.86l0,.06a11.79,11.79,0,0,0-.68,1.1c-.07.13-.13.24-.16.31l0,.09a.36.36,0,0,1,0,.09,42.15,42.15,0,0,1-6.18,5.26c-3.11,2.25-6.64,4.81-9.58,9.63S20.77,105.26,19.7,114l-.09.13,0,.06h0l-.32.48,0,.08q-.09.14-.18.3l0,0-.2.35-.2.36h0l0,.07-.13.25-.15.31-.18.36-.16.36c0,.11-.09.21-.13.31l0,.08a4.63,4.63,0,0,0-.19.47c-.1.24-.18.46-.25.67l0,.1,0,.08c-.08.22-.17.49-.26.78q-.06.19-.12.42l0,.07c0,.11-.07.22-.1.34s-.15.55-.21.83l-.09.39-.09.41-.09.43-.08.42c-.05.32-.1.59-.13.84l-.06.43,0,.24,0,.22-.61,5.68h1.07Z"/><path d="M19.28,149.28H140.49v-12a23.77,23.77,0,0,0-.73-6.65,9,9,0,0,0-1.72-3.14h1.18l-.28-2.53,0-.2,0-.19-.05-.39c0-.22-.07-.46-.12-.75l-.07-.37-.07-.37-.08-.36-.09-.38c-.06-.25-.12-.49-.19-.73s-.06-.21-.09-.3v-.06c0-.15-.08-.27-.11-.38s-.17-.5-.24-.71h0l-.05-.13-.22-.6c0-.11-.09-.23-.15-.37l-.05-.11-.1-.24-.16-.34c0-.1-.09-.19-.13-.28l-.14-.27-.1-.19a.31.31,0,0,0-.05-.1l-.14-.26-.2-.34c0-.08-.1-.16-.15-.24l-.06-.09c-.08-.14-.17-.26-.24-.36h0l-.06-.08-.19-.27-.25-.32,0-.05c-1-8.68-2.78-14.88-5.58-19.49-2.64-4.34-5.78-6.61-8.82-8.81a41.34,41.34,0,0,1-6.94-6v0l0-.09-.06-.14-.06-.12-.05-.1c0-.06-.06-.13-.1-.2a8.07,8.07,0,0,0-.53-.85v0c-.21-.29-.37-.51-.53-.7-.31-.37-.63-.73-1-1.12-.65-.67-1.23-1.18-1.72-1.6l-.27-.23a13.77,13.77,0,0,0-.38-8.47c1-.93,2-2,2.66-2.82h1.23a5.8,5.8,0,0,0,.6-.06,4.26,4.26,0,0,0,.8-.2,3.27,3.27,0,0,0,1-.59,3.17,3.17,0,0,0,.8-1.08,3.27,3.27,0,0,0,.27-1,4.86,4.86,0,0,0,0-.77c0-.22,0-.42-.06-.6v0c0-.19-.07-.38-.12-.58a42.37,42.37,0,0,0,3.6-6.15,20.68,20.68,0,0,0,2-6.42A8.78,8.78,0,0,0,120.25,40a29.13,29.13,0,0,0-10.71-8.1,43.31,43.31,0,0,1-2.07-6.35,31.21,31.21,0,0,0-2.61-7.43,14.76,14.76,0,0,0-6.81-6.73,48.83,48.83,0,0,0-18-4v0H77.72v0a48.83,48.83,0,0,0-18,4,14.76,14.76,0,0,0-6.81,6.73,31.21,31.21,0,0,0-2.61,7.43,43.31,43.31,0,0,1-2.07,6.35A29.13,29.13,0,0,0,37.5,40a8.78,8.78,0,0,0-1.73,6.78,20.68,20.68,0,0,0,2,6.42,42.37,42.37,0,0,0,3.6,6.15c-.05.2-.09.39-.12.58v0c0,.18,0,.38-.06.61a4.78,4.78,0,0,0,0,.76,3.27,3.27,0,0,0,.27,1,3.17,3.17,0,0,0,.8,1.08,3.27,3.27,0,0,0,1,.59,4.07,4.07,0,0,0,.8.2,5.8,5.8,0,0,0,.6.06H45.9c.69.79,1.68,1.89,2.66,2.82a13.77,13.77,0,0,0-.38,8.47l-.27.23c-.49.42-1.07.93-1.72,1.6-.38.39-.7.75-1,1.12-.16.19-.32.41-.53.7v0a8.07,8.07,0,0,0-.53.85l-.1.2,0,.1-.06.12-.06.13,0,.1v0a41.34,41.34,0,0,1-6.94,6c-3,2.2-6.18,4.47-8.82,8.81-2.8,4.61-4.58,10.81-5.58,19.49l0,.05-.25.32-.19.27-.06.08h0c-.07.1-.16.22-.25.36l-.05.09a1.58,1.58,0,0,0-.15.24l-.2.34-.14.26a.31.31,0,0,0-.05.1l-.1.19-.14.27c0,.09-.09.18-.13.28l-.16.34-.1.24-.05.11c-.06.13-.11.26-.15.37s-.16.41-.23.61l0,.1v0c-.07.21-.16.46-.24.72l-.11.36,0,.07c0,.1-.05.2-.08.3s-.13.48-.19.73l-.08.36-.08.37-.08.38-.07.37c-.05.29-.09.53-.12.75l0,.38,0,.19,0,.21-.28,2.53h.75Z"/><path class="cls-2" d="M82.57,57.84l0,0-.14.13-.15.17-.16.21c-.11.15-.24.33-.36.52l-.11.19c.85,0,2-.14,2.29-1.15a1.85,1.85,0,0,0-.33-1.63,13.89,13.89,0,0,0-4.69-.73,13.19,13.19,0,0,0-5.1.89A1.79,1.79,0,0,0,73.55,58c.12.43.43,1,1.68,1.13a4.24,4.24,0,0,0,.61,0,4.31,4.31,0,0,0-.32-.4,3.84,3.84,0,0,0-.35-.35c-.1-.1-.19-.17-.26-.23l-.09-.08h.49a2.69,2.69,0,0,1,.55.1,2.64,2.64,0,0,1,.7.31,2.45,2.45,0,0,1,.72.63l0,.05,0,0v0h0l.06.09.07.08,0,0,0,0,.13.12.06.07.07.06a2.75,2.75,0,0,0,.26.22,2.26,2.26,0,0,0,.26.14.78.78,0,0,0,.43.08h.17l0,0a1.16,1.16,0,0,0,.27-.14,2.87,2.87,0,0,0,.54-.45,3.08,3.08,0,0,0,.24-.27h0s0,0,0,0h0v0l0,0,.07-.09.09-.1.09-.1a3.85,3.85,0,0,1,.69-.57,4.43,4.43,0,0,1,.65-.33,2,2,0,0,1,.55-.16,1.26,1.26,0,0,1,.37,0l.1,0h0l-.1.07Z"/><path class="cls-3" d="M90.05,58.38a14.17,14.17,0,0,0,1.69,1.69,7.71,7.71,0,0,0,5,1.19A8.83,8.83,0,0,0,102,59.37c.84-.74,1.49-2.5,1.83-4.93a26.75,26.75,0,0,0,.24-4.5c-.16-.2-1.66-1.67-10.91-2-9.06-.29-10,.78-10.31,1.14a3.08,3.08,0,0,1-.26.28,2.9,2.9,0,0,1-1,.56,1.79,1.79,0,0,1,.65.89,4.32,4.32,0,0,1,.24,1.46,2.22,2.22,0,0,1-.33,1.34C86.4,54.37,88.39,56.56,90.05,58.38Z"/><path class="cls-4" d="M59.82,86.34Z"/><polygon class="cls-4" points="59.8 86.34 59.8 86.34 59.8 86.34 59.8 86.34"/><path class="cls-4" d="M61.85,75.24a3.77,3.77,0,0,0,0-1.06A11.59,11.59,0,0,1,67.89,63,12.33,12.33,0,0,0,69.4,75.24c2.48-2.37,5.16-4.85,8.52-5.55q0-4,0-8c-1-1.12-2.84-.69-4.24-1.24a3.15,3.15,0,0,1-1.94-2.77c-1.6,1.22-2.76,3-4.39,4.16a9.82,9.82,0,0,1-6.6,1.75c-2.42-.19-4.26-1.28-6.4-2.23a57.32,57.32,0,0,0-2.62,7.21c-.79,2.49-1.05,5.37.34,7.58a23.48,23.48,0,0,1,3.37-10c-.94,3.63-1.88,7.34-1.53,11.07s2.26,7.53,5.65,9.11a20,20,0,0,1,1.92-10.09A3.79,3.79,0,0,0,61.85,75.24Z"/><path class="cls-3" d="M51.4,52.16a.88.88,0,0,0-.48.65,24.81,24.81,0,0,0,.75,5.09,1.2,1.2,0,0,0,.7.09,17.86,17.86,0,0,1-.72-3.23C51.52,53.83,51.44,52.93,51.4,52.16Z"/><path class="cls-5" d="M95.84,88.21c.08-.29.14-.65-.08-.84a12.84,12.84,0,0,1-6.49,4.93c-.47.15-1.33.22-1.64.54.75.43,2.44-.07,3.3-.15a6.69,6.69,0,0,1,3.44.38Q95.18,90.67,95.84,88.21Z"/><path class="cls-1" d="M90.18,76.43a2.79,2.79,0,0,0,1.27.27,2.6,2.6,0,0,0,2.73-2.62v0A8.56,8.56,0,0,0,92.82,68l-.21-.31a10.82,10.82,0,0,1-1.75,6.66C90.22,75.42,90,75.89,90.18,76.43Z"/><path class="cls-1" d="M64.93,68a8.56,8.56,0,0,0-1.37,6.09v0A2.6,2.6,0,0,0,66.3,76.7a2.79,2.79,0,0,0,1.27-.27c.19-.54,0-1-.68-2.12a10.82,10.82,0,0,1-1.75-6.66Z"/><path class="cls-4" d="M87.83,38.27c-5.5-.27-8.37,1.46-8.4,1.48l-.56.38-.55-.38c-.13-.07-3-1.74-8.4-1.48-6.05.28-8.13,1.33-9.67,3a15.58,15.58,0,0,0-2.68,4.94,58.47,58.47,0,0,1,6.93-.62,40.9,40.9,0,0,1,9.29.44,4.54,4.54,0,0,1,2.82,1.49l.09.09h0a1.48,1.48,0,0,0,.66.17c.41.05,2.62.05,3,0a1.48,1.48,0,0,0,.66-.17h0l.09-.09A4.54,4.54,0,0,1,84,46.08a40.9,40.9,0,0,1,9.29-.44,58.47,58.47,0,0,1,6.93.62,16,16,0,0,0-2.68-4.94C96,39.6,93.88,38.55,87.83,38.27Z"/><path class="cls-5" d="M63.37,93.08a6.46,6.46,0,0,1,3.44-.39,15.71,15.71,0,0,0,3.49.16c-.43-.17-.89-.28-1.34-.41a12.55,12.55,0,0,1-4-2A12,12,0,0,1,63.27,89c-.39-.41-.85-1.3-1.32-1.53a.72.72,0,0,0-.09.27,2.46,2.46,0,0,0,.15,1Z"/><path class="cls-3" d="M53.67,49.94a26.75,26.75,0,0,0,.24,4.5c.34,2.43,1,4.19,1.83,4.93A8.83,8.83,0,0,0,61,61.26a7.71,7.71,0,0,0,5-1.19,14.17,14.17,0,0,0,1.69-1.69c1.66-1.82,3.65-4,7.89-4.78a2.22,2.22,0,0,1-.33-1.34,4.32,4.32,0,0,1,.24-1.46,1.79,1.79,0,0,1,.65-.89,2.9,2.9,0,0,1-1-.56,3.08,3.08,0,0,1-.26-.28c-.31-.36-1.25-1.43-10.31-1.14C55.33,48.27,53.83,49.74,53.67,49.94Z"/><path class="cls-6" d="M105.84,61.38a23.68,23.68,0,0,0,1,3.16c.65-.62,1.32-1.34,1.87-2a13.16,13.16,0,0,1-2.1-.77C106.37,61.67,106.1,61.53,105.84,61.38Z"/><path class="cls-4" d="M105.67,76.14c1.37-2.21,1.13-5.07.35-7.55s-2-4.82-2.6-7.35c-3.7,2.45-8.83,3.33-12.55.9-2-1.27-3.31-3.29-5.16-4.72a3.36,3.36,0,0,1-2.47,3.21c-2,.49-3.59-.18-3.6,2.37,0,.6-.25,6.65,0,6.71,3.42.76,6.11,3.32,8.61,5.77A12.61,12.61,0,0,0,89.87,63a11.62,11.62,0,0,1,6.06,11.17,4.42,4.42,0,0,0,0,1.09,3.75,3.75,0,0,0,.38,1,20.11,20.11,0,0,1,1.89,10c3.39-1.58,5.3-5.39,5.65-9.11s-.59-7.44-1.53-11.07l0,.07A23.45,23.45,0,0,1,105.67,76.14Z"/><path class="cls-7" d="M82,95.58l-.31.07-.15,0-.15,0c-.4,0-.76.11-1.08.12a6.42,6.42,0,0,1-.83,0H78.23a6.42,6.42,0,0,1-.83,0c-.32,0-.68-.07-1.08-.12l-.15,0-.15,0-.31-.07-.32-.06-.26-.07c0,1.15.06,2.68.74,3.42l0,0a9.28,9.28,0,0,0,5.95,0l0,0c.68-.74.79-2.27.74-3.42l-.26.07Z"/><path class="cls-4" d="M91,86.61A12.75,12.75,0,0,1,89.17,91,11.73,11.73,0,0,0,94,86.57c1-1.54,1.86-3.46,1.27-5.22a6.91,6.91,0,0,1-6.82.83,6.48,6.48,0,0,0,4.7-1.09,3.55,3.55,0,0,0,1.34-1.58,1.94,1.94,0,0,0-.27-2,4.93,4.93,0,0,1-4.57.53,12,12,0,0,1-4-2.62,24.35,24.35,0,0,0-3.7-3,6.57,6.57,0,0,0-3.11-1,8,8,0,0,0-5.24,2.37,27.73,27.73,0,0,1-4.53,3.73,6,6,0,0,1-3.83.77c-.39-.07-1.45-.73-1.73-.65-.47.12-.44,1.21-.36,1.54a3.2,3.2,0,0,0,.95,1.45,6.13,6.13,0,0,0,5.22,1.54,6.91,6.91,0,0,1-6.82-.82c-.6,1.81.28,3.78,1.36,5.36A11.68,11.68,0,0,0,68.58,91a12.55,12.55,0,0,1-1.81-4.34,14.15,14.15,0,0,0,12.1,7.1,13.47,13.47,0,0,0,3.74-.54A14.13,14.13,0,0,0,91,86.61Z"/><path class="cls-7" d="M64,104.16a1.71,1.71,0,0,0,.07.81,2.21,2.21,0,0,0,.75.86,9.64,9.64,0,0,0,2.45,1.36.84.84,0,0,0,.44.07c.27-.05.41-.33.53-.57a19.8,19.8,0,0,1,4.41-6c.41-.39.88-.85.83-1.41-.06-.82-1.13-1.14-1.94-1a5.2,5.2,0,0,0-2.66,1.13,5.12,5.12,0,0,1,3.42-2.63.69.69,0,0,0,.44-.2.72.72,0,0,0,.11-.41l0-1.07a.64.64,0,0,0-.05-.36c-.15-.23-.5-.19-.77-.13a13.22,13.22,0,0,1-3.6.35c-1.45-.07-3.52-.64-4.44.62s-.57,4.43-.52,5.82A9,9,0,0,1,67,98.07a11.81,11.81,0,0,0-3,5.67A3.07,3.07,0,0,0,64,104.16Z"/><path class="cls-7" d="M94.28,101.32c0-.19,0-.39,0-.59a37.7,37.7,0,0,0-.33-4.51A1.64,1.64,0,0,0,93.42,95a1.6,1.6,0,0,0-.89-.2l-4.69-.12c-1.73,0-3-.65-2.93,1.37a.67.67,0,0,0,.09.38.69.69,0,0,0,.46.22,5.17,5.17,0,0,1,3.42,2.62,5.25,5.25,0,0,0-2.68-1.12c-.81-.09-1.87.22-1.92,1,0,.55.41,1,.8,1.37a21.2,21.2,0,0,1,4.75,6.69,7.12,7.12,0,0,0,3.09-1.43,2.12,2.12,0,0,0,.79-1,2.44,2.44,0,0,0,0-1.14,11.47,11.47,0,0,0-3-5.65A9.1,9.1,0,0,1,94.28,101.32Z"/><path class="cls-3" d="M80.78,52.28a2.62,2.62,0,0,0-.14-.9H77.11a2.62,2.62,0,0,0-.14.9h3.81Z"/><path class="cls-4" d="M113.27,61h0Z"/><path class="cls-6" d="M78.87,28a106,106,0,0,1,16.55,1.11,58.29,58.29,0,0,1,10.31,2.52c-.44-1.17-.94-2.67-1.37-4.3a38.21,38.21,0,0,0-16.77-7,59.89,59.89,0,0,0-17.43,0,38.21,38.21,0,0,0-16.77,7c-.43,1.63-.93,3.13-1.37,4.3a58.29,58.29,0,0,1,10.31-2.52A106,106,0,0,1,78.87,28Z"/><path class="cls-6" d="M52.6,40.26C60.05,37.64,68,35,75.71,36.47a18.71,18.71,0,0,0,2.86.46,18.46,18.46,0,0,0,3.83-.51c7.9-1.39,15.86,1.38,23.4,4.1,2.14.77,4.39,1.63,5.82,3.4,2.63,3.29,1.39,8.18,2.75,12.16,2.61-3.86,5.33-8.58,3.6-12.9a11.33,11.33,0,0,0-3.66-4.42c-5.5-4.36-12.54-6.28-19.48-7.36a106.65,106.65,0,0,0-30.9-.12C55.43,32.47,36.17,36.85,39.69,49a27.1,27.1,0,0,0,3.67,7.08,16.29,16.29,0,0,0,.79-4.74c.16-2.44.23-4.88,1.56-6.87C47.23,42.22,50,41.17,52.6,40.26Z"/><path class="cls-4" d="M49.37,55.25c-.24-1.56-.36-3.47.92-4.4a5,5,0,0,0,.78-.56,3.7,3.7,0,0,0,.55-1.15,3.27,3.27,0,0,1,2.17-1.91,2.5,2.5,0,0,0,1-.35,1.88,1.88,0,0,0,.52-1A21,21,0,0,1,57.6,41a6.8,6.8,0,0,0-3.86.9c-1.57,1.14-1.89,3.37-3.19,4.81.33-1.33.67-2.65,1-4-4.41,1-5,4.51-5.33,8.47a46.73,46.73,0,0,1-1.85,9.72,11.27,11.27,0,0,0,3.83-.4,11.14,11.14,0,0,0,2.49-1A10.3,10.3,0,0,1,49.37,55.25Z"/><path class="cls-4" d="M44.48,61h0Z"/><path class="cls-4" d="M110.23,45.25a7.12,7.12,0,0,0-4-2.54l1,4c-1.32-1.43-1.62-3.69-3.2-4.83a4.74,4.74,0,0,0-3.54-.71,31.74,31.74,0,0,0,2.18,5,2.16,2.16,0,0,0,.53.79,3.28,3.28,0,0,0,1,.41,3.2,3.2,0,0,1,2,2,2.24,2.24,0,0,0,.4,1,3.31,3.31,0,0,0,.78.49c1.21.73,1.18,2.46,1,3.86a11,11,0,0,1-1.37,4.79,11.19,11.19,0,0,0,6.22,1.44h.09a49.2,49.2,0,0,1-1.91-10.41C111.33,48.68,111.26,46.75,110.23,45.25Z"/><path class="cls-6" d="M69.85,18a41.66,41.66,0,0,1,9-.6,41.72,41.72,0,0,1,9,.6,43.87,43.87,0,0,1,8.8,2.42,37.45,37.45,0,0,1,6.77,3.45c-1.12-3.73-3-7.58-6.86-9.35a44.8,44.8,0,0,0-35.47,0c-3.84,1.77-5.74,5.62-6.86,9.35A37.69,37.69,0,0,1,61,20.42,44.15,44.15,0,0,1,69.85,18Z"/><path class="cls-6" d="M50.86,64.54a23.68,23.68,0,0,0,1-3.16c-.26.15-.53.29-.82.43a13.16,13.16,0,0,1-2.1.77C49.54,63.2,50.21,63.92,50.86,64.54Z"/><path class="cls-1" d="M83.57,101.56a1.44,1.44,0,0,0-.6-.44,1.56,1.56,0,0,0-.82.1,11.37,11.37,0,0,1-3.85.46c-.93,0-2.73-.87-3.54-.6-1.82.6-3.87,4.55-4.75,6.11l8.86,11.57.48-.62,8.4-11A30.68,30.68,0,0,0,83.57,101.56Z"/><path class="cls-6" d="M105.46,96.42a87.74,87.74,0,0,0,4-8.53,11.33,11.33,0,0,0,1-5.45,4.65,4.65,0,0,0-3.35-4c-1.51,3.35-3.22,7-6.21,9.26C99,89,98,89,97.21,91.24a17.2,17.2,0,0,0-1,6.08c0,1.62.28,3.31-.35,4.81a11.72,11.72,0,0,0-.55,1.26,15,15,0,0,0-.18,1.5c-.39,2.58-3.32,4-5.93,4.17l-7,9.15c-1.37,1.78-2.83,4-2.08,6.13l24.88-.29a73.41,73.41,0,0,1,.43-23.71,42.88,42.88,0,0,0-5.74,14.88c-.15-4.88,1.47-9.65,3.5-14.09C103.89,99.55,104.68,98,105.46,96.42Z"/><path class="cls-6" d="M129.18,113.46c-3-2.95-6.18-6-7.13-10.06a34.08,34.08,0,0,0,9.55,10c-.7-4.67-1.42-9.42-3.55-13.64a30.14,30.14,0,0,0-6.82-8.54c-2.27-2-5.46-5.28-8.35-6.27-1.23,3.71-3.18,7.12-4.45,10.82a29.65,29.65,0,0,0-1.15,5,72.58,72.58,0,0,0-.62,18.33,21.82,21.82,0,0,1,6.5-9.41A22.36,22.36,0,0,0,107.53,124h27.79C135.12,119.85,132.14,116.4,129.18,113.46Z"/><path class="cls-6" d="M68.53,109.07c-2.65-.23-5.67-1.68-6-4.33a8.23,8.23,0,0,0-.14-1.42,9.16,9.16,0,0,0-.63-1.3,7.93,7.93,0,0,1-.26-3.73,18.4,18.4,0,0,0-1.91-9.17c-.33-.66-3.24-1.82-4-2.57a18.23,18.23,0,0,1-2.86-4c-.48-.88-1.38-4-2.37-4-1.28-.12-3,2.92-3.19,3.91a6.83,6.83,0,0,0,.38,3.25c1.54,5,4.21,9.65,6.47,14.42s4.16,9.87,4,15.14a42.88,42.88,0,0,0-5.74-14.88,73.41,73.41,0,0,1,.43,23.71l24.88.29c.74-2.15-.72-4.37-2.1-6.16Z"/><path class="cls-6" d="M49.33,95.84c-1.23-3.59-3-7.5-4.53-10.9-6,3.1-12.42,9.23-15.37,15.34-2,4.08-2.63,8.65-3.26,13.14a34.36,34.36,0,0,0,9.53-10c-1,4.06-4.18,7.11-7.13,10.06s-5.94,6.39-6.14,10.56H50.22a22.26,22.26,0,0,0-5.64-14.35,21.45,21.45,0,0,1,6.51,9.4q.28-3,.31-6a74.64,74.64,0,0,0-.88-12A31.51,31.51,0,0,0,49.33,95.84Z"/><path class="cls-3" d="M106.83,52.81a.88.88,0,0,0-.48-.65c0,.77-.12,1.67-.25,2.6a17.86,17.86,0,0,1-.72,3.23,1.2,1.2,0,0,0,.7-.09A25.53,25.53,0,0,0,106.83,52.81Z"/><path d="M137.8,125h0v-.19l0-.19,0-.36-.12-.71-.06-.36-.07-.35-.08-.35-.08-.35-.18-.7c0-.12-.07-.23-.1-.35s-.07-.23-.11-.34-.14-.47-.22-.7-.17-.45-.26-.68-.08-.23-.13-.34l-.15-.34-.15-.33-.16-.33-.08-.17-.09-.16-.18-.33-.19-.33-.2-.32a2.82,2.82,0,0,0-.21-.31c-.07-.1-.14-.21-.22-.31l-.23-.31-.24-.28c-1-8.7-2.72-14.86-5.47-19.38-2.52-4.13-5.56-6.34-8.51-8.47A41,41,0,0,1,113,81.35h0l0,0v0s0-.09,0,0v0l-.05-.12,0-.12a.37.37,0,0,0,0-.11c0-.08-.07-.15-.11-.22-.15-.28-.31-.52-.47-.76s-.32-.44-.48-.63c-.33-.4-.65-.74-1-1.06-.61-.62-1.18-1.12-1.64-1.52s-.62-.51-.85-.69a12.78,12.78,0,0,0-.4-9.2,38.49,38.49,0,0,0,3.51-3.69l.44,0,.39,0H113a4.79,4.79,0,0,0,.49,0,2.94,2.94,0,0,0,.57-.14,2.08,2.08,0,0,0,.66-.39,1.85,1.85,0,0,0,.5-.68,2.42,2.42,0,0,0,.19-.68,3.48,3.48,0,0,0,0-1.07,5.82,5.82,0,0,0-.19-.89l0-.11A40.78,40.78,0,0,0,119,52.74a19.85,19.85,0,0,0,1.86-6.07,7.71,7.71,0,0,0-1.47-5.93,28.34,28.34,0,0,0-10.71-8,45,45,0,0,1-2.31-6.94,29.86,29.86,0,0,0-2.5-7.16,13.67,13.67,0,0,0-6.28-6.22A47.91,47.91,0,0,0,78.91,8.57h-.07a47.91,47.91,0,0,0-18.66,3.88,13.63,13.63,0,0,0-6.28,6.22,29.43,29.43,0,0,0-2.5,7.16,45,45,0,0,1-2.31,6.94,28.34,28.34,0,0,0-10.71,8,7.71,7.71,0,0,0-1.47,5.93,19.85,19.85,0,0,0,1.86,6.07,40.78,40.78,0,0,0,3.81,6.39l0,.11a7.29,7.29,0,0,0-.2.89c0,.16,0,.32-.05.5a3.79,3.79,0,0,0,0,.57,2.42,2.42,0,0,0,.19.68,1.85,1.85,0,0,0,.5.68,2.08,2.08,0,0,0,.66.39,2.94,2.94,0,0,0,.57.14,4.79,4.79,0,0,0,.49,0h.83l.39,0,.44,0a38.49,38.49,0,0,0,3.51,3.69,12.78,12.78,0,0,0-.4,9.2c-.23.18-.52.41-.85.69s-1,.9-1.64,1.52c-.3.32-.62.66-.95,1.06-.16.19-.32.41-.48.63s-.32.48-.47.76l-.11.22A.37.37,0,0,0,45,81l-.05.12,0,.12v0s0,.06,0,0v0l0,0h0a41.46,41.46,0,0,1-7.27,6.35c-3,2.13-6,4.34-8.51,8.47-2.75,4.52-4.49,10.68-5.47,19.38l-.24.28-.23.31c-.08.1-.15.21-.22.31a2.82,2.82,0,0,0-.21.31l-.2.32-.19.33c-.07.11-.12.22-.18.33l-.09.16-.08.17-.16.33-.15.33-.15.34c-.05.11-.09.23-.13.34s-.18.46-.26.68-.15.46-.22.7-.07.23-.11.34-.07.23-.1.35l-.18.7-.08.35-.08.35-.07.35-.06.36-.12.71,0,.36,0,.19V125h0l-.14,1.27H137.94ZM110.62,82.18Zm-3.73-17.64a23.68,23.68,0,0,1-1-3.16c.26.15.53.29.82.43a13.16,13.16,0,0,0,2.1.77C108.21,63.2,107.54,63.92,106.89,64.54Zm-3.06,12.63c-.35,3.72-2.26,7.53-5.65,9.11a20.11,20.11,0,0,0-1.89-10,3.75,3.75,0,0,1-.38-1,4.42,4.42,0,0,1,0-1.09A11.62,11.62,0,0,0,89.87,63a12.61,12.61,0,0,1-1.64,12.51c-2.5-2.45-5.19-5-8.61-5.77-.23-.06,0-6.11,0-6.71,0-2.55,1.61-1.88,3.6-2.37a3.36,3.36,0,0,0,2.47-3.21c1.85,1.43,3.2,3.45,5.16,4.72,3.72,2.43,8.85,1.55,12.55-.9.57,2.53,1.83,4.86,2.6,7.35s1,5.34-.35,7.55a23.45,23.45,0,0,0-3.33-10l0-.07C103.24,69.73,104.18,73.44,103.83,77.17ZM93.69,103.73a2.44,2.44,0,0,1,0,1.14,2.12,2.12,0,0,1-.79,1,7.12,7.12,0,0,1-3.09,1.43,21.2,21.2,0,0,0-4.75-6.69c-.39-.37-.84-.82-.8-1.37,0-.82,1.11-1.13,1.92-1a5.25,5.25,0,0,1,2.68,1.12,5.17,5.17,0,0,0-3.42-2.62.69.69,0,0,1-.46-.22.67.67,0,0,1-.09-.38c0-2,1.2-1.41,2.93-1.37l4.69.12a1.6,1.6,0,0,1,.89.2,1.64,1.64,0,0,1,.52,1.18,37.7,37.7,0,0,1,.33,4.51c0,.2,0,.4,0,.59a9.1,9.1,0,0,0-3.56-3.24A11.47,11.47,0,0,1,93.69,103.73ZM82.61,93.17a13.47,13.47,0,0,1-3.74.54,14.15,14.15,0,0,1-12.1-7.1A12.55,12.55,0,0,0,68.58,91a11.68,11.68,0,0,1-4.72-4.24c-1.08-1.58-2-3.55-1.36-5.36a6.91,6.91,0,0,0,6.82.82,6.13,6.13,0,0,1-5.22-1.54,3.2,3.2,0,0,1-.95-1.45c-.08-.33-.11-1.42.36-1.54.28-.08,1.34.58,1.73.65a6,6,0,0,0,3.83-.77,27.73,27.73,0,0,0,4.53-3.73,8,8,0,0,1,5.24-2.37,6.57,6.57,0,0,1,3.11,1,24.35,24.35,0,0,1,3.7,3,12,12,0,0,0,4,2.62,4.93,4.93,0,0,0,4.57-.53,1.94,1.94,0,0,1,.27,2,3.55,3.55,0,0,1-1.34,1.58,6.48,6.48,0,0,1-4.7,1.09,6.91,6.91,0,0,0,6.82-.83C95.84,83.11,95,85,94,86.57A11.73,11.73,0,0,1,89.17,91,12.75,12.75,0,0,0,91,86.61,14.13,14.13,0,0,1,82.61,93.17Zm-.73,5.7,0,0a9.28,9.28,0,0,1-5.95,0l0,0c-.68-.74-.79-2.27-.74-3.42l.26.07.32.06.31.07.15,0,.15,0c.4,0,.76.11,1.08.12a6.42,6.42,0,0,0,.83,0h1.29a6.42,6.42,0,0,0,.83,0c.32,0,.68-.07,1.08-.12l.15,0,.15,0,.31-.07.32-.06.26-.07C82.67,96.6,82.56,98.13,81.88,98.87Zm-18.39,2.44c-.05-1.39-.35-4.65.52-5.82s3-.69,4.44-.62a13.22,13.22,0,0,0,3.6-.35c.27-.06.62-.1.77.13a.64.64,0,0,1,.05.36l0,1.07a.72.72,0,0,1-.11.41.69.69,0,0,1-.44.2,5.12,5.12,0,0,0-3.42,2.63,5.2,5.2,0,0,1,2.66-1.13c.81-.1,1.88.22,1.94,1,0,.56-.42,1-.83,1.41a19.8,19.8,0,0,0-4.41,6c-.12.24-.26.52-.53.57a.84.84,0,0,1-.44-.07,9.64,9.64,0,0,1-2.45-1.36,2.21,2.21,0,0,1-.75-.86,1.71,1.71,0,0,1-.07-.81,3.07,3.07,0,0,1,.07-.42,11.81,11.81,0,0,1,3-5.67A9,9,0,0,0,63.49,101.31ZM59.65,82.55a20.22,20.22,0,0,0-.08,3.73c-3.39-1.58-5.3-5.39-5.65-9.11s.59-7.44,1.53-11.07a23.48,23.48,0,0,0-3.37,10c-1.39-2.21-1.13-5.09-.34-7.58a57.32,57.32,0,0,1,2.62-7.21c2.14.95,4,2,6.4,2.23a9.82,9.82,0,0,0,6.6-1.75c1.63-1.19,2.79-2.94,4.39-4.16a3.15,3.15,0,0,0,1.94,2.77c1.4.55,3.24.12,4.24,1.24q0,4,0,8c-3.36.7-6,3.18-8.52,5.55A12.33,12.33,0,0,1,67.89,63a11.59,11.59,0,0,0-6.07,11.2,2.68,2.68,0,0,1-.33,2A20.13,20.13,0,0,0,59.65,82.55Zm.17,3.79ZM51.67,57.9a24.81,24.81,0,0,1-.75-5.09.88.88,0,0,1,.48-.65c0,.77.12,1.67.25,2.6A17.86,17.86,0,0,0,52.37,58,1.2,1.2,0,0,1,51.67,57.9Zm31-.18-.1,0a1.26,1.26,0,0,0-.37,0,2,2,0,0,0-.55.16,4.43,4.43,0,0,0-.65.33,3.85,3.85,0,0,0-.69.57l-.09.1-.09.1-.07.09,0,0v0h0s0,0,0,0h0a3.08,3.08,0,0,1-.24.27,2.87,2.87,0,0,1-.54.45A1.16,1.16,0,0,1,79,60l0,0h-.17a.78.78,0,0,1-.43-.08,2.26,2.26,0,0,1-.26-.14,2.75,2.75,0,0,1-.26-.22l-.07-.06-.06-.07-.13-.12,0,0,0,0-.07-.08-.06-.09h0v0l0,0,0-.05a2.45,2.45,0,0,0-.72-.63,2.64,2.64,0,0,0-.7-.31,2.69,2.69,0,0,0-.55-.1h-.49l.09.08c.07.06.16.13.26.23a3.84,3.84,0,0,1,.35.35,4.31,4.31,0,0,1,.32.4,4.24,4.24,0,0,1-.61,0C74,59,73.67,58.39,73.55,58a1.79,1.79,0,0,1,.22-1.47,13.19,13.19,0,0,1,5.1-.89,13.89,13.89,0,0,1,4.69.73A1.85,1.85,0,0,1,83.89,58c-.3,1-1.44,1.18-2.29,1.15l.11-.19c.12-.19.25-.37.36-.52l.16-.21.15-.17.14-.13,0,0,.06,0,.1-.07ZM77,52.28a2.62,2.62,0,0,1,.14-.9h3.53a2.62,2.62,0,0,1,.14.9H77Zm5.19,1.32a2.22,2.22,0,0,0,.33-1.34,4.32,4.32,0,0,0-.24-1.46,1.79,1.79,0,0,0-.65-.89,2.9,2.9,0,0,0,1-.56,3.08,3.08,0,0,0,.26-.28c.31-.36,1.25-1.43,10.31-1.14,9.25.34,10.75,1.81,10.91,2a26.75,26.75,0,0,1-.24,4.5c-.34,2.43-1,4.19-1.83,4.93a8.83,8.83,0,0,1-5.24,1.89,7.71,7.71,0,0,1-5-1.19,14.17,14.17,0,0,1-1.69-1.69C88.39,56.56,86.4,54.37,82.16,53.6Zm11.09-8a40.9,40.9,0,0,0-9.29.44,4.54,4.54,0,0,0-2.82,1.49l-.09.09h0a1.48,1.48,0,0,1-.66.17c-.41.05-2.62.05-3,0a1.48,1.48,0,0,1-.66-.17h0l-.09-.09a4.54,4.54,0,0,0-2.82-1.49,40.9,40.9,0,0,0-9.29-.44,58.47,58.47,0,0,0-6.93.62,15.58,15.58,0,0,1,2.68-4.94c1.54-1.72,3.62-2.77,9.67-3,5.41-.26,8.27,1.41,8.4,1.48l.55.38.56-.38s2.9-1.75,8.4-1.48c6,.28,8.13,1.33,9.67,3a16,16,0,0,1,2.68,4.94A58.47,58.47,0,0,0,93.25,45.64ZM64.58,47.93c9.06-.29,10,.78,10.31,1.14a3.08,3.08,0,0,0,.26.28,2.9,2.9,0,0,0,1,.56,1.79,1.79,0,0,0-.65.89,4.32,4.32,0,0,0-.24,1.46,2.22,2.22,0,0,0,.33,1.34c-4.24.77-6.23,3-7.89,4.78A14.17,14.17,0,0,1,66,60.07a7.71,7.71,0,0,1-5,1.19,8.83,8.83,0,0,1-5.24-1.89c-.84-.74-1.49-2.5-1.83-4.93a26.75,26.75,0,0,1-.24-4.5C53.83,49.74,55.33,48.27,64.58,47.93Zm2.31,26.38c.64,1.11.87,1.58.68,2.12a2.79,2.79,0,0,1-1.27.27,2.6,2.6,0,0,1-2.73-2.62v0A8.56,8.56,0,0,1,64.93,68l.21-.31A10.82,10.82,0,0,0,66.89,74.31Zm-5,13.38a.72.72,0,0,1,.09-.27c.47.23.93,1.12,1.32,1.53A12,12,0,0,0,65,90.45a12.55,12.55,0,0,0,4,2c.45.13.91.24,1.34.41a15.71,15.71,0,0,1-3.49-.16,6.46,6.46,0,0,0-3.44.39L62,88.69A2.46,2.46,0,0,1,61.86,87.69Zm30.75-20,.21.31a8.56,8.56,0,0,1,1.37,6.09v0a2.6,2.6,0,0,1-2.73,2.62,2.79,2.79,0,0,1-1.27-.27c-.19-.54,0-1,.68-2.12A10.82,10.82,0,0,0,92.61,67.65Zm-1.68,25c-.86.08-2.55.58-3.3.15.31-.32,1.17-.39,1.64-.54a12.84,12.84,0,0,0,6.49-4.93c.22.19.16.55.08.84q-.66,2.46-1.47,4.86A6.69,6.69,0,0,0,90.93,92.69ZM105.38,58a17.86,17.86,0,0,0,.72-3.23c.13-.93.21-1.83.25-2.6a.88.88,0,0,1,.48.65,25.53,25.53,0,0,1-.75,5.09A1.2,1.2,0,0,1,105.38,58Zm7.89,3h0Zm0-.09a11.19,11.19,0,0,1-6.22-1.44,11,11,0,0,0,1.37-4.79c.17-1.4.2-3.13-1-3.86a3.31,3.31,0,0,1-.78-.49,2.24,2.24,0,0,1-.4-1,3.2,3.2,0,0,0-2-2,3.28,3.28,0,0,1-1-.41,2.16,2.16,0,0,1-.53-.79,31.74,31.74,0,0,1-2.18-5,4.74,4.74,0,0,1,3.54.71c1.58,1.14,1.88,3.4,3.2,4.83l-1-4a7.12,7.12,0,0,1,4,2.54c1,1.5,1.1,3.43,1.23,5.24a49.2,49.2,0,0,0,1.91,10.41ZM61.14,14.52a44.8,44.8,0,0,1,35.47,0c3.84,1.77,5.74,5.62,6.86,9.35a37.45,37.45,0,0,0-6.77-3.45A43.87,43.87,0,0,0,87.9,18a41.72,41.72,0,0,0-9-.6,41.66,41.66,0,0,0-9,.6A44.15,44.15,0,0,0,61,20.42a37.69,37.69,0,0,0-6.76,3.45C55.4,20.14,57.3,16.29,61.14,14.52ZM53.39,27.3a38.21,38.21,0,0,1,16.77-7,59.89,59.89,0,0,1,17.43,0,38.21,38.21,0,0,1,16.77,7c.43,1.63.93,3.13,1.37,4.3a58.29,58.29,0,0,0-10.31-2.52A106,106,0,0,0,78.87,28a106,106,0,0,0-16.54,1.11A58.29,58.29,0,0,0,52,31.6C52.46,30.43,53,28.93,53.39,27.3ZM44.15,51.38a16.29,16.29,0,0,1-.79,4.74A27.1,27.1,0,0,1,39.69,49C36.17,36.85,55.43,32.47,63.93,31.28a106.65,106.65,0,0,1,30.9.12c6.94,1.08,14,3,19.48,7.36A11.33,11.33,0,0,1,118,43.18c1.73,4.32-1,9-3.6,12.9-1.36-4-.12-8.87-2.75-12.16-1.43-1.77-3.68-2.63-5.82-3.4C98.26,37.8,90.3,35,82.4,36.42a18.46,18.46,0,0,1-3.83.51,18.71,18.71,0,0,1-2.86-.46C68,35,60.05,37.64,52.6,40.26c-2.6.91-5.37,2-6.89,4.25C44.38,46.5,44.31,48.94,44.15,51.38Zm.33,9.6h0Zm3.72-.48a11.27,11.27,0,0,1-3.83.4,46.73,46.73,0,0,0,1.85-9.72c.33-4,.92-7.43,5.33-8.47-.33,1.33-.67,2.65-1,4,1.3-1.44,1.62-3.67,3.19-4.81A6.8,6.8,0,0,1,57.6,41a21,21,0,0,0-2.31,4.94,1.88,1.88,0,0,1-.52,1,2.5,2.5,0,0,1-1,.35,3.27,3.27,0,0,0-2.17,1.91,3.7,3.7,0,0,1-.55,1.15,5,5,0,0,1-.78.56c-1.28.93-1.16,2.84-.92,4.4a10.3,10.3,0,0,0,1.32,4.2A11.14,11.14,0,0,1,48.2,60.5ZM49,62.58a13.16,13.16,0,0,0,2.1-.77c.29-.14.56-.28.82-.43a23.68,23.68,0,0,1-1,3.16C50.21,63.92,49.54,63.2,49,62.58Zm-1.86,19.6Zm4.27,30.87q0,3-.31,6a21.45,21.45,0,0,0-6.51-9.4A22.26,22.26,0,0,1,50.22,124H22.43c.2-4.17,3.18-7.62,6.14-10.56s6.18-6,7.13-10.06a34.36,34.36,0,0,1-9.53,10c.63-4.49,1.29-9.06,3.26-13.14,3-6.11,9.36-12.24,15.37-15.34,1.57,3.4,3.3,7.31,4.53,10.9A31.51,31.51,0,0,1,50.52,101,74.64,74.64,0,0,1,51.4,113.05Zm26.26,11.29-24.88-.29a73.41,73.41,0,0,0-.43-23.71,42.88,42.88,0,0,1,5.74,14.88c.16-5.27-1.74-10.38-4-15.14s-4.93-9.37-6.47-14.42a6.83,6.83,0,0,1-.38-3.25c.2-1,1.91-4,3.19-3.91,1,.09,1.89,3.17,2.37,4a18.23,18.23,0,0,0,2.86,4c.74.75,3.65,1.91,4,2.57a18.4,18.4,0,0,1,1.91,9.17,7.93,7.93,0,0,0,.26,3.73,9.16,9.16,0,0,1,.63,1.3,8.23,8.23,0,0,1,.14,1.42c.28,2.65,3.3,4.1,6,4.33l7,9.11C76.94,120,78.4,122.19,77.66,124.34Zm1.21-5.58L70,107.19c.88-1.56,2.93-5.51,4.75-6.11.81-.27,2.61.56,3.54.6a11.37,11.37,0,0,0,3.85-.46,1.56,1.56,0,0,1,.82-.1,1.44,1.44,0,0,1,.6.44,30.68,30.68,0,0,1,4.18,5.63l-8.4,11Zm20.79-3.54a42.88,42.88,0,0,1,5.74-14.88,73.41,73.41,0,0,0-.43,23.71l-24.88.29c-.75-2.13.71-4.35,2.08-6.13l7-9.15c2.61-.2,5.54-1.59,5.93-4.17a15,15,0,0,1,.18-1.5,11.72,11.72,0,0,1,.55-1.26c.63-1.5.38-3.19.35-4.81a17.2,17.2,0,0,1,1-6.08C98,89,99,89,100.82,87.66c3-2.28,4.7-5.91,6.21-9.26a4.65,4.65,0,0,1,3.35,4,11.33,11.33,0,0,1-1,5.45,87.74,87.74,0,0,1-4,8.53c-.78,1.56-1.57,3.13-2.3,4.71C101.13,105.57,99.51,110.34,99.66,115.22Zm7.87,8.81h0a22.36,22.36,0,0,1,5.63-14.35,21.82,21.82,0,0,0-6.5,9.41,72.58,72.58,0,0,1,.62-18.33,29.65,29.65,0,0,1,1.15-5c1.27-3.7,3.22-7.11,4.45-10.82,2.89,1,6.08,4.23,8.35,6.27a30.14,30.14,0,0,1,6.82,8.54c2.13,4.22,2.85,9,3.55,13.64a34.08,34.08,0,0,1-9.55-10c1,4.06,4.18,7.11,7.13,10.06s5.94,6.39,6.14,10.56Z"/><polygon points="47.13 82.18 47.13 82.18 47.13 82.18 47.13 82.18 47.13 82.18"/><polygon points="110.62 82.18 110.62 82.18 110.62 82.18 110.62 82.18 110.62 82.18"/><path class="cls-8" d="M52.11,80.92c-.47-1.13-1.06-2.36-1.68-2.42-1.28-.12-3,2.92-3.19,3.91a6.83,6.83,0,0,0,.38,3.25l.21.65A12.56,12.56,0,0,1,52.11,80.92Z"/><path class="cls-9" d="M75.56,118.18l-7-9.11c-2.65-.23-5.67-1.68-6-4.33a8.23,8.23,0,0,0-.14-1.42,9.16,9.16,0,0,0-.63-1.3,7.93,7.93,0,0,1-.26-3.73,18.4,18.4,0,0,0-1.91-9.17c-.33-.66-3.24-1.82-4-2.57-.19-.19-.38-.39-.56-.6a7.74,7.74,0,0,0,1.44,2.17c2.17,2.34,4.23,5.63,3.6,9.31-.63,3.5-.11,5,.58,5.73s1.57,5.09,1.13,7.49c1.78-1.89,3.55-1.2,4.87-.46,1.83,1.09,5.49,9.09,2.4,11.55s-13.21,2.3-13.67-8.69c1.15,1.83,2.64,4.46,2.64,4.46,1.94-5-.29-14.15-5.59-20.67q.81,1.6,1.59,3.24c2.26,4.76,4.16,9.87,4,15.14a42.88,42.88,0,0,0-5.74-14.88,73.41,73.41,0,0,1,.43,23.71l24.88.29C78.4,122.19,76.94,120,75.56,118.18Z"/><path class="cls-8" d="M46.43,88.54c-.55-1.23-1.1-2.45-1.63-3.6-6,3.1-12.42,9.23-15.37,15.34-2,4.08-2.63,8.65-3.26,13.14a34,34,0,0,0,4.45-3.69C31.43,105.25,37.4,90.77,46.43,88.54Z"/><path class="cls-8" d="M35.7,103.4c-1,4.06-4.18,7.11-7.13,10.06s-5.94,6.39-6.14,10.56h4.92a12,12,0,0,1,2.71-7.08C33.5,112.48,35.51,107.47,35.7,103.4Z"/><path class="cls-9" d="M44.53,121.23A10,10,0,0,1,39.81,124H50.22a22.26,22.26,0,0,0-5.64-14.35C46.42,113.17,46.88,118.2,44.53,121.23Z"/><path class="cls-9" d="M48.2,113.55a21.45,21.45,0,0,1,2.89,5.53q.28-3,.31-6a74.64,74.64,0,0,0-.88-12,31.51,31.51,0,0,0-1.19-5.17c-.36-1.06-.77-2.16-1.21-3.26C49.49,99.11,49.87,107,48.2,113.55Z"/><path class="cls-10" d="M71.53,98.19a5.2,5.2,0,0,0-2.66,1.13c3.67-1.32,2.68,1.21,2,1.54A7,7,0,0,0,69,102.62c-.6.71-.92,1.34-2.35.85s-.23-4.37.36-5.4a11.81,11.81,0,0,0-3,5.67,3.07,3.07,0,0,0-.07.42,1.71,1.71,0,0,0,.07.81,2.21,2.21,0,0,0,.75.86,9.64,9.64,0,0,0,2.45,1.36.84.84,0,0,0,.44.07c.27-.05.41-.33.53-.57a19.8,19.8,0,0,1,4.41-6c.41-.39.88-.85.83-1.41C73.41,98.41,72.34,98.09,71.53,98.19Z"/><path class="cls-11" d="M66.43,95.81c1.81.15,4.46-.8,5.74-1.31l-.12,0a13.22,13.22,0,0,1-3.6.35c-1.45-.07-3.52-.64-4.44.62s-.57,4.43-.52,5.82a8.55,8.55,0,0,1,1.11-1.43C64.53,98.37,64.15,95.62,66.43,95.81Z"/><path class="cls-11" d="M91.31,95.81c2.28-.19,1.91,2.55,1.84,4.07a9.31,9.31,0,0,1,1.13,1.44c0-.19,0-.39,0-.59a37.7,37.7,0,0,0-.33-4.51A1.64,1.64,0,0,0,93.42,95a1.6,1.6,0,0,0-.89-.2l-4.69-.12c-.78,0-1.47-.16-2-.11A14.48,14.48,0,0,0,91.31,95.81Z"/><path class="cls-10" d="M90.73,98.08h0c.59,1,1.79,4.92.36,5.4s-1.74-.14-2.34-.85a6.85,6.85,0,0,0-1.89-1.76c-.66-.33-1.65-2.86,2-1.54l0,0a5.24,5.24,0,0,0-2.64-1.09c-.81-.09-1.87.22-1.92,1,0,.55.41,1,.8,1.37a21.2,21.2,0,0,1,4.75,6.69,7.12,7.12,0,0,0,3.09-1.43,2.12,2.12,0,0,0,.79-1,2.44,2.44,0,0,0,0-1.14A11.58,11.58,0,0,0,90.73,98.08Z"/><path class="cls-12" d="M67.23,78.65A12,12,0,0,0,74,75.19a6.53,6.53,0,0,1,4.55-1.62h.64a6.55,6.55,0,0,1,4.55,1.62,12,12,0,0,0,6.77,3.46c2.23.25,3.27-.53,3.71-1.07l0,0a4.93,4.93,0,0,1-4.57.53,12,12,0,0,1-4-2.62,24.35,24.35,0,0,0-3.7-3,6.57,6.57,0,0,0-3.11-1,8,8,0,0,0-5.24,2.37,27.73,27.73,0,0,1-4.53,3.73,6,6,0,0,1-3.83.77c-.37-.06-1.34-.66-1.68-.66C64,78.17,65.07,78.9,67.23,78.65Z"/><path class="cls-13" d="M95.25,81.35a6.66,6.66,0,0,1-1.86,1,5.25,5.25,0,0,1-1.71,5.28,4.93,4.93,0,0,0-.18-3.2c-.84,2.1-4.18,5.44-12.3,5.44h-.64c-8.12,0-11.46-3.34-12.3-5.44a5,5,0,0,0-.19,3.2,5.24,5.24,0,0,1-1.7-5.28,6.58,6.58,0,0,1-1.87-1c-.6,1.81.28,3.78,1.36,5.36A11.68,11.68,0,0,0,68.58,91a12.55,12.55,0,0,1-1.81-4.34,14.15,14.15,0,0,0,12.1,7.1,13.47,13.47,0,0,0,3.74-.54A14.13,14.13,0,0,0,91,86.61,12.75,12.75,0,0,1,89.17,91,11.73,11.73,0,0,0,94,86.57C95,85,95.84,83.11,95.25,81.35Z"/><path class="cls-1" d="M54.65,50.38s-1.34,11.06,6.47,10.06c-3.69-1.77-3.21-8.81-2.89-10.69C58.31,49.43,54.71,49.66,54.65,50.38Z"/><path class="cls-5" d="M66.89,74.31a10.82,10.82,0,0,1-1.75-6.66,11.11,11.11,0,0,0,.53,7.26c.35,1,.31,1.49,0,1.73a3.16,3.16,0,0,0,1.89-.21C67.76,75.89,67.53,75.42,66.89,74.31Z"/><path class="cls-9" d="M99.67,117.51s1.49-2.63,2.63-4.46c-.45,11-10.58,11.15-13.66,8.69s.57-10.46,2.4-11.55c1.31-.74,3.09-1.43,4.87.46-.44-2.4.45-6.75,1.13-7.49s1.2-2.23.57-5.73c-.62-3.68,1.43-7,3.61-9.31a7.87,7.87,0,0,0,1.45-2.19,12.64,12.64,0,0,1-1.85,1.73C99,89,98,89,97.21,91.24a17.2,17.2,0,0,0-1,6.08c0,1.62.28,3.31-.35,4.81a11.72,11.72,0,0,0-.55,1.26,15,15,0,0,0-.18,1.5c-.39,2.58-3.32,4-5.93,4.17l-7,9.15c-1.37,1.78-2.83,4-2.08,6.13l24.88-.29a73.41,73.41,0,0,1,.43-23.71,42.88,42.88,0,0,0-5.74,14.88c-.15-4.88,1.47-9.65,3.5-14.09.66-1.44,1.37-2.86,2.09-4.27C100,103.38,97.73,112.48,99.67,117.51Z"/><path class="cls-8" d="M109.94,86.34a9.1,9.1,0,0,0,.44-3.9,4.65,4.65,0,0,0-3.35-4c-.39.86-.79,1.74-1.23,2.62A12.71,12.71,0,0,1,109.94,86.34Z"/><path class="cls-6" d="M122.05,103.4v0Z"/><path class="cls-9" d="M113.23,121.23c-2.35-3-1.89-8.06-.06-11.55l-.15.15A22.39,22.39,0,0,0,107.53,124h10.41A10,10,0,0,1,113.23,121.23Z"/><path class="cls-8" d="M127.14,109.75a34.87,34.87,0,0,0,4.46,3.68c-.7-4.67-1.42-9.42-3.55-13.64a30.14,30.14,0,0,0-6.82-8.54c-2.27-2-5.46-5.28-8.35-6.27-.4,1.23-.89,2.42-1.4,3.6C120.43,90.93,126.34,105.3,127.14,109.75Z"/><path class="cls-9" d="M109.58,92.85c-.41,1-.81,2-1.15,3a29.65,29.65,0,0,0-1.15,5,72.58,72.58,0,0,0-.62,18.33,21.48,21.48,0,0,1,2.9-5.53C107.91,107.11,108.26,99.32,109.58,92.85Z"/><path class="cls-8" d="M129.18,113.46c-3-2.94-6.17-6-7.13-10,.2,4.06,2.22,9.07,5.64,13.52A11.82,11.82,0,0,1,130.4,124h4.92C135.12,119.85,132.14,116.4,129.18,113.46Z"/><path class="cls-13" d="M75.62,62c1.76.35,1.26,5.11-.68,5.84s-3.17,2.36-5,2.24S67.65,64.44,67.89,63A12.33,12.33,0,0,0,69.4,75.24c2.48-2.37,5.16-4.85,8.52-5.55q0-4,0-8c-1-1.12-2.84-.69-4.24-1.24a3.15,3.15,0,0,1-1.94-2.77C71.08,60.76,73.87,61.7,75.62,62Z"/><path class="cls-13" d="M60.29,72c-.12,1.69-.58,3.24-2.89,3.64S55,69.25,55.45,66.1c-.94,3.63-1.88,7.34-1.53,11.07s2.26,7.53,5.65,9.11a20,20,0,0,1,1.92-10.09,2.68,2.68,0,0,0,.33-2A11.59,11.59,0,0,1,67.89,63C61.27,65.86,60.4,70.28,60.29,72Z"/><path class="cls-12" d="M51.74,68.56c-.79,2.49-1.05,5.37.34,7.58a23.48,23.48,0,0,1,3.37-10c0-.72.19-2.17.47-4l-1.56-.72A57.32,57.32,0,0,0,51.74,68.56Z"/><path class="cls-12" d="M97.5,41.32c-1.54-1.72-3.62-2.77-9.67-3-5.5-.27-8.37,1.46-8.4,1.48l-.56.38-.55-.38c-.13-.07-3-1.74-8.4-1.48-6.05.28-8.13,1.33-9.67,3a15.58,15.58,0,0,0-2.68,4.94c.93-.15,2-.28,3.11-.38,1.17-2.06,2.57-3.61,4.22-4.2,6.8-2.4,8.74.69,13.31,1h1.33c4.58-.34,6.52-3.43,13.31-1,1.66.59,3.06,2.14,4.23,4.2,1.13.1,2.17.23,3.1.38A16,16,0,0,0,97.5,41.32Z"/><path class="cls-13" d="M102.31,66.13h0v0Z"/><path class="cls-13" d="M102.31,66.12h0v0Z"/><path class="cls-12" d="M105.67,76.14c1.37-2.21,1.13-5.07.35-7.55s-2-4.82-2.6-7.35a14.21,14.21,0,0,1-1.57.9c.27,1.82.42,3.25.46,4v0l0,0A23.45,23.45,0,0,1,105.67,76.14Z"/><path class="cls-13" d="M87.78,70.12c-1.79.12-3-1.52-5-2.24s-2.44-5.49-.68-5.84,4.54-1.28,3.87-4.37h0l-.29-.24a3.36,3.36,0,0,1-2.47,3.21c-2,.49-3.59-.18-3.6,2.37,0,.6-.25,6.65,0,6.71,3.42.76,6.11,3.32,8.61,5.77A12.6,12.6,0,0,0,89.87,63h0C90.1,64.44,89.57,70,87.78,70.12Z"/><path class="cls-13" d="M100.36,75.62c-2.32-.4-2.77-2-2.89-3.64s-1-6.11-7.56-9a11.6,11.6,0,0,1,6,11.14,4.42,4.42,0,0,0,0,1.09,3.75,3.75,0,0,0,.38,1,20.11,20.11,0,0,1,1.89,10c3.39-1.58,5.3-5.39,5.65-9.11s-.58-7.4-1.52-11C102.73,69.34,102.66,76,100.36,75.62Z"/><path class="cls-1" d="M103.1,50.38s1.35,11.06-6.46,10.06c3.69-1.77,3.2-8.81,2.89-10.69C99.44,49.43,103.05,49.66,103.1,50.38Z"/><path class="cls-12" d="M53.31,43.63a5,5,0,0,1,4-2.64,6.29,6.29,0,0,0-3.53.89c-1.57,1.14-1.89,3.37-3.19,4.81A4.75,4.75,0,0,0,53.31,43.63Z"/><path class="cls-12" d="M51.17,44.24l.38-1.53c-4.41,1-5,4.51-5.33,8.47a46.73,46.73,0,0,1-1.85,9.72c1.63-2.78,3.05-6.32,3.82-12.18C48.58,46,49.54,44.58,51.17,44.24Z"/><path class="cls-13" d="M53.12,46.56c-2.23.85-2.13,2.9-3.16,3.51-2.7,1.64-1.63,6-1.33,7.6s-2,2.66-4.26,3.23a11.27,11.27,0,0,0,3.83-.4,11.14,11.14,0,0,0,2.49-1,10.3,10.3,0,0,1-1.32-4.2c-.24-1.56-.36-3.47.92-4.4a5,5,0,0,0,.78-.56,3.7,3.7,0,0,0,.55-1.15,3.27,3.27,0,0,1,2.17-1.91,2.5,2.5,0,0,0,1-.35,1.88,1.88,0,0,0,.52-1A21,21,0,0,1,57.6,41C55,42.6,54.73,46,53.12,46.56Z"/><path class="cls-13" d="M109.13,57.67c.3-1.65,1.37-6-1.34-7.6-1-.61-.92-2.66-3.16-3.51-1.53-.54-1.83-3.68-4.15-5.37a31.75,31.75,0,0,0,2.16,4.94,2.16,2.16,0,0,0,.53.79,3.28,3.28,0,0,0,1,.41,3.2,3.2,0,0,1,2,2,2.24,2.24,0,0,0,.4,1,3.31,3.31,0,0,0,.78.49c1.21.73,1.18,2.46,1,3.86a11,11,0,0,1-1.37,4.79,11.19,11.19,0,0,0,6.22,1.44h.09C111.1,60.32,108.82,59.32,109.13,57.67Z"/><path class="cls-12" d="M109.57,48.72c.76,5.81,2.16,9.34,3.78,12.11a49.81,49.81,0,0,1-1.89-10.34c-.13-1.81-.2-3.74-1.23-5.24a7.12,7.12,0,0,0-4-2.54l.39,1.53C108.21,44.57,109.17,46,109.57,48.72Z"/><path class="cls-13" d="M107.19,46.65v0h0Z"/><path class="cls-12" d="M104.45,43.63a4.72,4.72,0,0,0,2.75,3c-1.32-1.43-1.62-3.68-3.2-4.82a4.72,4.72,0,0,0-2.94-.79A5,5,0,0,1,104.45,43.63Z"/><path class="cls-5" d="M92.09,74.91a11.11,11.11,0,0,0,.53-7.24v0a10.82,10.82,0,0,1-1.75,6.66c-.64,1.11-.87,1.58-.68,2.12a2.79,2.79,0,0,0,1.27.27,3,3,0,0,0,.63-.06C91.78,76.4,91.73,75.88,92.09,74.91Z"/><path class="cls-9" d="M78.87,28a106,106,0,0,1,16.55,1.11,58.29,58.29,0,0,1,10.31,2.52h0c-2.62-1.54-10.39-6.16-26.57-6.5H78.6c-16.21.34-24,5-26.58,6.5a58.29,58.29,0,0,1,10.31-2.52A106,106,0,0,1,78.87,28Z"/><path class="cls-8" d="M54.88,27.43c1.26-1.11,9.4-5.86,23.33-6.2h1.33c13.94.34,22.08,5.09,23.34,6.2a14.31,14.31,0,0,1,2.83,4.13c-.43-1.17-.93-2.65-1.35-4.26a38.21,38.21,0,0,0-16.77-7,59.89,59.89,0,0,0-17.43,0,38.21,38.21,0,0,0-16.77,7c-.43,1.63-.93,3.13-1.37,4.3A14.4,14.4,0,0,1,54.88,27.43Z"/><path class="cls-8" d="M52.82,35.34c14.7-4,25.39-3.43,25.39-3.43h1.33s10.7-.58,25.39,3.43c16.71,5.08,11,16.18,9.53,20.61,2.58-3.84,5.22-8.5,3.51-12.77a11.33,11.33,0,0,0-3.66-4.42c-5.5-4.36-12.54-6.28-19.48-7.36a106.65,106.65,0,0,0-30.9-.12C55.43,32.47,36.17,36.85,39.69,49a27.1,27.1,0,0,0,3.67,7.08C42,51.81,35.9,40.48,52.82,35.34Z"/><path class="cls-9" d="M114.37,49.61c.09-2.92,1.26-7.84-8.63-11.37s-17.68-4.16-20.88-3.82-4.12.84-5.7.86H78.6c-1.59,0-2.5-.52-5.7-.86s-11,.29-20.88,3.82-8.72,8.45-8.63,11.37a38.3,38.3,0,0,1,0,6.51,16.29,16.29,0,0,0,.79-4.74c.16-2.44.23-4.88,1.56-6.87,1.52-2.29,4.29-3.34,6.89-4.25C60.05,37.64,68,35,75.71,36.47a18.71,18.71,0,0,0,2.86.46,18.46,18.46,0,0,0,3.83-.51c7.9-1.39,15.86,1.38,23.4,4.1,2.14.77,4.39,1.63,5.82,3.4,2.63,3.29,1.39,8.18,2.75,12.16l0,0A38.37,38.37,0,0,1,114.37,49.61Z"/><path class="cls-9" d="M79.16,15.49H78.6c-16.55.4-23.09,6.87-24.32,8.38A37.69,37.69,0,0,1,61,20.42,44.15,44.15,0,0,1,69.85,18a41.66,41.66,0,0,1,9-.6,41.72,41.72,0,0,1,9,.6,43.87,43.87,0,0,1,8.8,2.42,37.45,37.45,0,0,1,6.77,3.45h0C102.2,22.31,95.65,15.89,79.16,15.49Z"/><path class="cls-8" d="M64.49,15.15A44.34,44.34,0,0,1,78.6,12.69h.56a44.34,44.34,0,0,1,14.11,2.46c8.11,2.67,8.94,6.46,10.15,8.56-1.13-3.68-3-7.44-6.81-9.19a44.8,44.8,0,0,0-35.47,0c-3.8,1.75-5.69,5.53-6.82,9.22C55.55,21.65,56.34,17.83,64.49,15.15Z"/><path class="cls-10" d="M82.62,95.45l-.26.07-.32.06-.31.07-.15,0-.15,0c-.4,0-.76.11-1.08.12a6.42,6.42,0,0,1-.83,0H78.23a6.42,6.42,0,0,1-.83,0c-.32,0-.68-.07-1.08-.12l-.15,0-.15,0-.31-.07-.32-.06-.26-.07c0,1.15.06,2.68.74,3.42l0,0a9.28,9.28,0,0,0,5.95,0l0,0C82.56,98.13,82.67,96.6,82.62,95.45ZM78.87,98.7c-3.51,0-3.74-2.38-2.75-2.32a12,12,0,0,0,5.33-.06C82.3,96.15,82,98.74,78.87,98.7Z"/><path class="cls-5" d="M83.57,101.56a1.44,1.44,0,0,0-.6-.44,1.56,1.56,0,0,0-.82.1,11.37,11.37,0,0,1-3.85.46c-.93,0-2.73-.87-3.54-.6-1.82.6-3.87,4.55-4.75,6.11l8.86,11.57.48-.62,8.4-11A30.68,30.68,0,0,0,83.57,101.56Zm-4.69,15.81c-.94-1.06-7.3-8.26-7.56-10.32-.21-1.72,3.59-4.44,4.84-4.21,3.17.58,4.08.37,5.14-.08s4.1,1.42,4.69,3.69S78.88,117.37,78.88,117.37Z"/><path class="cls-14" d="M82.54,57.05c-1.35,0-2.88,1.77-3.82,1.92s-2-1.83-4.11-1.67c-.81.06-1,.39-1,.78s.51.89,1.64,1a4.24,4.24,0,0,0,.61,0,4.31,4.31,0,0,0-.32-.4,3.84,3.84,0,0,0-.35-.35c-.1-.1-.19-.17-.26-.23l-.09-.08h.49a2.69,2.69,0,0,1,.55.1,2.64,2.64,0,0,1,.7.31,2.45,2.45,0,0,1,.72.63l0,.05,0,0v0h0l.06.09.07.08,0,0,0,0,.13.12.06.07.07.06a2.75,2.75,0,0,0,.26.22,2.26,2.26,0,0,0,.26.14.78.78,0,0,0,.43.08h.17l0,0a1.16,1.16,0,0,0,.27-.14,2.87,2.87,0,0,0,.54-.45,3.08,3.08,0,0,0,.24-.27h0s0,0,0,0h0v0l0,0,.07-.09.09-.1.09-.1a3.85,3.85,0,0,1,.69-.57,4.43,4.43,0,0,1,.65-.33,2,2,0,0,1,.55-.16,1.26,1.26,0,0,1,.37,0l.1,0h0l-.1.07-.06,0,0,0-.14.13-.15.17-.16.21c-.11.15-.24.33-.36.52l-.11.19c.83,0,1.93-.13,2.26-1.07A1.28,1.28,0,0,0,82.54,57.05Z"/><path class="cls-15" d="M74.9,56.42a16.07,16.07,0,0,1,7.15-.3c1,.2-1.59,1.13-3.58,1.18S74,56.74,74.9,56.42Z"/><path class="cls-16" d="M12.14,145.07v10H6.06v-26.2h9.12A11.3,11.3,0,0,1,22.4,131a6.91,6.91,0,0,1,2.66,5.75A5.68,5.68,0,0,1,24,140.26a7.45,7.45,0,0,1-3.16,2.38,5.85,5.85,0,0,1,3.47,2.28,7,7,0,0,1,1.05,4v1.66a10.19,10.19,0,0,0,.31,2.34,3.07,3.07,0,0,0,1.06,1.87v.36H20.44a3,3,0,0,1-.94-2,18,18,0,0,1-.21-2.65v-1.58a3.87,3.87,0,0,0-1-2.86,3.94,3.94,0,0,0-2.9-1Zm0-4.68h3.08a4.19,4.19,0,0,0,2.81-.84,3,3,0,0,0,1-2.4,3.43,3.43,0,0,0-1-2.58,3.87,3.87,0,0,0-2.82-1h-3Z"/><path class="cls-16" d="M44.14,143.9H34.91v6.53H46v4.68H28.82v-26.2H46v4.68H34.91v5.63h9.23Z"/><path class="cls-16" d="M48.66,155.11v-26.2h9.59a10.7,10.7,0,0,1,7.74,3,10.31,10.31,0,0,1,3.11,7.73v4.72A10.32,10.32,0,0,1,66,152.11a10.73,10.73,0,0,1-7.74,3Zm6.08-21.52v16.84h3.51a4.17,4.17,0,0,0,3.41-1.69A6.84,6.84,0,0,0,63,144.37v-4.75a6.79,6.79,0,0,0-1.34-4.34,4.17,4.17,0,0,0-3.41-1.69Z"/><path class="cls-16" d="M82.94,146.17H72.34v-4.7h10.6Z"/><path class="cls-16" d="M87,155.11v-26.2h9.6a10.66,10.66,0,0,1,7.73,3,10.28,10.28,0,0,1,3.12,7.73v4.72a10.29,10.29,0,0,1-3.12,7.74,10.69,10.69,0,0,1-7.73,3Zm6.09-21.52v16.84H96.6a4.17,4.17,0,0,0,3.41-1.69,6.84,6.84,0,0,0,1.34-4.37v-4.75a6.79,6.79,0,0,0-1.34-4.34,4.17,4.17,0,0,0-3.41-1.69Z"/><path class="cls-16" d="M131.38,144.37a10.94,10.94,0,0,1-3.07,8,10.71,10.71,0,0,1-8,3.14,10.69,10.69,0,0,1-11.18-11.12v-4.72a10.92,10.92,0,0,1,3.09-8,11.84,11.84,0,0,1,16.08,0,10.92,10.92,0,0,1,3.09,8Zm-6.06-4.75A7.54,7.54,0,0,0,124,135a4.81,4.81,0,0,0-7.5,0,7.66,7.66,0,0,0-1.3,4.62v4.75a7.66,7.66,0,0,0,1.32,4.64,4.41,4.41,0,0,0,3.79,1.8A4.31,4.31,0,0,0,124,149a7.66,7.66,0,0,0,1.32-4.64Z"/><path class="cls-16" d="M153.94,151.49a10.9,10.9,0,0,1-3.85,2.83,15.08,15.08,0,0,1-6.39,1.17,10.84,10.84,0,0,1-7.92-3,10.42,10.42,0,0,1-3-7.75v-5.47a10.57,10.57,0,0,1,3-7.74,10.23,10.23,0,0,1,7.62-3q5,0,7.59,2.24a7.48,7.48,0,0,1,2.47,6.13l0,.11h-5.71a3.68,3.68,0,0,0-1-2.86,4.46,4.46,0,0,0-3.1-.94,4.13,4.13,0,0,0-3.42,1.67,7,7,0,0,0-1.29,4.36v5.51a7,7,0,0,0,1.28,4.4,4.3,4.3,0,0,0,3.61,1.66,10.22,10.22,0,0,0,2.64-.27,4.22,4.22,0,0,0,1.52-.72v-4.68h-4.65v-4h10.73Z"/><path class="cls-1" d="M12.14,145.07v10H6.06v-26.2h9.12A11.3,11.3,0,0,1,22.4,131a6.91,6.91,0,0,1,2.66,5.75A5.68,5.68,0,0,1,24,140.26a7.45,7.45,0,0,1-3.16,2.38,5.85,5.85,0,0,1,3.47,2.28,7,7,0,0,1,1.05,4v1.66a10.19,10.19,0,0,0,.31,2.34,3.07,3.07,0,0,0,1.06,1.87v.36H20.44a3,3,0,0,1-.94-2,18,18,0,0,1-.21-2.65v-1.58a3.87,3.87,0,0,0-1-2.86,3.94,3.94,0,0,0-2.9-1Zm0-4.68h3.08a4.19,4.19,0,0,0,2.81-.84,3,3,0,0,0,1-2.4,3.43,3.43,0,0,0-1-2.58,3.87,3.87,0,0,0-2.82-1h-3Z"/><path class="cls-1" d="M44.14,143.9H34.91v6.53H46v4.68H28.82v-26.2H46v4.68H34.91v5.63h9.23Z"/><path class="cls-1" d="M48.66,155.11v-26.2h9.59a10.7,10.7,0,0,1,7.74,3,10.31,10.31,0,0,1,3.11,7.73v4.72A10.32,10.32,0,0,1,66,152.11a10.73,10.73,0,0,1-7.74,3Zm6.08-21.52v16.84h3.51a4.17,4.17,0,0,0,3.41-1.69A6.84,6.84,0,0,0,63,144.37v-4.75a6.79,6.79,0,0,0-1.34-4.34,4.17,4.17,0,0,0-3.41-1.69Z"/><path class="cls-1" d="M82.94,146.17H72.34v-4.7h10.6Z"/><path class="cls-1" d="M87,155.11v-26.2h9.6a10.66,10.66,0,0,1,7.73,3,10.28,10.28,0,0,1,3.12,7.73v4.72a10.29,10.29,0,0,1-3.12,7.74,10.69,10.69,0,0,1-7.73,3Zm6.09-21.52v16.84H96.6a4.17,4.17,0,0,0,3.41-1.69,6.84,6.84,0,0,0,1.34-4.37v-4.75a6.79,6.79,0,0,0-1.34-4.34,4.17,4.17,0,0,0-3.41-1.69Z"/><path class="cls-1" d="M131.38,144.37a10.94,10.94,0,0,1-3.07,8,10.71,10.71,0,0,1-8,3.14,10.69,10.69,0,0,1-11.18-11.12v-4.72a10.92,10.92,0,0,1,3.09-8,11.84,11.84,0,0,1,16.08,0,10.92,10.92,0,0,1,3.09,8Zm-6.06-4.75A7.54,7.54,0,0,0,124,135a4.81,4.81,0,0,0-7.5,0,7.66,7.66,0,0,0-1.3,4.62v4.75a7.66,7.66,0,0,0,1.32,4.64,4.41,4.41,0,0,0,3.79,1.8A4.31,4.31,0,0,0,124,149a7.66,7.66,0,0,0,1.32-4.64Z"/><path class="cls-1" d="M153.94,151.49a10.9,10.9,0,0,1-3.85,2.83,15.08,15.08,0,0,1-6.39,1.17,10.84,10.84,0,0,1-7.92-3,10.42,10.42,0,0,1-3-7.75v-5.47a10.57,10.57,0,0,1,3-7.74,10.23,10.23,0,0,1,7.62-3q5,0,7.59,2.24a7.48,7.48,0,0,1,2.47,6.13l0,.11h-5.71a3.68,3.68,0,0,0-1-2.86,4.46,4.46,0,0,0-3.1-.94,4.13,4.13,0,0,0-3.42,1.67,7,7,0,0,0-1.29,4.36v5.51a7,7,0,0,0,1.28,4.4,4.3,4.3,0,0,0,3.61,1.66,10.22,10.22,0,0,0,2.64-.27,4.22,4.22,0,0,0,1.52-.72v-4.68h-4.65v-4h10.73Z"/><rect class="cls-7" x="73.72" y="142.85" width="7.83" height="1.93"/><path class="cls-7" d="M24.31,153.19a12.18,12.18,0,0,1-.34-2.65v-1.66a5.8,5.8,0,0,0-.82-3.2A4.55,4.55,0,0,0,20.46,144l-3.7-1.05,3.51-1.54a7.45,7.45,0,0,0,1.46-.83l-2.47-.28a3.42,3.42,0,0,1-.33.33,5.54,5.54,0,0,1-3.71,1.17H10.76v-2.56l-3.32-.46v15h3.32v-10H15.4a5.23,5.23,0,0,1,3.87,1.39,5.21,5.21,0,0,1,1.4,3.84v1.58a15.22,15.22,0,0,0,.2,2.44,2.65,2.65,0,0,0,.22.79h3.37C24.41,153.55,24.35,153.38,24.31,153.19Z"/><path class="cls-7" d="M44.59,151.81v1.92H30.21V141.38q6.13.56,12.55,1v.18H33.52v9.3Z"/><path class="cls-7" d="M64.38,143.26v1.11a8.21,8.21,0,0,1-1.64,5.23,5.61,5.61,0,0,1-4.49,2.21H53.36v-8.92c-1.11,0-2.22-.09-3.32-.15v11h8.21A9.32,9.32,0,0,0,65,151.11a8.93,8.93,0,0,0,2.69-6.74v-1Z"/><path class="cls-7" d="M102.73,142.89v1.48a8.27,8.27,0,0,1-1.64,5.23,5.6,5.6,0,0,1-4.5,2.21H91.7v-8.55l-3.32.07v10.4h8.21a9.31,9.31,0,0,0,6.78-2.62,8.89,8.89,0,0,0,2.69-6.74v-1.63Z"/><path class="cls-7" d="M126.69,141.3v3.07a9.07,9.07,0,0,1-1.57,5.46,5.75,5.75,0,0,1-4.83,2.36,5.81,5.81,0,0,1-4.89-2.36,9,9,0,0,1-1.6-5.46V142.3l-3.29.2v1.87a9.29,9.29,0,0,0,9.78,9.74,9.27,9.27,0,0,0,7-2.73,9.5,9.5,0,0,0,2.68-7V141Z"/><path class="cls-7" d="M152.56,142.49V151a10.35,10.35,0,0,1-3.06,2.1,13.94,13.94,0,0,1-5.8,1,9.42,9.42,0,0,1-6.95-2.59,9,9,0,0,1-2.63-6.77v-4.18l3.3-.38v4.56A8.34,8.34,0,0,0,139,150a5.69,5.69,0,0,0,4.7,2.2,11.24,11.24,0,0,0,3-.32,5.46,5.46,0,0,0,2-1l.52-.42v-6.72H144.6v-1.27Z"/><path class="cls-7" d="M81.55,142.85v.56H78l-4.29,0v-.55Z"/></svg>