<svg id="Layer_1" data-name="Layer 1" xmlns="http://www.w3.org/2000/svg" xmlns:xlink="http://www.w3.org/1999/xlink" viewBox="0 0 160 160"><defs><style>.cls-1{fill:none;}.cls-10,.cls-2{fill:#fff;}.cls-3{fill:#09010a;}.cls-4{fill:#ac39bc;}.cls-5{fill:#e21477;}.cls-6{fill:#96065f;}.cls-7{fill:#ffa9da;}.cls-8{fill:#ed202d;}.cls-9{fill:#630429;}.cls-10{stroke:#000;stroke-miterlimit:10;stroke-width:7px;}.cls-11{clip-path:url(#clip-path);}.cls-12{fill:url(#linear-gradient);}.cls-13{fill:url(#linear-gradient-2);}.cls-14{fill:url(#linear-gradient-3);}.cls-15{fill:url(#linear-gradient-4);}.cls-16{fill:url(#linear-gradient-5);}</style><clipPath id="clip-path"><path class="cls-1" d="M155.87,128.24c-51.86-19.39-102.18-19.17-151,0v-33h151Z"/></clipPath><linearGradient id="linear-gradient" x1="9.23" y1="119.33" x2="33.92" y2="119.33" gradientUnits="userSpaceOnUse"><stop offset="0" stop-color="#fff"/><stop offset="0.99" stop-color="#ac39bc"/><stop offset="1"/></linearGradient><linearGradient id="linear-gradient-2" x1="35.21" y1="117.84" x2="63.93" y2="117.84" xlink:href="#linear-gradient"/><linearGradient id="linear-gradient-3" x1="66.09" y1="116.59" x2="91.15" y2="116.59" xlink:href="#linear-gradient"/><linearGradient id="linear-gradient-4" x1="94.84" y1="117.62" x2="122.64" y2="117.62" xlink:href="#linear-gradient"/><linearGradient id="linear-gradient-5" x1="126.36" y1="119.72" x2="151.04" y2="119.72" xlink:href="#linear-gradient"/></defs><path class="cls-2" d="M152.63,131l-2.81-32.59-5.25-.49c-3.64-.34-7.33-.65-11-.94v-1.3a75.65,75.65,0,0,0,16.67-8.72l9.41-6.74-11-3.4A38.23,38.23,0,0,1,141,73.28a29.1,29.1,0,0,0-6.14-2.83c5.59-7.23,7.55-10.14,7.63-10.28l5-7.41-8.8-1.43c-.11,0-2.33-.38-5.08-1V20L132,19.33C110.44,9.23,84.82,3.83,79.91,2.84l-.52-.1-.51.1C74,3.82,48.34,9.23,26.75,19.33L25.23,20V54.17l-4.88.09-8,.19,2.69,7.48a25.59,25.59,0,0,0,2.69,5.45A36.2,36.2,0,0,0,6.3,76.75L.37,84.44,10,85.92l.24,0c1.64.46,4.49,2.34,7.25,4.16,1.81,1.19,3.67,2.42,5.69,3.61.72.43,1.41.82,2.08,1.19V97l-2.74.23c-2.62.21-5.26.45-7.85.69l-5.29.5L7.29,132a10.93,10.93,0,0,0,3,8.23,11.06,11.06,0,0,0,8,3.48c.31,0,.63,0,.94,0,7.08-.61,12.31-1,15.12-1.2l3.26-.21h0s2.88-.28,4.59-.28l1,0q.88-.06,1.77-.09c12.37,7.23,23.69,12.33,33.67,15.16l.71.2.72-.2c10-2.84,21.41-8,33.85-15.28,2,.09,4,.26,4,.26h0l3.29.2c6.08.35,12.24.8,18.31,1.31.55,0,1.08.07,1.58.07a11.24,11.24,0,0,0,8.58-3.36c2.16-2.3,3.14-5.41,2.9-9.26Z"/><path class="cls-3" d="M79.39,154.53c-22.12-6.26-45.61-22.63-51.53-26.92V21.71C49.29,11.69,75,6.3,79.39,5.42c4.42.88,30.1,6.27,51.54,16.29v105.9C125,131.9,101.49,148.28,79.39,154.53Z"/><path class="cls-4" d="M79.39,145.3C62.48,140,45,128.75,36.7,123V27.46C54.09,20.11,73,15.8,79.39,14.45c6.42,1.35,25.34,5.69,42.69,13V123C113.79,128.74,96.25,140,79.39,145.3Z"/><path class="cls-3" d="M147.8,79.3a40.42,40.42,0,0,1-8.19-3.79,28.56,28.56,0,0,0-7.24-3.08c-.77-.22-1.45-.38-2-.5,7.39-9.41,9.83-13.05,9.94-13.21l2.68-4-4.77-.78a99.84,99.84,0,0,1-9.8-2.13l-1.11-.32-.76-.23a28.66,28.66,0,0,0-6.25-1.05h-.39a22.52,22.52,0,0,0-3.6.16c.43-.86.71-1.38.72-1.39l3-5.59-6.28,1-.33.06a12.69,12.69,0,0,0,.36-5.06,118,118,0,0,1-1.45-15.47l0-4.37L108.19,21A43.65,43.65,0,0,0,99,25.86a9,9,0,0,1-.51-.79c-2.42-4.1-4.4-11.85-4.42-11.93l-.74-2.93-3,.66c-10.29,2.3-16.08,6.87-19.13,10.3l-.48.54v0A19,19,0,0,0,67.6,27a9.29,9.29,0,0,0-.45,1.49,14.77,14.77,0,0,0-4.12-2l-.36-.09-.12,0a7.14,7.14,0,0,1-3.49-2.77l-1.7-2.88-2.75,2c-4.58,3.27-7.44,9-8.73,12.07-.38-.31-.76-.61-1.15-.9l-4.33-3.2L39.8,36a71.27,71.27,0,0,0,.1,14.09v.13a53.82,53.82,0,0,0,1.78,9.25A18.51,18.51,0,0,0,38,57.79l-.08,0-.84-.25a19.91,19.91,0,0,0-5-.73c-3.85-.08-11.39.1-11.71.11l-4.3.1,1.45,4.06A20.39,20.39,0,0,0,22,68.42,33.57,33.57,0,0,0,8.38,78.35L5.17,82.52l5.2.8a3.23,3.23,0,0,1,.55.12c2,.57,4.93,2.48,8,4.5,1.78,1.17,3.61,2.38,5.58,3.54,1.56.93,3,1.7,4.4,2.36l.24.11.41.19a26.75,26.75,0,0,0,3.64,1.32h0a29.5,29.5,0,0,0,14.48.27l3.29-.9c-.16.28-.32.57-.45.86a9.66,9.66,0,0,0-.78,2.46c-.63,3.49,1.67,7.19,3.34,9.9.36.58.85,1.37,1,1.64l.92,2.76,2.83-.77a62.75,62.75,0,0,1,10.93-1.85,13.69,13.69,0,0,0,9.38-4.41,16.39,16.39,0,0,0,3.74-6.82c1.7,2.68,4.77,5.54,9.34,8.7.67.46,1.39.91,2.12,1.32a36.1,36.1,0,0,0,7.93,3.22h0a57.22,57.22,0,0,0,17.32,1.88l5.41-.35-3-4.49c-.71-1-1.14-3.27-1.59-5.62A56.69,56.69,0,0,0,118,97.45l.58-2.09-1.48-.42a.61.61,0,0,0,0-.12,20.44,20.44,0,0,0,6.68.44l.66,0,.1,0c11.44-1.32,23.69-10,24.21-10.39l5.1-3.65Z"/><polygon class="cls-3" points="31.22 92.57 31.22 106.43 126.08 106.43 126.08 93.39 31.22 92.57"/><path class="cls-5" d="M109.68,45.91l-.69.22a71,71,0,0,0-8,3.2,30.5,30.5,0,0,0-5.15,3A69.52,69.52,0,0,1,104,42.5,26.9,26.9,0,0,0,96.26,48l7-12.51c-.23.25-7.47,8.34-8.33,9.65,0,0-.08-.93-.38-2.44a38,38,0,0,0-2.3-7.45s.33-.33.94-.88c2.44-2.2,9.2-7.94,16.08-10.44a120.73,120.73,0,0,0,1.5,15.93A12.51,12.51,0,0,1,109.68,45.91Z"/><path class="cls-5" d="M107.47,66.63a19.22,19.22,0,0,1-1.15,5,14.58,14.58,0,0,1-9.37,9s2.25-9.79,6-15.31a14.62,14.62,0,0,0-4.77,3.75s.48-1.27,1.25-3.09a53.58,53.58,0,0,1,5.65-10.48,42.1,42.1,0,0,0-6.74,7.75c-.48.71-1,1.47-1.4,2.25-3.41,6-4.64,5.52-5.21,1.77a6.51,6.51,0,0,1,.35-2.63,23.35,23.35,0,0,1,6.38-9.6,29.88,29.88,0,0,1,15.8-7.64,78,78,0,0,0-5.9,14.39A30.28,30.28,0,0,0,107.47,66.63Z"/><path class="cls-5" d="M137.71,57s-2.83,4.25-11.92,15.72l-.15.19-.22.28L124,75a25.79,25.79,0,0,1-17.78,9.74,27,27,0,0,1-8.43-.33c5.23.35,8.25-3.77,11.18-8.91a34.26,34.26,0,0,1,6.3-7.48c1.59-1.46,2.79-2.38,2.79-2.38-2.25-.26-6,1.09-6.15,1.13,3.35-3.53,12.46-6.39,12.46-6.39a19,19,0,0,0-13.51,3.5c-.15-3.89,2.74-9.78,2.74-9.78a18.31,18.31,0,0,1,6.2-.81h0a25.41,25.41,0,0,1,6.6,1.17A102.69,102.69,0,0,0,137.71,57Z"/><path class="cls-5" d="M146.88,82.27s-12.44,8.91-23.36,9.89h0a16.38,16.38,0,0,1-6.92-.71,11.34,11.34,0,0,1-4.65-3.1s8.5-4.67,13-4.67a22.34,22.34,0,0,0,3.79-.4h0a61.06,61.06,0,0,0,8-2.13c-.13,0-1.93.17-4.32.33h0a83,83,0,0,1-10.7.17s1-.74,2.22-1.8c1.72-1.47,3.91-3.56,4.56-5.11a24.57,24.57,0,0,1,3.13.69A26,26,0,0,1,138,78.16,43.35,43.35,0,0,0,146.88,82.27Z"/><path class="cls-5" d="M118.34,110.62s-13.6.9-23.52-4.7c-.65-.36-1.27-.75-1.88-1.17-5.28-3.65-8.09-6.64-9.13-9-.92-2.09-.45-3.66.92-4.74,2.89-2.29,9.27-2.49,21.7,9.8h0l0,0C106,100.22,99.79,90.59,94,86.92c-.29-.19,6.4,2.18,10.56,1.31l.17,0,.09,0h0a12.1,12.1,0,0,1,8.57,6.17,18.59,18.59,0,0,1,1.39,3.17h0C116.43,102.45,116.47,107.86,118.34,110.62Z"/><path class="cls-5" d="M95.31,78.5c-1.07,2.12-3.77,4.65-9.13,7.35l.51-4.57a33,33,0,0,1-2.85,4h0C81.6,88.06,78.32,91.13,75,91s-6.33-3-7.75-6.84a13.84,13.84,0,0,1-.86-3.75h0a12.75,12.75,0,0,1,.81-5.87C70,67.43,77.29,70.7,79.46,71.81s7.2,2.64,11,1A4,4,0,0,1,95.31,78.5Z"/><path class="cls-5" d="M75.82,103.3a10.53,10.53,0,0,1-7.26,3.42,65.23,65.23,0,0,0-11.59,2c-.56-1.69-4.79-6.68-4.19-10a6.89,6.89,0,0,1,.54-1.7,7.45,7.45,0,0,1,5.17-4.22,46.82,46.82,0,0,0,4.95-1.33c1.54-.49,2.8-.91,2.88-.94-1.51,2.14-4.49,9.24-4.49,9.24v0a70.66,70.66,0,0,1,7.4-8.41A16.29,16.29,0,0,0,78,93.37c1.32-.09,1.43,1,1.37,1.68a3.33,3.33,0,0,1-.1.57A13.93,13.93,0,0,1,75.82,103.3Z"/><path class="cls-5" d="M46.84,92.74a26.06,26.06,0,0,1-16-1.43L30.21,91h0c-1.41-.67-2.8-1.42-4.14-2.22-6.06-3.58-11.34-8-15.23-8.56,0,0,5.91-7.69,14.9-9.73a19.45,19.45,0,0,1,11.53.88A61.59,61.59,0,0,0,23.51,78a39.34,39.34,0,0,1,6.7,3.6h0a24.52,24.52,0,0,1,3.52,2.85A35.27,35.27,0,0,0,46.84,92.74Z"/><path class="cls-5" d="M65.64,87c-.27.7-4.77,3.35-10.29,4a17.77,17.77,0,0,1-7.05-.55,14.65,14.65,0,0,1-3.53-1.56c-9-5.5-10.81-10.11-16.35-10.73A41.93,41.93,0,0,1,45.6,73a34.37,34.37,0,0,1,4.77,0A12.6,12.6,0,0,0,56.89,77a20.16,20.16,0,0,0,3.3.68l1,1.14a48.29,48.29,0,0,1-12,.36s3.56,2.36,14.62,1.86C63.84,81.08,66.08,85.93,65.64,87Z"/><path class="cls-5" d="M43,70.78A42.49,42.49,0,0,0,38.84,69c-3.68-1.31-9.13-2.77-13.66-1.9,0,0-2.81-1.9-4.69-7.14,0,0,7.74-.19,11.57-.11a16.91,16.91,0,0,1,5,.84h0a15.52,15.52,0,0,1,6.13,3.85,20.55,20.55,0,0,1,3.57,4.88,20.73,20.73,0,0,0-8.5-3.74S41.86,68.48,43,70.78Z"/><path class="cls-6" d="M69.24,69.32c-.91.61-4,5.36-4.51,7.24A18,18,0,0,1,63.64,73a8.57,8.57,0,0,1-.16-1.73,18.38,18.38,0,0,0-.38,1.86,23.78,23.78,0,0,0-.3,4.53A19,19,0,0,1,60.2,73a26.37,26.37,0,0,1-1.4-4.65,1.48,1.48,0,0,0,0-.19,1.16,1.16,0,0,1,0-.18,32,32,0,0,1,0-11.74,38.25,38.25,0,0,0,7,6.43,11.69,11.69,0,0,1,2.31,2.06h0C70,66.89,69.94,68.85,69.24,69.32Z"/><path class="cls-5" d="M68.09,64.7c0,.2-.18,7-4.45,8.33a4.72,4.72,0,0,1-.54.13A6.58,6.58,0,0,1,60.2,73a26.37,26.37,0,0,1-1.4-4.65,1.48,1.48,0,0,0,0-.19,1.16,1.16,0,0,1,0-.18,32,32,0,0,1,0-11.74,38.25,38.25,0,0,0,7,6.43,11.69,11.69,0,0,1,2.31,2.06Z"/><path class="cls-5" d="M58.55,75.13a18.09,18.09,0,0,1-5-2.52C46.49,67.52,43.88,57.94,43,49.9v0a68.7,68.7,0,0,1-.12-13.48,32,32,0,0,1,9.47,11.7,44.54,44.54,0,0,1,2.25,5.51,40,40,0,0,1,1.75,7.28l-5.56-8.94A45.83,45.83,0,0,0,56,64.37C56.28,67.32,58.55,75.13,58.55,75.13Z"/><path class="cls-5" d="M61.21,35.55a46.72,46.72,0,0,0-2.34,9.76h0a27,27,0,0,0-.09,6.42L56.89,54.5a14.71,14.71,0,0,0-1.06-4.83,33.28,33.28,0,0,0-6.38-10.3c-.44-.51-.91-1-1.41-1.55,0,0,2.79-8.61,8.37-12.59a10.18,10.18,0,0,0,5.53,4.2c3.47.85,6.73,4.23,7.86,5.54h0A25.52,25.52,0,0,0,68.65,40a14.62,14.62,0,0,0,0,3.56A31.3,31.3,0,0,1,65.43,41,18.13,18.13,0,0,1,61.21,35.55Z"/><path class="cls-5" d="M74.76,57.59c-2.22,2.45-6.11-2.9-8.55-6.92C64.91,48.53,64,46.76,64,46.76a13.83,13.83,0,0,0,1.12,4.81l0,0c.08.23.17.46.26.69v0c.73,1.85,1.62,3.75,2.39,5.25,1.69,3.26.85,5.38.85,5.38a10.21,10.21,0,0,0-2.21-2.5c-1.85-1.69-4.23-3.76-5.07-6.49a13.59,13.59,0,0,1-.49-3.39,53.19,53.19,0,0,1,.62-9c.11-.76.19-1.21.19-1.21a7.29,7.29,0,0,0,.63.83c1.37,1.63,3.94,3.87,6.44,6.21a35.64,35.64,0,0,1,5.64,6.25C75.36,55.25,75.65,56.61,74.76,57.59Z"/><path class="cls-5" d="M87.11,57.82c-3.35.43-2.77-14-2.77-14a33.74,33.74,0,0,0-2.25,8c-.94-1.88-.55-8.53-.11-13.29.26-2.88.54-5.07.54-5.07a24.56,24.56,0,0,0-1.08,2.61A58.53,58.53,0,0,0,78.8,50.28l-2.07-2.81a33.39,33.39,0,0,1,.1,6.73c-1.56-3.85-4.41-7.12-5.35-11.06h0a11.09,11.09,0,0,1,.18-5.91,13.06,13.06,0,0,1,1.68-3.37h0C77.65,27.36,87.65,20,87.65,20c-1.1,5.27,2,15.56,4.13,21.13a14.06,14.06,0,0,1,.49,6.69C91.64,52.68,89.34,57.54,87.11,57.82Z"/><path class="cls-5" d="M96.72,27.94s-4.68,3-5.43,3.88c0,0-2.26-11.43-1.62-14.6,0,0-10.91,3.52-18.16,16.13,0,0-2.36-1.78-1-5.25a16.82,16.82,0,0,1,3.12-4.86h0c3-3.43,8.44-7.31,17.49-9.34,0,0,2.07,8.2,4.76,12.75A12.55,12.55,0,0,0,96.72,27.94Z"/><path class="cls-7" d="M95.86,26.65c-2.91-2.14-6-10.12-6-10.12C86,17.35,80,20.31,80,20.31l1.16-1.49c-2.37,1.07-7.59,4.42-7.59,4.42h0c3-3.43,8.44-7.31,17.49-9.34C91.1,13.9,93.17,22.1,95.86,26.65Z"/><path class="cls-7" d="M109.68,45.91l-.69.22c1.65-4.26-.09-9-.09-9a22.77,22.77,0,0,1-1,2.12,18.65,18.65,0,0,0-1.22-11.92c-1.62.78-6.7,4.16-6.7,4.16l1.29-2c-1.65.86-8.1,4.82-8.1,4.82,2.44-2.2,9.2-7.94,16.08-10.44a120.73,120.73,0,0,0,1.5,15.93A12.51,12.51,0,0,1,109.68,45.91Z"/><path class="cls-7" d="M108.39,61.84s1.53-8.83,3.06-12.21c0,0-7.63.86-13,5.46a29.88,29.88,0,0,1,15.8-7.64A78,78,0,0,0,108.39,61.84Z"/><path class="cls-7" d="M125.79,72.71c2.52-3.27,8.65-14.65,8.65-14.65a22.21,22.21,0,0,1-5.64-1.58,88.48,88.48,0,0,0-9-3.21,25.41,25.41,0,0,1,6.6,1.17A102.69,102.69,0,0,0,137.71,57S134.88,61.24,125.79,72.71Z"/><path class="cls-7" d="M146.88,82.27s-12.44,8.91-23.36,9.89c10.16-2.18,19.53-9.48,19.53-9.48a23.32,23.32,0,0,1-4.2-3.16c-1.13-1.31-7.32-4.1-7.32-4.1A26,26,0,0,1,138,78.16,43.35,43.35,0,0,0,146.88,82.27Z"/><polygon class="cls-5" points="114.75 97.51 114.74 97.51 114.74 97.51 114.75 97.51"/><path class="cls-7" d="M118.34,110.62s-13.6.9-23.52-4.7c9.87,3.68,21.2,2.81,21.2,2.81-.53-.77-.94-3.74-.87-5.06s-.39-6-.41-6.16C116.43,102.45,116.47,107.86,118.34,110.62Z"/><path class="cls-7" d="M75.82,103.3a10.53,10.53,0,0,1-7.26,3.42,65.23,65.23,0,0,0-11.59,2c-.56-1.69-4.79-6.68-4.19-10a6.89,6.89,0,0,1,.54-1.7,15.64,15.64,0,0,0,4.87,9.3s5.93-1.44,9.35-1.23S75.82,103.3,75.82,103.3Z"/><path class="cls-7" d="M26.07,88.81h0c-6.06-3.58-11.34-8-15.23-8.56,0,0,5.91-7.69,14.9-9.73h0C21.4,72.29,15.1,79.21,15.1,79.21,19.08,80.94,26.07,88.81,26.07,88.81Z"/><path class="cls-5" d="M60.9,50.57a53.19,53.19,0,0,1,.62-9,7.37,7.37,0,0,1,.82-.38c1.37,1.63,3.94,3.87,6.44,6.21a35.64,35.64,0,0,1,5.64,6.25c.94,1.55,1.23,2.91.34,3.89-2.22,2.45-6.11-2.9-8.55-6.92C64.91,48.53,64,46.76,64,46.76a13.83,13.83,0,0,0,1.12,4.81l0,0c.08.23.17.46.26.69v0c.73,1.85,1.62,3.75,2.39,5.25,1.69,3.26.85,5.38.85,5.38a10.21,10.21,0,0,0-2.21-2.5c-1.85-1.69-4.23-3.76-5.07-6.49A13.59,13.59,0,0,1,60.9,50.57Z"/><path class="cls-5" d="M48.3,90.45a14.65,14.65,0,0,1-3.53-1.56c-9-5.5-10.81-10.11-16.35-10.73A41.93,41.93,0,0,1,45.6,73c-3.33.82-12.37,4.88-12.37,4.88a19.47,19.47,0,0,1,6,5C42.11,86.44,48.3,90.45,48.3,90.45Z"/><path class="cls-7" d="M25.18,67.14s-2.81-1.9-4.69-7.14c0,0,7.74-.19,11.57-.11a16.91,16.91,0,0,1,5,.84,140.37,140.37,0,0,0-14.39.83C22.76,63.16,25.18,67.14,25.18,67.14Z"/><path class="cls-7" d="M95.31,78.5c.62-4.52-4.89-4.61-8.35-3.8S74.44,71.15,71.27,72s-4.88,8.21-4.93,8.44a12.75,12.75,0,0,1,.81-5.87C70,67.43,77.29,70.7,79.46,71.81s7.2,2.64,11,1A4,4,0,0,1,95.31,78.5Z"/><path class="cls-7" d="M60.51,63.61l-1.25-1.18A22.59,22.59,0,0,0,58.73,68a32,32,0,0,1,0-11.74,38.25,38.25,0,0,0,7,6.43,35.86,35.86,0,0,1-5.75-3S60,62.68,60.51,63.61Z"/><path class="cls-7" d="M47.67,44.47c-.08-.11-2.61-3.57-3.2-4.08,0,0-1.76,7.11-1.48,9.35,0,0,0,.08,0,.11a68.7,68.7,0,0,1-.12-13.48,32,32,0,0,1,9.47,11.7h0S48.45,43,46.88,42Z"/><path class="cls-7" d="M68.78,47.46,62.32,43l-1.42,7.6a57.62,57.62,0,0,1,.81-10.16c1,1.64,4.12,4.27,7.07,7Z"/><path class="cls-7" d="M69.8,35c-.23-.2-4.27-3.79-8.19-4.39S56,27.71,56,27.71a72.79,72.79,0,0,0-4.51,6.34l3.18-1.58c-1.79,1.65-5.18,6.9-5.18,6.9-.44-.51-.91-1-1.41-1.55,0,0,2.79-8.61,8.37-12.59a10.18,10.18,0,0,0,5.53,4.2C65.41,30.28,68.67,33.66,69.8,35Z"/><path class="cls-7" d="M85.85,26.67,85.32,31c-.4-2.75-1-6.53-1-6.53C82.49,26,73.61,33.62,73.34,33.85,77.65,27.36,87.65,20,87.65,20c-1.1,5.27,2,15.56,4.13,21.13C89.39,36.25,85.85,26.67,85.85,26.67Z"/><path class="cls-6" d="M67.82,57.57c1.69,3.26.85,5.38.85,5.38a10.21,10.21,0,0,0-2.21-2.5c.38-.27.6-.85.48-2a28.5,28.5,0,0,0-1.51-6.18C66.16,54.17,67.05,56.07,67.82,57.57Z"/><path class="cls-6" d="M74.76,57.59c-2.22,2.45-6.11-2.9-8.55-6.92.18.17,8.59,7.81,8.21,3h0C75.36,55.25,75.65,56.61,74.76,57.59Z"/><path class="cls-6" d="M78.8,50.28l-2.07-2.81a33.39,33.39,0,0,1,.1,6.73c-1.56-3.85-4.41-7.12-5.35-11.06.07.1,2.63,3,3.46,3.37s3.66-6.69,6.5-10.44A58.53,58.53,0,0,0,78.8,50.28Z"/><path class="cls-6" d="M92.27,47.83c-.63,4.85-2.93,9.71-5.16,10-3.35.43-2.77-14-2.77-14a33.74,33.74,0,0,0-2.25,8c-.94-1.88-.55-8.53-.11-13.29l.61,6.61a44.79,44.79,0,0,0,2.17-6s.61,7.57,1.29,10.45,2.81,6.42,6.22-1.79Z"/><path class="cls-6" d="M98.37,63.3c-.48.71-1,1.47-1.4,2.25-3.41,6-4.64,5.52-5.21,1.77a6.51,6.51,0,0,1,.35-2.63C93.19,65.67,95.11,66,98.37,63.3Z"/><path class="cls-6" d="M99.68,43.52s4.87-1.66,6.19-2.28a84.36,84.36,0,0,0-4.93,8.09,30.5,30.5,0,0,0-5.15,3A69.52,69.52,0,0,1,104,42.5,26.9,26.9,0,0,0,96.26,48l7-12.51c-.23.25-7.47,8.34-8.33,9.65,0,0-.08-.93-.38-2.44l.26-.57s7.9-6.64,9.87-9.06Z"/><path class="cls-6" d="M97,80.68s2.25-9.79,6-15.31a14.62,14.62,0,0,0-4.77,3.75s.48-1.27,1.25-3.09a48.24,48.24,0,0,1,5.74-3.63s-5.47,11.47-3.57,12.73c1.1.73,3.16-1.48,4.69-3.46A14.58,14.58,0,0,1,97,80.68Z"/><path class="cls-6" d="M109,75.48a34.26,34.26,0,0,1,6.3-7.48c-1.34,2.06-4.28,6.68-5.26,9.52a33.72,33.72,0,0,1-3.79,7.2,27,27,0,0,1-8.43-.33C103,84.74,106,80.62,109,75.48Z"/><path class="cls-6" d="M124.9,83.68a22.34,22.34,0,0,0,3.79-.4s-10.75,3-12.22,5.23a2.67,2.67,0,0,0,.11,2.94,11.34,11.34,0,0,1-4.65-3.1S120.43,83.68,124.9,83.68Z"/><path class="cls-6" d="M132.32,81.47a83,83,0,0,1-10.7.17s1-.74,2.22-1.8C123.84,79.84,129.19,81.69,132.32,81.47Z"/><path class="cls-8" d="M89,64.76c-.28,2.69-2.67,6.08-3,6s-4.14-.18-5.66-.76-7.07-1.87-7.07-1.87a2.89,2.89,0,0,1-1.64-2.53,5.66,5.66,0,0,1,2.94-5c3.63-2.1,10.78-2.38,13.5.69A3.83,3.83,0,0,1,88.9,63,4.61,4.61,0,0,1,89,64.76Z"/><path class="cls-6" d="M56.89,54.5a14.71,14.71,0,0,0-1.06-4.83,5.51,5.51,0,0,0,3-4.35,27,27,0,0,0-.09,6.42Z"/><path class="cls-6" d="M56.35,60.86l-5.56-8.94s2.53,1.62,3.81,1.66A40,40,0,0,1,56.35,60.86Z"/><path class="cls-6" d="M54.45,65.59s-3.7-10.88-3.66-13.67A45.83,45.83,0,0,0,56,64.37c.29,2.95,2.56,10.76,2.56,10.76a18.09,18.09,0,0,1-5-2.52c.39-1.29.5-4-1.57-9.35A24.92,24.92,0,0,0,54.45,65.59Z"/><path class="cls-6" d="M68.64,43.59A31.3,31.3,0,0,1,65.43,41,4.46,4.46,0,0,0,68.65,40,14.62,14.62,0,0,0,68.64,43.59Z"/><path class="cls-6" d="M65.64,87c-.27.7-4.77,3.35-10.29,4h0s5.46-1.78,5.24-4.53-10.34-4.74-14-8.06c0,0,7.23,1.34,10.3-1.37a20.16,20.16,0,0,0,3.3.68l1,1.14a48.29,48.29,0,0,1-12,.36s3.56,2.36,14.62,1.86C63.84,81.08,66.08,85.93,65.64,87Z"/><path class="cls-6" d="M66.32,90.51c-1.51,2.14-4.49,9.24-4.49,9.24l1.61-8.3C65,91,66.24,90.54,66.32,90.51Z"/><path class="cls-6" d="M79.38,95.05a55.36,55.36,0,0,1-9-.22c-3.94-.51-8.29,4.59-8.56,4.9a70.66,70.66,0,0,1,7.4-8.41A16.29,16.29,0,0,0,78,93.37C79.33,93.28,79.44,94.35,79.38,95.05Z"/><path class="cls-6" d="M83.84,85.34C81.6,88.06,78.32,91.13,75,91s-6.33-3-7.75-6.84h0S76.31,92.16,83.84,85.34Z"/><path class="cls-6" d="M106.43,100.83c-.36-.24-15-9.71-19.7-8-1.94.73-2.7,1.85-2.92,2.92-.92-2.09-.45-3.66.92-4.74C87.62,88.74,94,88.54,106.43,100.83Z"/><path class="cls-6" d="M94,86.92c-.29-.19,6.4,2.18,10.56,1.31-.65.17-2.31.76-2.29,2.25,0,1.8,4,9.83,4.19,10.33C106,100.22,99.79,90.59,94,86.92Z"/><path class="cls-6" d="M38.84,69C37,66.59,32.9,64.43,32.9,64.43a30.29,30.29,0,0,1,10.27.15,20.55,20.55,0,0,1,3.57,4.88,20.73,20.73,0,0,0-8.5-3.74s3.62,2.76,4.78,5.06A42.49,42.49,0,0,0,38.84,69Z"/><path class="cls-6" d="M46.84,92.74a26.06,26.06,0,0,1-16-1.43L30.21,91a27.56,27.56,0,0,0,7.45-.23C35.79,90,31.44,86,31.44,86l2.42.68a59.79,59.79,0,0,0-3.64-5.08,24.52,24.52,0,0,1,3.52,2.85A35.27,35.27,0,0,0,46.84,92.74Z"/><path class="cls-3" d="M80.88,67.33a.51.51,0,0,1-.65.25c-.3-.08-.49-.33-.43-.55a.51.51,0,0,1,.65-.25C80.75,66.87,80.94,67.11,80.88,67.33Z"/><ellipse class="cls-3" cx="73.81" cy="64" rx="0.65" ry="0.48" transform="translate(-0.81 0.95) rotate(-0.73)"/><path class="cls-3" d="M87.59,63.67c0,.35-.37.64-.84.64a.65.65,0,1,1,0-1.25C87.2,63.05,87.59,63.33,87.59,63.67Z"/><path class="cls-3" d="M82.26,60c0,.35-.37.63-.84.64s-.85-.27-.85-.62.37-.63.84-.63S82.26,59.7,82.26,60Z"/><path class="cls-3" d="M76.71,60.11c0,.31-.32.56-.73.56s-.75-.23-.75-.54.32-.55.73-.55S76.71,59.81,76.71,60.11Z"/><path class="cls-3" d="M84.45,62c0,.26-.28.48-.64.49s-.65-.21-.65-.47a.58.58,0,0,1,.64-.49C84.16,61.5,84.45,61.71,84.45,62Z"/><ellipse class="cls-3" cx="80.28" cy="63.49" rx="0.65" ry="0.48" transform="translate(-0.81 1.04) rotate(-0.74)"/><path class="cls-3" d="M86.74,60c0,.26-.29.48-.65.48a.58.58,0,0,1-.65-.47c0-.26.29-.48.64-.48A.58.58,0,0,1,86.74,60Z"/><path class="cls-3" d="M75.81,66c0,.27-.29.49-.66.5s-.66-.21-.67-.48a.6.6,0,0,1,.66-.5C75.51,65.54,75.81,65.76,75.81,66Z"/><path class="cls-3" d="M84.39,64.7c0,.22-.24.4-.54.41s-.55-.18-.55-.4.23-.41.54-.41S84.39,64.47,84.39,64.7Z"/><path class="cls-3" d="M77.52,63.8c0,.2-.21.36-.47.36s-.48-.15-.48-.34a.43.43,0,0,1,.47-.36C77.3,63.45,77.52,63.61,77.52,63.8Z"/><path class="cls-3" d="M79.72,61.2c0,.19-.21.35-.47.36s-.48-.15-.49-.35.21-.35.48-.36S79.72,61,79.72,61.2Z"/><path class="cls-9" d="M89,64.76c-.28,2.69-2.67,6.08-3,6s-4.14-.18-5.66-.76-7.07-1.87-7.07-1.87a2.89,2.89,0,0,1-1.64-2.53,3.25,3.25,0,0,0,2.19,1.79c1.75.21,9.72.88,12-.27S88.9,63,88.9,63A4.61,4.61,0,0,1,89,64.76Z"/><path class="cls-10" d="M34.48,107.65l-8.77,1.09L29.08,136l-7.69,1L18,109.69,9.4,110.76l-.73-5.92,25.08-3.11Z"/><path class="cls-10" d="M54.13,127.38l-9.92.63-1.5,6.61-8.15.52,8.73-34,4.14-.27v0l0,0,4.14-.27,13.05,32.65-8.15.52Zm-8.51-5.44,6.34-.4-3.78-10.15H48Z"/><path class="cls-10" d="M73.36,120.49v12.8H65.59l0-33.41H77.27c3.87,0,6.93.91,9.2,2.7a8.83,8.83,0,0,1,3.38,7.35,7.31,7.31,0,0,1-1.37,4.45,9.63,9.63,0,0,1-4,3,7.51,7.51,0,0,1,4.41,2.91,9,9,0,0,1,1.34,5.06v2.11a13.89,13.89,0,0,0,.38,3,3.93,3.93,0,0,0,1.36,2.39v.46h-8a3.72,3.72,0,0,1-1.19-2.51,21.45,21.45,0,0,1-.28-3.37v-2a5,5,0,0,0-1.26-3.65,5,5,0,0,0-3.69-1.27Zm0-6h3.92a5.33,5.33,0,0,0,3.59-1.06,3.83,3.83,0,0,0,1.24-3.06,4.43,4.43,0,0,0-1.27-3.3,4.93,4.93,0,0,0-3.59-1.25H73.38Z"/><path class="cls-10" d="M122.71,121.54a14,14,0,0,1-4.56,9.9,13.67,13.67,0,0,1-10.47,3.34,13.63,13.63,0,0,1-13.3-15.08l.39-6a14,14,0,0,1,4.59-9.89,15.1,15.1,0,0,1,20.46,1.33,13.9,13.9,0,0,1,3.28,10.4ZM115.39,115a9.65,9.65,0,0,0-1.31-6,6.13,6.13,0,0,0-9.54-.63,9.76,9.76,0,0,0-2.05,5.77l-.39,6a9.74,9.74,0,0,0,1.3,6,5.61,5.61,0,0,0,4.67,2.6,5.49,5.49,0,0,0,4.87-2,9.77,9.77,0,0,0,2-5.8Z"/><path class="cls-10" d="M150.89,111.08l-8.77-1-3.26,27.26-7.71-.92,3.27-27.26-8.62-1,.71-5.92,25.09,3Z"/><path class="cls-2" d="M34.48,107.65l-8.77,1.09L29.08,136l-7.69,1L18,109.69,9.4,110.76l-.73-5.92,25.08-3.11Z"/><path class="cls-2" d="M54.13,127.38l-9.92.63-1.5,6.61-8.15.52,8.73-34,4.14-.27v0l0,0,4.14-.27,13.05,32.65-8.15.52Zm-8.51-5.44,6.34-.4-3.78-10.15H48Z"/><path class="cls-2" d="M73.36,120.49v12.8H65.59l0-33.41H77.27c3.87,0,6.93.91,9.2,2.7a8.83,8.83,0,0,1,3.38,7.35,7.31,7.31,0,0,1-1.37,4.45,9.63,9.63,0,0,1-4,3,7.51,7.51,0,0,1,4.41,2.91,9,9,0,0,1,1.34,5.06v2.11a13.89,13.89,0,0,0,.38,3,3.93,3.93,0,0,0,1.36,2.39v.46h-8a3.72,3.72,0,0,1-1.19-2.51,21.45,21.45,0,0,1-.28-3.37v-2a5,5,0,0,0-1.26-3.65,5,5,0,0,0-3.69-1.27Zm0-6h3.92a5.33,5.33,0,0,0,3.59-1.06,3.83,3.83,0,0,0,1.24-3.06,4.43,4.43,0,0,0-1.27-3.3,4.93,4.93,0,0,0-3.59-1.25H73.38Z"/><path class="cls-2" d="M122.71,121.54a14,14,0,0,1-4.56,9.9,13.67,13.67,0,0,1-10.47,3.34,13.63,13.63,0,0,1-13.3-15.08l.39-6a14,14,0,0,1,4.59-9.89,15.1,15.1,0,0,1,20.46,1.33,13.9,13.9,0,0,1,3.28,10.4ZM115.39,115a9.65,9.65,0,0,0-1.31-6,6.13,6.13,0,0,0-9.54-.63,9.76,9.76,0,0,0-2.05,5.77l-.39,6a9.74,9.74,0,0,0,1.3,6,5.61,5.61,0,0,0,4.67,2.6,5.49,5.49,0,0,0,4.87-2,9.77,9.77,0,0,0,2-5.8Z"/><path class="cls-2" d="M150.89,111.08l-8.77-1-3.26,27.26-7.71-.92,3.27-27.26-8.62-1,.71-5.92,25.09,3Z"/><g class="cls-11"><polygon class="cls-12" points="18.45 109.13 9.84 110.2 9.23 105.27 33.31 102.29 33.92 107.22 25.15 108.3 28.53 135.54 21.82 136.37 18.45 109.13"/><path class="cls-2" d="M32.88,102.85l.48,3.93-7.77,1-1,.12.12,1L28,135.11l-5.71.71L19,109.57l-.13-1-1,.12-7.62.94-.48-3.94,23.09-2.85m.87-1.12L8.67,104.84l.73,5.92L18,109.69l3.38,27.24,7.69-1-3.37-27.24,8.77-1.09-.73-5.92Z"/><path class="cls-13" d="M43.68,101.57l3.29-.21,0,.72.68-.77,3.58-.23,12.66,31.67-7.1.46-2.36-6.36-10.66.69-1.51,6.6-7.09.46Zm4,9.35L45,122.49l7.69-.5-4.15-11.13Z"/><path class="cls-2" d="M50.94,101.61,63.21,132.3l-6,.39L55.07,127l-.26-.7-.74,0-9.92.64-.74,0-.17.73-1.34,5.88-6,.39,8.21-32,2.43-.16.11,1.45,1.32-1.54,3-.19M44.34,123l1.34-.09,6.35-.41,1.34-.08-.47-1.26L49.12,111l-.26-.7-.74,0H48l-.74,0-.17.73-2.43,10.55-.3,1.31m7.26-22.47-4.14.27,0,0v0l-4.14.27-8.73,34,8.15-.52,1.5-6.61,9.92-.63,2.37,6.35,8.15-.52L51.6,100.56Zm-6,21.38L48,111.39h.14L52,121.54l-6.34.4Z"/><path class="cls-14" d="M84.11,132.81a3.57,3.57,0,0,1-.88-2.08,21.86,21.86,0,0,1-.27-3.3v-2a5.41,5.41,0,0,0-1.41-4,5.46,5.46,0,0,0-4-1.42H72.86v12.8H66.09l0-32.41H77.27c3.73,0,6.72.88,8.88,2.59a8.3,8.3,0,0,1,3.2,7,6.84,6.84,0,0,1-1.27,4.15,9.18,9.18,0,0,1-3.83,2.86L83,117.5l1.33.38a7,7,0,0,1,4.14,2.71,8.56,8.56,0,0,1,1.25,4.78v2.11a13.72,13.72,0,0,0,.4,3.1,5,5,0,0,0,1.05,2.23ZM72.87,115h4.42a5.8,5.8,0,0,0,3.91-1.18,4.31,4.31,0,0,0,1.42-3.44,4.94,4.94,0,0,0-1.42-3.65,5.39,5.39,0,0,0-3.94-1.4H72.88Z"/><path class="cls-2" d="M66.63,100.87H77.26c3.63,0,6.51.84,8.58,2.48a7.83,7.83,0,0,1,3,6.57,6.3,6.3,0,0,1-1.17,3.86,9,9,0,0,1-3.63,2.7L81.5,117.6l2.68.76a6.59,6.59,0,0,1,3.85,2.5,8.06,8.06,0,0,1,1.17,4.51v2.11a14.62,14.62,0,0,0,.41,3.21,6.28,6.28,0,0,0,.59,1.62H84.33a3.54,3.54,0,0,1-.61-1.66,22,22,0,0,1-.26-3.22v-2a5.41,5.41,0,0,0-6-5.92H72.36v12.8H66.59l0-31.41m10.68,14.65h0a6.28,6.28,0,0,0,4.22-1.3,4.8,4.8,0,0,0,1.59-3.82,5.42,5.42,0,0,0-1.57-4,5.88,5.88,0,0,0-4.29-1.54H72.38v10.68h4.94M65.63,99.87l0,33.41h7.76v-12.8h4.16a5,5,0,0,1,3.69,1.27,5,5,0,0,1,1.26,3.65v2a21.45,21.45,0,0,0,.28,3.37,3.72,3.72,0,0,0,1.19,2.51h8v-.46a3.93,3.93,0,0,1-1.36-2.39,13.89,13.89,0,0,1-.38-3v-2.11a9,9,0,0,0-1.34-5.06,7.51,7.51,0,0,0-4.41-2.91,9.63,9.63,0,0,0,4-3,7.31,7.31,0,0,0,1.37-4.45,8.83,8.83,0,0,0-3.38-7.35c-2.27-1.79-5.33-2.69-9.2-2.7Zm11.68,14.65H73.37v-8.67h3.88a4.93,4.93,0,0,1,3.59,1.25,4.43,4.43,0,0,1,1.27,3.3,3.83,3.83,0,0,1-1.24,3.06,5.34,5.34,0,0,1-3.57,1.06Z"/><path class="cls-15" d="M108.9,134.32c-.38,0-.78,0-1.18,0a13.12,13.12,0,0,1-12.84-14.55l.39-6a13.57,13.57,0,0,1,4.42-9.55,13,13,0,0,1,9-3.25c.39,0,.79,0,1.2,0a13.26,13.26,0,0,1,9.6,4.5,13.46,13.46,0,0,1,3.16,10l-.39,6a13.48,13.48,0,0,1-4.4,9.56A12.85,12.85,0,0,1,108.9,134.32Zm0-28.41a6,6,0,0,0-4.8,2.16,10.32,10.32,0,0,0-2.16,6.05l-.39,6a10.27,10.27,0,0,0,1.38,6.32,6.12,6.12,0,0,0,5.06,2.83l.53,0a5.89,5.89,0,0,0,4.75-2.18,10.29,10.29,0,0,0,2.17-6.09l.4-6a10.28,10.28,0,0,0-1.38-6.28,6.1,6.1,0,0,0-5-2.83Z"/><path class="cls-2" d="M108.64,100.43v1c.38,0,.77,0,1.16,0a12.64,12.64,0,0,1,9.26,4.32,12.84,12.84,0,0,1,3,9.69l-.39,6a12.86,12.86,0,0,1-4.23,9.22,12.26,12.26,0,0,1-8.58,3.12c-.37,0-.76,0-1.15,0a12.63,12.63,0,0,1-12.37-14l.39-6a12.82,12.82,0,0,1,4.26-9.21,12.3,12.3,0,0,1,8.61-3.13v-1m-.07,29.41a6.4,6.4,0,0,0,5.14-2.36,10.84,10.84,0,0,0,2.28-6.37l.39-6a10.72,10.72,0,0,0-1.45-6.58,6.54,6.54,0,0,0-5.38-3c-.21,0-.4,0-.6,0a6.44,6.44,0,0,0-5.18,2.34,10.7,10.7,0,0,0-2.27,6.34l-.4,6a10.73,10.73,0,0,0,1.46,6.62,6.62,6.62,0,0,0,5.45,3.06l.56,0m.07-29.41a13.43,13.43,0,0,0-9.28,3.38,14,14,0,0,0-4.59,9.89l-.39,6a13.63,13.63,0,0,0,13.3,15.08c.42,0,.82,0,1.22,0a13.35,13.35,0,0,0,9.25-3.38,14,14,0,0,0,4.56-9.9l.39-6a13.9,13.9,0,0,0-3.28-10.4,13.72,13.72,0,0,0-9.95-4.67c-.42,0-.83,0-1.23,0Zm-.07,28.41-.5,0a5.61,5.61,0,0,1-4.67-2.6,9.74,9.74,0,0,1-1.3-6l.39-6a9.76,9.76,0,0,1,2.05-5.77,5.45,5.45,0,0,1,4.41-2h.53a5.57,5.57,0,0,1,4.6,2.6,9.65,9.65,0,0,1,1.31,6L115,121a9.77,9.77,0,0,1-2,5.8,5.42,5.42,0,0,1-4.37,2Z"/><polygon class="cls-16" points="131.71 135.93 134.97 108.67 126.36 107.64 126.95 102.71 151.04 105.6 150.45 110.53 141.68 109.48 138.42 136.73 131.71 135.93"/><path class="cls-2" d="M127.38,103.27,150.49,106,150,110l-7.78-.93-1-.12-.12,1L138,136.18l-5.71-.69,3.14-26.26.12-1-1-.12-7.62-.91.47-3.94m-.87-1.11-.71,5.92,8.62,1-3.27,27.26,7.71.92L142.12,110l8.77,1,.71-5.92-25.09-3Z"/></g></svg>